<svg xmlns="http://www.w3.org/2000/svg" viewBox="0 0 105.8 105.8"><defs><style>.cls-1{fill:#8b9a46;}.cls-2{fill:#665c4c;}.cls-3{fill:none;}</style></defs><g id="Calque_2" data-name="Calque 2"><g id="PRINT"><g id="CUSTOM-group"><path class="cls-1" d="M79.55,24.9a1.66,1.66,0,1,0-1.17-2.83,1.64,1.64,0,0,0-.49,1.17,1.66,1.66,0,0,0,.49,1.17A1.68,1.68,0,0,0,79.55,24.9Z"/><path class="cls-1" d="M94.59,49.14h.66a78.5,78.5,0,0,0-14,1.27V46.82c6-5.08,9.29-11.73,9.29-18.82,0-7.33-3.52-14.19-9.91-19.33a1.66,1.66,0,0,0-2.08,0c-6.39,5.14-9.91,12-9.91,19.33,0,7.09,3.29,13.74,9.29,18.82v4.26a79.28,79.28,0,0,0-9.3,2.74V44.1a1.65,1.65,0,0,0-.49-1.17h0l-9.29-9.35a1.64,1.64,0,0,0-1.18-.49h-19a1.66,1.66,0,0,0-1.18.49l-9.29,9.35h0a1.64,1.64,0,0,0-.48,1.17v6.34c-1.16-.21-2.32-.4-3.49-.56V44a18.93,18.93,0,0,0,7-14.41c0-5.67-2.72-11-7.65-14.94a1.68,1.68,0,0,0-2.08,0c-4.93,4-7.65,9.27-7.65,14.94a18.93,18.93,0,0,0,7,14.41V49.5c-2.42-.23-4.86-.35-7.3-.35a1.66,1.66,0,0,0,0,3.32,74.92,74.92,0,0,1,37.7,10.18,77.15,77.15,0,0,0-7.84,6.09,66,66,0,0,0-29.86-7.22,1.66,1.66,0,0,0,0,3.32,62.72,62.72,0,0,1,27.25,6.31A78,78,0,0,0,33.78,79a51.88,51.88,0,0,0-20.19-4.08,1.66,1.66,0,0,0,0,3.32,48.45,48.45,0,0,1,18.12,3.51Q30,84.1,28.45,86.62l-2.53,4.14A1.66,1.66,0,0,0,26.47,93a1.62,1.62,0,0,0,.87.25,1.66,1.66,0,0,0,1.41-.8l2.53-4.14a74.66,74.66,0,0,1,4.27-6.24l.16-.21A75.63,75.63,0,0,1,79.88,54.07h0a73.46,73.46,0,0,1,15.35-1.62h-.65a1.66,1.66,0,0,0,0-3.31Zm-72-22.58a1.66,1.66,0,0,0-1.66,1.66v11a15,15,0,0,1-3.71-9.71A15.52,15.52,0,0,1,22.55,18.1a15.52,15.52,0,0,1,5.37,11.45,15,15,0,0,1-3.71,9.71v-11A1.66,1.66,0,0,0,22.55,26.56ZM38.65,37.1,44,42.44H33.35Zm2,16.88c-1.31-.49-2.64-.94-4-1.35V51.37h4Zm5.65,2.33c-.77-.35-1.55-.69-2.33-1V49.71a1.66,1.66,0,0,0-1.66-1.66H35a1.66,1.66,0,0,0-1.66,1.66v2c-.77-.2-1.55-.39-2.32-.57V45.76H46.29Zm-3.65-19.9h14.3l6,6H48.64Zm22.63,18.7a75.89,75.89,0,0,0-8.32,4c-.86.48-1.71,1-2.55,1.5Q52,59.2,49.61,57.94V45.76H65.27ZM79.55,27.89a1.66,1.66,0,0,0-1.66,1.66V42.26a20.68,20.68,0,0,1-6-14.26c0-5.9,2.7-11.49,7.63-15.87,4.94,4.38,7.63,10,7.63,15.87a20.64,20.64,0,0,1-6,14.26V29.55A1.66,1.66,0,0,0,79.55,27.89Z"/></g><path class="cls-2" d="M49.87,93.12h-3v-3h-6v3h-3V84.18a5.83,5.83,0,0,1,.47-2.32A6.09,6.09,0,0,1,39.68,80a6,6,0,0,1,1.9-1.28,6,6,0,0,1,4.64,0,6,6,0,0,1,3.18,3.18,5.83,5.83,0,0,1,.47,2.32Zm-3-6v-3A2.86,2.86,0,0,0,46.65,83a3,3,0,0,0-1.59-1.59,3,3,0,0,0-1.16-.23,3,3,0,0,0-1.16.23A3,3,0,0,0,41.15,83a2.86,2.86,0,0,0-.23,1.16v3Z"/><path class="cls-2" d="M64.32,91.61a7.73,7.73,0,0,1-7,1.56,7.33,7.33,0,0,1-1.84-.78,8,8,0,0,1-1.56-1.21,7,7,0,0,1-1.2-1.56,7.55,7.55,0,0,1-1.05-3.89,7.61,7.61,0,0,1,.27-2,7.82,7.82,0,0,1,.78-1.83,7.61,7.61,0,0,1,2.76-2.76,8.15,8.15,0,0,1,1.84-.78,7.61,7.61,0,0,1,2-.27,7.49,7.49,0,0,1,2.66.47,7.74,7.74,0,0,1,2.32,1.36l-1.56,2.6A5,5,0,0,0,61.2,81.4,4.56,4.56,0,0,0,59.34,81a4.76,4.76,0,0,0-1.84.37,4.86,4.86,0,0,0-1.5,1,4.7,4.7,0,0,0-1,1.49,4.79,4.79,0,0,0,0,3.69,4.79,4.79,0,0,0,1,1.51,4.86,4.86,0,0,0,1.5,1,4.58,4.58,0,0,0,1.84.37,4.4,4.4,0,0,0,1.09-.13,5.12,5.12,0,0,0,1-.38V85.73h2.88Z"/><path class="cls-2" d="M69.6,93.12h-3V78.21h6a5.58,5.58,0,0,1,1.58.22,5.87,5.87,0,0,1,1.41.6,5.78,5.78,0,0,1,1.21.94,5.86,5.86,0,0,1,.94,1.21,5.88,5.88,0,0,1,.81,3,5.82,5.82,0,0,1-.19,1.5,6.31,6.31,0,0,1-.55,1.38,5.76,5.76,0,0,1-.88,1.21,6.25,6.25,0,0,1-1.16,1l1.65,3.9H74.24l-1.3-3-3.34,0Zm0-11.92v6h3a2.82,2.82,0,0,0,1.15-.24,3.24,3.24,0,0,0,1-.64,2.92,2.92,0,0,0,.63-1,2.83,2.83,0,0,0,.24-1.16A2.87,2.87,0,0,0,75.32,83a2.92,2.92,0,0,0-.63-1,3.24,3.24,0,0,0-1-.64,3,3,0,0,0-1.15-.23Z"/><path class="cls-2" d="M95.1,85.73a7.61,7.61,0,0,1-.27,2,7.92,7.92,0,0,1-2,3.41,8,8,0,0,1-1.56,1.21,7.33,7.33,0,0,1-1.84.78,7.74,7.74,0,0,1-2,.27,7.61,7.61,0,0,1-2-.27,7.33,7.33,0,0,1-1.84-.78A8,8,0,0,1,82,91.18a7.73,7.73,0,0,1-1.21-1.57A8.15,8.15,0,0,1,80,87.77a7.61,7.61,0,0,1-.27-2,7.74,7.74,0,0,1,.27-2,8.15,8.15,0,0,1,.78-1.84A8,8,0,0,1,82,80.28a7.6,7.6,0,0,1,1.57-1.2,7.72,7.72,0,0,1,1.84-.78,7.61,7.61,0,0,1,2-.27,7.55,7.55,0,0,1,3.89,1,7.61,7.61,0,0,1,2.76,2.76,7.33,7.33,0,0,1,.78,1.84A7.74,7.74,0,0,1,95.1,85.73Zm-3,0a4.55,4.55,0,0,0-.37-1.84,4.68,4.68,0,0,0-1-1.51,4.75,4.75,0,0,0-1.5-1,4.81,4.81,0,0,0-3.7,0,4.79,4.79,0,0,0-1.51,1,4.68,4.68,0,0,0-1,1.51,4.76,4.76,0,0,0,0,3.68,4.86,4.86,0,0,0,1,1.5,4.79,4.79,0,0,0,1.51,1,4.81,4.81,0,0,0,3.7,0,4.75,4.75,0,0,0,1.5-1,4.86,4.86,0,0,0,1-1.5A4.58,4.58,0,0,0,92.14,85.73Z"/><rect class="cls-3" width="105.8" height="105.8"/></g></g></svg>