<svg xmlns="http://www.w3.org/2000/svg" viewBox="0 0 356.45 105.8"><defs><style>.cls-1{fill:#8b9a46;}.cls-2{fill:#665c4c;}.cls-3{fill:none;}</style></defs><g id="Calque_2" data-name="Calque 2"><g id="PRINT"><g id="CUSTOM-group"><path class="cls-1" d="M89.75,24.9a1.68,1.68,0,0,0,1.18-.49,1.65,1.65,0,0,0,.48-1.17,1.63,1.63,0,0,0-.48-1.17,1.65,1.65,0,0,0-2.35,0,1.64,1.64,0,0,0-.49,1.17,1.66,1.66,0,0,0,.49,1.17A1.68,1.68,0,0,0,89.75,24.9Z"/><path class="cls-1" d="M118.36,49.14h-12.9a78.69,78.69,0,0,0-14,1.27V46.82c6-5.08,9.3-11.73,9.3-18.82,0-7.33-3.52-14.19-9.92-19.33a1.66,1.66,0,0,0-2.08,0c-6.39,5.14-9.91,12-9.91,19.33,0,7.09,3.29,13.74,9.29,18.82v4.26a79.28,79.28,0,0,0-9.3,2.74V44.1a1.68,1.68,0,0,0-.48-1.17h0L69,33.58a1.64,1.64,0,0,0-1.18-.49h-19a1.62,1.62,0,0,0-1.17.49l-9.3,9.35h0a1.64,1.64,0,0,0-.48,1.17v6.34c-1.16-.21-2.32-.4-3.49-.56V44a18.93,18.93,0,0,0,7-14.41c0-5.67-2.72-11-7.65-14.94a1.68,1.68,0,0,0-2.08,0c-4.93,4-7.64,9.27-7.64,14.94a19,19,0,0,0,7,14.41V49.5q-3.63-.34-7.3-.35a1.66,1.66,0,0,0,0,3.32,74.92,74.92,0,0,1,37.7,10.18,78.28,78.28,0,0,0-7.84,6.09,66,66,0,0,0-29.86-7.22,1.66,1.66,0,0,0,0,3.32A62.69,62.69,0,0,1,51,71.15,79.23,79.23,0,0,0,44,79a51.88,51.88,0,0,0-20.19-4.08,1.66,1.66,0,0,0,0,3.32,48.45,48.45,0,0,1,18.12,3.51q-1.71,2.39-3.26,4.91l-2.53,4.14A1.66,1.66,0,0,0,36.67,93a1.62,1.62,0,0,0,.87.25,1.68,1.68,0,0,0,1.42-.8l2.53-4.14a72.22,72.22,0,0,1,4.26-6.24l.16-.21A75.63,75.63,0,0,1,90.08,54.07h0a73.46,73.46,0,0,1,15.35-1.62h12.92a1.66,1.66,0,0,0,0-3.31ZM32.75,26.56a1.66,1.66,0,0,0-1.66,1.66v11a15,15,0,0,1-3.7-9.71A15.51,15.51,0,0,1,32.75,18.1a15.52,15.52,0,0,1,5.37,11.45,15,15,0,0,1-3.71,9.71v-11A1.66,1.66,0,0,0,32.75,26.56ZM48.85,37.1l5.31,5.34H43.55Zm2,16.88q-2-.73-4-1.35V51.37h4Zm5.64,2.33c-.77-.35-1.54-.69-2.32-1V49.71a1.67,1.67,0,0,0-1.66-1.66H45.2a1.67,1.67,0,0,0-1.66,1.66v2c-.77-.2-1.54-.39-2.32-.57V45.76H56.49Zm-3.64-19.9H67.14l6,6H58.84Zm22.62,18.7a77.69,77.69,0,0,0-8.32,4c-.86.48-1.71,1-2.55,1.5q-2.35-1.44-4.79-2.7V45.76H75.47ZM89.75,27.89a1.66,1.66,0,0,0-1.66,1.66V42.26a20.68,20.68,0,0,1-6-14.26c0-5.9,2.7-11.49,7.63-15.87,4.94,4.38,7.64,10,7.64,15.87a20.65,20.65,0,0,1-6,14.26V29.55A1.66,1.66,0,0,0,89.75,27.89Z"/></g><path class="cls-2" d="M178.52,63.18h-11v-11H145.62v11H134.69V30.32a21.47,21.47,0,0,1,1.72-8.54,22.36,22.36,0,0,1,4.68-7,21.87,21.87,0,0,1,7-4.7,22.06,22.06,0,0,1,17.08,0A22,22,0,0,1,176.8,21.78a21.3,21.3,0,0,1,1.72,8.54Zm-11-21.9v-11a10.6,10.6,0,0,0-.86-4.26,10.94,10.94,0,0,0-2.35-3.5,11.06,11.06,0,0,0-3.49-2.35,11,11,0,0,0-8.52,0,11,11,0,0,0-3.5,2.35,11.11,11.11,0,0,0-2.35,3.5,10.77,10.77,0,0,0-.86,4.26v11Z"/><path class="cls-2" d="M231.63,57.64a28.32,28.32,0,0,1-25.81,5.71,27.65,27.65,0,0,1-6.74-2.87,29.23,29.23,0,0,1-5.74-4.43,28,28,0,0,1-4.43-5.73,28.66,28.66,0,0,1-2.84-6.78,27.7,27.7,0,0,1-1-7.53,27.31,27.31,0,0,1,1-7.49,28.9,28.9,0,0,1,2.84-6.74,28,28,0,0,1,4.43-5.73,29.18,29.18,0,0,1,5.74-4.42,28.37,28.37,0,0,1,6.74-2.84,27.51,27.51,0,0,1,7.51-1,28.14,28.14,0,0,1,18.3,6.73l-5.73,9.55a18.41,18.41,0,0,0-5.73-3.95A17.06,17.06,0,0,0,206.59,20a17.91,17.91,0,0,0-5.53,3.73,17.52,17.52,0,0,0-3.74,5.5A16.62,16.62,0,0,0,195.94,36a16.84,16.84,0,0,0,1.38,6.8,17.64,17.64,0,0,0,9.27,9.29,16.75,16.75,0,0,0,6.74,1.37,16.25,16.25,0,0,0,4-.49,18.13,18.13,0,0,0,3.71-1.38V36h10.58Z"/><path class="cls-2" d="M251,63.18h-11V8.39H262a21.37,21.37,0,0,1,5.8.78A22,22,0,0,1,273,11.38a22.39,22.39,0,0,1,4.43,3.44,22.2,22.2,0,0,1,5.66,9.69,21.5,21.5,0,0,1,.78,5.81,21.06,21.06,0,0,1-.71,5.5,22.35,22.35,0,0,1-2,5.08,21.89,21.89,0,0,1-7.51,8l6.08,14.33H268.08l-4.77-11L251,52.21Zm0-43.83V41.28h11a10.47,10.47,0,0,0,4.24-.86,11,11,0,0,0,5.83-5.84,11.1,11.1,0,0,0,0-8.52,11,11,0,0,0-5.83-5.85,10.64,10.64,0,0,0-4.24-.86Z"/><path class="cls-2" d="M344.77,36a27.51,27.51,0,0,1-1,7.51,28.69,28.69,0,0,1-2.84,6.76A28,28,0,0,1,336.48,56a28.81,28.81,0,0,1-5.73,4.45A27.7,27.7,0,0,1,324,63.35a28.17,28.17,0,0,1-21.8-2.87A28.37,28.37,0,0,1,296.43,56,28.82,28.82,0,0,1,292,50.28a28.33,28.33,0,0,1-2.86-6.76,28.23,28.23,0,0,1,0-15A28,28,0,0,1,292,21.72,29,29,0,0,1,296.43,16a28.27,28.27,0,0,1,5.75-4.43A29,29,0,0,1,309,8.71a28.46,28.46,0,0,1,15,0A28.17,28.17,0,0,1,336.48,16a28.06,28.06,0,0,1,7.27,12.49A27.7,27.7,0,0,1,344.77,36Zm-10.89,0a16.92,16.92,0,0,0-1.38-6.78A17.36,17.36,0,0,0,323.24,20a17.54,17.54,0,0,0-13.59,0,18,18,0,0,0-5.54,3.73,17.47,17.47,0,0,0-3.74,5.54A16.92,16.92,0,0,0,299,36a16.67,16.67,0,0,0,1.38,6.75A17.61,17.61,0,0,0,309.65,52a17.42,17.42,0,0,0,13.59,0,17.58,17.58,0,0,0,5.54-3.74,18,18,0,0,0,3.72-5.52A16.67,16.67,0,0,0,333.88,36Z"/><path class="cls-2" d="M199.66,90.85l-2-2.35a7.13,7.13,0,0,1-1.67.2,6.72,6.72,0,0,1-3.34-.85,6.38,6.38,0,0,1-2.41-2.37,7,7,0,0,1,0-6.83,6.38,6.38,0,0,1,2.41-2.37,7,7,0,0,1,6.69,0,6.35,6.35,0,0,1,2.4,2.37,6.61,6.61,0,0,1,.88,3.41,6.82,6.82,0,0,1-.73,3.14,6.31,6.31,0,0,1-2,2.31l3,3.34Zm-7.11-6.51a3.59,3.59,0,0,0,1.4,1.51,4,4,0,0,0,2.07.53,4,4,0,0,0,2.06-.53,3.59,3.59,0,0,0,1.4-1.51,5,5,0,0,0,.5-2.28,5,5,0,0,0-.5-2.28,3.54,3.54,0,0,0-1.4-1.49,4,4,0,0,0-2.06-.52,4,4,0,0,0-2.07.52,3.54,3.54,0,0,0-1.4,1.49,5,5,0,0,0-.5,2.28A5,5,0,0,0,192.55,84.34Z"/><path class="cls-2" d="M214.33,78.29V88.57h-2.62v-1.3a3.39,3.39,0,0,1-1.31,1,4.12,4.12,0,0,1-1.76.38,4.36,4.36,0,0,1-2.13-.51,3.58,3.58,0,0,1-1.46-1.5,5,5,0,0,1-.53-2.37v-6h2.6V84a2.63,2.63,0,0,0,.62,1.88,2.15,2.15,0,0,0,1.67.66,2.17,2.17,0,0,0,1.68-.66,2.63,2.63,0,0,0,.62-1.88V78.29Z"/><path class="cls-2" d="M216.84,80.63a4.45,4.45,0,0,1,4.07-2.51,4.21,4.21,0,0,1,2,.47,4.15,4.15,0,0,1,1.38,1.16V78.29h2.62V88.57h-2.62v-1.5a3.88,3.88,0,0,1-1.38,1.2,4.57,4.57,0,0,1-4.4-.2,4.61,4.61,0,0,1-1.69-1.88,6,6,0,0,1-.62-2.8A5.85,5.85,0,0,1,216.84,80.63Zm7.1,1.18a2.57,2.57,0,0,0-1-1,2.6,2.6,0,0,0-1.36-.37,2.55,2.55,0,0,0-1.33.36,2.68,2.68,0,0,0-1,1,3.24,3.24,0,0,0-.38,1.6,3.41,3.41,0,0,0,.38,1.63,2.72,2.72,0,0,0,1,1.06,2.5,2.5,0,0,0,1.32.38,2.6,2.6,0,0,0,1.36-.37,2.57,2.57,0,0,0,1-1,3.73,3.73,0,0,0,0-3.24Z"/><path class="cls-2" d="M232.07,74.84V88.57h-2.6V74.84Z"/><path class="cls-2" d="M234.81,76.63a1.44,1.44,0,0,1-.46-1.09,1.45,1.45,0,0,1,.46-1.09,1.73,1.73,0,0,1,2.28,0,1.45,1.45,0,0,1,.46,1.09,1.44,1.44,0,0,1-.46,1.09,1.73,1.73,0,0,1-2.28,0Zm2.42,1.66V88.57h-2.6V78.29Z"/><path class="cls-2" d="M242.82,80.42v5a1,1,0,0,0,.25.75,1.26,1.26,0,0,0,.84.23h1.21v2.19h-1.63q-3.28,0-3.29-3.19v-5H239V78.29h1.22V75.74h2.62v2.55h2.3v2.13Z"/><path class="cls-2" d="M256.83,78.29l-6.36,15.15H247.7l2.23-5.13-4.12-10h2.91l2.66,7.18,2.69-7.18Z"/><path class="cls-2" d="M271.6,81.57A3.6,3.6,0,0,1,270.06,83a5.62,5.62,0,0,1-2.65.56h-2.17v5h-2.6v-13h4.77a5.74,5.74,0,0,1,2.57.53,3.6,3.6,0,0,1,1.58,1.42,4.2,4.2,0,0,1,0,4ZM268.9,81a1.81,1.81,0,0,0,.52-1.39c0-1.26-.71-1.89-2.12-1.89h-2.06V81.5h2.06A2.25,2.25,0,0,0,268.9,81Z"/><path class="cls-2" d="M277.84,78.6a3.62,3.62,0,0,1,1.84-.46v2.73H279a2.64,2.64,0,0,0-1.85.57,2.7,2.7,0,0,0-.62,2v5.12h-2.6V78.29h2.6v1.59A3.65,3.65,0,0,1,277.84,78.6Z"/><path class="cls-2" d="M283.32,88.08a4.71,4.71,0,0,1-1.86-1.87,6,6,0,0,1,0-5.56,4.84,4.84,0,0,1,1.91-1.87,5.81,5.81,0,0,1,5.38,0,4.81,4.81,0,0,1,1.9,1.87,5.39,5.39,0,0,1,.7,2.78,5.31,5.31,0,0,1-.72,2.78,4.89,4.89,0,0,1-1.93,1.87,5.57,5.57,0,0,1-2.71.66A5.4,5.4,0,0,1,283.32,88.08Zm4-2a2.49,2.49,0,0,0,1-1,3.55,3.55,0,0,0,.37-1.67,3.13,3.13,0,0,0-.77-2.26,2.57,2.57,0,0,0-1.89-.78,2.48,2.48,0,0,0-1.86.78,3.17,3.17,0,0,0-.76,2.26,3.2,3.2,0,0,0,.74,2.26,2.42,2.42,0,0,0,1.85.78A2.68,2.68,0,0,0,287.32,86.13Z"/><path class="cls-2" d="M293.22,80.63a4.48,4.48,0,0,1,4.1-2.51,4.38,4.38,0,0,1,1.91.44,3.74,3.74,0,0,1,1.45,1.16V74.84h2.63V88.57h-2.63V87.05a3.43,3.43,0,0,1-1.36,1.22,4.21,4.21,0,0,1-2,.47,4.39,4.39,0,0,1-2.38-.67,4.71,4.71,0,0,1-1.7-1.88,6.14,6.14,0,0,1-.62-2.8A6,6,0,0,1,293.22,80.63Zm7.11,1.18a2.66,2.66,0,0,0-4.69,0,3.13,3.13,0,0,0-.38,1.6,3.3,3.3,0,0,0,.38,1.63,2.7,2.7,0,0,0,1,1.06,2.53,2.53,0,0,0,1.33.38,2.71,2.71,0,0,0,2.36-1.41,3.73,3.73,0,0,0,0-3.24Z"/><path class="cls-2" d="M315.56,78.29V88.57H313v-1.3a3.39,3.39,0,0,1-1.31,1,4.12,4.12,0,0,1-1.76.38,4.36,4.36,0,0,1-2.13-.51,3.58,3.58,0,0,1-1.46-1.5,5,5,0,0,1-.53-2.37v-6h2.6V84a2.67,2.67,0,0,0,.61,1.88,2.47,2.47,0,0,0,3.36,0A2.63,2.63,0,0,0,313,84V78.29Z"/><path class="cls-2" d="M318.11,80.64a4.61,4.61,0,0,1,1.8-1.86,5.16,5.16,0,0,1,2.63-.66,5.07,5.07,0,0,1,3.17,1,4.68,4.68,0,0,1,1.68,2.68h-2.8a2,2,0,0,0-.76-1.05,2.18,2.18,0,0,0-1.31-.38,2.13,2.13,0,0,0-1.76.81,3.59,3.59,0,0,0-.65,2.29,3.53,3.53,0,0,0,.65,2.27,2.13,2.13,0,0,0,1.76.81,2,2,0,0,0,2.07-1.41h2.8a4.82,4.82,0,0,1-1.69,2.66,5,5,0,0,1-3.16,1,5.16,5.16,0,0,1-2.63-.66,4.61,4.61,0,0,1-1.8-1.86,6.31,6.31,0,0,1,0-5.58Z"/><path class="cls-2" d="M332.33,80.42v5a1,1,0,0,0,.25.75,1.24,1.24,0,0,0,.84.23h1.21v2.19H333q-3.28,0-3.28-3.19v-5h-1.23V78.29h1.23V75.74h2.62v2.55h2.3v2.13Z"/><path class="cls-2" d="M338.17,88.28a3.93,3.93,0,0,1-1.58-1.23,3.09,3.09,0,0,1-.64-1.73h2.61a1.44,1.44,0,0,0,.59,1,2,2,0,0,0,1.27.39,2,2,0,0,0,1.16-.3.9.9,0,0,0,.42-.76.8.8,0,0,0-.51-.75,9.65,9.65,0,0,0-1.63-.55,13.88,13.88,0,0,1-1.88-.58,3.14,3.14,0,0,1-1.26-.91,2.37,2.37,0,0,1-.53-1.65,2.65,2.65,0,0,1,.49-1.56,3.31,3.31,0,0,1,1.41-1.11,5.3,5.3,0,0,1,2.16-.41,4.44,4.44,0,0,1,2.94.92,3.38,3.38,0,0,1,1.2,2.48H341.9a1.31,1.31,0,0,0-.51-1,1.88,1.88,0,0,0-1.21-.36,2,2,0,0,0-1.09.26.87.87,0,0,0,.14,1.51,7.81,7.81,0,0,0,1.62.55,13.84,13.84,0,0,1,1.83.58,3.14,3.14,0,0,1,1.26.92,2.51,2.51,0,0,1,.54,1.64,2.68,2.68,0,0,1-.49,1.59,3.23,3.23,0,0,1-1.41,1.11,5.27,5.27,0,0,1-2.14.4A5.35,5.35,0,0,1,338.17,88.28Z"/><rect class="cls-3" width="356.45" height="105.8"/></g></g></svg>