<svg xmlns="http://www.w3.org/2000/svg" viewBox="0 0 469.28 218.95"><defs><style>.cls-1{fill:#8b9a46;}.cls-2{fill:#665c4c;}.cls-3{fill:none;}</style></defs><g id="Calque_2" data-name="Calque 2"><g id="PRINT"><g id="CUSTOM-group"><path class="cls-1" d="M185.73,51.53a3.45,3.45,0,1,0-2.42-1A3.45,3.45,0,0,0,185.73,51.53Z"/><path class="cls-1" d="M395,101.69H218.49a2.06,2.06,0,0,0-.26,0,162.34,162.34,0,0,0-29.06,2.64V96.89c12.41-10.51,19.23-24.28,19.23-38.95,0-15.16-7.28-29.37-20.51-40a3.44,3.44,0,0,0-4.31,0c-13.23,10.64-20.51,24.85-20.51,40,0,14.67,6.81,28.44,19.23,39v8.82A161.53,161.53,0,0,0,163,111.37V91.26a3.44,3.44,0,0,0-1-2.43h0L142.81,69.48a3.48,3.48,0,0,0-2.44-1H101.1a3.48,3.48,0,0,0-2.44,1L79.43,88.83h0a3.44,3.44,0,0,0-1,2.43v13.11c-2.4-.44-4.8-.82-7.22-1.15V91C80.6,82.9,85.75,72.36,85.75,61.14c0-11.72-5.62-22.69-15.82-30.9a3.43,3.43,0,0,0-4.3,0C55.42,38.45,49.8,49.42,49.8,61.14,49.8,72.36,55,82.9,64.34,91v11.46q-7.52-.71-15.11-.71a3.44,3.44,0,0,0,0,6.87,155,155,0,0,1,78,21A163.6,163.6,0,0,0,111,142.24a136.74,136.74,0,0,0-61.79-14.93,3.44,3.44,0,0,0,0,6.87,129.67,129.67,0,0,1,56.39,13A163.51,163.51,0,0,0,91,163.4,107.48,107.48,0,0,0,49.23,155a3.44,3.44,0,0,0,0,6.87,100.57,100.57,0,0,1,37.51,7.25Q83.17,174,80,179.24l-5.23,8.58a3.43,3.43,0,1,0,5.86,3.58l5.24-8.58a153.58,153.58,0,0,1,8.82-12.9,3.79,3.79,0,0,0,.34-.45,156.6,156.6,0,0,1,91.41-57.59h0a152.79,152.79,0,0,1,31.75-3.35H395a3.42,3.42,0,0,0,0-6.84ZM67.78,55a3.44,3.44,0,0,0-3.44,3.43V81.25a31.09,31.09,0,0,1-7.67-20.11c0-8.76,3.93-17.08,11.11-23.69,7.18,6.61,11.1,14.93,11.1,23.69a31,31,0,0,1-7.67,20.11V58.39A3.43,3.43,0,0,0,67.78,55ZM101.1,76.78l11,11h-22Zm4.12,34.92q-4.08-1.5-8.24-2.79v-2.6h8.24Zm11.68,4.83c-1.59-.73-3.2-1.44-4.81-2.12V102.88a3.44,3.44,0,0,0-3.44-3.44H93.54a3.43,3.43,0,0,0-3.43,3.44V107q-2.4-.63-4.81-1.18V94.69h31.6Zm-7.54-41.19h29.58l12.41,12.48H121.76ZM156.17,114a161.3,161.3,0,0,0-17.2,8.35q-2.68,1.5-5.29,3.11-4.86-3-9.91-5.59V94.69h32.4Zm29.56-56.32a3.44,3.44,0,0,0-3.43,3.43V87.45c-8-8.49-12.36-18.75-12.36-29.51,0-12.21,5.58-23.77,15.79-32.83,10.21,9.06,15.8,20.62,15.8,32.83,0,10.76-4.34,21-12.36,29.51V61.14A3.44,3.44,0,0,0,185.73,57.71Z"/></g><path class="cls-2" d="M201.41,193.19H188.58V180.36H162.92v12.83H150.14V154.75a25,25,0,0,1,2-10,25.61,25.61,0,0,1,13.61-13.66,25.83,25.83,0,0,1,20,0,25.68,25.68,0,0,1,13.65,13.66,24.81,24.81,0,0,1,2,10Zm-12.83-25.61V154.75a12.57,12.57,0,0,0-1-5,12.82,12.82,0,0,0-6.84-6.84,12.9,12.9,0,0,0-10,0,12.82,12.82,0,0,0-6.84,6.84,12.57,12.57,0,0,0-1,5v12.83Z"/><path class="cls-2" d="M263.54,186.71a32.94,32.94,0,0,1-21.41,7.86,32.43,32.43,0,0,1-8.79-1.18,33.28,33.28,0,0,1-7.89-3.35,34.64,34.64,0,0,1-6.7-5.19,32.07,32.07,0,0,1-5.19-6.7,33.83,33.83,0,0,1-3.33-7.94,32.55,32.55,0,0,1-1.18-8.8,32.11,32.11,0,0,1,1.18-8.76,34,34,0,0,1,3.33-7.89,32.13,32.13,0,0,1,5.19-6.71,33.22,33.22,0,0,1,14.59-8.49,33.28,33.28,0,0,1,20.23.85,33.11,33.11,0,0,1,10,5.83l-6.71,11.18a21.56,21.56,0,0,0-6.7-4.63,20,20,0,0,0-15.89-.07,21.21,21.21,0,0,0-6.46,4.36,20.42,20.42,0,0,0-4.38,6.44,19.4,19.4,0,0,0-1.61,7.89,19.62,19.62,0,0,0,1.61,8,20.48,20.48,0,0,0,4.38,6.48,20.94,20.94,0,0,0,6.46,4.39,19.53,19.53,0,0,0,7.89,1.6,18.77,18.77,0,0,0,4.69-.58,20.81,20.81,0,0,0,4.33-1.61V161.41h12.39Z"/><path class="cls-2" d="M286.24,193.19H273.41v-64.1h25.66a25,25,0,0,1,6.79.92A25.47,25.47,0,0,1,312,132.6a26.16,26.16,0,0,1,5.18,4,25.35,25.35,0,0,1,4,5.21,26.34,26.34,0,0,1,2.6,6.12,25.74,25.74,0,0,1,.09,13.23,27.17,27.17,0,0,1-2.37,5.95,25.1,25.1,0,0,1-3.78,5.18,25.82,25.82,0,0,1-5,4.12l7.11,16.76H306.18l-5.59-12.92-14.35.09Zm0-51.27v25.66h12.83a12.36,12.36,0,0,0,5-1,13,13,0,0,0,4.07-2.75,12.86,12.86,0,0,0,2.75-4.09,12.93,12.93,0,0,0,0-10,12.87,12.87,0,0,0-6.82-6.84,12.35,12.35,0,0,0-5-1Z"/><path class="cls-2" d="M395.89,161.41a32.36,32.36,0,0,1-1.19,8.78,33.79,33.79,0,0,1-3.33,7.91,33.08,33.08,0,0,1-5.18,6.73,33.75,33.75,0,0,1-6.71,5.21,32.77,32.77,0,0,1-16.71,4.53,32.43,32.43,0,0,1-8.79-1.18,33.44,33.44,0,0,1-19.84-15.29,33,33,0,0,1-3.36-7.91,32.89,32.89,0,0,1,3.36-25.5,34,34,0,0,1,5.2-6.71,33.08,33.08,0,0,1,6.73-5.18,34,34,0,0,1,7.91-3.33,33.37,33.37,0,0,1,17.59,0A33.09,33.09,0,0,1,394.7,152.6,32.63,32.63,0,0,1,395.89,161.41Zm-12.74,0a19.91,19.91,0,0,0-1.61-7.94,20.35,20.35,0,0,0-10.84-10.84,20.53,20.53,0,0,0-15.89,0,21.18,21.18,0,0,0-6.48,4.36,20.37,20.37,0,0,0-4.38,6.48,19.74,19.74,0,0,0-1.61,7.94A19.4,19.4,0,0,0,344,169.3a20.65,20.65,0,0,0,10.86,10.84,20.53,20.53,0,0,0,15.89,0,20.59,20.59,0,0,0,6.48-4.38,21.15,21.15,0,0,0,4.36-6.46A19.57,19.57,0,0,0,383.15,161.41Z"/><path class="cls-2" d="M230.75,90l-2.23-2.67a7.52,7.52,0,0,1-1.89.23,7.65,7.65,0,0,1-3.79-1A7.24,7.24,0,0,1,220.11,84a7.92,7.92,0,0,1,0-7.74,7.17,7.17,0,0,1,2.73-2.68,7.89,7.89,0,0,1,7.58,0,7.12,7.12,0,0,1,2.71,2.68,7.48,7.48,0,0,1,1,3.86,7.68,7.68,0,0,1-.83,3.56A7.18,7.18,0,0,1,231,86.25L234.4,90Zm-8.06-7.38a4.08,4.08,0,0,0,1.59,1.72,4.54,4.54,0,0,0,2.35.6,4.47,4.47,0,0,0,2.33-.6,4.12,4.12,0,0,0,1.58-1.72,6.22,6.22,0,0,0,0-5.16A4.1,4.1,0,0,0,229,75.8a4.56,4.56,0,0,0-2.33-.59,4.63,4.63,0,0,0-2.35.59,4.06,4.06,0,0,0-1.59,1.69,6.22,6.22,0,0,0,0,5.16Z"/><path class="cls-2" d="M247.35,75.8V87.45h-3V86a3.84,3.84,0,0,1-1.48,1.18,4.56,4.56,0,0,1-2,.43A5,5,0,0,1,238.5,87a4.13,4.13,0,0,1-1.65-1.71,5.61,5.61,0,0,1-.6-2.68V75.8h2.95v6.41a3,3,0,0,0,.69,2.14,2.47,2.47,0,0,0,1.89.74,2.52,2.52,0,0,0,1.92-.74,3,3,0,0,0,.69-2.14V75.8Z"/><path class="cls-2" d="M250.2,78.45a5.15,5.15,0,0,1,1.92-2.1,5.07,5.07,0,0,1,2.7-.74,4.74,4.74,0,0,1,2.28.53,4.61,4.61,0,0,1,1.56,1.32V75.8h3V87.45h-3V85.74a4.34,4.34,0,0,1-1.56,1.36,4.79,4.79,0,0,1-2.3.54,5,5,0,0,1-2.68-.76,5.36,5.36,0,0,1-1.92-2.13,6.88,6.88,0,0,1-.7-3.17A6.71,6.71,0,0,1,250.2,78.45Zm8,1.33a3,3,0,0,0-4.18-1.18,2.91,2.91,0,0,0-1.12,1.16,3.66,3.66,0,0,0-.44,1.82,3.74,3.74,0,0,0,.44,1.84,3,3,0,0,0,1.13,1.21,2.88,2.88,0,0,0,1.5.42,3.09,3.09,0,0,0,1.54-.41,3,3,0,0,0,1.13-1.18,3.76,3.76,0,0,0,.42-1.84A3.82,3.82,0,0,0,258.24,79.78Z"/><path class="cls-2" d="M267.45,71.89V87.45h-2.94V71.89Z"/><path class="cls-2" d="M270.55,73.92a1.74,1.74,0,0,1,0-2.46,1.93,1.93,0,0,1,2.59,0,1.74,1.74,0,0,1,0,2.46,2,2,0,0,1-2.59,0Zm2.75,1.88V87.45h-2.95V75.8Z"/><path class="cls-2" d="M279.62,78.22v5.63a1.1,1.1,0,0,0,.29.85,1.37,1.37,0,0,0,.95.27h1.37v2.48h-1.85q-3.72,0-3.72-3.62V78.22h-1.39V75.8h1.39V72.92h3V75.8h2.61v2.42Z"/><path class="cls-2" d="M295.5,75.8,288.28,93h-3.13l2.53-5.8L283,75.8h3.3l3,8.14,3-8.14Z"/><path class="cls-2" d="M312.22,79.52a4.06,4.06,0,0,1-1.74,1.66,6.41,6.41,0,0,1-3,.63H305v5.64h-2.94V72.77h5.4a6.58,6.58,0,0,1,2.9.59,4.07,4.07,0,0,1,1.8,1.62,4.54,4.54,0,0,1,.6,2.33A4.59,4.59,0,0,1,312.22,79.52Zm-3.06-.64a2.06,2.06,0,0,0,.59-1.57c0-1.43-.8-2.14-2.4-2.14H305v4.27h2.33A2.55,2.55,0,0,0,309.16,78.88Z"/><path class="cls-2" d="M319.28,76.16a4.14,4.14,0,0,1,2.09-.53v3.09h-.77a2.45,2.45,0,0,0-2.8,2.92v5.81h-2.94V75.8h2.94v1.81A4.11,4.11,0,0,1,319.28,76.16Z"/><path class="cls-2" d="M325.49,86.89a5.42,5.42,0,0,1-2.11-2.11,6.35,6.35,0,0,1-.77-3.16,6.24,6.24,0,0,1,.79-3.15,5.54,5.54,0,0,1,2.16-2.11,6.56,6.56,0,0,1,6.09,0,5.48,5.48,0,0,1,2.16,2.11,6.24,6.24,0,0,1,.79,3.15,6.07,6.07,0,0,1-.81,3.16,5.62,5.62,0,0,1-2.19,2.11,6.33,6.33,0,0,1-3.08.75A6.13,6.13,0,0,1,325.49,86.89ZM330,84.68a2.91,2.91,0,0,0,1.12-1.16,4,4,0,0,0,.42-1.9,3.52,3.52,0,0,0-.87-2.55,2.86,2.86,0,0,0-2.14-.89,2.78,2.78,0,0,0-2.11.89,3.56,3.56,0,0,0-.85,2.55,3.65,3.65,0,0,0,.83,2.56,2.74,2.74,0,0,0,2.09.89A3.09,3.09,0,0,0,330,84.68Z"/><path class="cls-2" d="M336.71,78.45a5.08,5.08,0,0,1,4.64-2.84,5,5,0,0,1,2.16.5,4.21,4.21,0,0,1,1.64,1.31V71.89h3V87.45h-3V85.72a3.9,3.9,0,0,1-1.53,1.39,4.85,4.85,0,0,1-2.3.53,5.06,5.06,0,0,1-2.69-.76,5.36,5.36,0,0,1-1.92-2.13,6.88,6.88,0,0,1-.7-3.17A6.71,6.71,0,0,1,336.71,78.45Zm8,1.33a3,3,0,0,0-2.67-1.58,2.92,2.92,0,0,0-1.51.4,3,3,0,0,0-1.13,1.16,3.77,3.77,0,0,0-.43,1.82,3.85,3.85,0,0,0,.43,1.84,3.1,3.1,0,0,0,1.14,1.21,2.88,2.88,0,0,0,1.5.42,3.09,3.09,0,0,0,1.54-.41,3,3,0,0,0,1.13-1.18,3.76,3.76,0,0,0,.42-1.84A3.82,3.82,0,0,0,344.75,79.78Z"/><path class="cls-2" d="M362,75.8V87.45h-3V86a3.84,3.84,0,0,1-1.48,1.18,4.59,4.59,0,0,1-2,.43,5,5,0,0,1-2.42-.57,4.13,4.13,0,0,1-1.65-1.71,5.61,5.61,0,0,1-.6-2.68V75.8h2.95v6.41a3,3,0,0,0,.69,2.14,2.47,2.47,0,0,0,1.89.74,2.5,2.5,0,0,0,1.91-.74,3,3,0,0,0,.7-2.14V75.8Z"/><path class="cls-2" d="M364.89,78.46a5.29,5.29,0,0,1,2-2.1,5.87,5.87,0,0,1,3-.75,5.75,5.75,0,0,1,3.58,1.08,5.27,5.27,0,0,1,1.9,3h-3.17a2.36,2.36,0,0,0-.85-1.19,2.55,2.55,0,0,0-1.49-.43,2.42,2.42,0,0,0-2,.92,4.89,4.89,0,0,0,0,5.17,2.41,2.41,0,0,0,2,.91,2.24,2.24,0,0,0,2.34-1.59h3.17a5.35,5.35,0,0,1-1.91,3,5.64,5.64,0,0,1-3.57,1.12,5.87,5.87,0,0,1-3-.75,5.29,5.29,0,0,1-2-2.1,7.14,7.14,0,0,1,0-6.33Z"/><path class="cls-2" d="M381,78.22v5.63a1.1,1.1,0,0,0,.29.85,1.38,1.38,0,0,0,1,.27h1.36v2.48h-1.85q-3.72,0-3.72-3.62V78.22h-1.39V75.8H378V72.92h3V75.8h2.61v2.42Z"/><path class="cls-2" d="M387.62,87.12a4.47,4.47,0,0,1-1.8-1.4,3.62,3.62,0,0,1-.73-2h3a1.56,1.56,0,0,0,.66,1.11,2.29,2.29,0,0,0,1.44.44,2.25,2.25,0,0,0,1.31-.33,1,1,0,0,0,.48-.86.93.93,0,0,0-.58-.86,11.56,11.56,0,0,0-1.84-.62A14.56,14.56,0,0,1,387.4,82,3.65,3.65,0,0,1,386,81a2.75,2.75,0,0,1-.6-1.87,3,3,0,0,1,.55-1.76,3.8,3.8,0,0,1,1.6-1.27,6.15,6.15,0,0,1,2.45-.46,5,5,0,0,1,3.32,1,3.88,3.88,0,0,1,1.37,2.81h-2.82a1.53,1.53,0,0,0-.58-1.11,2.15,2.15,0,0,0-1.37-.41,2.11,2.11,0,0,0-1.23.3.94.94,0,0,0-.43.82,1,1,0,0,0,.59.89,8.69,8.69,0,0,0,1.82.62,16.05,16.05,0,0,1,2.09.65,3.87,3.87,0,0,1,1.41,1,2.84,2.84,0,0,1,.62,1.87,3.06,3.06,0,0,1-.55,1.8,3.63,3.63,0,0,1-1.6,1.25,5.89,5.89,0,0,1-2.43.46A6.16,6.16,0,0,1,387.62,87.12Z"/><rect class="cls-3" width="469.28" height="218.95"/></g></g></svg>