<svg xmlns="http://www.w3.org/2000/svg" viewBox="0 0 292.96 293.78"><defs><style>.cls-1{fill:#fff;}.cls-2{fill:#f57f17;}.cls-3{fill:#f9a825;}.cls-4{fill:#017f56;}.cls-4,.cls-5,.cls-6{fill-rule:evenodd;}.cls-5{fill:#016242;}.cls-6{fill:#00a46e;}.cls-7{fill:none;}</style></defs><g id="Calque_2" data-name="Calque 2"><g id="Layer_1" data-name="Layer 1"><circle class="cls-1" cx="146.6" cy="152.51" r="140.5"/><path class="cls-2" d="M149.24,139.48V153.7a26.72,26.72,0,0,1,4-7.46,25.07,25.07,0,0,1,18.86-10.18,25.51,25.51,0,0,1-4.9,21,25.23,25.23,0,0,1-17.93,10.11v9.26c-1,.88-2,1.78-3,2.69l-.1.09c-.9-.84-1.83-1.68-2.76-2.5v-9.54a25.29,25.29,0,0,1-17.94-10.11,25.58,25.58,0,0,1-4.9-21,25.06,25.06,0,0,1,18.81,10.16,26.86,26.86,0,0,1,4,7.46v-14.2a25.29,25.29,0,0,1-17.94-10.11,25.58,25.58,0,0,1-4.9-21,25.06,25.06,0,0,1,18.81,10.16,26.86,26.86,0,0,1,4,7.46V111.82a25.23,25.23,0,0,1-17.89-10.12,25.62,25.62,0,0,1-4.9-21,25,25,0,0,1,18.81,10.16,26.72,26.72,0,0,1,4,7.46V89.57a24.52,24.52,0,0,1,2.91-36.7,24.5,24.5,0,0,1,2.93,36.7v8.81a26.59,26.59,0,0,1,4-7.46A25,25,0,0,1,172.1,80.76a25.51,25.51,0,0,1-4.9,21,25.18,25.18,0,0,1-17.93,10.1v14.21a26.72,26.72,0,0,1,4-7.46,25.06,25.06,0,0,1,18.83-10.2,25.51,25.51,0,0,1-4.9,21,25.25,25.25,0,0,1-18,10.07Z"/><path class="cls-3" d="M199.79,133.62v10.43a19.88,19.88,0,0,1,17.6-12.93,17.83,17.83,0,0,1-2.9,14.2,148.91,148.91,0,0,0-25.08,7.17,20.08,20.08,0,0,1-7.91-6,18.14,18.14,0,0,1-3.78-15.39A19.87,19.87,0,0,1,195.33,144V133.62a19.7,19.7,0,0,1-13.83-7.42,18.14,18.14,0,0,1-3.78-15.39,19.88,19.88,0,0,1,17.61,12.94V113.31a19.7,19.7,0,0,1-13.83-7.42,18.14,18.14,0,0,1-3.78-15.39,19.88,19.88,0,0,1,17.61,12.94V97A17.44,17.44,0,0,1,197.58,70a17.46,17.46,0,0,1,2.25,27v6.47a19.39,19.39,0,0,1,3.1-5.48,19.6,19.6,0,0,1,14.5-7.46,18,18,0,0,1-3.78,15.39,19.66,19.66,0,0,1-13.82,7.42V123.8a19.39,19.39,0,0,1,3.1-5.48,19.6,19.6,0,0,1,14.5-7.46,18,18,0,0,1-3.78,15.39,19.67,19.67,0,0,1-13.86,7.37ZM97,133.62v10.43a19.88,19.88,0,0,1,17.6-12.93,18,18,0,0,1-3.78,15.39,20,20,0,0,1-7.9,6,148.17,148.17,0,0,0-25.14-7.19,18.06,18.06,0,0,1-2.89-14.19,19.92,19.92,0,0,1,17.61,12.93V133.62a19.7,19.7,0,0,1-13.83-7.42,18.14,18.14,0,0,1-3.78-15.39,19.57,19.57,0,0,1,14.5,7.46,19.18,19.18,0,0,1,3.11,5.48V113.31a19.7,19.7,0,0,1-13.83-7.42A18.14,18.14,0,0,1,74.93,90.5,19.57,19.57,0,0,1,89.43,98a19.18,19.18,0,0,1,3.11,5.48V97A17.44,17.44,0,0,1,94.79,70,17.46,17.46,0,0,1,97,97v6.47a19.91,19.91,0,0,1,17.6-12.94,18,18,0,0,1-3.78,15.39A19.66,19.66,0,0,1,97,113.36V123.8a19.91,19.91,0,0,1,17.6-12.94,18,18,0,0,1-3.78,15.39A19.67,19.67,0,0,1,97,133.62Z"/><path class="cls-4" d="M172.83,246.26h-.08l-.28-.13c-4-1.82-42-19.51-95.21-67.61,0,0,27.18,46.71,80.07,70.55a104.11,104.11,0,0,1-11.17.63c-53.94,0-97.66-43.5-97.66-97.11,0-1.23,0-2.45.07-3.67a2.35,2.35,0,0,1,0-.59c40.37.28,76.19,15.93,98.88,40,15.18,16.12,24.48,36,25.32,57.67v.25Z"/><path class="cls-4" d="M243.83,152.59a97.17,97.17,0,0,1-65.5,91.69A87.92,87.92,0,0,0,174.77,224c26.48-22,40.08-45.14,40.29-45.5a553,553,0,0,1-43.79,35.86,98.84,98.84,0,0,0-14.84-24.16c-1.52-1.84-3.11-3.65-4.78-5.41-.52-.55-1-1.1-1.58-1.64,22.76-21.13,56.25-34.57,93.64-34.83v.53c.09,1.24.12,2.49.12,3.75Z"/><path class="cls-5" d="M243.71,148.31c-40.53,7.56-68.4,24.32-87.28,41.88-1.52-1.84-3.11-3.65-4.78-5.41-.52-.55-1-1.1-1.58-1.64C172.83,162,206.32,148.57,243.71,148.31ZM157.33,249a104.11,104.11,0,0,1-11.17.63c-53.94,0-97.66-43.47-97.66-97.08,0-1.23,0-2.45.07-3.67C48.57,148.92,63.37,237.7,157.33,249Z"/><path class="cls-4" d="M73.88,63.62,57.27,41.7A142.37,142.37,0,0,0,34.58,64.52,140.67,140.67,0,0,0,12.24,104.9l26.34,8.22A114.69,114.69,0,0,1,73.88,63.62ZM31.77,151.7a113.37,113.37,0,0,1,4-30L9.38,113.48A141.48,141.48,0,0,0,8,184.82l32.13,9.7A112.91,112.91,0,0,1,31.77,151.7Z"/><path class="cls-5" d="M146.2,265.47A114.46,114.46,0,0,1,56.75,222.7L61.93,218A5,5,0,0,0,60,209.56L19.93,197.39a5,5,0,0,0-6.32,6L23.44,243a5,5,0,0,0,8.24,2.48l4.6-4.18A142.7,142.7,0,0,0,244,254.18l-7.51-32.59a114.53,114.53,0,0,1-90.3,43.88Z"/><path class="cls-6" d="M285.35,203.85l-6.13-1.94q2.07-5.43,3.69-11h-.16a140.65,140.65,0,0,0,5.54-39.21c0-63.87-42.65-117.83-101.18-135.3L162.74,39.18c55.36,8,97.88,55.32,97.88,112.52a112.71,112.71,0,0,1-8,41.76l.24.07-6.59-2.09a5,5,0,0,0-6.4,5.86l9.4,40.58a5,5,0,0,0,8.34,2.48l29.65-28.21a5,5,0,0,0-1.91-8.3Z"/><path class="cls-4" d="M81.1,58.17a114.11,114.11,0,0,1,48.6-19l1.45,6.69a5,5,0,0,0,8.3,2.6l30.73-28.3a5,5,0,0,0-2-8.42L128.84.21A5,5,0,0,0,122.53,6l1.35,6.18a141.81,141.81,0,0,0-59.41,24Z"/><rect class="cls-7" y="0.81" width="292.96" height="292.96"/></g></g></svg>