<svg xmlns="http://www.w3.org/2000/svg" xmlns:xlink="http://www.w3.org/1999/xlink" viewBox="0 0 1179.49 292.97"><defs><style>.cls-1{fill:#187687;}.cls-2{fill:#998f0e;}.cls-3{fill:#3bba65;}.cls-4{fill:#248d7b;}.cls-5{fill:url(#linear-gradient);}.cls-6{fill:url(#linear-gradient-2);}.cls-7{fill:url(#linear-gradient-3);}.cls-8{fill:url(#linear-gradient-4);}.cls-9{fill:url(#linear-gradient-5);}</style><linearGradient id="linear-gradient" x1="26.72" y1="325.19" x2="42.07" y2="28.36" gradientUnits="userSpaceOnUse"><stop offset="0" stop-color="#0c5f92"/><stop offset="0.17" stop-color="#146e8b"/><stop offset="0.49" stop-color="#279478"/><stop offset="0.77" stop-color="#3bba65"/></linearGradient><linearGradient id="linear-gradient-2" x1="10.33" y1="324.31" x2="25.68" y2="27.54" xlink:href="#linear-gradient"/><linearGradient id="linear-gradient-3" x1="119.59" y1="329.93" x2="134.94" y2="33.25" xlink:href="#linear-gradient"/><linearGradient id="linear-gradient-4" x1="211.01" y1="334.63" x2="226.36" y2="37.86" xlink:href="#linear-gradient"/><linearGradient id="linear-gradient-5" x1="98.61" y1="328.94" x2="113.97" y2="32.07" xlink:href="#linear-gradient"/></defs><title>logo-triple-performance</title><g id="Layer_2" data-name="Layer 2"><g id="Layer_1-2" data-name="Layer 1"><path class="cls-1" d="M328.51,49.16A9.41,9.41,0,0,0,328,47c-.26-.65-.54-1.37-.85-2.18a34.9,34.9,0,0,1-1.38-3.91,17.72,17.72,0,0,1-.62-5,6.32,6.32,0,0,1,.77-2.18,8,8,0,0,1,.92-1.12l.62-2.71h2.3a21,21,0,0,0,2.54.15h2.53q5.83,0,12-.45t12.6-1.05q7.07-.91,15.21-1.36c.51-1.1.84-1.8,1-2.1l.53-1.05,1.69-.91c2.36-.09,4,.18,4.92.83a11.66,11.66,0,0,1,2.15,1.88c2.67-.2,5.38-.47,8.15-.83s5.63-.72,8.6-1.12q6.15-.77,12.45-1.51a103.86,103.86,0,0,1,12.29-.75q2.61,0,4.92.15c1.53.1,3,.25,4.45.45l1.85,1.35a8.88,8.88,0,0,0,1.53,2,20.4,20.4,0,0,0,2.15,1.8,30.11,30.11,0,0,1,4.54,4.51c1.48,1.81,2,4.46,1.61,8l-.77,1.51a9.83,9.83,0,0,1-1.54,1.2l-1.53,2h-1.69a8.75,8.75,0,0,0-2.31.23,15.76,15.76,0,0,0-1.84.68,8.84,8.84,0,0,1-1.38.52c-.52.15-1.08.33-1.69.53-1.13-.1-2-.15-2.62-.15h-2.15a90.3,90.3,0,0,0-10,.6q-5.38.6-10.45,1.35-3.69.45-7.07.83l-6.15.68c-1,2.6-1.94,4.91-2.76,6.91s-1.69,4-2.61,6-1.8,4-2.62,6.08a70.25,70.25,0,0,0-2.3,6.85,42.41,42.41,0,0,0-3.07,5.18,26.45,26.45,0,0,0-2,5.64A15.74,15.74,0,0,0,377.6,92c-.66,2-1.25,3.71-1.76,5.12l-.62,2.25a5.59,5.59,0,0,0-1.3,1.65,5.2,5.2,0,0,1-.85,1.36,24,24,0,0,1-1.23,3.76c-.2.5-.41,1-.61,1.57a2,2,0,0,0-.16,1.28,6.65,6.65,0,0,1-.92,2.56,10.93,10.93,0,0,1-.15,1.8c-.1.6-.21,1.21-.31,1.81s-.36,1.33-.46,1.88a2.79,2.79,0,0,0,.15,1.57l.93,1.21a5.26,5.26,0,0,1,.76,1.5,2,2,0,0,0,.77.45,2,2,0,0,1,.77.45,4.63,4.63,0,0,0,2.31,1.21l1.53,1.8c.62,3.61.05,6.42-1.69,8.42q-2.76,3.45-9.22,3.46l-2.15-.15a8.54,8.54,0,0,1-1.23-1.36c-.92-.4-1.69-.72-2.3-1a4.07,4.07,0,0,1-1.69-1.43,1.41,1.41,0,0,0-.77-.38,1.4,1.4,0,0,1-.77-.37,9.2,9.2,0,0,1-2.46-1.06l-1.69-.9c.1-1,.16-1.7.16-2.1a13.77,13.77,0,0,1-1.92-3.61,32.81,32.81,0,0,1-1.16-4.06c-.3-1.1-.59-2.11-.84-3a7.63,7.63,0,0,0-1.15-2.4q-.31-10.53,2-17.67t5.07-13.91c1-2.4,2-4.86,2.92-7.36s1.74-5.06,2.46-7.67l1.69-1.65A10.41,10.41,0,0,1,363.08,66a10.07,10.07,0,0,1,.77-3.83c.51-1.25,1.08-2.53,1.69-3.84.41-.8.8-1.6,1.16-2.4a9.68,9.68,0,0,0,.69-2.11c-.72,0-1.36,0-1.92.08s-1.16.13-1.77.23a17.44,17.44,0,0,1-3.84.45,9.41,9.41,0,0,1-2-.15,6.3,6.3,0,0,1-2.3.67c-.72,0-1.44.08-2.16.08h-3.68a7.71,7.71,0,0,0-2.92.45H339a19.2,19.2,0,0,1-2.76-.23A10,10,0,0,1,333,54.28l-1.08-1.21c-.61-1.1-1.18-1.7-1.69-1.8l-1.69-.45Z" transform="translate(0 -4.31)"/><path class="cls-1" d="M423.72,124.91c-.36.07-.69-.19-1-.79a17.48,17.48,0,0,0-1-1.74H423a8.39,8.39,0,0,1-.37-4.26c.25-1.3.55-2.56.91-3.79s.66-2.42.91-3.58a6.17,6.17,0,0,0-.37-3.63.49.49,0,0,0,.8-.26,5.87,5.87,0,0,0,.43-1.47,7.87,7.87,0,0,0,.11-1.9,14,14,0,0,0-.16-1.63,40.46,40.46,0,0,0,2.21-6.73c.53-2.32,1-4.62,1.45-6.9s.91-4.49,1.45-6.63a35.64,35.64,0,0,1,2.1-6,6.7,6.7,0,0,1,3.17.37,4.14,4.14,0,0,1,2.21,1.42,28.39,28.39,0,0,0,5.91-6.11q2.58-3.57,5.22-7a34.26,34.26,0,0,1,6-6.06A15.75,15.75,0,0,1,463.19,55q2.58,1.78,5.81,3.84a17.82,17.82,0,0,1,5.27,5.1c.57.36,1.13.72,1.66,1.11s1.1.75,1.67,1.1v1.58A12.65,12.65,0,0,1,480.13,71a33.25,33.25,0,0,1,1.83,3.9c.53,1.36,1.05,2.75,1.56,4.15a27.31,27.31,0,0,0,1.72,3.9,2.4,2.4,0,0,0-.16,1.1,4.05,4.05,0,0,0,.21,1,7.3,7.3,0,0,1,.27,1,8.11,8.11,0,0,1,.11,1.42,14.16,14.16,0,0,1-3.71,9,26,26,0,0,1-8,5.58,69.74,69.74,0,0,1-9.95,3.68,90.65,90.65,0,0,0-9.57,3.32q0,.42.48.42t.27.63q3.22,1.89,5,3.05a36.35,36.35,0,0,0,3.33,1.95,19.18,19.18,0,0,0,3.45,1.31q1.88.54,5.21,1.27t5.22,1.21c1.25.31,2.38.56,3.39.73s2.08.34,3.22.48,2.69.31,4.63.52a9.61,9.61,0,0,1,1.93,2.74,13.59,13.59,0,0,1,1.08,3.16,9.33,9.33,0,0,1,.16,3,4,4,0,0,1-.91,2.26.48.48,0,0,0,.59.37,3.24,3.24,0,0,1,1,0,5.51,5.51,0,0,0-1.29,1.26l-1.08,1.48a9.89,9.89,0,0,1-1.23,1.37,3,3,0,0,1-1.78.73q-3.87,1.47-9.89.11a127.85,127.85,0,0,1-15.38-4.84c-3.09-1.13-5.6-2.14-7.53-3.06a52.52,52.52,0,0,1-5.06-2.68,33.81,33.81,0,0,1-4-2.84c-1.22-1-2.61-2.23-4.19-3.63a.51.51,0,0,0-.38.42.5.5,0,0,1-.37.42,26.08,26.08,0,0,1-1.67,6.84,24.54,24.54,0,0,1-3.28,5.37c-1.15-.21-1.92-.11-2.31.31a7,7,0,0,1-1.46,1.16,2.69,2.69,0,0,1-1.61-.05,6.91,6.91,0,0,1-1-.58,10.22,10.22,0,0,0-1-.63,3,3,0,0,0-1.72-.21c-.21-.63-.43-1.25-.64-1.84s-.79-.86-1.72-.79a3.55,3.55,0,0,0,.21-1.63,6.74,6.74,0,0,0-.32-1.27c-.14-.38-.27-.79-.38-1.21A2.46,2.46,0,0,1,423.72,124.91Zm35.92-48.1a22.77,22.77,0,0,1-3.12,3.63q-1.72,1.64-3.39,3.37a23.69,23.69,0,0,0-3,3.79,13.86,13.86,0,0,0-1.82,4.89A37.77,37.77,0,0,0,457.81,90q4.95-2,9.36-3.73a11,11,0,0,0-2.8-6.27A12,12,0,0,0,459.64,76.81Z" transform="translate(0 -4.31)"/><path class="cls-1" d="M490.4,135.22A7.37,7.37,0,0,1,488,132.8a16.13,16.13,0,0,1-1.51-3.16,27.08,27.08,0,0,1-1-3.52c-.25-1.23-.52-2.4-.81-3.53a3,3,0,0,1,.64-2.15,16,16,0,0,1,1.4-1.32,42,42,0,0,0,4.63-.42l4-.63c1.29-.21,2.58-.4,3.87-.58a32.15,32.15,0,0,1,4.19-.26c1.08-2.18,2.08-4.27,3-6.27s1.82-3.91,2.68-5.73a28.49,28.49,0,0,1,1.67-4.9c.68-1.5,1.35-2.94,2-4.31s1.22-2.74,1.72-4.1a17.27,17.27,0,0,0,1-4.37q1.29-3.69,2.31-6.79a39.82,39.82,0,0,0,1.56-7.42c-2.72.42-4.91.83-6.56,1.21a18,18,0,0,0-3.55,1.11,7.39,7.39,0,0,1-3.39-.85,6.51,6.51,0,0,1-2-1.79,11.07,11.07,0,0,1-1.29-2.42c-.36-.91-.79-1.85-1.29-2.84a5.45,5.45,0,0,0,.22-2.79,3.85,3.85,0,0,0-1.29-2.68,2,2,0,0,0,1.29-1.42,2.45,2.45,0,0,0,.11-1.84,19.53,19.53,0,0,1,3.87-.69l4-.31c1.33-.11,2.6-.25,3.82-.42a7.71,7.71,0,0,0,3.12-1.11l11.67-.42q6.07-.21,11.24-.53a14.41,14.41,0,0,0,4.46.64,41,41,0,0,1,5.06.31,13,13,0,0,1,4.51,1.37,5.7,5.7,0,0,1,2.75,3.68,5,5,0,0,1,2.42.84,2.86,2.86,0,0,1,1,1.53,7.45,7.45,0,0,1,.16,2c0,.74-.05,1.46-.05,2.16a14.37,14.37,0,0,1-4.36,2,41.08,41.08,0,0,1-5.75,1.26,60.61,60.61,0,0,1-6.51.63q-3.39.17-6.62.27a67.38,67.38,0,0,1-1.88,8.15q-1.35,4.69-2.74,9.16t-2.42,8a16.39,16.39,0,0,0-.92,4.58c-.71,1.61-1.3,3-1.77,4.1s-.9,2.18-1.29,3.16l-1.18,2.89c-.4,1-.88,2-1.46,3.21h7.32a2.08,2.08,0,0,0,1,1.58,10.8,10.8,0,0,0,1.61.74,7.14,7.14,0,0,1,1.56.79,1.71,1.71,0,0,1,.7,1.52,3.81,3.81,0,0,1,2.58,1.58,3.25,3.25,0,0,1,.27,2.26,7.71,7.71,0,0,1-1.08,2.48c-.54.84-1.06,1.58-1.56,2.21a2.14,2.14,0,0,0-1.83.47,13.64,13.64,0,0,0-1.61,1.53,25.73,25.73,0,0,0-6.13-.11q-3,.32-5.59.53c-.36.07-.51.26-.43.58a.58.58,0,0,1-.22.68,18.79,18.79,0,0,0-6.83-.84,45.76,45.76,0,0,0-7.1,1q-3.6.79-7.36,1.68A37.12,37.12,0,0,1,490.4,135.22Z" transform="translate(0 -4.31)"/><path class="cls-1" d="M550.2,104.28c.07-.28.23-.4.48-.37a1.48,1.48,0,0,0,.7,0,3.88,3.88,0,0,1-1.07-2.26,4.41,4.41,0,0,0-1.08-2.37,11.06,11.06,0,0,0,.38-1c.11-.35.41-.49.91-.42a12.39,12.39,0,0,1,.11-4.32A15.7,15.7,0,0,1,552,89.65a26.15,26.15,0,0,1,2.15-3.52c.82-1.16,1.63-2.34,2.42-3.53.64-.14,1-.09,1.18.16s.39.19.75-.16A6.36,6.36,0,0,0,560.85,80a7.38,7.38,0,0,0,.64-3.1c.65-1.83,1.38-3.63,2.21-5.42a31.64,31.64,0,0,1,2.85-5,25.71,25.71,0,0,1,3.44-4,13.92,13.92,0,0,1,4-2.69,16.64,16.64,0,0,1,3.82-2.31,24.35,24.35,0,0,1,5-1.63,26.88,26.88,0,0,1,5.43-.63,18.48,18.48,0,0,1,5.16.57c.36.15.57.06.65-.26a.52.52,0,0,1,.53-.47,45.7,45.7,0,0,1,9.63,2.1,21.78,21.78,0,0,1,7.26,4.11A72.52,72.52,0,0,1,615.27,68a38.07,38.07,0,0,1,2.85,7.58,29.51,29.51,0,0,1,.92,8.16,24.08,24.08,0,0,1-1.83,8.42,28.66,28.66,0,0,1-9.14,7.42,66,66,0,0,1-11.57,4.63,112.16,112.16,0,0,1-12.8,3q-6.62,1.15-12.85,2.52.1,2.85,0,6.06a42.44,42.44,0,0,1-.7,6.42,37.67,37.67,0,0,1-1.72,6.26,22.93,22.93,0,0,1-3.06,5.68,16.5,16.5,0,0,0-4.47.42q-2.31.53-4.14,1l-1.67-1a4.62,4.62,0,0,0-2-.57,3.2,3.2,0,0,0-.59-2.64c-.61-.91-1.22-1.8-1.83-2.68a7.12,7.12,0,0,1-1.18-2.63,2.29,2.29,0,0,1,1.24-2.37,2.86,2.86,0,0,1-.86-2.31,1.45,1.45,0,0,0,1.07.42,12.5,12.5,0,0,1,.49-4.53c.46-1.75.86-3.49,1.18-5.21a14.15,14.15,0,0,0,.16-4.73A3.87,3.87,0,0,0,550.2,104.28Zm28-24.63c-.29.78-.53,1.46-.7,2.06a14,14,0,0,1-.6,1.63q-.32.73-.69,1.47c-.26.49-.53,1-.81,1.69a1.59,1.59,0,0,0,.86.94,1.6,1.6,0,0,1,.86,1,15.27,15.27,0,0,1,3-1.11c1-.24,2-.43,3-.57s2-.32,3-.53a14.7,14.7,0,0,0,3.12-1.05,21.3,21.3,0,0,1,3.39-1.21c1.18-.32,2.35-.65,3.5-1s2.26-.76,3.33-1.21a9,9,0,0,0,2.8-1.84,13.28,13.28,0,0,0-4.52-2.43,25.32,25.32,0,0,0-6.51-1.31,24.6,24.6,0,0,0-7,.47A12.92,12.92,0,0,0,578.17,79.65Z" transform="translate(0 -4.31)"/><path class="cls-1" d="M621.94,130.07a4.22,4.22,0,0,1-.75-1,5.63,5.63,0,0,1-.54-1.53,13.76,13.76,0,0,1-2.37-4.1,22.37,22.37,0,0,1-1.18-4.79,23.85,23.85,0,0,1-.11-5,32,32,0,0,1,.76-4.74,20.41,20.41,0,0,0,.53-2.21c.36-1.33.72-2.65,1.08-4A8.36,8.36,0,0,1,621,99.54a3.41,3.41,0,0,1,.11-2.52c.36-.91.72-1.75,1.08-2.53a3.42,3.42,0,0,0,.32-.57q.1-.27.21-.48c.86-2.45,1.71-4.82,2.53-7.1s1.63-4.48,2.42-6.58q2.15-5.79,4.14-11.37t3.6-11.89a5.75,5.75,0,0,1,1.51-.84,3.83,3.83,0,0,1,.54-.21,2.37,2.37,0,0,1,.75-.11,36.1,36.1,0,0,0,5.33,2.16,17.2,17.2,0,0,0,5.21,1l1.83,1.58A21.53,21.53,0,0,1,653,63.39a6.64,6.64,0,0,1,.59,4.48A3.54,3.54,0,0,1,652.49,69a35.71,35.71,0,0,1-1.4,4.27c-.5,1.23-1,2.4-1.51,3.52s-1.11,2.53-1.61,3.79a26.89,26.89,0,0,0-1.29,4.63,3.75,3.75,0,0,0-.81,1.27,11.06,11.06,0,0,1-.38,1,12.41,12.41,0,0,1-.53,1.31,3.49,3.49,0,0,1-1,1.21,21.45,21.45,0,0,1-1.29,5.32c-.58,1.37-1.15,2.72-1.72,4-1,2.46-1.94,4.89-2.8,7.31a28.53,28.53,0,0,0-1.5,8.27,10,10,0,0,1,2.36-.32,8.65,8.65,0,0,1,2.69.42,24.06,24.06,0,0,1,8.44-2.31q4.58-.42,9.09-.53,3.76,0,7-.32a4.93,4.93,0,0,0,1.4.79,6.7,6.7,0,0,0,1.08.06h.64a4.62,4.62,0,0,1,.86.1,9.4,9.4,0,0,0,2.91,2c.93.39,1.93.76,3,1.11s1.84.72,2.74,1.1a13.67,13.67,0,0,1,2.64,1.53l1,5.37c.58.77.83,1.3.76,1.58a2.59,2.59,0,0,1-.43,1.47l.21,1.37a8,8,0,0,0-2.69.89,14.9,14.9,0,0,0-1.4,1.21c-.79.07-1.54.11-2.25.11a16.31,16.31,0,0,0-4.41.63,20.94,20.94,0,0,0-7.1-1.16c-1,0-2,0-3.07.11s-2.06.17-3.06.31-2.15.27-3.23.37a31.75,31.75,0,0,1-3.23.16l-1.83.31a6.49,6.49,0,0,0-1.07.32c-2.44.77-5.07,1.54-7.91,2.32a32.43,32.43,0,0,1-8.55,1.15q-6.35,0-10.21-3.15a10.28,10.28,0,0,0-.65-1.27A6.72,6.72,0,0,1,621.94,130.07Z" transform="translate(0 -4.31)"/><path class="cls-1" d="M691.53,130.38a4.73,4.73,0,0,1-1.24-2,3.36,3.36,0,0,0-1.77-1.89c-.15-1-.34-2.27-.59-3.63s-.51-2.77-.76-4.21a42.44,42.44,0,0,1-.53-4.32,15.28,15.28,0,0,1,.16-3.94,6,6,0,0,1,.7-1.79c.32-.56.64-1.11,1-1.64a6.89,6.89,0,0,0,.76-1.63,3.1,3.1,0,0,0,0-1.68.92.92,0,0,0,.81-.68c.1-.39.44-.51,1-.37.5-1.55,1-3,1.61-4.32s1.19-2.63,1.83-3.89,1.31-2.54,2-3.84a33.74,33.74,0,0,0,1.88-4.37,10.31,10.31,0,0,1-2.63-3.63,22.85,22.85,0,0,1-1.24-4,36.32,36.32,0,0,1-.64-4,22.69,22.69,0,0,0-.87-4.16,11.5,11.5,0,0,1,3.12-3.1,18.33,18.33,0,0,1,4-2A29.49,29.49,0,0,1,705,64q2.58-.48,5.49-1.11c3.44-1.05,6.52-1.88,9.25-2.47s5.38-1.09,8-1.48,5.27-.73,8.06-1,6-.79,9.68-1.42c.08.21.2.32.38.32h.7a1.17,1.17,0,0,0,1.18.73,3.48,3.48,0,0,0,0-.58,2,2,0,0,1,0-.47,2.42,2.42,0,0,1,.59.11c.25.07.46.14.64.21a.48.48,0,0,0,.49-.06c.14-.1.17-.33.1-.68a11.29,11.29,0,0,0,3.34,3.63,24.73,24.73,0,0,0,4.52,2.47,6.24,6.24,0,0,1,0,1.37,5.8,5.8,0,0,1-.16.79,3.11,3.11,0,0,0-.11.84,5.4,5.4,0,0,0,.22,1.32,14.73,14.73,0,0,1-3.93,4.42,18,18,0,0,1-4.68,2.42,30.74,30.74,0,0,1-5.21,1.26q-2.74.42-5.6.9a48.94,48.94,0,0,0-5.75,1.31,24.32,24.32,0,0,0-5.7,2.53,3.7,3.7,0,0,0-1.56-.26,7.25,7.25,0,0,0-1.46.26c-.5.14-1.05.28-1.66.42a5.83,5.83,0,0,1-2.21,0,5.08,5.08,0,0,1-2,1l-2.31.63a5,5,0,0,1,.49,2.32,5,5,0,0,0,.26,2,56.9,56.9,0,0,0,10-.05c3.65-.32,7.24-.55,10.75-.69a.81.81,0,0,1-.1.74,1,1,0,0,0-.22.74,9.79,9.79,0,0,1,1.83,1.57c.57.64,1.16,1.25,1.77,1.85a10.81,10.81,0,0,0,1.88,1.47,3.69,3.69,0,0,0,2.26.47,8.27,8.27,0,0,1,.76,2.21,4.17,4.17,0,0,1-.33,2.42c-1.43.92-2.83,1.84-4.19,2.79a39.1,39.1,0,0,1-4.25,2.58,24.89,24.89,0,0,1-4.79,1.89,17.71,17.71,0,0,1-5.59.64h-.91a1.63,1.63,0,0,1-.92-.42,5.38,5.38,0,0,1-2.85.36,6,6,0,0,0-2.95.37,10.65,10.65,0,0,0-3.5-.52,10.64,10.64,0,0,1-3.5-.53q-1.94,2.75-3.65,5.74a45.94,45.94,0,0,0-3,6.36,42.71,42.71,0,0,0,7.32.53c1.93-.07,3.76-.21,5.48-.42l5.33-.63a49,49,0,0,1,6.72-.21,21,21,0,0,1,6.19-1.74,40,40,0,0,0,6.5-1.42,3.68,3.68,0,0,1,1.83,1.21c.5.6,1,1.19,1.45,1.79a10.09,10.09,0,0,0,1.45,1.52,2.24,2.24,0,0,0,1.94.43,2.47,2.47,0,0,1,.7,1.26c.11.49.22,1,.32,1.37a2.4,2.4,0,0,0,.49,1,1.32,1.32,0,0,0,1.18.26,20.21,20.21,0,0,1-4.57,6.31,18.58,18.58,0,0,1-5.7,3.42,33.2,33.2,0,0,1-7.1,1.79q-3.93.59-8.77,1.42a4,4,0,0,1-2,0,5.44,5.44,0,0,0-1.66-.26q-3,.53-7.16,1a55.1,55.1,0,0,1-8.33.42,37.92,37.92,0,0,1-8.07-1.05A14.06,14.06,0,0,1,691.53,130.38Z" transform="translate(0 -4.31)"/><path class="cls-1" d="M332.05,237.9c.1-.4.33-.57.69-.52a2.21,2.21,0,0,0,1-.08,5.5,5.5,0,0,1-1.54-3.23,6.37,6.37,0,0,0-1.54-3.39,15,15,0,0,0,.54-1.5c.16-.5.59-.7,1.31-.6a17.52,17.52,0,0,1,.15-6.16,22.12,22.12,0,0,1,1.92-5.42,40,40,0,0,1,3.08-5q1.75-2.49,3.45-5c.92-.2,1.49-.13,1.69.22s.56.28,1.08-.22a9.17,9.17,0,0,0,3.38-3.68,10.69,10.69,0,0,0,.92-4.44c.92-2.6,2-5.19,3.15-7.74a46.76,46.76,0,0,1,4.07-7.14,37.43,37.43,0,0,1,4.92-5.79A19.85,19.85,0,0,1,366,174.3a23.83,23.83,0,0,1,5.46-3.3,35.1,35.1,0,0,1,7.07-2.33,40.27,40.27,0,0,1,7.76-.91,26.6,26.6,0,0,1,7.37.83c.51.2.82.08.92-.38a.74.74,0,0,1,.77-.67,65.29,65.29,0,0,1,13.75,3,30.93,30.93,0,0,1,10.37,5.87,104.85,104.85,0,0,1,5.54,9.7,54.45,54.45,0,0,1,4.07,10.82,42.22,42.22,0,0,1,1.3,11.65,33.83,33.83,0,0,1-2.61,12,40.9,40.9,0,0,1-13.06,10.6,94.3,94.3,0,0,1-16.52,6.62,161.88,161.88,0,0,1-18.28,4.28q-9.45,1.65-18.36,3.61c.1,2.7.1,5.59,0,8.64a63.62,63.62,0,0,1-1,9.18,53.06,53.06,0,0,1-2.46,8.94,32.37,32.37,0,0,1-4.38,8.12,23.49,23.49,0,0,0-6.37.6q-3.31.75-5.92,1.5c-.82-.5-1.61-1-2.38-1.42a6.78,6.78,0,0,0-2.84-.83,4.62,4.62,0,0,0-.85-3.76q-1.31-1.95-2.61-3.83a10.17,10.17,0,0,1-1.69-3.76q-.39-1.87,1.77-3.39a4.08,4.08,0,0,1-1.23-3.3,2.09,2.09,0,0,0,1.53.6,18.09,18.09,0,0,1,.69-6.47q1-3.75,1.69-7.44a20,20,0,0,0,.23-6.76A5.52,5.52,0,0,0,332.05,237.9ZM372,202.72c-.41,1.1-.75,2.08-1,2.93a20.83,20.83,0,0,1-.85,2.33c-.3.7-.64,1.41-1,2.11s-.74,1.5-1.15,2.4a2.33,2.33,0,0,0,1.23,1.35,2.34,2.34,0,0,1,1.23,1.36,21.35,21.35,0,0,1,4.3-1.58c1.44-.35,2.87-.62,4.3-.83s2.87-.45,4.31-.75a21.22,21.22,0,0,0,4.45-1.5,30.85,30.85,0,0,1,4.84-1.73q2.54-.67,5-1.43a49.82,49.82,0,0,0,4.76-1.73,12.65,12.65,0,0,0,4-2.63,19,19,0,0,0-6.45-3.46,36.45,36.45,0,0,0-9.3-1.88,35.37,35.37,0,0,0-10,.68A18.45,18.45,0,0,0,372,202.72Z" transform="translate(0 -4.31)"/><path class="cls-1" d="M431.8,276.72a4.79,4.79,0,0,1-1.24-2,3.36,3.36,0,0,0-1.77-1.89q-.23-1.59-.6-3.63c-.25-1.37-.5-2.78-.75-4.21s-.43-2.88-.54-4.32a16.34,16.34,0,0,1,.16-3.95,6.67,6.67,0,0,1,.7-1.78c.33-.57.65-1.11,1-1.64a6.86,6.86,0,0,0,.75-1.63,3,3,0,0,0,.06-1.68.92.92,0,0,0,.81-.69q.15-.57,1-.36c.5-1.55,1-3,1.61-4.32s1.18-2.63,1.83-3.89,1.31-2.55,2-3.84a33.74,33.74,0,0,0,1.88-4.37,10.19,10.19,0,0,1-2.63-3.63,22.27,22.27,0,0,1-1.24-3.95,38.82,38.82,0,0,1-.65-4.05,21.85,21.85,0,0,0-.86-4.16,11.22,11.22,0,0,1,3.12-3.1,18.33,18.33,0,0,1,4-2,30.25,30.25,0,0,1,4.78-1.27q2.58-.47,5.49-1.1c3.44-1,6.52-1.88,9.25-2.47s5.37-1.09,8-1.48,5.27-.73,8.06-1.05,6-.79,9.68-1.42a.4.4,0,0,0,.38.32h.7a1.17,1.17,0,0,0,1.18.73,3.48,3.48,0,0,0-.05-.58,2.09,2.09,0,0,1-.06-.47,2.48,2.48,0,0,1,.6.11c.25.07.46.14.64.21a.46.46,0,0,0,.48-.06c.15-.1.18-.33.11-.68a11.29,11.29,0,0,0,3.34,3.63,24.64,24.64,0,0,0,4.51,2.47,7.15,7.15,0,0,1,.06,1.37,5.8,5.8,0,0,1-.16.79,2.76,2.76,0,0,0-.11.84,5.82,5.82,0,0,0,.21,1.32,14.58,14.58,0,0,1-3.92,4.42,18,18,0,0,1-4.68,2.42,30.62,30.62,0,0,1-5.22,1.26q-2.74.42-5.59.9a48.94,48.94,0,0,0-5.75,1.31,23.91,23.91,0,0,0-5.7,2.53,3.89,3.89,0,0,0-1.56-.27,7.92,7.92,0,0,0-1.46.27c-.5.14-1.05.28-1.66.42a5.83,5.83,0,0,1-2.21,0,5.15,5.15,0,0,1-2,1.05l-2.31.63a4.87,4.87,0,0,1,.48,2.32,5.13,5.13,0,0,0,.27,2,56,56,0,0,0,10-.06c3.65-.31,7.24-.54,10.75-.68.07.35,0,.6-.11.74a1,1,0,0,0-.21.73,9.86,9.86,0,0,1,1.83,1.58c.57.63,1.16,1.25,1.77,1.84a10.42,10.42,0,0,0,1.88,1.48,3.76,3.76,0,0,0,2.26.47,7.91,7.91,0,0,1,.75,2.21,4.09,4.09,0,0,1-.32,2.42c-1.43.92-2.83,1.84-4.19,2.79a40.08,40.08,0,0,1-4.25,2.58,25.15,25.15,0,0,1-4.79,1.89,17.71,17.71,0,0,1-5.59.64h-.91a1.56,1.56,0,0,1-.92-.43,5.29,5.29,0,0,1-2.85.37,6,6,0,0,0-3,.37,10.58,10.58,0,0,0-3.49-.53,10.65,10.65,0,0,1-3.5-.52q-1.94,2.73-3.65,5.73a45.47,45.47,0,0,0-3,6.37,42.71,42.71,0,0,0,7.32.53c1.93-.07,3.76-.21,5.48-.42l5.33-.63a49,49,0,0,1,6.72-.21,20.71,20.71,0,0,1,6.18-1.74,39.92,39.92,0,0,0,6.51-1.42,3.68,3.68,0,0,1,1.83,1.21c.5.59,1,1.19,1.45,1.79a10.59,10.59,0,0,0,1.45,1.52,2.23,2.23,0,0,0,1.94.42,2.54,2.54,0,0,1,.7,1.27c.11.49.21.94.32,1.37a2.4,2.4,0,0,0,.49,1,1.31,1.31,0,0,0,1.18.26,20.33,20.33,0,0,1-4.57,6.31,18.58,18.58,0,0,1-5.7,3.42,33.35,33.35,0,0,1-7.1,1.79q-3.93.58-8.77,1.42a4,4,0,0,1-2-.05,5.48,5.48,0,0,0-1.66-.26q-3,.52-7.16,1.05a55.16,55.16,0,0,1-8.33.42,37.92,37.92,0,0,1-8.07-1.05A14.16,14.16,0,0,1,431.8,276.72Z" transform="translate(0 -4.31)"/><path class="cls-1" d="M496.76,271.25c-.36.07-.68-.19-1-.79a16.34,16.34,0,0,0-1-1.74H496a8.51,8.51,0,0,1-.38-4.26c.25-1.3.56-2.56.92-3.79s.66-2.42.91-3.58a6.17,6.17,0,0,0-.38-3.63.51.51,0,0,0,.81-.26,6.32,6.32,0,0,0,.43-1.47,8.42,8.42,0,0,0,.11-1.9c0-.66-.09-1.21-.16-1.63a40.23,40.23,0,0,0,2.2-6.74q.81-3.47,1.45-6.89t1.46-6.63a34.77,34.77,0,0,1,2.09-6.05,6.74,6.74,0,0,1,3.18.37,4.11,4.11,0,0,1,2.2,1.42,28.66,28.66,0,0,0,5.92-6.11q2.58-3.57,5.21-7a35,35,0,0,1,6-6.06,15.75,15.75,0,0,1,8.28-3.15q2.58,1.78,5.81,3.84a17.7,17.7,0,0,1,5.27,5.1c.58.35,1.13.72,1.67,1.11s1.09.75,1.67,1.1v1.58a12.44,12.44,0,0,1,2.52,3.21,33.25,33.25,0,0,1,1.83,3.9c.54,1.36,1.06,2.75,1.56,4.15a28.48,28.48,0,0,0,1.72,3.9,2.53,2.53,0,0,0-.16,1.1,4.66,4.66,0,0,0,.22.95,10.63,10.63,0,0,1,.27,1.05,8.21,8.21,0,0,1,.1,1.42,14.05,14.05,0,0,1-3.71,9,26,26,0,0,1-8,5.58,70.51,70.51,0,0,1-9.95,3.68,90,90,0,0,0-9.57,3.32c0,.28.16.42.49.42s.41.21.26.63c2.16,1.26,3.82,2.28,5,3a36.35,36.35,0,0,0,3.33,2,19.36,19.36,0,0,0,3.44,1.31q1.89.54,5.22,1.27t5.22,1.21c1.25.31,2.38.56,3.38.73s2.08.34,3.23.48,2.69.31,4.62.52a9.64,9.64,0,0,1,1.94,2.74,13.91,13.91,0,0,1,1.08,3.16,9.63,9.63,0,0,1,.16,3,4,4,0,0,1-.92,2.26.48.48,0,0,0,.59.37,3.29,3.29,0,0,1,1,.05,5.15,5.15,0,0,0-1.29,1.26l-1.08,1.48a8.81,8.81,0,0,1-1.24,1.36,2.94,2.94,0,0,1-1.77.74q-3.87,1.47-9.9.11a130.28,130.28,0,0,1-15.38-4.84c-3.08-1.13-5.59-2.14-7.53-3.06a52.26,52.26,0,0,1-5-2.68,33,33,0,0,1-4-2.84q-1.83-1.53-4.2-3.63a.5.5,0,0,0-.37.42.51.51,0,0,1-.38.42,25.69,25.69,0,0,1-1.67,6.84,24.16,24.16,0,0,1-3.28,5.37c-1.14-.21-1.91-.11-2.31.31a6.9,6.9,0,0,1-1.45,1.16,2.68,2.68,0,0,1-1.61-.05,6.38,6.38,0,0,1-1-.58c-.29-.21-.61-.42-1-.63a3,3,0,0,0-1.72-.21c-.22-.63-.43-1.25-.65-1.84s-.79-.86-1.72-.79a3.48,3.48,0,0,0,.22-1.64,6.83,6.83,0,0,0-.32-1.26,10.7,10.7,0,0,1-.38-1.21A2.44,2.44,0,0,1,496.76,271.25Zm35.92-48.1a23.24,23.24,0,0,1-3.11,3.63q-1.73,1.64-3.39,3.37a23.13,23.13,0,0,0-3,3.79,14.06,14.06,0,0,0-1.83,4.89,37.84,37.84,0,0,0,9.47-2.47q4.93-2,9.35-3.74a11,11,0,0,0-2.79-6.26A12,12,0,0,0,532.68,223.15Z" transform="translate(0 -4.31)"/><path class="cls-1" d="M569.68,258.93a12,12,0,0,1-4.94-5.05,15.72,15.72,0,0,1-1.94-6.21,8.5,8.5,0,0,1,1.34-3.94,9,9,0,0,1,2.42-2.32,12.63,12.63,0,0,1,2.91-1.37c1-.31,2-.58,2.9-.79l1.62.53a8.49,8.49,0,0,0,1.13.95c.39.28.76.56,1.12.84a2.08,2.08,0,0,0,1.35-1.26c.18-.56.38-1.13.59-1.69q.33-1.16.75-2.31A17.22,17.22,0,0,1,580,234a4.16,4.16,0,0,1,.11-1.68,11.67,11.67,0,0,1,.43-1.27,2.62,2.62,0,0,0-.92-.57c-.18,0-.48-.13-.91-.27a3.56,3.56,0,0,1-.65,0c-.21,0-.46-.09-.75-.16a8.14,8.14,0,0,1-2.1-1.94c-.32-.53-.66-1.07-1-1.64s-.68-1-1-1.47a7.19,7.19,0,0,0-1-1.16l-1.29-.84.65-1.26a.78.78,0,0,0,.21-.58,2.54,2.54,0,0,0-.43-1.11,3.87,3.87,0,0,1-.1-2l.21-1.27c.72-.91,1.11-1.44,1.19-1.58l1.07-1.05c1.65-.42,3.33-.89,5.06-1.42s3.4-1.07,5-1.63l5.06-1.69q2.58-.84,5.16-1.47A3.68,3.68,0,0,1,596,207c.68-.11,1.31-.2,1.88-.27a8.78,8.78,0,0,0,1.4-.1,1.48,1.48,0,0,0,1-.53c1.22-.42,2.4-.77,3.55-1q3.22-.84,8.5-2a88.31,88.31,0,0,1,11.83-1.68l2.26-.11a5.07,5.07,0,0,0,1.29.05c.43,0,.86-.05,1.29-.05,3.72,0,6.2,1.12,7.42,3.37a8.31,8.31,0,0,1,1.93,1.31c.58.53,1.11,1,1.62,1.53s.68.65,1,.9a6.79,6.79,0,0,0,.75.57l.86.85a6.64,6.64,0,0,1,.43,4.94,2.63,2.63,0,0,1-1.4,1.48l-1.51.42-1.39.73c-.94-.07-1.64-.1-2.1-.1H635q-3.22,0-7.48.37t-8.65,1.05q-4.41.69-8.61,1.68a65,65,0,0,0-7.31,2.16,9.66,9.66,0,0,1-2.26,1.16,4.54,4.54,0,0,0-1,.52,6.35,6.35,0,0,1,0,1.63,10.63,10.63,0,0,1-.32,1.53,9.26,9.26,0,0,0-.16,1.11c0,.38-.09.79-.16,1.21a8.78,8.78,0,0,0-2.16,6.21l-.53,1.05a3,3,0,0,0-.7,1.21,2.82,2.82,0,0,0-.06,1.63L596,241c1.44-.14,2.85-.29,4.25-.47s2.89-.37,4.47-.58c2-.35,4-.65,6.07-.89a52.84,52.84,0,0,1,6.4-.37h4.2l-1,.94,1.18.11-.64,1.68,1.13.48a4.24,4.24,0,0,1,.7.37l.75,1.05a2.91,2.91,0,0,1,1,1,4.27,4.27,0,0,1,.53,1.84l-.32,1.05-5,6.32-.65.84-1.07-.32a11.78,11.78,0,0,0-3.88.42c-.57.15-1.18.3-1.82.48a7.67,7.67,0,0,1-1.94.26c-1.72.28-3.16.51-4.3.68s-2.3.34-3.44.48l-4.58.79a21.3,21.3,0,0,0-4.14,1.1,7.88,7.88,0,0,1-1.39.06,1.65,1.65,0,0,0-.43-.06,7.69,7.69,0,0,0-2.16.32l-2,.63a2.62,2.62,0,0,0-.86,1.11c-.14.38-.29.78-.43,1.21A7,7,0,0,1,586,263a13.51,13.51,0,0,1-.92,1.42l.11,1.89a4.35,4.35,0,0,0-1,.26s0,.06-.1.06a4.56,4.56,0,0,1-.27,1.58l-.49,1.36a5.9,5.9,0,0,0-.32.74,2,2,0,0,0-.11.63,5.87,5.87,0,0,1,.54,4.32,8.6,8.6,0,0,1-1.61,3.52,8.43,8.43,0,0,1-2.8,2.37,5.61,5.61,0,0,1-2.53-.1l-1.66-.64q-.54-.21-1.08-.36c-.36-.11-.72-.2-1.07-.27l-1.3-1a8.08,8.08,0,0,0-.75-1.21c-.29-.38-.57-.79-.86-1.21l-1.07-1.47a9.12,9.12,0,0,1-1-1.69,15.9,15.9,0,0,1-.27-6.15,34.58,34.58,0,0,1,1.34-4.9c.15-.56.29-1.09.43-1.58S569.54,259.5,569.68,258.93Z" transform="translate(0 -4.31)"/><path class="cls-1" d="M654.22,280.72a21.73,21.73,0,0,1-8.6-.42,21.32,21.32,0,0,1-6.94-3.26,23.32,23.32,0,0,1-5.27-5.27,30.52,30.52,0,0,1-3.6-6.52,33.75,33.75,0,0,1,.53-13,42.33,42.33,0,0,1,4.41-10.79,64.63,64.63,0,0,1,6.62-9.26l7.15-8.31a1.29,1.29,0,0,0,1.24,0,3.26,3.26,0,0,0,.86-.84,12.92,12.92,0,0,1,.86-1.06,2.6,2.6,0,0,1,1.13-.73,4.59,4.59,0,0,1,1.13-1.58,16.5,16.5,0,0,1,1.5-1.21,18.59,18.59,0,0,0,1.51-1.21,6.25,6.25,0,0,0,1.24-1.58,5.32,5.32,0,0,0,1.88-.74,11.44,11.44,0,0,0,1.5-1.15,13.26,13.26,0,0,1,1.46-1.16,6.2,6.2,0,0,1,1.83-.84v-1.37a9.69,9.69,0,0,0,3.44-2.32c.71-.84,1.57-1.93,2.58-3.26.79-.07,1.41-.11,1.88-.11a15.92,15.92,0,0,0,2.2-.21,11.72,11.72,0,0,1,1.83-2.63,16.71,16.71,0,0,1,2.48-1.89,9.11,9.11,0,0,0,3.44,1,5.32,5.32,0,0,1,3.33,1.63,3.15,3.15,0,0,0,.76,2,12.84,12.84,0,0,0,1.39,1.26c.51.39,1,.79,1.51,1.21a3,3,0,0,1,1,1.79.87.87,0,0,0,.7-.21c.1-.14.34-.18.7-.11a9.4,9.4,0,0,0,.43,1.37,5.62,5.62,0,0,0,.48,1c.18.28.36.6.54.95a6.94,6.94,0,0,1,.48,1.26,27.13,27.13,0,0,0-1,2.68,2.86,2.86,0,0,1-1.72,2c0,.56.22.86.65.89a.8.8,0,0,1,.75.79,2.32,2.32,0,0,1-.32,1.58,99.1,99.1,0,0,1,5.48,10.37,87.25,87.25,0,0,0,5.6,10.36,7.08,7.08,0,0,0,.16,2.9,18.81,18.81,0,0,0,1,2.79c.39.91.77,1.82,1.13,2.73a14.17,14.17,0,0,1,.75,2.74,17.59,17.59,0,0,1,0,3.84,18.4,18.4,0,0,1-.86,3.95,15.54,15.54,0,0,1-1.72,3.52,7.92,7.92,0,0,1-2.48,2.48,13.24,13.24,0,0,1-4.3,3.42,25.57,25.57,0,0,0-4.73,3.1,11.14,11.14,0,0,1-3.23,1.21l-3.55.79a23.54,23.54,0,0,1-3.33,1.63c-1.29.53-2.62,1-4,1.42a32.05,32.05,0,0,1-4.09,1,11.83,11.83,0,0,1-3.65.16,40.74,40.74,0,0,1-7.53,1.9A25,25,0,0,1,654.22,280.72Zm1.4-38.31a22.62,22.62,0,0,1-2.53,4.37c-1,1.3-1.92,2.61-2.85,3.95a26.18,26.18,0,0,0-2.42,4.26,14,14,0,0,0-1.13,5.31,9.69,9.69,0,0,0,5.11,2.16,29.29,29.29,0,0,0,6.08.11q3.12-.27,6.24-.79a34.07,34.07,0,0,1,5.59-.53c0-.63.29-.95.86-.95a22.06,22.06,0,0,0,8.39-2.47q3.87-2.06,8.07-4.16a7.7,7.7,0,0,1,1.4-2.21,4.33,4.33,0,0,0,1-2.73,7,7,0,0,1-.7-1.58,8.78,8.78,0,0,1-.16-1.9,46.13,46.13,0,0,1-4.84-8.26,59.67,59.67,0,0,0-4.73-8.47,2.75,2.75,0,0,1-.86,1c-.43.35-.9.28-1.4-.21a2.29,2.29,0,0,1-1,1.42,2.82,2.82,0,0,1-1.45.37,4.4,4.4,0,0,1-1.61-.32,5.34,5.34,0,0,1-1.45-.84q-3.76,3-7.48,5.69A37,37,0,0,0,657,242.1c-.36.21-.58.28-.65.21S656.05,242.27,655.62,242.41Z" transform="translate(0 -4.31)"/><path class="cls-1" d="M713.27,271.25c-.36.07-.68-.19-1-.79a16.42,16.42,0,0,0-1-1.74h1.19a8.4,8.4,0,0,1-.38-4.26c.25-1.3.56-2.56.92-3.79s.66-2.42.91-3.58a6.17,6.17,0,0,0-.38-3.63.51.51,0,0,0,.81-.26,6.32,6.32,0,0,0,.43-1.47,8.42,8.42,0,0,0,.11-1.9c0-.66-.09-1.21-.16-1.63a40.23,40.23,0,0,0,2.2-6.74q.81-3.47,1.45-6.89t1.46-6.63a34.77,34.77,0,0,1,2.09-6.05,6.74,6.74,0,0,1,3.18.37,4.11,4.11,0,0,1,2.2,1.42,28.66,28.66,0,0,0,5.92-6.11q2.58-3.57,5.21-7a35,35,0,0,1,6-6.06,15.75,15.75,0,0,1,8.28-3.15q2.58,1.78,5.81,3.84a17.7,17.7,0,0,1,5.27,5.1c.57.35,1.13.72,1.67,1.11s1.09.75,1.67,1.1v1.58a12.44,12.44,0,0,1,2.52,3.21,33.25,33.25,0,0,1,1.83,3.9c.54,1.36,1.06,2.75,1.56,4.15a28.48,28.48,0,0,0,1.72,3.9,2.53,2.53,0,0,0-.16,1.1,4.66,4.66,0,0,0,.22.95,10.63,10.63,0,0,1,.27,1.05,8.21,8.21,0,0,1,.1,1.42,14.11,14.11,0,0,1-3.71,9,26,26,0,0,1-8,5.58A70.51,70.51,0,0,1,753.6,252a90,90,0,0,0-9.57,3.32c0,.28.16.42.49.42s.41.21.26.63c2.16,1.26,3.82,2.28,5,3a36.35,36.35,0,0,0,3.33,2,19.36,19.36,0,0,0,3.44,1.31q1.89.54,5.22,1.27T767,265.2c1.26.31,2.39.56,3.39.73s2.08.34,3.23.48,2.69.31,4.62.52a9.64,9.64,0,0,1,1.94,2.74,13.91,13.91,0,0,1,1.08,3.16,9.94,9.94,0,0,1,.16,3,4,4,0,0,1-.92,2.26.48.48,0,0,0,.59.37,3.29,3.29,0,0,1,1,.05,5.15,5.15,0,0,0-1.29,1.26l-1.08,1.48a8.81,8.81,0,0,1-1.24,1.36,2.94,2.94,0,0,1-1.77.74q-3.87,1.47-9.9.11a130.28,130.28,0,0,1-15.38-4.84c-3.08-1.13-5.59-2.14-7.53-3.06a52.26,52.26,0,0,1-5-2.68,33,33,0,0,1-4-2.84q-1.83-1.53-4.2-3.63a.5.5,0,0,0-.37.42.51.51,0,0,1-.38.42,25.69,25.69,0,0,1-1.67,6.84,24.16,24.16,0,0,1-3.28,5.37c-1.14-.21-1.91-.11-2.31.31a6.9,6.9,0,0,1-1.45,1.16,2.68,2.68,0,0,1-1.61-.05,6.38,6.38,0,0,1-1-.58c-.29-.21-.61-.42-1-.63a3,3,0,0,0-1.72-.21c-.22-.63-.43-1.25-.65-1.84s-.79-.86-1.72-.79a3.48,3.48,0,0,0,.22-1.64,6.83,6.83,0,0,0-.32-1.26,10.7,10.7,0,0,1-.38-1.21A2.44,2.44,0,0,1,713.27,271.25Zm35.92-48.1a23.24,23.24,0,0,1-3.11,3.63q-1.73,1.64-3.39,3.37a23.13,23.13,0,0,0-3,3.79,14.06,14.06,0,0,0-1.83,4.89,37.84,37.84,0,0,0,9.47-2.47q4.93-2,9.35-3.74a11,11,0,0,0-2.79-6.26A12,12,0,0,0,749.19,223.15Z" transform="translate(0 -4.31)"/><path class="cls-1" d="M791.14,281.77a26.41,26.41,0,0,1-3.33-.31,16.57,16.57,0,0,1-3.07-4.9,32,32,0,0,1-2-6.63,33,33,0,0,1-.65-7.05,16.31,16.31,0,0,1,1.24-6.26c0-.07.34-.91,1-2.53s1.56-3.66,2.64-6.15,2.29-5.27,3.65-8.32,2.73-6.05,4.09-9,2.67-5.63,3.93-8.05a50.56,50.56,0,0,1,3.28-5.63c.64-1,1.23-1.93,1.77-2.84s1.06-1.75,1.56-2.52l2.2-3.53a20,20,0,0,1,2.26-3,16,16,0,0,1,2.75-2.31,15.7,15.7,0,0,1,3.65-1.74,15.88,15.88,0,0,1,2.26,1.11,7.12,7.12,0,0,1,1.72,1.42l.33,1.47a1.54,1.54,0,0,0,.69,1,1.78,1.78,0,0,0,.81.26,19.65,19.65,0,0,1,2.42.69,9,9,0,0,0,2.21.47c.28.42.55.84.8,1.26a9.17,9.17,0,0,0,.81,1.16,44.93,44.93,0,0,1,3.55,5.89,7.25,7.25,0,0,1,0,6.21l.11,1.16a2.42,2.42,0,0,1,.53,1.37,10.79,10.79,0,0,1-.21,1.79c-.07.56-.13,1.17-.16,1.84a6.46,6.46,0,0,0,.27,2.16l.75.84a7.59,7.59,0,0,0,3.33.84,7.83,7.83,0,0,0,3.88-1c1.14-.63,2.22-1.26,3.22-1.89a17.88,17.88,0,0,1,2.21-1.37,8,8,0,0,1,2-.73c1.5-1.41,2.88-2.65,4.14-3.74s2.56-2.19,3.92-3.32a98,98,0,0,0,7.53-6.57,25.22,25.22,0,0,0,5.81-8.79,5,5,0,0,1,2.69-.74,8.46,8.46,0,0,1,3,.58c1,.39,2,.83,3,1.32a3.4,3.4,0,0,0,.59.31,3.58,3.58,0,0,1,.6.32,2.89,2.89,0,0,0,1,2.1,5.19,5.19,0,0,0,.76.53l.43.21c.57.35,1.05.67,1.45,1a2.69,2.69,0,0,1,.91,1.15,8.57,8.57,0,0,0,3.23,4.42,4.83,4.83,0,0,0,.11,2.27,21.23,21.23,0,0,0,.75,2.16,4.77,4.77,0,0,1,.32.78,7.47,7.47,0,0,0,.33.9l-2.37-.21.32,2.31a9,9,0,0,1-.27,4,14,14,0,0,1-1.34,3.48c.14,2.1.21,3.77.21,5a26.22,26.22,0,0,1-.21,3.43,16.52,16.52,0,0,1-.7,3,27.4,27.4,0,0,1-1.24,3,37.85,37.85,0,0,1-1.88,14.63q-2.31,6.63-5,12.42c-.22.49-.43.95-.65,1.37a9.66,9.66,0,0,0-.53,1.26,15,15,0,0,0-2.15.74,14.33,14.33,0,0,0-1.83.95,15.61,15.61,0,0,1-2.37,1.21,6.69,6.69,0,0,1-2.47.47q-5.17-3.68-5.33-12.73t3.93-23a1.59,1.59,0,0,0,.64-1.58v-1.16l-1.07-.1a4.13,4.13,0,0,0-1,.1c-.29.07-.5.39-.65,1q-3.43,2.41-7.47,5a89.91,89.91,0,0,1-8.34,4.73,60.37,60.37,0,0,1-8.76,3.58,28.41,28.41,0,0,1-8.66,1.42q-10.75,0-16.24-10.73l-1-1.9-1.07,1.69c-.22.35-.6,1-1.13,2a37.58,37.58,0,0,0-1.62,3.53,40.37,40.37,0,0,0-1.4,4.1,9.11,9.11,0,0,0-.37,3.68,26.52,26.52,0,0,0-2.53,2.63,9,9,0,0,0-1.77,3.37,1.61,1.61,0,0,0-.11,1,6.39,6.39,0,0,0,.32,1,1.77,1.77,0,0,1-.43,1.05,7.13,7.13,0,0,1-.75.64c-.36.35-.72.72-1.08,1.1a7.75,7.75,0,0,0-1,1.32,8.08,8.08,0,0,0-.32,1.31c-.07.46-.14.86-.21,1.21a2.68,2.68,0,0,1-.33,1.58c-.71,1.47-1.34,2.68-1.88,3.63a9.91,9.91,0,0,1-1.56,2.16,4.09,4.09,0,0,1-1.56,1A6.23,6.23,0,0,1,791.14,281.77Z" transform="translate(0 -4.31)"/><path class="cls-1" d="M885.9,270.3l1.4-1.05.1-2.21q2.69-6.42,5.54-12.32t6-12.1q1-2,2-4c.68-1.33,1.35-2.7,2-4.1a3.7,3.7,0,0,1-.11-.9,3.34,3.34,0,0,1,.22-1.1,37.69,37.69,0,0,0,2.42-3.79c.61-1.12,1.2-2.28,1.77-3.47q1-2.12,2.1-4.21a22.68,22.68,0,0,1,2.85-4.11l.75-1.05,1.19.11a6.18,6.18,0,0,1,.91-.37,3.93,3.93,0,0,1,1.24-.16l1.93.31a18.79,18.79,0,0,0,6.3-4.57A61.44,61.44,0,0,0,930,204l1.29-1.79,1.72,1a7.21,7.21,0,0,0,1.72.63c.79.21,1.61.46,2.47.74,1.51.35,3,.75,4.41,1.21a8.41,8.41,0,0,1,3.34,1.84l.53.95c.15.77.27,1.47.38,2.1s.23,1.27.38,1.9c.28,1.47.53,2.93.75,4.37a45.6,45.6,0,0,1,.43,4.78c.36,1.41.7,2.83,1,4.27s.63,2.86.91,4.26q.54,3,1.19,5.84a31.4,31.4,0,0,0,1.72,5.31,4.25,4.25,0,0,1,1.29.11,9.49,9.49,0,0,1,3-.63l1.4-.11.43,1.27a3.78,3.78,0,0,0,.54.63,6.21,6.21,0,0,0,.75.63,5,5,0,0,1,2.53.68,12,12,0,0,1,1.34,1.11c.15.14.33.3.54.47a2.75,2.75,0,0,0,.54.37l1.93.74-1.07,2a15.66,15.66,0,0,1-3.6,4.31,22.1,22.1,0,0,1-5.44,3.47,6.36,6.36,0,0,1,.27,1.37,10.5,10.5,0,0,0,.27,1.48c.29,1.4.52,2.85.7,4.36a18.93,18.93,0,0,1-.05,4.69,25.52,25.52,0,0,1-2.53,4.89,19.87,19.87,0,0,1-3.44,3.89A17.9,17.9,0,0,1,947.2,280a14,14,0,0,1-5.16,1.21,7.39,7.39,0,0,1-2.2-.74,12.11,12.11,0,0,1-1.24-.84,6.86,6.86,0,0,0-1.4-.84l-1.4-.64.43-1.57a1.62,1.62,0,0,0-.05-1.48,8.28,8.28,0,0,0-1.56-1.68,4.15,4.15,0,0,1-.75-.69c-.22-.24-.47-.5-.76-.79L931,269.56l3.55-.94c2.15-.56,3.59-1.28,4.3-2.16s1-2.44.87-4.68a11.28,11.28,0,0,0-4.42-.16c-1.14.25-2.29.51-3.44.79-1.65.42-3.26.79-4.84,1.1a25.94,25.94,0,0,1-5.16.48,25.43,25.43,0,0,1-3.87-.32l-1.18-.1-.33-1.16a.74.74,0,0,0-.27-.48l-.48-.47q-.54-.63-1.29-1.68a3,3,0,0,1-.32-2.63,5.13,5.13,0,0,1-.86-2.43,12.4,12.4,0,0,0-.7,1.64c-.18.52-.34,1-.49,1.52l-.43,1.37-1.4.21a1.84,1.84,0,0,0-.37.63.81.81,0,0,0-.06.63l.43,1.16-1.07.95a1.91,1.91,0,0,1-.54.52,5.36,5.36,0,0,0-.54.43,14,14,0,0,1-.59,2.21c-.25.7-.52,1.4-.8,2.1-.36,1.12-.7,2.21-1,3.26a10.87,10.87,0,0,0-.48,3.16l-.43,1.37a3.58,3.58,0,0,1-1.34,1.26c-.54.28-1.06.53-1.56.74a4.68,4.68,0,0,0-1.51.84l-.32,1.37-1.62.21c-.93.21-1.59.35-2,.42a7.64,7.64,0,0,1-1.34.11l-1.4-.11q-1.29-1.26-2.1-2a8.94,8.94,0,0,0-1.88-1.21l-.64-.84a5,5,0,0,1-.54-1.53,12.32,12.32,0,0,0-.32-1.42,4.16,4.16,0,0,0-.65-1.89Zm34.31-27.36c-1,1.4-2,2.88-2.91,4.42a10.59,10.59,0,0,1,1.46-.11,10.5,10.5,0,0,0,1.45-.1q3.76-.21,7-.53t7-1.05c-.58-2.6-1.2-5.25-1.88-7.95s-1.42-5.42-2.21-8.15l-.54,1.05a74,74,0,0,0-5.16,6.1,51.85,51.85,0,0,0-4.09,6.21Z" transform="translate(0 -4.31)"/><path class="cls-1" d="M985.49,270.41a3.4,3.4,0,0,0-1.29,2.15q-.21,1.32-.54,2.58a5.07,5.07,0,0,1-1.12,2.16,3.47,3.47,0,0,1-2.86.79c-.28.35-.34.56-.16.63s.34.39.49.95a3.26,3.26,0,0,0-2.15.21,4.81,4.81,0,0,1-1.62.63,8.51,8.51,0,0,1-4.14-2.68,23.42,23.42,0,0,1-2.9-4.27,39.29,39.29,0,0,1-2.15-4.73,34.86,34.86,0,0,0-1.88-4.21c0-.28.12-.41.37-.37a4.43,4.43,0,0,0,.7.05,9.18,9.18,0,0,1-.81-2.37,4.45,4.45,0,0,0-1-2.15q3.12-6.52,6.67-13.63t7.15-14.42q3.62-7.32,7.21-14.73t6.94-14.58a50.12,50.12,0,0,1,5.86,2.47,29,29,0,0,1,5.22,3.32,19.84,19.84,0,0,1,4,4.36,14.27,14.27,0,0,1,2.2,5.64c-.14.42-.32.56-.53.42s-.4-.07-.54.21a2.77,2.77,0,0,1,.59.89,1,1,0,0,1-.05.53,1.64,1.64,0,0,0-.11.68,2.25,2.25,0,0,0,.54,1.16.74.74,0,0,0-.76.16c-.14.17-.39.19-.75.05a4.06,4.06,0,0,1,.32,2.32,5.31,5.31,0,0,1-.64,1.52,7.09,7.09,0,0,0-.7,1.47,3.56,3.56,0,0,0,.16,2.16.82.82,0,0,0-.59.16,1.26,1.26,0,0,0-.27.37,1.41,1.41,0,0,1-.27.37.65.65,0,0,1-.59,0,36.26,36.26,0,0,1,.21,5.52c-.07,1.86-.14,3.76-.21,5.69s-.07,3.91,0,5.94a33.36,33.36,0,0,0,.86,6.32,22,22,0,0,0,7.47-6.84,36.79,36.79,0,0,0,4.52-9.37,71.81,71.81,0,0,0,2.58-11.05q.92-5.9,1.88-12a8.51,8.51,0,0,0,1.89-2.84,28.9,28.9,0,0,0,1.18-3.47c.32-1.19.65-2.4,1-3.63a13.33,13.33,0,0,1,1.34-3.32,7.18,7.18,0,0,1,3.28,1.11,18.69,18.69,0,0,1,2.53,2,28.25,28.25,0,0,0,2.47,2.05,7.45,7.45,0,0,0,3.23,1.26c1,1.41,1.94,2.76,2.8,4.05a11.54,11.54,0,0,1,1.72,4.37,8.55,8.55,0,0,0-1,2.32c-.21.84-.45,1.68-.7,2.52a9.72,9.72,0,0,1-1,2.32,5.51,5.51,0,0,1-1.83,1.79,45.24,45.24,0,0,1-1,5.89c-.43,1.83-.82,3.61-1.18,5.37s-.68,3.58-1,5.47a35.08,35.08,0,0,0-.32,6.21c-.65,2-1.36,4.12-2.15,6.26a39.07,39.07,0,0,0-1.72,6,11.37,11.37,0,0,0-3.23,3.89q-1.19,2.33-2.47,4.63c-.36.28-.58.34-.65.16s-.39-.3-1-.37c.07.63,0,1-.37,1.21s-.31.69,0,1.53a11.51,11.51,0,0,0-3.23,2.21,24.49,24.49,0,0,1-3.06,2.53,9.33,9.33,0,0,1-3.87,1.52,12,12,0,0,1-5.76-.89,52.65,52.65,0,0,1-9.46-8.74,38.23,38.23,0,0,1-6.67-11.68,2.54,2.54,0,0,0-1.61,1.37,19.17,19.17,0,0,0-1,2.21c-.29.77-.58,1.47-.86,2.1a1.39,1.39,0,0,1-1.29.95,4.78,4.78,0,0,1-.81,1.74c-.39.52-.77,1.05-1.13,1.57a6,6,0,0,0-.81,1.74A3,3,0,0,0,985.49,270.41Z" transform="translate(0 -4.31)"/><path class="cls-1" d="M1051.43,271.14a18.38,18.38,0,0,1-5.11-5.79,33.23,33.23,0,0,1-3.12-7.36,42.08,42.08,0,0,1-1.51-8.05,67.69,67.69,0,0,1-.27-7.95,28.55,28.55,0,0,1,2.37-5.21,38.75,38.75,0,0,1,3.12-4.53c1.14-1.43,2.35-2.8,3.6-4.1s2.49-2.61,3.71-4a2.27,2.27,0,0,1,1.18.32,5.47,5.47,0,0,1,1.29-2,16.48,16.48,0,0,1,1.83-1.53l1.94-1.36a6.56,6.56,0,0,0,1.61-1.63,19.22,19.22,0,0,0,4.79-1.79,44.8,44.8,0,0,0,4-2.53q1.93-1.37,4-2.53a18.19,18.19,0,0,1,4.73-1.79,8.58,8.58,0,0,1,2.42-1.78c1-.49,1.94-1,2.91-1.37s1.9-.88,2.79-1.37a6.33,6.33,0,0,0,2.21-2,1.67,1.67,0,0,0,1.83.58c.79-.18,1.5-.37,2.15-.58a1.36,1.36,0,0,1,1.07.21,7.67,7.67,0,0,1,.81.68,2.08,2.08,0,0,0,.65.48c.17.07.37-.14.59-.63.57.07.73.31.48.73s-.41.71-.48.85a2,2,0,0,1,1.77.36,4.4,4.4,0,0,0,2.21.79c.36.36.46.63.32.84a2.77,2.77,0,0,0-.32,1.06q3.87,1.15,5,3.63a7.16,7.16,0,0,1,.21,5.16,12.1,12.1,0,0,1-3.17,4.94,11.42,11.42,0,0,1-5.11,3c-2.22.56-4.29,1.12-6.19,1.69s-3.73,1.19-5.48,1.89a31.74,31.74,0,0,0-5,2.47,18.22,18.22,0,0,0-4,3.32,21.46,21.46,0,0,0-5.43,2.31,34.74,34.74,0,0,0-4.52,3.27q-2.1,1.79-4,3.73t-3.88,3.84a4.85,4.85,0,0,1-.64,2.74c-.43.63-.9,1.26-1.4,1.89a10.17,10.17,0,0,0,.91,3.42c.47.95,1,1.92,1.46,2.9a81.81,81.81,0,0,0,18.23,3.1q9.61.58,19.09.69a16.83,16.83,0,0,0,2.2,2.36,26.85,26.85,0,0,1,2.26,2.27,9.05,9.05,0,0,1,1.62,2.68,7,7,0,0,1,.26,3.63,39.2,39.2,0,0,1-4,3.42q-2.15,1.63-4.3,3.21a12.64,12.64,0,0,1-2.31,0c-.9-.07-1.83-.1-2.8-.1a25.75,25.75,0,0,0-2.9.16,9.92,9.92,0,0,0-2.74.68,83.59,83.59,0,0,1-13.88-1.63,111.53,111.53,0,0,1-13.12-3.42,35.54,35.54,0,0,0-2.47-2.58A7.52,7.52,0,0,0,1051.43,271.14Z" transform="translate(0 -4.31)"/><path class="cls-1" d="M1113.7,276.72a4.9,4.9,0,0,1-1.24-2,3.36,3.36,0,0,0-1.77-1.89c-.15-1.06-.34-2.27-.59-3.63s-.5-2.78-.76-4.21a42.44,42.44,0,0,1-.53-4.32,15.38,15.38,0,0,1,.16-3.95,6.06,6.06,0,0,1,.7-1.78c.32-.57.64-1.11,1-1.64a7.27,7.27,0,0,0,.75-1.63,3,3,0,0,0,0-1.68.92.92,0,0,0,.81-.69q.16-.57,1-.36c.5-1.55,1-3,1.61-4.32s1.19-2.63,1.83-3.89,1.31-2.55,2-3.84a33.74,33.74,0,0,0,1.88-4.37,10.31,10.31,0,0,1-2.63-3.63,23.13,23.13,0,0,1-1.24-3.95,36.32,36.32,0,0,1-.64-4.05,22.65,22.65,0,0,0-.86-4.16,11.09,11.09,0,0,1,3.12-3.1,18,18,0,0,1,4-2,30.55,30.55,0,0,1,4.78-1.27c1.73-.31,3.55-.68,5.49-1.1,3.44-1,6.52-1.88,9.25-2.47s5.38-1.09,8-1.48,5.27-.73,8.07-1.05,6-.79,9.68-1.42c.07.21.19.32.37.32h.7a1.18,1.18,0,0,0,1.18.73,2.67,2.67,0,0,0,0-.58,2,2,0,0,1,0-.47,2.42,2.42,0,0,1,.59.11c.25.07.46.14.64.21a.48.48,0,0,0,.49-.06c.14-.1.18-.33.1-.68a11.51,11.51,0,0,0,3.34,3.63,24.73,24.73,0,0,0,4.52,2.47,6.23,6.23,0,0,1,0,1.37,5.8,5.8,0,0,1-.16.79,3.11,3.11,0,0,0-.11.84,5.4,5.4,0,0,0,.22,1.32,14.73,14.73,0,0,1-3.93,4.42,18,18,0,0,1-4.68,2.42,30.74,30.74,0,0,1-5.21,1.26q-2.74.42-5.6.9a48.94,48.94,0,0,0-5.75,1.31,23.91,23.91,0,0,0-5.7,2.53,3.89,3.89,0,0,0-1.56-.27,7.83,7.83,0,0,0-1.45.27c-.51.14-1.06.28-1.67.42a5.83,5.83,0,0,1-2.21,0,5.11,5.11,0,0,1-2,1.05l-2.32.63a5,5,0,0,1,.49,2.32,4.79,4.79,0,0,0,.27,2,55.9,55.9,0,0,0,10-.06c3.65-.31,7.24-.54,10.75-.68a.81.81,0,0,1-.1.74,1,1,0,0,0-.22.73,9.26,9.26,0,0,1,1.83,1.58c.57.63,1.16,1.25,1.77,1.84a10.14,10.14,0,0,0,1.89,1.48,3.73,3.73,0,0,0,2.26.47,8.61,8.61,0,0,1,.75,2.21,4.18,4.18,0,0,1-.33,2.42c-1.43.92-2.83,1.84-4.19,2.79a39.1,39.1,0,0,1-4.25,2.58,25.05,25.05,0,0,1-4.78,1.89,17.8,17.8,0,0,1-5.6.64H1147a1.59,1.59,0,0,1-.92-.43,5.26,5.26,0,0,1-2.85.37,6,6,0,0,0-3,.37,10.64,10.64,0,0,0-3.5-.53,10.55,10.55,0,0,1-3.49-.52,66.54,66.54,0,0,0-3.66,5.73,45.43,45.43,0,0,0-3,6.37,42.6,42.6,0,0,0,7.31.53c1.94-.07,3.76-.21,5.49-.42l5.32-.63a49,49,0,0,1,6.72-.21,20.78,20.78,0,0,1,6.19-1.74,39.57,39.57,0,0,0,6.5-1.42,3.68,3.68,0,0,1,1.83,1.21c.5.59,1,1.19,1.45,1.79a10.12,10.12,0,0,0,1.46,1.52,2.21,2.21,0,0,0,1.93.42,2.54,2.54,0,0,1,.7,1.27c.11.49.22.94.32,1.37a2.4,2.4,0,0,0,.49,1,1.32,1.32,0,0,0,1.18.26,20.33,20.33,0,0,1-4.57,6.31,18.58,18.58,0,0,1-5.7,3.42,33.2,33.2,0,0,1-7.1,1.79q-3.93.58-8.76,1.42a4,4,0,0,1-2-.05,5.55,5.55,0,0,0-1.67-.26c-2,.35-4.4.7-7.15,1.05a55.29,55.29,0,0,1-8.34.42,37.92,37.92,0,0,1-8.07-1.05A14.16,14.16,0,0,1,1113.7,276.72Z" transform="translate(0 -4.31)"/><path class="cls-2" d="M145.14,143.78V158a26.82,26.82,0,0,1,4-7.46A25.1,25.1,0,0,1,168,140.36a25.54,25.54,0,0,1-4.9,21,25.23,25.23,0,0,1-17.93,10.11v9.26c-1,.88-2,1.78-3,2.69l-.1.09c-.9-.84-1.83-1.68-2.76-2.5v-9.54a25.23,25.23,0,0,1-17.94-10.11,25.57,25.57,0,0,1-4.9-21,25.1,25.1,0,0,1,18.81,10.16,27.26,27.26,0,0,1,4,7.46v-14.2a25.23,25.23,0,0,1-17.94-10.11,25.57,25.57,0,0,1-4.9-21,25.1,25.1,0,0,1,18.81,10.16,27.12,27.12,0,0,1,4,7.46V116.12A25.18,25.18,0,0,1,121.36,106a25.58,25.58,0,0,1-4.9-21,25.07,25.07,0,0,1,18.81,10.16,27,27,0,0,1,4,7.46V93.87a24.51,24.51,0,0,1,2.91-36.7,24.5,24.5,0,0,1,2.93,36.7v8.81a26.68,26.68,0,0,1,4-7.46A25.07,25.07,0,0,1,168,85.06a25.54,25.54,0,0,1-4.9,21,25.18,25.18,0,0,1-17.93,10.1v14.21a26.82,26.82,0,0,1,4-7.46A25.1,25.1,0,0,1,168,112.71a25.54,25.54,0,0,1-4.9,21A25.23,25.23,0,0,1,145.14,143.78Z" transform="translate(0 -4.31)"/><path class="cls-2" d="M195.69,137.92v10.43a19.88,19.88,0,0,1,17.6-12.93,17.86,17.86,0,0,1-2.9,14.2,149.84,149.84,0,0,0-25.08,7.17h0a20,20,0,0,1-7.91-6,18.12,18.12,0,0,1-3.78-15.39,19.88,19.88,0,0,1,17.61,12.93V137.92a19.66,19.66,0,0,1-13.83-7.42,18.11,18.11,0,0,1-3.78-15.39,19.9,19.9,0,0,1,17.61,12.94V117.61a19.66,19.66,0,0,1-13.83-7.42,18.11,18.11,0,0,1-3.78-15.39,19.9,19.9,0,0,1,17.61,12.94v-6.47a17.44,17.44,0,0,1,2.25-26.95,17.46,17.46,0,0,1,2.25,27v6.47a19.26,19.26,0,0,1,3.1-5.48,19.63,19.63,0,0,1,14.5-7.46,18,18,0,0,1-3.78,15.39,19.64,19.64,0,0,1-13.82,7.42v10.44a19.26,19.26,0,0,1,3.1-5.48,19.63,19.63,0,0,1,14.5-7.46,18,18,0,0,1-3.78,15.39A19.64,19.64,0,0,1,195.69,137.92Z" transform="translate(0 -4.31)"/><path class="cls-2" d="M92.94,137.92v10.43a19.88,19.88,0,0,1,17.6-12.93,18.05,18.05,0,0,1-3.78,15.39,20,20,0,0,1-7.9,6,149.09,149.09,0,0,0-25.14-7.19,18,18,0,0,1-2.89-14.19,19.93,19.93,0,0,1,17.61,12.93V137.92a19.66,19.66,0,0,1-13.83-7.42,18.11,18.11,0,0,1-3.78-15.39,19.61,19.61,0,0,1,14.5,7.46,19.3,19.3,0,0,1,3.11,5.48V117.61a19.66,19.66,0,0,1-13.83-7.42A18.11,18.11,0,0,1,70.83,94.8a19.61,19.61,0,0,1,14.5,7.46,19.3,19.3,0,0,1,3.11,5.48v-6.47a17.44,17.44,0,0,1,2.25-26.95,17.46,17.46,0,0,1,2.25,27v6.47a19.26,19.26,0,0,1,3.1-5.48,19.61,19.61,0,0,1,14.5-7.46,18,18,0,0,1-3.78,15.39,19.64,19.64,0,0,1-13.82,7.42v10.44a19.26,19.26,0,0,1,3.1-5.48,19.61,19.61,0,0,1,14.5-7.46,18,18,0,0,1-3.78,15.39A19.64,19.64,0,0,1,92.94,137.92Z" transform="translate(0 -4.31)"/><path class="cls-3" d="M168.73,250.56l-.08,0-.28-.13c-4-1.82-42-19.51-95.21-67.61,0,0,27.18,46.71,80.07,70.55a100.34,100.34,0,0,1-11.17.63C88.12,254,44.4,210.5,44.4,156.89c0-1.23,0-2.45.07-3.67,0,0,0,0,0,0,0-.2,0-.39.05-.59,40.37.28,76.19,15.93,98.88,40,15.18,16.12,24.48,36,25.32,57.67v.25Z" transform="translate(0 -4.31)"/><path class="cls-3" d="M239.73,156.89a97.18,97.18,0,0,1-65.5,91.69,88.27,88.27,0,0,0-3.56-20.29c26.48-21.95,40.08-45.14,40.29-45.5a554.66,554.66,0,0,1-43.79,35.86,99,99,0,0,0-14.84-24.16q-2.28-2.76-4.78-5.41c-.52-.55-1-1.1-1.58-1.64,22.76-21.13,56.25-34.57,93.64-34.83l0,.53h0C239.7,154.38,239.73,155.63,239.73,156.89Z" transform="translate(0 -4.31)"/><path class="cls-4" d="M239.61,152.61c-40.53,7.56-68.4,24.32-87.28,41.88q-2.28-2.76-4.78-5.41c-.52-.55-1-1.1-1.58-1.64C168.73,166.31,202.22,152.87,239.61,152.61Z" transform="translate(0 -4.31)"/><path class="cls-1" d="M153.23,253.34a100.34,100.34,0,0,1-11.17.63C88.12,254,44.4,210.5,44.4,156.89c0-1.23,0-2.45.07-3.67,0,0,0,0,0,0S59.27,242,153.23,253.34Z" transform="translate(0 -4.31)"/><path class="cls-5" d="M69.78,67.92,53.17,46A142.52,142.52,0,0,0,30.48,68.82,140.63,140.63,0,0,0,8.14,109.2l26.34,8.22A114.73,114.73,0,0,1,69.78,67.92Z" transform="translate(0 -4.31)"/><path class="cls-6" d="M27.67,156a113,113,0,0,1,4-30L5.28,117.78a141.39,141.39,0,0,0-1.36,71.34l32.13,9.7A112.8,112.8,0,0,1,27.67,156Z" transform="translate(0 -4.31)"/><path class="cls-7" d="M142.1,269.77A114.43,114.43,0,0,1,52.65,227l5.18-4.71a5,5,0,0,0-1.92-8.43L15.83,201.69a5,5,0,0,0-6.32,5.95l9.83,39.61a5,5,0,0,0,8.24,2.48l4.6-4.18a142.69,142.69,0,0,0,207.73,12.93l-7.51-32.59A114.5,114.5,0,0,1,142.1,269.77Z" transform="translate(0 -4.31)"/><path class="cls-8" d="M281.25,208.15l-6.13-1.94q2.07-5.42,3.69-11h-.16A140.72,140.72,0,0,0,284.19,156c0-63.87-42.65-117.83-101.18-135.3L158.64,43.48C214,51.44,256.52,98.8,256.52,156a112.8,112.8,0,0,1-8,41.76l.24.07-6.59-2.09a5,5,0,0,0-6.4,5.86l9.4,40.58a5,5,0,0,0,8.34,2.48l29.65-28.21A5,5,0,0,0,281.25,208.15Z" transform="translate(0 -4.31)"/><path class="cls-9" d="M77,62.47a114.23,114.23,0,0,1,48.6-19l1.45,6.69a5,5,0,0,0,8.3,2.6l30.73-28.3a5,5,0,0,0-2-8.42L124.74,4.51a5,5,0,0,0-6.31,5.83l1.35,6.18a141.9,141.9,0,0,0-59.41,24Z" transform="translate(0 -4.31)"/></g></g></svg>