<svg xmlns="http://www.w3.org/2000/svg" xmlns:xlink="http://www.w3.org/1999/xlink" viewBox="0 0 1164.97 292.97"><defs><style>.cls-1{fill:#998f0e;}.cls-2{fill:#3bba65;}.cls-3{fill:#248d7b;}.cls-4{fill:#187687;}.cls-5{fill:url(#linear-gradient);}.cls-6{fill:url(#linear-gradient-2);}.cls-7{fill:url(#linear-gradient-3);}.cls-8{fill:url(#linear-gradient-4);}.cls-9{fill:url(#linear-gradient-5);}</style><linearGradient id="linear-gradient" x1="24.11" y1="325.54" x2="39.45" y2="28.98" gradientUnits="userSpaceOnUse"><stop offset="0" stop-color="#0c5f92"/><stop offset="0.17" stop-color="#146e8b"/><stop offset="0.49" stop-color="#279478"/><stop offset="0.77" stop-color="#3bba65"/></linearGradient><linearGradient id="linear-gradient-2" x1="9.1" y1="325.1" x2="24.47" y2="27.93" xlink:href="#linear-gradient"/><linearGradient id="linear-gradient-3" x1="111.19" y1="330.68" x2="126.6" y2="32.61" xlink:href="#linear-gradient"/><linearGradient id="linear-gradient-4" x1="196.07" y1="335.38" x2="211.44" y2="38.29" xlink:href="#linear-gradient"/><linearGradient id="linear-gradient-5" x1="90.98" y1="328.66" x2="106.29" y2="32.58" xlink:href="#linear-gradient"/></defs><title>logo-triple-performance</title><g id="Layer_2" data-name="Layer 2"><g id="Layer_1-2" data-name="Layer 1"><path class="cls-1" d="M135.36,144.33v14.21a27.57,27.57,0,0,1,3.75-7.47c4.54-6.38,11.12-9.91,17.55-10.15a27,27,0,0,1-4.57,21c-4.34,6.11-10.56,9.61-16.73,10.1v9.26c-.94.89-1.86,1.78-2.77,2.7l-.1.09c-.84-.85-1.7-1.68-2.57-2.5V172c-6.17-.49-12.39-4-16.74-10.1a27,27,0,0,1-4.56-21c6.43.24,13,3.77,17.54,10.15a27.89,27.89,0,0,1,3.76,7.47V144.33c-6.17-.49-12.39-4-16.74-10.1a27,27,0,0,1-4.56-21c6.43.24,13,3.77,17.54,10.15a27.89,27.89,0,0,1,3.76,7.47V116.68c-6.17-.5-12.39-4-16.74-10.11a27,27,0,0,1-4.56-20.95c6.43.23,13,3.77,17.54,10.15a28,28,0,0,1,3.76,7.46V94.42a25.35,25.35,0,0,1-6.46-17.07,25,25,0,0,1,9.18-19.62,25,25,0,0,1,9.18,19.62,25.35,25.35,0,0,1-6.46,17.07v8.81a27.66,27.66,0,0,1,3.75-7.46c4.54-6.38,11.12-9.92,17.55-10.15a26.94,26.94,0,0,1-4.57,20.95c-4.34,6.12-10.56,9.61-16.73,10.11v14.21a27.57,27.57,0,0,1,3.75-7.47c4.54-6.38,11.12-9.91,17.55-10.15a27,27,0,0,1-4.57,21C147.75,140.34,141.53,143.84,135.36,144.33Z" transform="translate(0 -4.86)"/><path class="cls-1" d="M182.51,138.48v10.43a19.93,19.93,0,0,1,2.89-5.48A17.94,17.94,0,0,1,198.93,136a18.93,18.93,0,0,1-2.7,14.21,132.34,132.34,0,0,0-23.4,7.16l0,0a18.84,18.84,0,0,1-7.37-6A19,19,0,0,1,161.9,136a17.94,17.94,0,0,1,13.52,7.46,19.93,19.93,0,0,1,2.89,5.48V138.48a18.08,18.08,0,0,1-12.89-7.42,19.06,19.06,0,0,1-3.52-15.39,17.89,17.89,0,0,1,13.52,7.45,20.07,20.07,0,0,1,2.89,5.48V118.17a18,18,0,0,1-12.89-7.42,19.06,19.06,0,0,1-3.52-15.39,17.91,17.91,0,0,1,13.52,7.46,19.87,19.87,0,0,1,2.89,5.47v-6.47a18.26,18.26,0,0,1,2.1-26.95,18.24,18.24,0,0,1,2.1,26.95v6.47a19.87,19.87,0,0,1,2.89-5.47,17.91,17.91,0,0,1,13.53-7.46,19.06,19.06,0,0,1-3.52,15.39,18,18,0,0,1-12.9,7.42V128.6a20.07,20.07,0,0,1,2.89-5.48,17.9,17.9,0,0,1,13.53-7.45,19.06,19.06,0,0,1-3.52,15.39A18.08,18.08,0,0,1,182.51,138.48Z" transform="translate(0 -4.86)"/><path class="cls-1" d="M86.68,138.48v10.43a19.93,19.93,0,0,1,2.89-5.48A17.94,17.94,0,0,1,103.1,136a19.53,19.53,0,0,1-10.9,21.39,131.76,131.76,0,0,0-23.44-7.19,19,19,0,0,1-2.7-14.2,17.94,17.94,0,0,1,13.53,7.46,19.93,19.93,0,0,1,2.89,5.48V138.48a18.12,18.12,0,0,1-12.9-7.42,19.13,19.13,0,0,1-3.52-15.39,17.9,17.9,0,0,1,13.53,7.45,20.07,20.07,0,0,1,2.89,5.48V118.17a18,18,0,0,1-12.9-7.42,19.13,19.13,0,0,1-3.52-15.39,17.91,17.91,0,0,1,13.53,7.46,19.87,19.87,0,0,1,2.89,5.47v-6.47a18.26,18.26,0,0,1,2.1-26.95,18.24,18.24,0,0,1,2.1,26.95v6.47a19.87,19.87,0,0,1,2.89-5.47,17.91,17.91,0,0,1,13.53-7.46,19.1,19.1,0,0,1-3.53,15.39,18,18,0,0,1-12.89,7.42V128.6a20.07,20.07,0,0,1,2.89-5.48,17.9,17.9,0,0,1,13.53-7.45,19.1,19.1,0,0,1-3.53,15.39A18.08,18.08,0,0,1,86.68,138.48Z" transform="translate(0 -4.86)"/><path class="cls-2" d="M157.37,251.11l-.07,0L157,251c-3.78-1.82-39.17-19.51-88.81-67.62,0,0,25.35,46.71,74.68,70.56a87.25,87.25,0,0,1-10.41.62c-50.31,0-91.09-43.46-91.09-97.07,0-1.23,0-2.46.06-3.68v0c0-.19,0-.39.05-.58,37.65.28,71.06,15.92,92.22,40,14.16,16.12,22.83,36,23.62,57.66v.25Z" transform="translate(0 -4.86)"/><path class="cls-2" d="M223.58,157.45c0,42.41-25.52,78.47-61.08,91.68a94.08,94.08,0,0,0-3.32-20.28c24.7-21.95,37.38-45.14,37.58-45.51a525.19,525.19,0,0,1-40.85,35.86,100.59,100.59,0,0,0-13.84-24.15c-1.42-1.84-2.9-3.65-4.46-5.42-.48-.55-1-1.09-1.47-1.63,21.23-21.13,52.46-34.57,87.33-34.83l.05.52h0C223.56,154.94,223.58,156.19,223.58,157.45Z" transform="translate(0 -4.86)"/><path class="cls-3" d="M223.47,153.17c-37.8,7.56-63.78,24.32-81.4,41.88-1.42-1.84-2.9-3.65-4.46-5.42-.48-.55-1-1.09-1.47-1.63C157.37,166.87,188.6,153.43,223.47,153.17Z" transform="translate(0 -4.86)"/><path class="cls-4" d="M142.91,253.9a87.25,87.25,0,0,1-10.41.62c-50.31,0-91.09-43.46-91.09-97.07,0-1.23,0-2.46.06-3.68v0S55.28,242.59,142.91,253.9Z" transform="translate(0 -4.86)"/><path class="cls-5" d="M65.08,68.48,49.59,46.54A137,137,0,0,0,28.43,69.38,143.75,143.75,0,0,0,7.59,109.76L32.16,118A114.77,114.77,0,0,1,65.08,68.48Z" transform="translate(0 -4.86)"/><path class="cls-6" d="M25.81,156.59a121.24,121.24,0,0,1,3.75-30L4.92,118.33a151.27,151.27,0,0,0-1.26,71.34l30,9.71A119.89,119.89,0,0,1,25.81,156.59Z" transform="translate(0 -4.86)"/><path class="cls-7" d="M132.53,270.32c-33.77,0-63.88-16.72-83.43-42.81l4.83-4.71a5.11,5.11,0,0,0-1.79-8.44L14.77,202.24c-3.47-1.12-6.76,2.21-5.9,6L18,247.8a4.58,4.58,0,0,0,7.69,2.48L30,246.11c24.31,31.57,61.2,51.72,102.52,51.72,35.35,0,67.46-14.75,91.22-38.79l-7-32.6C197.22,253.15,166.75,270.32,132.53,270.32Z" transform="translate(0 -4.86)"/><path class="cls-8" d="M262.31,208.7l-5.71-1.94q1.92-5.4,3.44-11l-.16,0a149.73,149.73,0,0,0,5.17-39.18c0-63.87-39.77-117.83-94.36-135.3L148,44c51.63,8,91.29,55.33,91.29,112.56a120,120,0,0,1-7.42,41.75l.21.08-6.14-2.09c-3.44-1.17-6.78,2.1-6,5.86l8.77,40.57a4.58,4.58,0,0,0,7.78,2.48L264.12,217A5.12,5.12,0,0,0,262.31,208.7Z" transform="translate(0 -4.86)"/><path class="cls-9" d="M71.84,63a102.37,102.37,0,0,1,45.32-19l1.36,6.69a4.59,4.59,0,0,0,7.74,2.61L154.91,25a5.11,5.11,0,0,0-1.85-8.43L116.34,5.07c-3.4-1.07-6.63,2.13-5.88,5.82l1.25,6.19a127.34,127.34,0,0,0-55.4,24Z" transform="translate(0 -4.86)"/><path class="cls-4" d="M314,49.16a8.92,8.92,0,0,0-.54-2.18l-.84-2.18a31.32,31.32,0,0,1-1.38-3.91,17.72,17.72,0,0,1-.62-5,6.32,6.32,0,0,1,.77-2.18,7.35,7.35,0,0,1,.92-1.12l.62-2.71h2.3a20.89,20.89,0,0,0,2.54.15h2.53q5.83,0,12-.45t12.6-1.05q7.06-.91,15.21-1.36c.51-1.1.84-1.8,1-2.1l.53-1.05,1.69-.91c2.36-.09,4,.18,4.92.83a11.66,11.66,0,0,1,2.15,1.88c2.66-.2,5.38-.47,8.14-.83s5.64-.72,8.61-1.12q6.14-.77,12.44-1.51a104,104,0,0,1,12.3-.75c1.74,0,3.38.05,4.91.15s3,.25,4.46.45l1.84,1.35a9.24,9.24,0,0,0,1.54,2,19.43,19.43,0,0,0,2.15,1.8,29.61,29.61,0,0,1,4.53,4.51c1.49,1.81,2,4.46,1.62,8l-.77,1.51a9.83,9.83,0,0,1-1.54,1.2l-1.53,2h-1.69a8.75,8.75,0,0,0-2.31.23,15.76,15.76,0,0,0-1.84.68,8.6,8.6,0,0,1-1.39.52l-1.69.53q-1.68-.15-2.61-.15H415.4a90.62,90.62,0,0,0-10,.6q-5.37.6-10.44,1.35-3.69.45-7.07.83l-6.15.68c-1,2.6-1.95,4.91-2.76,6.91s-1.69,4-2.62,6-1.79,4-2.61,6.08a70.25,70.25,0,0,0-2.3,6.85,43.88,43.88,0,0,0-3.08,5.18,27,27,0,0,0-2,5.64A15.74,15.74,0,0,0,363.08,92c-.66,2-1.25,3.71-1.76,5.12l-.62,2.25a5.42,5.42,0,0,0-1.3,1.65,5.2,5.2,0,0,1-.85,1.36,24,24,0,0,1-1.23,3.76c-.21.5-.41,1-.61,1.57a2,2,0,0,0-.16,1.28,6.65,6.65,0,0,1-.92,2.56,10.93,10.93,0,0,1-.15,1.8c-.11.6-.21,1.21-.31,1.81a17.47,17.47,0,0,0-.46,1.88,2.79,2.79,0,0,0,.15,1.57l.92,1.21a5,5,0,0,1,.77,1.5,2,2,0,0,0,.77.45,2,2,0,0,1,.77.45,4.65,4.65,0,0,0,2.3,1.21l1.54,1.8c.62,3.61.05,6.42-1.69,8.42q-2.76,3.45-9.22,3.46l-2.15-.15a8.54,8.54,0,0,1-1.23-1.36c-.92-.4-1.69-.72-2.3-1a4.07,4.07,0,0,1-1.69-1.43,1.41,1.41,0,0,0-.77-.38,1.36,1.36,0,0,1-.77-.37,9.06,9.06,0,0,1-2.46-1.06l-1.69-.9q.15-1.5.15-2.1a14.07,14.07,0,0,1-1.92-3.61,34.62,34.62,0,0,1-1.15-4.06c-.31-1.1-.59-2.11-.84-3a7.43,7.43,0,0,0-1.16-2.4q-.3-10.53,2-17.67t5.07-13.91c1-2.4,2-4.86,2.92-7.36s1.74-5.06,2.46-7.67l1.69-1.65A10.41,10.41,0,0,1,348.56,66a10.07,10.07,0,0,1,.77-3.83c.51-1.25,1.08-2.53,1.69-3.84.41-.8.79-1.6,1.15-2.4a8.7,8.7,0,0,0,.69-2.11c-.71,0-1.35,0-1.92.08s-1.15.13-1.76.23a17.51,17.51,0,0,1-3.84.45,9.35,9.35,0,0,1-2-.15,6.29,6.29,0,0,1-2.31.67c-.71,0-1.43.08-2.15.08H335.2a7.71,7.71,0,0,0-2.92.45h-7.84a19.45,19.45,0,0,1-2.77-.23,9.92,9.92,0,0,1-3.22-1.12l-1.08-1.21c-.61-1.1-1.18-1.7-1.69-1.8L314,50.82Z" transform="translate(0 -4.86)"/><path class="cls-4" d="M409.19,124.91c-.36.07-.68-.19-1-.79a17.48,17.48,0,0,0-1-1.74h1.18a8.51,8.51,0,0,1-.38-4.26c.25-1.3.56-2.56.92-3.79s.66-2.42.91-3.58a6.17,6.17,0,0,0-.37-3.63.5.5,0,0,0,.8-.26,5.87,5.87,0,0,0,.43-1.47,7.87,7.87,0,0,0,.11-1.9c0-.66-.09-1.21-.16-1.63a39.52,39.52,0,0,0,2.2-6.73q.81-3.48,1.46-6.9t1.45-6.63a35.64,35.64,0,0,1,2.1-6,6.7,6.7,0,0,1,3.17.37,4.11,4.11,0,0,1,2.2,1.42,28.2,28.2,0,0,0,5.92-6.11q2.58-3.57,5.22-7a34.55,34.55,0,0,1,6-6.06A15.81,15.81,0,0,1,448.67,55q2.58,1.78,5.8,3.84a17.59,17.59,0,0,1,5.27,5.1c.58.36,1.13.72,1.67,1.11s1.09.75,1.67,1.1v1.58A12.87,12.87,0,0,1,465.61,71a31.67,31.67,0,0,1,1.82,3.9c.54,1.36,1.06,2.75,1.56,4.15a28.49,28.49,0,0,0,1.73,3.9,2.57,2.57,0,0,0-.17,1.1,4.66,4.66,0,0,0,.22,1,7.3,7.3,0,0,1,.27,1,8.11,8.11,0,0,1,.11,1.42,14.11,14.11,0,0,1-3.72,9,26,26,0,0,1-7.95,5.58,69.74,69.74,0,0,1-10,3.68A91.66,91.66,0,0,0,440,109c0,.28.17.42.49.42s.41.21.27.63q3.23,1.89,5,3.05a36.35,36.35,0,0,0,3.33,1.95,19.36,19.36,0,0,0,3.44,1.31q1.89.54,5.22,1.27t5.22,1.21c1.25.31,2.38.56,3.39.73s2.07.34,3.22.48,2.69.31,4.63.52a9.61,9.61,0,0,1,1.93,2.74,14.07,14.07,0,0,1,1.08,3.16,9.63,9.63,0,0,1,.16,3,4,4,0,0,1-.91,2.26c.07.28.26.4.59.37a3.24,3.24,0,0,1,1,0,5.51,5.51,0,0,0-1.29,1.26l-1.08,1.48a9.89,9.89,0,0,1-1.23,1.37,3,3,0,0,1-1.78.73q-3.87,1.47-9.89.11a127.29,127.29,0,0,1-15.38-4.84c-3.09-1.13-5.6-2.14-7.53-3.06a52.52,52.52,0,0,1-5.06-2.68,33.81,33.81,0,0,1-4-2.84q-1.83-1.53-4.19-3.63a.51.51,0,0,0-.38.42.51.51,0,0,1-.38.42,25.72,25.72,0,0,1-1.66,6.84,24.94,24.94,0,0,1-3.28,5.37c-1.15-.21-1.92-.11-2.32.31a6.65,6.65,0,0,1-1.45,1.16,2.69,2.69,0,0,1-1.61-.05,6.91,6.91,0,0,1-1-.58c-.29-.21-.61-.42-1-.63a3,3,0,0,0-1.72-.21c-.21-.63-.43-1.25-.64-1.84s-.79-.86-1.72-.79a3.55,3.55,0,0,0,.21-1.63,6.74,6.74,0,0,0-.32-1.27,10.7,10.7,0,0,1-.38-1.21A2.44,2.44,0,0,1,409.19,124.91Zm35.93-48.1A23.84,23.84,0,0,1,442,80.44q-1.72,1.64-3.39,3.37a23.69,23.69,0,0,0-3,3.79,14.06,14.06,0,0,0-1.83,4.89A37.73,37.73,0,0,0,443.29,90c3.3-1.3,6.41-2.54,9.36-3.73a11,11,0,0,0-2.8-6.27A12,12,0,0,0,445.12,76.81Z" transform="translate(0 -4.86)"/><path class="cls-4" d="M475.88,135.22a7.37,7.37,0,0,1-2.42-2.42,16.13,16.13,0,0,1-1.51-3.16,28.78,28.78,0,0,1-1-3.52c-.25-1.23-.51-2.4-.8-3.53a3,3,0,0,1,.64-2.15,16,16,0,0,1,1.4-1.32,42,42,0,0,0,4.63-.42l4-.63c1.29-.21,2.58-.4,3.87-.58a32.15,32.15,0,0,1,4.19-.26q1.62-3.27,3-6.27t2.69-5.73a28.49,28.49,0,0,1,1.67-4.9q1-2.25,2-4.31c.64-1.37,1.22-2.74,1.72-4.1a17.71,17.71,0,0,0,1-4.37q1.29-3.69,2.31-6.79a39.82,39.82,0,0,0,1.56-7.42c-2.73.42-4.91.83-6.56,1.21a18,18,0,0,0-3.55,1.11,7.35,7.35,0,0,1-3.39-.85,6.39,6.39,0,0,1-2-1.79A11.07,11.07,0,0,1,488,70.6c-.36-.91-.79-1.85-1.29-2.84A5.45,5.45,0,0,0,487,65a3.85,3.85,0,0,0-1.29-2.68A2,2,0,0,0,487,60.87a2.39,2.39,0,0,0,.1-1.84,19.76,19.76,0,0,1,3.88-.69l4-.31c1.33-.11,2.6-.25,3.82-.42a7.71,7.71,0,0,0,3.12-1.11l11.67-.42c4-.14,7.79-.32,11.24-.53a14.36,14.36,0,0,0,4.46.64,40.75,40.75,0,0,1,5.05.31,13.06,13.06,0,0,1,4.52,1.37,5.65,5.65,0,0,1,2.74,3.68,4.93,4.93,0,0,1,2.42.84,2.82,2.82,0,0,1,1,1.53,7.45,7.45,0,0,1,.16,2q-.06,1.11-.06,2.16a14.3,14.3,0,0,1-4.35,2A40.91,40.91,0,0,1,535,71.39a60.17,60.17,0,0,1-6.5.63q-3.39.17-6.62.27A67.38,67.38,0,0,1,520,80.44q-1.35,4.69-2.74,9.16c-.94,3-1.74,5.65-2.42,8a16,16,0,0,0-.92,4.58c-.71,1.61-1.31,3-1.77,4.1s-.9,2.18-1.29,3.16-.79,1.94-1.19,2.89-.87,2-1.45,3.21h7.32a2.1,2.1,0,0,0,1,1.58,10.92,10.92,0,0,0,1.62.74,7.14,7.14,0,0,1,1.56.79,1.71,1.71,0,0,1,.7,1.52,3.81,3.81,0,0,1,2.58,1.58,3.31,3.31,0,0,1,.27,2.26,7.71,7.71,0,0,1-1.08,2.48c-.54.84-1.06,1.58-1.56,2.21a2.14,2.14,0,0,0-1.83.47,13.64,13.64,0,0,0-1.61,1.53,25.73,25.73,0,0,0-6.13-.11q-3,.32-5.59.53c-.36.07-.51.26-.43.58a.58.58,0,0,1-.22.68,18.79,18.79,0,0,0-6.83-.84,45.59,45.59,0,0,0-7.1,1q-3.6.79-7.37,1.68A37,37,0,0,1,475.88,135.22Z" transform="translate(0 -4.86)"/><path class="cls-4" d="M535.68,104.28c.07-.28.23-.4.48-.37a1.48,1.48,0,0,0,.7,0,3.88,3.88,0,0,1-1.07-2.26,4.48,4.48,0,0,0-1.08-2.37c.14-.35.27-.7.38-1s.41-.49.91-.42a12.39,12.39,0,0,1,.11-4.32,15.68,15.68,0,0,1,1.34-3.79,28.38,28.38,0,0,1,2.15-3.52c.83-1.16,1.64-2.34,2.42-3.53.65-.14,1-.09,1.19.16s.39.19.75-.16A6.36,6.36,0,0,0,546.33,80a7.38,7.38,0,0,0,.64-3.1c.65-1.83,1.38-3.63,2.21-5.42a31.64,31.64,0,0,1,2.85-5,25.71,25.71,0,0,1,3.44-4,13.78,13.78,0,0,1,4-2.69,16.43,16.43,0,0,1,3.82-2.31,24.46,24.46,0,0,1,4.94-1.63,27.07,27.07,0,0,1,5.44-.63,18.48,18.48,0,0,1,5.16.57c.36.15.57.06.64-.26A.52.52,0,0,1,580,55a45.84,45.84,0,0,1,9.63,2.1,21.78,21.78,0,0,1,7.26,4.11A72.52,72.52,0,0,1,600.75,68a38.07,38.07,0,0,1,2.85,7.58,29.13,29.13,0,0,1,.91,8.16,23.84,23.84,0,0,1-1.82,8.42,28.59,28.59,0,0,1-9.15,7.42A65.93,65.93,0,0,1,582,104.23a112.16,112.16,0,0,1-12.8,3q-6.61,1.15-12.85,2.52.1,2.85,0,6.06a43.76,43.76,0,0,1-.7,6.42,37.67,37.67,0,0,1-1.72,6.26,22.64,22.64,0,0,1-3.07,5.68,16.47,16.47,0,0,0-4.46.42q-2.31.53-4.14,1l-1.67-1a4.66,4.66,0,0,0-2-.57,3.2,3.2,0,0,0-.59-2.64c-.61-.91-1.22-1.8-1.83-2.68a7.12,7.12,0,0,1-1.18-2.63,2.29,2.29,0,0,1,1.24-2.37,2.86,2.86,0,0,1-.86-2.31,1.45,1.45,0,0,0,1.07.42,12.5,12.5,0,0,1,.49-4.53c.46-1.75.86-3.49,1.18-5.21a14.15,14.15,0,0,0,.16-4.73A3.88,3.88,0,0,0,535.68,104.28Zm28-24.63c-.28.78-.52,1.46-.7,2.06a14,14,0,0,1-.59,1.63c-.21.49-.45,1-.7,1.47s-.52,1-.8,1.69a1.59,1.59,0,0,0,.86.94,1.64,1.64,0,0,1,.86,1,15,15,0,0,1,3-1.11c1-.24,2-.43,3-.57s2-.32,3-.53a14.7,14.7,0,0,0,3.12-1.05,21.3,21.3,0,0,1,3.39-1.21c1.18-.32,2.35-.65,3.5-1s2.25-.76,3.33-1.21a9,9,0,0,0,2.8-1.84,13.28,13.28,0,0,0-4.52-2.43,25.32,25.32,0,0,0-6.51-1.31,24.6,24.6,0,0,0-7,.47A13,13,0,0,0,563.64,79.65Z" transform="translate(0 -4.86)"/><path class="cls-4" d="M607.42,130.07a4.22,4.22,0,0,1-.75-1,5.63,5.63,0,0,1-.54-1.53,13.55,13.55,0,0,1-2.37-4.1,21.79,21.79,0,0,1-1.18-4.79,23.19,23.19,0,0,1-.11-5,30.72,30.72,0,0,1,.75-4.74,18.3,18.3,0,0,0,.54-2.21c.36-1.33.72-2.65,1.08-4a8.36,8.36,0,0,1,1.61-3.21,3.41,3.41,0,0,1,.11-2.52c.36-.91.71-1.75,1.07-2.53a3.55,3.55,0,0,0,.33-.57q.1-.27.21-.48,1.29-3.68,2.53-7.1c.82-2.28,1.63-4.48,2.42-6.58q2.14-5.79,4.14-11.37t3.6-11.89a5.75,5.75,0,0,1,1.51-.84,3.83,3.83,0,0,1,.54-.21,2.37,2.37,0,0,1,.75-.11A36.4,36.4,0,0,0,629,57.5a17.26,17.26,0,0,0,5.22,1L636,60.08a21.53,21.53,0,0,1,2.42,3.31,6.64,6.64,0,0,1,.59,4.48A3.44,3.44,0,0,1,638,69a35.8,35.8,0,0,1-1.39,4.27c-.51,1.23-1,2.4-1.51,3.52s-1.11,2.53-1.61,3.79a25.2,25.2,0,0,0-1.29,4.63,3.75,3.75,0,0,0-.81,1.27,11.06,11.06,0,0,1-.38,1,12.41,12.41,0,0,1-.53,1.31,3.49,3.49,0,0,1-1,1.21,21.45,21.45,0,0,1-1.29,5.32c-.58,1.37-1.15,2.72-1.72,4-1,2.46-1.94,4.89-2.8,7.31a28.86,28.86,0,0,0-1.51,8.27,10.07,10.07,0,0,1,2.37-.32,8.65,8.65,0,0,1,2.69.42,24.06,24.06,0,0,1,8.44-2.31q4.58-.42,9.09-.53,3.76,0,7-.32a4.93,4.93,0,0,0,1.4.79,6.61,6.61,0,0,0,1.08.06h.64a4.62,4.62,0,0,1,.86.1,9.29,9.29,0,0,0,2.91,2c.93.39,1.93.76,3,1.11.93.35,1.84.72,2.74,1.1A13.9,13.9,0,0,1,667,118.7l1,5.37c.58.77.83,1.3.76,1.58a2.59,2.59,0,0,1-.43,1.47l.21,1.37a8,8,0,0,0-2.69.89,13.73,13.73,0,0,0-1.4,1.21c-.79.07-1.54.11-2.26.11a16.3,16.3,0,0,0-4.4.63,21,21,0,0,0-7.1-1.16c-1,0-2,0-3.07.11s-2.06.17-3.06.31-2.16.27-3.23.37a31.75,31.75,0,0,1-3.23.16l-1.83.31a6.21,6.21,0,0,0-1.07.32q-3.66,1.16-7.91,2.32a32.43,32.43,0,0,1-8.55,1.15q-6.35,0-10.22-3.15a9.31,9.31,0,0,0-.64-1.27A5.42,5.42,0,0,1,607.42,130.07Z" transform="translate(0 -4.86)"/><path class="cls-4" d="M677,130.38a4.73,4.73,0,0,1-1.24-2,3.36,3.36,0,0,0-1.77-1.89c-.15-1-.35-2.27-.6-3.63s-.5-2.77-.75-4.21-.43-2.88-.54-4.32a16.23,16.23,0,0,1,.16-3.94,6.6,6.6,0,0,1,.7-1.79c.33-.56.65-1.11,1-1.64a7.27,7.27,0,0,0,.75-1.63,3,3,0,0,0,.06-1.68.92.92,0,0,0,.81-.68c.1-.39.44-.51,1-.37.5-1.55,1-3,1.61-4.32s1.18-2.63,1.83-3.89,1.31-2.54,2-3.84a33.74,33.74,0,0,0,1.88-4.37,10.19,10.19,0,0,1-2.63-3.63,22,22,0,0,1-1.24-4,38.82,38.82,0,0,1-.65-4,21.85,21.85,0,0,0-.86-4.16,11.36,11.36,0,0,1,3.12-3.1,18.12,18.12,0,0,1,4-2A29.22,29.22,0,0,1,690.45,64q2.58-.48,5.49-1.11c3.44-1.05,6.52-1.88,9.25-2.47s5.37-1.09,8-1.48,5.27-.73,8.06-1,6-.79,9.68-1.42a.4.4,0,0,0,.38.32h.7a1.17,1.17,0,0,0,1.18.73,3.48,3.48,0,0,0,0-.58,2.09,2.09,0,0,1-.06-.47,2.48,2.48,0,0,1,.6.11c.25.07.46.14.64.21a.46.46,0,0,0,.48-.06c.15-.1.18-.33.11-.68a11.29,11.29,0,0,0,3.34,3.63,24.64,24.64,0,0,0,4.51,2.47,7.17,7.17,0,0,1,.06,1.37,5.8,5.8,0,0,1-.16.79,2.76,2.76,0,0,0-.11.84,5.82,5.82,0,0,0,.21,1.32,14.58,14.58,0,0,1-3.92,4.42,18,18,0,0,1-4.68,2.42,30.62,30.62,0,0,1-5.22,1.26q-2.74.42-5.59.9a48.94,48.94,0,0,0-5.75,1.31,24.57,24.57,0,0,0-5.71,2.53,3.63,3.63,0,0,0-1.55-.26,7.13,7.13,0,0,0-1.46.26c-.5.14-1.06.28-1.66.42a5.83,5.83,0,0,1-2.21,0,5.08,5.08,0,0,1-2,1l-2.31.63a4.87,4.87,0,0,1,.48,2.32,5.13,5.13,0,0,0,.27,2,56.9,56.9,0,0,0,10-.05c3.65-.32,7.24-.55,10.75-.69.07.35,0,.6-.11.74a1,1,0,0,0-.21.74,9.79,9.79,0,0,1,1.83,1.57c.57.64,1.16,1.25,1.77,1.85a10.81,10.81,0,0,0,1.88,1.47,3.69,3.69,0,0,0,2.26.47,7.91,7.91,0,0,1,.75,2.21,4.08,4.08,0,0,1-.32,2.42c-1.43.92-2.83,1.84-4.19,2.79a40.08,40.08,0,0,1-4.25,2.58,25.15,25.15,0,0,1-4.79,1.89,17.71,17.71,0,0,1-5.59.64h-.91a1.6,1.6,0,0,1-.92-.42,5.39,5.39,0,0,1-2.85.36,6,6,0,0,0-3,.37,10.59,10.59,0,0,0-3.49-.52,10.64,10.64,0,0,1-3.5-.53q-1.94,2.75-3.65,5.74a44.82,44.82,0,0,0-3,6.36,42.71,42.71,0,0,0,7.32.53c1.93-.07,3.76-.21,5.48-.42l5.33-.63a48.92,48.92,0,0,1,6.72-.21,21,21,0,0,1,6.18-1.74,39.92,39.92,0,0,0,6.51-1.42,3.68,3.68,0,0,1,1.83,1.21c.5.6,1,1.19,1.45,1.79a10.09,10.09,0,0,0,1.45,1.52,2.23,2.23,0,0,0,1.94.43,2.47,2.47,0,0,1,.7,1.26c.11.49.21,1,.32,1.37a2.52,2.52,0,0,0,.48,1,1.34,1.34,0,0,0,1.19.26,20.37,20.37,0,0,1-4.57,6.31,18.58,18.58,0,0,1-5.7,3.42,33.35,33.35,0,0,1-7.1,1.79q-3.93.59-8.77,1.42a4,4,0,0,1-2,0,5.5,5.5,0,0,0-1.67-.26c-2,.35-4.39.7-7.15,1a55.16,55.16,0,0,1-8.33.42,37.92,37.92,0,0,1-8.07-1.05A14.06,14.06,0,0,1,677,130.38Z" transform="translate(0 -4.86)"/><path class="cls-4" d="M317.53,237.9c.1-.4.33-.57.69-.52a2.22,2.22,0,0,0,1-.08,5.44,5.44,0,0,1-1.54-3.23,6.37,6.37,0,0,0-1.54-3.39,15,15,0,0,0,.54-1.5c.15-.5.59-.7,1.31-.6a17.52,17.52,0,0,1,.15-6.16,22.12,22.12,0,0,1,1.92-5.42,39.87,39.87,0,0,1,3.07-5q1.77-2.49,3.46-5c.92-.2,1.48-.13,1.69.22s.56.28,1.08-.22a9.24,9.24,0,0,0,3.38-3.68,10.69,10.69,0,0,0,.92-4.44c.92-2.6,2-5.19,3.15-7.74a45.94,45.94,0,0,1,4.07-7.14,36.89,36.89,0,0,1,4.92-5.79,19.85,19.85,0,0,1,5.68-3.84,23.83,23.83,0,0,1,5.46-3.3,35.22,35.22,0,0,1,7.06-2.33,40.45,40.45,0,0,1,7.76-.91,26.63,26.63,0,0,1,7.38.83c.51.2.82.08.92-.38a.74.74,0,0,1,.77-.67,65.43,65.43,0,0,1,13.75,3A31,31,0,0,1,405,176.41a102.57,102.57,0,0,1,5.53,9.7,54.48,54.48,0,0,1,4.08,10.82,42.22,42.22,0,0,1,1.3,11.65,33.83,33.83,0,0,1-2.61,12,40.9,40.9,0,0,1-13.06,10.6,94.3,94.3,0,0,1-16.52,6.62,161.88,161.88,0,0,1-18.28,4.28q-9.45,1.65-18.36,3.61c.1,2.7.1,5.59,0,8.64a63.62,63.62,0,0,1-1,9.18,55,55,0,0,1-2.46,8.94,33,33,0,0,1-4.38,8.12,23.6,23.6,0,0,0-6.38.6q-3.3.75-5.91,1.5c-.82-.5-1.62-1-2.38-1.42a6.78,6.78,0,0,0-2.85-.83,4.57,4.57,0,0,0-.84-3.76q-1.31-1.95-2.61-3.83a10.17,10.17,0,0,1-1.69-3.76c-.26-1.25.33-2.38,1.76-3.39a4.11,4.11,0,0,1-1.23-3.3,2.13,2.13,0,0,0,1.54.6,17.65,17.65,0,0,1,.69-6.47q1-3.75,1.69-7.44a20.27,20.27,0,0,0,.23-6.76A5.52,5.52,0,0,0,317.53,237.9Zm39.94-35.18c-.41,1.1-.74,2.08-1,2.93a20.83,20.83,0,0,1-.85,2.33c-.31.7-.64,1.41-1,2.11s-.74,1.5-1.15,2.4a2.26,2.26,0,0,0,1.23,1.35,2.37,2.37,0,0,1,1.23,1.36,21.13,21.13,0,0,1,4.3-1.58c1.43-.35,2.87-.62,4.3-.83s2.87-.45,4.3-.75a21.29,21.29,0,0,0,4.46-1.5,30.85,30.85,0,0,1,4.84-1.73q2.53-.67,5-1.43a49,49,0,0,0,4.77-1.73,12.88,12.88,0,0,0,4-2.63,19,19,0,0,0-6.45-3.46,36.45,36.45,0,0,0-9.3-1.88,35.34,35.34,0,0,0-10,.68A18.53,18.53,0,0,0,357.47,202.72Z" transform="translate(0 -4.86)"/><path class="cls-4" d="M417.28,276.72a4.79,4.79,0,0,1-1.24-2,3.35,3.35,0,0,0-1.78-1.89c-.14-1.06-.34-2.27-.59-3.63s-.5-2.78-.75-4.21-.43-2.88-.54-4.32a15.84,15.84,0,0,1,.16-3.95,6.67,6.67,0,0,1,.7-1.78c.33-.57.65-1.11,1-1.64a7.27,7.27,0,0,0,.75-1.63A3,3,0,0,0,415,250a.9.9,0,0,0,.8-.69c.11-.38.45-.5,1-.36.5-1.55,1-3,1.61-4.32s1.18-2.63,1.83-3.89,1.3-2.55,2-3.84a35.18,35.18,0,0,0,1.88-4.37,10.34,10.34,0,0,1-2.64-3.63,23.09,23.09,0,0,1-1.23-3.95,36.34,36.34,0,0,1-.65-4.05,21.85,21.85,0,0,0-.86-4.16,11.22,11.22,0,0,1,3.12-3.1,18.26,18.26,0,0,1,4-2,30.68,30.68,0,0,1,4.79-1.27q2.58-.47,5.49-1.1c3.44-1,6.52-1.88,9.25-2.47s5.37-1.09,8-1.48,5.27-.73,8.07-1.05,6-.79,9.68-1.42a.4.4,0,0,0,.38.32h.7a1.16,1.16,0,0,0,1.18.73,3.48,3.48,0,0,0-.05-.58,2.09,2.09,0,0,1-.06-.47,2.34,2.34,0,0,1,.59.11c.25.07.47.14.65.21a.46.46,0,0,0,.48-.06c.15-.1.18-.33.11-.68a11.37,11.37,0,0,0,3.33,3.63,25.07,25.07,0,0,0,4.52,2.47,7.15,7.15,0,0,1,.06,1.37,4.59,4.59,0,0,1-.17.79,3.12,3.12,0,0,0-.1.84,5.82,5.82,0,0,0,.21,1.32,14.71,14.71,0,0,1-3.92,4.42,18,18,0,0,1-4.68,2.42,30.62,30.62,0,0,1-5.22,1.26q-2.75.42-5.59.9a49.55,49.55,0,0,0-5.76,1.31,24.27,24.27,0,0,0-5.7,2.53,3.83,3.83,0,0,0-1.56-.27,8,8,0,0,0-1.45.27c-.5.14-1.06.28-1.66.42a5.83,5.83,0,0,1-2.21,0,5.15,5.15,0,0,1-2,1.05l-2.31.63a4.87,4.87,0,0,1,.48,2.32,5.13,5.13,0,0,0,.27,2,55.9,55.9,0,0,0,10-.06q5.49-.47,10.76-.68a.8.8,0,0,1-.11.74,1,1,0,0,0-.21.73,9.5,9.5,0,0,1,1.82,1.58c.58.63,1.17,1.25,1.78,1.84a10.42,10.42,0,0,0,1.88,1.48,3.76,3.76,0,0,0,2.26.47,7.91,7.91,0,0,1,.75,2.21,4.09,4.09,0,0,1-.32,2.42c-1.43.92-2.83,1.84-4.19,2.79a40.08,40.08,0,0,1-4.25,2.58,25.15,25.15,0,0,1-4.79,1.89,17.71,17.71,0,0,1-5.59.64h-.92a1.57,1.57,0,0,1-.91-.43,5.29,5.29,0,0,1-2.85.37,6,6,0,0,0-3,.37,10.58,10.58,0,0,0-3.49-.53,10.61,10.61,0,0,1-3.5-.52q-1.94,2.73-3.66,5.73a46.58,46.58,0,0,0-3,6.37,42.71,42.71,0,0,0,7.32.53c1.93-.07,3.76-.21,5.48-.42l5.33-.63a48.86,48.86,0,0,1,6.72-.21,20.71,20.71,0,0,1,6.18-1.74,39.92,39.92,0,0,0,6.51-1.42,3.68,3.68,0,0,1,1.83,1.21c.5.59,1,1.19,1.45,1.79a10.59,10.59,0,0,0,1.45,1.52,2.23,2.23,0,0,0,1.94.42,2.54,2.54,0,0,1,.7,1.27c.1.49.21.94.32,1.37a2.52,2.52,0,0,0,.48,1,1.34,1.34,0,0,0,1.19.26,20.49,20.49,0,0,1-4.57,6.31,18.58,18.58,0,0,1-5.7,3.42,33.35,33.35,0,0,1-7.1,1.79q-3.93.58-8.77,1.42a4,4,0,0,1-2-.05,5.5,5.5,0,0,0-1.67-.26c-2,.35-4.39.7-7.15,1.05a55.16,55.16,0,0,1-8.33.42,37.92,37.92,0,0,1-8.07-1.05A14.16,14.16,0,0,1,417.28,276.72Z" transform="translate(0 -4.86)"/><path class="cls-4" d="M482.24,271.25c-.36.07-.68-.19-1-.79a16.42,16.42,0,0,0-1-1.74h1.19a8.4,8.4,0,0,1-.38-4.26c.25-1.3.55-2.56.91-3.79s.67-2.42.92-3.58a6.17,6.17,0,0,0-.38-3.63.51.51,0,0,0,.81-.26,6.32,6.32,0,0,0,.43-1.47,8.42,8.42,0,0,0,.11-1.9c0-.66-.09-1.21-.16-1.63a40.23,40.23,0,0,0,2.2-6.74q.81-3.47,1.45-6.89c.43-2.28.92-4.49,1.45-6.63a35.64,35.64,0,0,1,2.1-6.05,6.7,6.7,0,0,1,3.17.37,4.1,4.1,0,0,1,2.21,1.42,28.62,28.62,0,0,0,5.91-6.11c1.73-2.38,3.46-4.71,5.22-7a35,35,0,0,1,6-6.06,15.75,15.75,0,0,1,8.28-3.15q2.58,1.78,5.81,3.84a17.7,17.7,0,0,1,5.27,5.1c.57.35,1.13.72,1.67,1.11s1.09.75,1.66,1.1v1.58a12.26,12.26,0,0,1,2.53,3.21,33.25,33.25,0,0,1,1.83,3.9c.54,1.36,1.06,2.75,1.56,4.15a28.48,28.48,0,0,0,1.72,3.9,2.53,2.53,0,0,0-.16,1.1,4.66,4.66,0,0,0,.22.95,8.48,8.48,0,0,1,.26,1.05,8.11,8.11,0,0,1,.11,1.42,14.11,14.11,0,0,1-3.71,9,26,26,0,0,1-8,5.58,70.51,70.51,0,0,1-9.95,3.68,90,90,0,0,0-9.57,3.32q0,.42.48.42t.27.63q3.22,1.89,5,3a37.81,37.81,0,0,0,3.34,2,19.36,19.36,0,0,0,3.44,1.31q1.88.54,5.22,1.27T536,265.2c1.26.31,2.39.56,3.39.73s2.08.34,3.23.48,2.69.31,4.62.52a9.64,9.64,0,0,1,1.94,2.74,13.4,13.4,0,0,1,1.07,3.16,9.64,9.64,0,0,1,.17,3,4,4,0,0,1-.92,2.26.48.48,0,0,0,.59.37,3.21,3.21,0,0,1,1,.05,5.51,5.51,0,0,0-1.29,1.26l-1.07,1.48a8.81,8.81,0,0,1-1.24,1.36,3,3,0,0,1-1.77.74q-3.87,1.47-9.9.11a130.28,130.28,0,0,1-15.38-4.84c-3.08-1.13-5.59-2.14-7.53-3.06a52.26,52.26,0,0,1-5.05-2.68,33,33,0,0,1-4-2.84q-1.83-1.53-4.2-3.63a.5.5,0,0,0-.37.42.51.51,0,0,1-.38.42,25.69,25.69,0,0,1-1.67,6.84,24.16,24.16,0,0,1-3.28,5.37c-1.14-.21-1.92-.11-2.31.31a6.9,6.9,0,0,1-1.45,1.16,2.68,2.68,0,0,1-1.61-.05,6.38,6.38,0,0,1-1-.58c-.29-.21-.61-.42-1-.63a3,3,0,0,0-1.72-.21c-.22-.63-.43-1.25-.65-1.84s-.79-.86-1.72-.79a3.48,3.48,0,0,0,.22-1.64,6.83,6.83,0,0,0-.33-1.26c-.14-.38-.26-.79-.37-1.21A2.37,2.37,0,0,1,482.24,271.25Zm35.92-48.1a22.77,22.77,0,0,1-3.12,3.63q-1.71,1.64-3.38,3.37a23.13,23.13,0,0,0-3,3.79,14.06,14.06,0,0,0-1.83,4.89,37.66,37.66,0,0,0,9.46-2.47q4.95-2,9.36-3.74a11,11,0,0,0-2.79-6.26A12,12,0,0,0,518.16,223.15Z" transform="translate(0 -4.86)"/><path class="cls-4" d="M555.16,258.93a12.11,12.11,0,0,1-4.95-5.05,15.86,15.86,0,0,1-1.93-6.21,8.5,8.5,0,0,1,1.34-3.94,8.88,8.88,0,0,1,2.42-2.32A12.44,12.44,0,0,1,555,240c1-.31,2-.58,2.9-.79l1.61.53a10,10,0,0,0,1.13.95c.4.28.77.56,1.13.84a2.08,2.08,0,0,0,1.35-1.26c.18-.56.37-1.13.59-1.69q.32-1.16.75-2.31a17.22,17.22,0,0,1,1.08-2.32,4.17,4.17,0,0,1,.1-1.68c.15-.49.29-.91.44-1.27a2.71,2.71,0,0,0-.92-.57c-.18,0-.48-.13-.91-.27a3.56,3.56,0,0,1-.65,0c-.21,0-.47-.09-.75-.16a8,8,0,0,1-2.1-1.94c-.32-.53-.66-1.07-1-1.64s-.68-1-1-1.47a7.75,7.75,0,0,0-1-1.16l-1.29-.84.65-1.26a.78.78,0,0,0,.21-.58,2.54,2.54,0,0,0-.43-1.11,3.87,3.87,0,0,1-.1-2l.21-1.27a18.45,18.45,0,0,0,1.18-1.58l1.08-1.05q2.47-.63,5-1.42c1.73-.53,3.41-1.07,5.06-1.63l5-1.69q2.6-.84,5.17-1.47a3.68,3.68,0,0,1,1.88-.89c.68-.11,1.31-.2,1.88-.27a8.78,8.78,0,0,0,1.4-.1,1.48,1.48,0,0,0,1-.53c1.22-.42,2.4-.77,3.55-1q3.22-.84,8.49-2a88.71,88.71,0,0,1,11.84-1.68l2.25-.11a5.07,5.07,0,0,0,1.29.05c.43,0,.86-.05,1.3-.05,3.72,0,6.2,1.12,7.42,3.37a8.31,8.31,0,0,1,1.93,1.31c.58.53,1.11,1,1.62,1.53.35.35.68.65,1,.9a7.86,7.86,0,0,0,.76.57l.86.85a6.64,6.64,0,0,1,.43,4.94,2.63,2.63,0,0,1-1.4,1.48l-1.51.42-1.39.73c-.94-.07-1.64-.1-2.1-.1h-1.56c-2.15,0-4.65.12-7.48.37s-5.72.59-8.66,1.05-5.8,1-8.6,1.68a64.36,64.36,0,0,0-7.31,2.16,9.66,9.66,0,0,1-2.26,1.16,4.54,4.54,0,0,0-1,.52,6.35,6.35,0,0,1,0,1.63,10.63,10.63,0,0,1-.32,1.53,9.26,9.26,0,0,0-.16,1.11c0,.38-.1.79-.17,1.21a8.82,8.82,0,0,0-2.15,6.21l-.53,1.05a2.87,2.87,0,0,0-.7,1.21,2.82,2.82,0,0,0-.06,1.63l.43,1.26c1.44-.14,2.85-.29,4.25-.47s2.89-.37,4.46-.58q3-.53,6.08-.89a52.84,52.84,0,0,1,6.4-.37h4.2l-1,.94,1.18.11-.64,1.68,1.13.48a3.78,3.78,0,0,1,.69.37l.76,1.05a2.91,2.91,0,0,1,1,1,4.27,4.27,0,0,1,.53,1.84l-.32,1.05-5.05,6.32-.65.84-1.08-.32a11.75,11.75,0,0,0-3.87.42l-1.83.48a7.53,7.53,0,0,1-1.93.26c-1.72.28-3.16.51-4.3.68s-2.3.34-3.45.48l-4.57.79a21.3,21.3,0,0,0-4.14,1.1,8,8,0,0,1-1.4.06,1.54,1.54,0,0,0-.43-.06,7.67,7.67,0,0,0-2.15.32q-1.08.31-2,.63a2.62,2.62,0,0,0-.86,1.11c-.15.38-.29.78-.43,1.21a7.61,7.61,0,0,1-.59,1.42,15.34,15.34,0,0,1-.92,1.42l.11,1.89a4.14,4.14,0,0,0-1,.26s0,.06-.11.06a4.8,4.8,0,0,1-.26,1.58c-.18.49-.35.94-.49,1.36a5.9,5.9,0,0,0-.32.74,2,2,0,0,0-.11.63,5.87,5.87,0,0,1,.54,4.32,8.74,8.74,0,0,1-1.61,3.52,8.53,8.53,0,0,1-2.8,2.37A5.61,5.61,0,0,1,562,281c-.54-.21-1.09-.43-1.67-.64a10.34,10.34,0,0,0-1.07-.36,10.65,10.65,0,0,0-1.08-.27l-1.29-1a8.08,8.08,0,0,0-.75-1.21c-.29-.38-.58-.79-.86-1.21l-1.08-1.47a9.1,9.1,0,0,1-1-1.69A15.7,15.7,0,0,1,553,267a34.58,34.58,0,0,1,1.34-4.9c.14-.56.29-1.09.43-1.58S555,259.5,555.16,258.93Z" transform="translate(0 -4.86)"/><path class="cls-4" d="M639.7,280.72a21.72,21.72,0,0,1-8.6-.42,21.22,21.22,0,0,1-6.94-3.26,23.12,23.12,0,0,1-5.27-5.27,30.52,30.52,0,0,1-3.6-6.52,33.75,33.75,0,0,1,.53-13,42.33,42.33,0,0,1,4.41-10.79,63.86,63.86,0,0,1,6.62-9.26l7.15-8.31a1.29,1.29,0,0,0,1.24,0,3.26,3.26,0,0,0,.86-.84A12.92,12.92,0,0,1,637,222a2.6,2.6,0,0,1,1.13-.73,4.59,4.59,0,0,1,1.13-1.58,15.23,15.23,0,0,1,1.5-1.21,18.59,18.59,0,0,0,1.51-1.21,6.48,6.48,0,0,0,1.24-1.58,5.32,5.32,0,0,0,1.88-.74,11.44,11.44,0,0,0,1.5-1.15,14.17,14.17,0,0,1,1.45-1.16,6.44,6.44,0,0,1,1.83-.84v-1.37a9.65,9.65,0,0,0,3.45-2.32c.71-.84,1.57-1.93,2.58-3.26.78-.07,1.41-.11,1.88-.11a16,16,0,0,0,2.2-.21,11.72,11.72,0,0,1,1.83-2.63,16.71,16.71,0,0,1,2.48-1.89,9.11,9.11,0,0,0,3.44,1,5.32,5.32,0,0,1,3.33,1.63,3.1,3.1,0,0,0,.76,2,12.84,12.84,0,0,0,1.39,1.26c.5.39,1,.79,1.51,1.21a3,3,0,0,1,1,1.79.88.88,0,0,0,.7-.21c.1-.14.34-.18.69-.11a10.64,10.64,0,0,0,.44,1.37,5.62,5.62,0,0,0,.48,1c.18.28.36.6.54.95a7.76,7.76,0,0,1,.48,1.26,27.13,27.13,0,0,0-1,2.68,2.86,2.86,0,0,1-1.72,2c0,.56.22.86.65.89a.8.8,0,0,1,.75.79,2.32,2.32,0,0,1-.32,1.58,101,101,0,0,1,5.48,10.37,87.25,87.25,0,0,0,5.6,10.36,7.08,7.08,0,0,0,.16,2.9,18.81,18.81,0,0,0,1,2.79c.39.91.76,1.82,1.12,2.73a13.53,13.53,0,0,1,.76,2.74,17.59,17.59,0,0,1,0,3.84,18.4,18.4,0,0,1-.86,3.95,15.54,15.54,0,0,1-1.72,3.52,7.92,7.92,0,0,1-2.48,2.48,13.35,13.35,0,0,1-4.3,3.42,25.57,25.57,0,0,0-4.73,3.1,11.14,11.14,0,0,1-3.23,1.21l-3.55.79a23.54,23.54,0,0,1-3.33,1.63c-1.29.53-2.62,1-4,1.42a32.05,32.05,0,0,1-4.09,1,11.88,11.88,0,0,1-3.66.16,40.35,40.35,0,0,1-7.53,1.9A24.91,24.91,0,0,1,639.7,280.72Zm1.4-38.31a22.62,22.62,0,0,1-2.53,4.37c-1,1.3-1.92,2.61-2.85,3.95A26.18,26.18,0,0,0,633.3,255a14,14,0,0,0-1.13,5.31,9.69,9.69,0,0,0,5.11,2.16,29.29,29.29,0,0,0,6.08.11c2.08-.18,4.15-.44,6.24-.79a34.07,34.07,0,0,1,5.59-.53c0-.63.28-.95.86-.95a22.06,22.06,0,0,0,8.39-2.47q3.87-2.06,8.07-4.16a7.68,7.68,0,0,1,1.39-2.21,4.28,4.28,0,0,0,1-2.73,7,7,0,0,1-.7-1.58,8.18,8.18,0,0,1-.16-1.9,46.13,46.13,0,0,1-4.84-8.26,59.67,59.67,0,0,0-4.73-8.47,2.85,2.85,0,0,1-.86,1c-.43.35-.9.28-1.4-.21a2.29,2.29,0,0,1-1,1.42,2.82,2.82,0,0,1-1.45.37,4.36,4.36,0,0,1-1.61-.32,5.4,5.4,0,0,1-1.46-.84q-3.77,3-7.47,5.69a36.71,36.71,0,0,0-6.72,6.42c-.36.21-.58.28-.65.21S641.53,242.27,641.1,242.41Z" transform="translate(0 -4.86)"/><path class="cls-4" d="M698.75,271.25c-.36.07-.68-.19-1-.79a16.42,16.42,0,0,0-1-1.74H698a8.4,8.4,0,0,1-.38-4.26c.25-1.3.55-2.56.91-3.79s.67-2.42.92-3.58a6.17,6.17,0,0,0-.38-3.63.51.51,0,0,0,.81-.26,6.32,6.32,0,0,0,.43-1.47,8.42,8.42,0,0,0,.11-1.9c0-.66-.09-1.21-.16-1.63a40.23,40.23,0,0,0,2.2-6.74q.81-3.47,1.45-6.89c.43-2.28.92-4.49,1.45-6.63a35.64,35.64,0,0,1,2.1-6.05,6.7,6.7,0,0,1,3.17.37,4.14,4.14,0,0,1,2.21,1.42,28.62,28.62,0,0,0,5.91-6.11c1.73-2.38,3.46-4.71,5.22-7a35,35,0,0,1,6-6.06,15.75,15.75,0,0,1,8.28-3.15q2.58,1.78,5.81,3.84a17.7,17.7,0,0,1,5.27,5.1c.57.35,1.13.72,1.67,1.11s1.09.75,1.66,1.1v1.58a12.26,12.26,0,0,1,2.53,3.21,33.25,33.25,0,0,1,1.83,3.9c.54,1.36,1.06,2.75,1.56,4.15a28.48,28.48,0,0,0,1.72,3.9,2.53,2.53,0,0,0-.16,1.1,4.63,4.63,0,0,0,.21.95,7,7,0,0,1,.27,1.05,8.11,8.11,0,0,1,.11,1.42,14.11,14.11,0,0,1-3.71,9,26,26,0,0,1-8,5.58,71,71,0,0,1-9.95,3.68,90,90,0,0,0-9.57,3.32q0,.42.48.42t.27.63q3.22,1.89,5,3a37.81,37.81,0,0,0,3.34,2,19.07,19.07,0,0,0,3.44,1.31q1.88.54,5.22,1.27t5.21,1.21c1.26.31,2.39.56,3.39.73s2.08.34,3.23.48,2.69.31,4.62.52a9.64,9.64,0,0,1,1.94,2.74,13.4,13.4,0,0,1,1.07,3.16,9.64,9.64,0,0,1,.17,3,4,4,0,0,1-.92,2.26.48.48,0,0,0,.59.37,3.3,3.3,0,0,1,1,.05,5.37,5.37,0,0,0-1.3,1.26l-1.07,1.48a8.81,8.81,0,0,1-1.24,1.36,3,3,0,0,1-1.77.74q-3.87,1.47-9.9.11a130.28,130.28,0,0,1-15.38-4.84c-3.08-1.13-5.59-2.14-7.53-3.06a52.26,52.26,0,0,1-5-2.68,33,33,0,0,1-4-2.84q-1.83-1.53-4.2-3.63a.5.5,0,0,0-.37.42.51.51,0,0,1-.38.42,25.69,25.69,0,0,1-1.67,6.84,24.16,24.16,0,0,1-3.28,5.37c-1.15-.21-1.92-.11-2.31.31a7.17,7.17,0,0,1-1.45,1.16,2.72,2.72,0,0,1-1.62-.05,6.78,6.78,0,0,1-1-.58c-.29-.21-.61-.42-1-.63a3,3,0,0,0-1.72-.21c-.22-.63-.43-1.25-.65-1.84s-.79-.86-1.72-.79a3.48,3.48,0,0,0,.22-1.64,6.12,6.12,0,0,0-.33-1.26c-.14-.38-.26-.79-.37-1.21A2.37,2.37,0,0,1,698.75,271.25Zm35.92-48.1a22.77,22.77,0,0,1-3.12,3.63q-1.71,1.64-3.38,3.37a23.13,23.13,0,0,0-3,3.79,14.06,14.06,0,0,0-1.83,4.89,37.66,37.66,0,0,0,9.46-2.47q4.95-2,9.36-3.74a11,11,0,0,0-2.79-6.26A12,12,0,0,0,734.67,223.15Z" transform="translate(0 -4.86)"/><path class="cls-4" d="M776.62,281.77a26.69,26.69,0,0,1-3.34-.31,16.56,16.56,0,0,1-3.06-4.9,32,32,0,0,1-2-6.63,33,33,0,0,1-.65-7.05,16.31,16.31,0,0,1,1.24-6.26c0-.07.34-.91,1-2.53s1.56-3.66,2.63-6.15,2.3-5.27,3.66-8.32,2.72-6.05,4.09-9,2.67-5.63,3.92-8.05a53.91,53.91,0,0,1,3.28-5.63c.65-1,1.24-1.93,1.78-2.84s1.06-1.75,1.56-2.52l2.2-3.53a19.31,19.31,0,0,1,2.26-3,16.36,16.36,0,0,1,2.74-2.31,16,16,0,0,1,3.66-1.74,16.43,16.43,0,0,1,2.26,1.11,7.12,7.12,0,0,1,1.72,1.42l.32,1.47a1.58,1.58,0,0,0,.7,1,1.74,1.74,0,0,0,.81.26,19.65,19.65,0,0,1,2.42.69,9,9,0,0,0,2.2.47q.43.63.81,1.26a9.17,9.17,0,0,0,.81,1.16,46,46,0,0,1,3.55,5.89,7.25,7.25,0,0,1,0,6.21l.1,1.16a2.37,2.37,0,0,1,.54,1.37,10.79,10.79,0,0,1-.21,1.79c-.07.56-.13,1.17-.16,1.84a6.46,6.46,0,0,0,.27,2.16l.75.84a7.56,7.56,0,0,0,3.33.84,7.76,7.76,0,0,0,3.87-1c1.15-.63,2.23-1.26,3.23-1.89a17.88,17.88,0,0,1,2.21-1.37,8,8,0,0,1,2-.73c1.5-1.41,2.88-2.65,4.14-3.74s2.56-2.19,3.92-3.32q3.87-3,7.53-6.57a25.36,25.36,0,0,0,5.81-8.79,5,5,0,0,1,2.69-.74,8.5,8.5,0,0,1,3,.58c1,.39,2,.83,3,1.32a3.4,3.4,0,0,0,.59.31,3.17,3.17,0,0,1,.59.32,2.9,2.9,0,0,0,1,2.1,5.94,5.94,0,0,0,.75.53l.44.21c.57.35,1.05.67,1.45,1a2.69,2.69,0,0,1,.91,1.15,8.57,8.57,0,0,0,3.23,4.42,4.7,4.7,0,0,0,.11,2.27,21.23,21.23,0,0,0,.75,2.16,4.77,4.77,0,0,1,.32.78,9.3,9.3,0,0,0,.32.9l-2.36-.21.32,2.31a9,9,0,0,1-.27,4,14,14,0,0,1-1.34,3.48c.14,2.1.21,3.77.21,5a26.22,26.22,0,0,1-.21,3.43,16.52,16.52,0,0,1-.7,3,27.4,27.4,0,0,1-1.24,3,37.85,37.85,0,0,1-1.88,14.63q-2.31,6.63-5,12.42c-.22.49-.43.95-.65,1.37a11.37,11.37,0,0,0-.54,1.26,15.42,15.42,0,0,0-2.15.74,15.8,15.8,0,0,0-1.83.95,15.07,15.07,0,0,1-2.36,1.21,6.75,6.75,0,0,1-2.48.47q-5.16-3.68-5.32-12.73t3.93-23a1.59,1.59,0,0,0,.64-1.58v-1.16l-1.07-.1a4.07,4.07,0,0,0-1,.1c-.29.07-.5.39-.65,1q-3.44,2.41-7.47,5a89.91,89.91,0,0,1-8.34,4.73,60.83,60.83,0,0,1-8.76,3.58,28.46,28.46,0,0,1-8.66,1.42q-10.76,0-16.24-10.73l-1-1.9-1.08,1.69c-.21.35-.59,1-1.13,2s-1.07,2.19-1.61,3.53a40.37,40.37,0,0,0-1.4,4.1,9.11,9.11,0,0,0-.37,3.68,26.52,26.52,0,0,0-2.53,2.63,9,9,0,0,0-1.78,3.37,1.6,1.6,0,0,0-.1,1,5.49,5.49,0,0,0,.32,1,1.83,1.83,0,0,1-.43,1.05,8.32,8.32,0,0,1-.75.64c-.36.35-.72.72-1.08,1.1a7.75,7.75,0,0,0-1,1.32,8.08,8.08,0,0,0-.32,1.31c-.07.46-.14.86-.21,1.21a2.68,2.68,0,0,1-.33,1.58c-.72,1.47-1.34,2.68-1.88,3.63a9.91,9.91,0,0,1-1.56,2.16,4.09,4.09,0,0,1-1.56,1A6.28,6.28,0,0,1,776.62,281.77Z" transform="translate(0 -4.86)"/><path class="cls-4" d="M871.38,270.3l1.39-1.05.11-2.21q2.68-6.42,5.54-12.32t6-12.1q1-2,2-4t2-4.1a3.7,3.7,0,0,1-.11-.9,3.34,3.34,0,0,1,.22-1.1,37.69,37.69,0,0,0,2.42-3.79c.61-1.12,1.2-2.28,1.77-3.47q1-2.12,2.1-4.21a22.68,22.68,0,0,1,2.85-4.11l.75-1.05,1.18.11a6.79,6.79,0,0,1,.92-.37,3.89,3.89,0,0,1,1.24-.16l1.93.31a18.66,18.66,0,0,0,6.29-4.57,59.35,59.35,0,0,0,5.54-7.21l1.29-1.79,1.72,1a7.5,7.5,0,0,0,1.73.63c.78.21,1.61.46,2.47.74,1.51.35,3,.75,4.41,1.21a8.36,8.36,0,0,1,3.33,1.84l.54.95c.14.77.27,1.47.38,2.1s.23,1.27.37,1.9c.29,1.47.54,2.93.76,4.37a45.6,45.6,0,0,1,.43,4.78c.36,1.41.7,2.83,1,4.27s.63,2.86.91,4.26q.54,3,1.19,5.84a31.4,31.4,0,0,0,1.72,5.31,4.3,4.3,0,0,1,1.29.11,9.49,9.49,0,0,1,3-.63l1.4-.11.43,1.27a3.78,3.78,0,0,0,.54.63,6.21,6.21,0,0,0,.75.63,5,5,0,0,1,2.53.68,13,13,0,0,1,1.34,1.11,5.68,5.68,0,0,0,.54.47,2.48,2.48,0,0,0,.54.37l1.93.74-1.07,2a15.53,15.53,0,0,1-3.61,4.31,21.86,21.86,0,0,1-5.43,3.47,7,7,0,0,1,.27,1.37,10.5,10.5,0,0,0,.27,1.48c.29,1.4.52,2.85.7,4.36a18.93,18.93,0,0,1,0,4.69,25.52,25.52,0,0,1-2.53,4.89,19.87,19.87,0,0,1-3.44,3.89,17.9,17.9,0,0,1-4.47,2.85,14,14,0,0,1-5.16,1.21,7.47,7.47,0,0,1-2.21-.74,13.1,13.1,0,0,1-1.23-.84,6.86,6.86,0,0,0-1.4-.84l-1.4-.64.43-1.57a1.62,1.62,0,0,0-.05-1.48,8.28,8.28,0,0,0-1.56-1.68,4.15,4.15,0,0,1-.75-.69c-.22-.24-.47-.5-.76-.79l-2.15-2.42,3.55-.94c2.15-.56,3.59-1.28,4.3-2.16s1-2.44.86-4.68a11.23,11.23,0,0,0-4.41-.16c-1.14.25-2.29.51-3.44.79-1.65.42-3.26.79-4.84,1.1a26,26,0,0,1-5.16.48,25.43,25.43,0,0,1-3.87-.32l-1.19-.1-.32-1.16a.74.74,0,0,0-.27-.48l-.48-.47q-.54-.63-1.29-1.68a3,3,0,0,1-.33-2.63,5.36,5.36,0,0,1-.86-2.43,12.29,12.29,0,0,0-.69,1.64c-.18.52-.35,1-.49,1.52l-.43,1.37-1.4.21a1.69,1.69,0,0,0-.37.63.81.81,0,0,0-.06.63l.43,1.16-1.07.95a1.91,1.91,0,0,1-.54.52,4.43,4.43,0,0,0-.54.43,14,14,0,0,1-.59,2.21q-.37,1-.81,2.1c-.36,1.12-.7,2.21-1,3.26a10.87,10.87,0,0,0-.48,3.16l-.43,1.37a3.53,3.53,0,0,1-1.35,1.26c-.53.28-1.05.53-1.56.74a4.61,4.61,0,0,0-1.5.84l-.32,1.37-1.62.21c-.93.21-1.59.35-2,.42a7.64,7.64,0,0,1-1.34.11l-1.4-.11q-1.29-1.26-2.1-2a9.2,9.2,0,0,0-1.88-1.21l-.65-.84a5.28,5.28,0,0,1-.53-1.53,10.64,10.64,0,0,0-.33-1.42,4.05,4.05,0,0,0-.64-1.89Zm34.31-27.36c-1,1.4-2,2.88-2.91,4.42a10.56,10.56,0,0,1,1.45-.11,10.65,10.65,0,0,0,1.46-.1c2.5-.14,4.84-.32,7-.53s4.48-.56,7-1.05c-.58-2.6-1.2-5.25-1.88-7.95s-1.42-5.42-2.21-8.15l-.54,1.05a74,74,0,0,0-5.16,6.1,51.85,51.85,0,0,0-4.09,6.21Z" transform="translate(0 -4.86)"/><path class="cls-4" d="M971,270.41a3.31,3.31,0,0,0-1.29,2.15q-.21,1.32-.54,2.58A5,5,0,0,1,968,277.3a3.45,3.45,0,0,1-2.85.79c-.28.35-.34.56-.16.63s.34.39.49.95a3.26,3.26,0,0,0-2.15.21,4.81,4.81,0,0,1-1.62.63,8.51,8.51,0,0,1-4.14-2.68,23.42,23.42,0,0,1-2.9-4.27,37.8,37.8,0,0,1-2.15-4.73,33.31,33.31,0,0,0-1.89-4.21c0-.28.13-.41.38-.37a4.35,4.35,0,0,0,.7.05,9.18,9.18,0,0,1-.81-2.37,4.54,4.54,0,0,0-1-2.15q3.12-6.52,6.67-13.63t7.15-14.42q3.6-7.32,7.21-14.73t6.94-14.58a50.12,50.12,0,0,1,5.86,2.47,28.53,28.53,0,0,1,5.21,3.32,19.88,19.88,0,0,1,4,4.36,14.27,14.27,0,0,1,2.2,5.64q-.21.63-.54.42c-.21-.14-.39-.07-.53.21a3,3,0,0,1,.59.89,1,1,0,0,1-.06.53,1.84,1.84,0,0,0-.1.68,2.22,2.22,0,0,0,.53,1.16c-.36-.07-.61,0-.75.16s-.39.19-.75.05a4.15,4.15,0,0,1,.32,2.32,5.31,5.31,0,0,1-.64,1.52,7.09,7.09,0,0,0-.7,1.47,3.56,3.56,0,0,0,.16,2.16.8.8,0,0,0-.59.16,1.26,1.26,0,0,0-.27.37,1.68,1.68,0,0,1-.27.37.65.65,0,0,1-.59,0,36.26,36.26,0,0,1,.21,5.52c-.07,1.86-.14,3.76-.21,5.69s-.08,3.91,0,5.94a33.36,33.36,0,0,0,.86,6.32,22,22,0,0,0,7.47-6.84,36.79,36.79,0,0,0,4.52-9.37,71.81,71.81,0,0,0,2.58-11.05q.92-5.9,1.88-12a8.51,8.51,0,0,0,1.89-2.84,28.9,28.9,0,0,0,1.18-3.47l1-3.63a13.33,13.33,0,0,1,1.34-3.32,7.22,7.22,0,0,1,3.28,1.11,18.69,18.69,0,0,1,2.53,2,28.25,28.25,0,0,0,2.47,2.05,7.4,7.4,0,0,0,3.23,1.26c1,1.41,1.94,2.76,2.8,4.05a11.54,11.54,0,0,1,1.72,4.37,8.25,8.25,0,0,0-1,2.32c-.22.84-.45,1.68-.7,2.52a9.72,9.72,0,0,1-1,2.32,5.51,5.51,0,0,1-1.83,1.79,45.24,45.24,0,0,1-1,5.89c-.43,1.83-.82,3.61-1.18,5.37s-.68,3.58-1,5.47a34.16,34.16,0,0,0-.32,6.21c-.65,2-1.36,4.12-2.15,6.26a38,38,0,0,0-1.72,6,11.37,11.37,0,0,0-3.23,3.89q-1.18,2.33-2.47,4.63c-.36.28-.58.34-.65.16s-.39-.3-1-.37c.07.63,0,1-.37,1.21s-.31.69.05,1.53a11.36,11.36,0,0,0-3.23,2.21,24.49,24.49,0,0,1-3.06,2.53,9.39,9.39,0,0,1-3.87,1.52,12,12,0,0,1-5.76-.89,52.65,52.65,0,0,1-9.46-8.74,38.23,38.23,0,0,1-6.67-11.68,2.59,2.59,0,0,0-1.62,1.37,21,21,0,0,0-1,2.21c-.29.77-.58,1.47-.86,2.1a1.39,1.39,0,0,1-1.29.95,4.78,4.78,0,0,1-.81,1.74c-.4.52-.77,1.05-1.13,1.57a6,6,0,0,0-.81,1.74A3,3,0,0,0,971,270.41Z" transform="translate(0 -4.86)"/><path class="cls-4" d="M1036.9,271.14a18.63,18.63,0,0,1-5.11-5.79,33.68,33.68,0,0,1-3.11-7.36,42.08,42.08,0,0,1-1.51-8.05,67.69,67.69,0,0,1-.27-7.95,27.9,27.9,0,0,1,2.37-5.21,38.75,38.75,0,0,1,3.12-4.53q1.71-2.15,3.6-4.1c1.25-1.3,2.49-2.61,3.71-4a2.3,2.3,0,0,1,1.18.32,5.47,5.47,0,0,1,1.29-2A16.48,16.48,0,0,1,1044,221l1.94-1.36a6.56,6.56,0,0,0,1.61-1.63,19.22,19.22,0,0,0,4.79-1.79,44.8,44.8,0,0,0,4-2.53q1.94-1.37,4-2.53a18.19,18.19,0,0,1,4.73-1.79,8.44,8.44,0,0,1,2.42-1.78c1-.49,1.94-1,2.91-1.37s1.9-.88,2.79-1.37a6.33,6.33,0,0,0,2.21-2,1.67,1.67,0,0,0,1.83.58c.78-.18,1.5-.37,2.15-.58a1.36,1.36,0,0,1,1.07.21,7.67,7.67,0,0,1,.81.68,2.08,2.08,0,0,0,.65.48c.17.07.37-.14.59-.63.57.07.73.31.48.73s-.41.71-.48.85a2.05,2.05,0,0,1,1.77.36,4.4,4.4,0,0,0,2.21.79c.35.36.46.63.32.84a2.61,2.61,0,0,0-.32,1.06q3.87,1.15,4.94,3.63a7.11,7.11,0,0,1,.22,5.16,12.2,12.2,0,0,1-3.17,4.94,11.47,11.47,0,0,1-5.11,3q-3.34.84-6.19,1.69t-5.48,1.89a31.74,31.74,0,0,0-5,2.47,18.22,18.22,0,0,0-4,3.32,21.46,21.46,0,0,0-5.43,2.31,34.74,34.74,0,0,0-4.52,3.27q-2.1,1.79-4,3.73t-3.87,3.84a4.85,4.85,0,0,1-.64,2.74c-.43.63-.9,1.26-1.4,1.89a10.17,10.17,0,0,0,.91,3.42c.47.95,1,1.92,1.45,2.9a82,82,0,0,0,18.24,3.1q9.61.58,19.09.69a16.83,16.83,0,0,0,2.2,2.36,26.85,26.85,0,0,1,2.26,2.27,8.82,8.82,0,0,1,1.61,2.68,6.92,6.92,0,0,1,.27,3.63,39.2,39.2,0,0,1-4,3.42c-1.43,1.09-2.87,2.16-4.3,3.21a12.65,12.65,0,0,1-2.31,0c-.9-.07-1.83-.1-2.8-.1a25.62,25.62,0,0,0-2.9.16,9.92,9.92,0,0,0-2.74.68,83.59,83.59,0,0,1-13.88-1.63,111.53,111.53,0,0,1-13.12-3.42,33.64,33.64,0,0,0-2.48-2.58A7.47,7.47,0,0,0,1036.9,271.14Z" transform="translate(0 -4.86)"/><path class="cls-4" d="M1099.18,276.72a4.79,4.79,0,0,1-1.24-2,3.36,3.36,0,0,0-1.77-1.89c-.15-1.06-.34-2.27-.59-3.63s-.51-2.78-.76-4.21-.43-2.88-.54-4.32a15.82,15.82,0,0,1,.17-3.95,6.06,6.06,0,0,1,.7-1.78c.32-.57.64-1.11,1-1.64a6.89,6.89,0,0,0,.76-1.63,3.1,3.1,0,0,0,.05-1.68.92.92,0,0,0,.81-.69q.15-.57,1-.36c.5-1.55,1-3,1.61-4.32s1.19-2.63,1.83-3.89,1.31-2.55,2-3.84a33.74,33.74,0,0,0,1.88-4.37,10.31,10.31,0,0,1-2.63-3.63,23.13,23.13,0,0,1-1.24-3.95,36.32,36.32,0,0,1-.64-4.05,22.69,22.69,0,0,0-.87-4.16,11.36,11.36,0,0,1,3.12-3.1,18.33,18.33,0,0,1,4-2,30.55,30.55,0,0,1,4.78-1.27q2.58-.47,5.49-1.1c3.44-1,6.52-1.88,9.25-2.47s5.38-1.09,8-1.48,5.27-.73,8.06-1.05,6-.79,9.68-1.42c.08.21.2.32.38.32h.7a1.17,1.17,0,0,0,1.18.73,3.48,3.48,0,0,0,0-.58,2,2,0,0,1,0-.47,2.51,2.51,0,0,1,.59.11c.25.07.46.14.64.21a.48.48,0,0,0,.49-.06c.14-.1.17-.33.1-.68a11.29,11.29,0,0,0,3.34,3.63,24.64,24.64,0,0,0,4.51,2.47,6.4,6.4,0,0,1,.06,1.37,5.8,5.8,0,0,1-.16.79,3.11,3.11,0,0,0-.11.84,5.82,5.82,0,0,0,.21,1.32,14.58,14.58,0,0,1-3.92,4.42,18,18,0,0,1-4.68,2.42,30.62,30.62,0,0,1-5.22,1.26c-1.82.28-3.69.58-5.59.9a48.94,48.94,0,0,0-5.75,1.31,23.91,23.91,0,0,0-5.7,2.53,3.89,3.89,0,0,0-1.56-.27,8.08,8.08,0,0,0-1.46.27c-.5.14-1,.28-1.66.42a5.83,5.83,0,0,1-2.21,0,5.08,5.08,0,0,1-2,1.05l-2.31.63a4.87,4.87,0,0,1,.48,2.32,5.13,5.13,0,0,0,.27,2,56,56,0,0,0,10-.06c3.65-.31,7.24-.54,10.75-.68.07.35,0,.6-.11.74a1,1,0,0,0-.21.73,9.55,9.55,0,0,1,1.83,1.58c.57.63,1.16,1.25,1.77,1.84a10.42,10.42,0,0,0,1.88,1.48,3.76,3.76,0,0,0,2.26.47,8.27,8.27,0,0,1,.76,2.21,4.18,4.18,0,0,1-.33,2.42c-1.43.92-2.83,1.84-4.19,2.79a39.1,39.1,0,0,1-4.25,2.58,24.89,24.89,0,0,1-4.79,1.89,17.71,17.71,0,0,1-5.59.64h-.91a1.59,1.59,0,0,1-.92-.43,5.26,5.26,0,0,1-2.85.37,6,6,0,0,0-3,.37,10.64,10.64,0,0,0-3.5-.53,10.65,10.65,0,0,1-3.5-.52q-1.93,2.73-3.65,5.73a45.43,45.43,0,0,0-3,6.37,42.54,42.54,0,0,0,7.31.53c1.94-.07,3.76-.21,5.48-.42l5.33-.63a49,49,0,0,1,6.72-.21,20.69,20.69,0,0,1,6.19-1.74,40,40,0,0,0,6.5-1.42,3.68,3.68,0,0,1,1.83,1.21c.5.59,1,1.19,1.45,1.79a10.59,10.59,0,0,0,1.45,1.52,2.24,2.24,0,0,0,1.94.42,2.54,2.54,0,0,1,.7,1.27c.11.49.22.94.32,1.37a2.4,2.4,0,0,0,.49,1,1.31,1.31,0,0,0,1.18.26,20.33,20.33,0,0,1-4.57,6.31,18.58,18.58,0,0,1-5.7,3.42,33.2,33.2,0,0,1-7.1,1.79q-3.93.58-8.77,1.42a4,4,0,0,1-2-.05,5.44,5.44,0,0,0-1.66-.26q-3,.52-7.16,1.05a55.1,55.1,0,0,1-8.33.42,37.92,37.92,0,0,1-8.07-1.05A14.16,14.16,0,0,1,1099.18,276.72Z" transform="translate(0 -4.86)"/></g></g></svg>