<svg id="Layer_1" data-name="Layer 1" xmlns="http://www.w3.org/2000/svg" xmlns:xlink="http://www.w3.org/1999/xlink" viewBox="0 0 1164.96 292.97"><defs><style>.cls-1{fill:#dbd112;}.cls-2{fill:#3bba65;}.cls-3{fill:#248d7b;}.cls-4{fill:#187687;}.cls-5{fill:url(#linear-gradient);}.cls-6{fill:url(#linear-gradient-2);}.cls-7{fill:url(#linear-gradient-3);}.cls-8{fill:url(#linear-gradient-4);}.cls-9{fill:url(#linear-gradient-5);}</style><linearGradient id="linear-gradient" x1="357.65" y1="1630.58" x2="372.99" y2="1334.02" gradientUnits="userSpaceOnUse"><stop offset="0" stop-color="#0c5f92"/><stop offset="0.17" stop-color="#146e8b"/><stop offset="0.49" stop-color="#279478"/><stop offset="0.77" stop-color="#3bba65"/></linearGradient><linearGradient id="linear-gradient-2" x1="342.64" y1="1630.13" x2="358.01" y2="1332.97" xlink:href="#linear-gradient"/><linearGradient id="linear-gradient-3" x1="444.73" y1="1635.71" x2="460.15" y2="1337.65" xlink:href="#linear-gradient"/><linearGradient id="linear-gradient-4" x1="529.62" y1="1640.41" x2="544.98" y2="1343.33" xlink:href="#linear-gradient"/><linearGradient id="linear-gradient-5" x1="424.52" y1="1633.7" x2="439.84" y2="1337.62" xlink:href="#linear-gradient"/></defs><title>Logo Triple Performance</title><path class="cls-1" d="M468.91,1449.37v14.2a27.51,27.51,0,0,1,3.75-7.46c4.54-6.38,11.11-9.91,17.55-10.15a27,27,0,0,1-4.57,21c-4.35,6.11-10.57,9.61-16.73,10.1v9.26c-1,.88-1.87,1.78-2.78,2.69l-.09.1c-.85-.85-1.71-1.69-2.58-2.51V1477c-6.17-.49-12.38-4-16.73-10.1a27,27,0,0,1-4.57-21c6.43.24,13,3.77,17.55,10.15a27.66,27.66,0,0,1,3.75,7.46v-14.2c-6.17-.5-12.38-4-16.73-10.11a27,27,0,0,1-4.57-21c6.43.24,13,3.78,17.55,10.16a27.66,27.66,0,0,1,3.75,7.46v-14.2c-6.17-.5-12.38-4-16.73-10.11a27,27,0,0,1-4.57-21c6.43.24,13,3.78,17.55,10.16a27.51,27.51,0,0,1,3.75,7.46v-8.81a25.34,25.34,0,0,1-6.45-17.07,25,25,0,0,1,9.17-19.63,25,25,0,0,1,9.18,19.63,25.39,25.39,0,0,1-6.45,17.07v8.81a27.51,27.51,0,0,1,3.75-7.46c4.54-6.38,11.11-9.92,17.55-10.16a27,27,0,0,1-4.57,21c-4.35,6.11-10.57,9.61-16.73,10.11v14.2a27.66,27.66,0,0,1,3.75-7.46c4.54-6.38,11.11-9.92,17.55-10.16a27,27,0,0,1-4.57,21C481.29,1445.37,475.07,1448.87,468.91,1449.37Z" transform="translate(-333.54 -1309.9)"/><path class="cls-1" d="M516.05,1443.52V1454a20,20,0,0,1,2.9-5.48,17.9,17.9,0,0,1,13.52-7.46,18.9,18.9,0,0,1-2.7,14.2,132.26,132.26,0,0,0-23.39,7.17l0,0a19.49,19.49,0,0,1-10.9-21.39,17.94,17.94,0,0,1,13.52,7.46,20,20,0,0,1,2.9,5.48v-10.43a18.06,18.06,0,0,1-12.9-7.43,19,19,0,0,1-3.52-15.39,17.94,17.94,0,0,1,13.52,7.46,20,20,0,0,1,2.9,5.48v-10.43a18.06,18.06,0,0,1-12.9-7.43,19,19,0,0,1-3.52-15.39,17.94,17.94,0,0,1,13.52,7.46,20,20,0,0,1,2.9,5.48v-6.47a18.24,18.24,0,0,1,2.1-26.95,18.25,18.25,0,0,1,2.09,26.95v6.47a20,20,0,0,1,2.9-5.48,17.9,17.9,0,0,1,13.52-7.46,19,19,0,0,1-3.52,15.39,18.06,18.06,0,0,1-12.9,7.43v10.43a20,20,0,0,1,2.9-5.48,17.9,17.9,0,0,1,13.52-7.46,19,19,0,0,1-3.52,15.39A18.06,18.06,0,0,1,516.05,1443.52Z" transform="translate(-333.54 -1309.9)"/><path class="cls-1" d="M420.22,1443.52V1454a19.69,19.69,0,0,1,2.9-5.48,17.9,17.9,0,0,1,13.52-7.46,19.47,19.47,0,0,1-10.9,21.38,130.91,130.91,0,0,0-23.44-7.18,18.94,18.94,0,0,1-2.69-14.2,17.94,17.94,0,0,1,13.52,7.46A20.23,20.23,0,0,1,416,1454v-10.43a18.06,18.06,0,0,1-12.9-7.43,19,19,0,0,1-3.52-15.39,17.94,17.94,0,0,1,13.52,7.46,20.23,20.23,0,0,1,2.9,5.48v-10.43a18.06,18.06,0,0,1-12.9-7.43,19,19,0,0,1-3.52-15.39,17.94,17.94,0,0,1,13.52,7.46,20.23,20.23,0,0,1,2.9,5.48v-6.47a18.25,18.25,0,0,1,2.09-26.95,18.24,18.24,0,0,1,2.1,26.95v6.47a19.69,19.69,0,0,1,2.9-5.48,17.9,17.9,0,0,1,13.52-7.46,19,19,0,0,1-3.52,15.39,18.06,18.06,0,0,1-12.9,7.43v10.43a19.69,19.69,0,0,1,2.9-5.48,17.9,17.9,0,0,1,13.52-7.46,19,19,0,0,1-3.52,15.39A18.06,18.06,0,0,1,420.22,1443.52Z" transform="translate(-333.54 -1309.9)"/><path class="cls-2" d="M490.91,1556.15l-.07,0-.26-.13c-3.77-1.81-39.17-19.51-88.81-67.61,0,0,25.35,46.71,74.69,70.55a85.49,85.49,0,0,1-10.42.63c-50.31,0-91.09-43.46-91.09-97.08,0-1.23,0-2.45.06-3.67v0c0-.2,0-.39.05-.59,37.66.28,71.07,15.93,92.22,40,14.16,16.12,22.84,36,23.62,57.66v.25Z" transform="translate(-333.54 -1309.9)"/><path class="cls-2" d="M557.13,1462.48c0,42.41-25.52,78.47-61.09,91.69a93.66,93.66,0,0,0-3.32-20.29c24.7-21.94,37.39-45.14,37.58-45.5a525.24,525.24,0,0,1-40.84,35.86,100.3,100.3,0,0,0-13.85-24.15c-1.41-1.84-2.9-3.65-4.45-5.42-.49-.55-1-1.1-1.47-1.64,21.22-21.13,52.46-34.56,87.33-34.83l0,.53h0C557.11,1460,557.13,1461.23,557.13,1462.48Z" transform="translate(-333.54 -1309.9)"/><path class="cls-3" d="M557,1458.2c-37.8,7.57-63.79,24.33-81.41,41.89-1.41-1.84-2.9-3.65-4.45-5.42-.49-.55-1-1.1-1.47-1.64C490.91,1471.9,522.15,1458.47,557,1458.2Z" transform="translate(-333.54 -1309.9)"/><path class="cls-4" d="M476.46,1558.93a85.49,85.49,0,0,1-10.42.63c-50.31,0-91.09-43.46-91.09-97.08,0-1.23,0-2.45.06-3.67v0S388.82,1547.63,476.46,1558.93Z" transform="translate(-333.54 -1309.9)"/><path class="cls-5" d="M398.62,1373.52l-15.49-21.94A137.83,137.83,0,0,0,362,1374.42a143.46,143.46,0,0,0-20.83,40.38L365.7,1423A114.86,114.86,0,0,1,398.62,1373.52Z" transform="translate(-333.54 -1309.9)"/><path class="cls-6" d="M359.35,1461.62a120.76,120.76,0,0,1,3.76-30l-24.65-8.25a151.27,151.27,0,0,0-1.26,71.34l30,9.7A120,120,0,0,1,359.35,1461.62Z" transform="translate(-333.54 -1309.9)"/><path class="cls-7" d="M466.07,1575.36c-33.77,0-63.87-16.72-83.43-42.81l4.84-4.71a5.12,5.12,0,0,0-1.79-8.44l-37.38-12.12c-3.47-1.12-6.76,2.21-5.89,6l9.16,39.6a4.58,4.58,0,0,0,7.69,2.48l4.29-4.18c24.3,31.58,61.2,51.73,102.51,51.73,35.35,0,67.47-14.76,91.23-38.8l-7-32.59C530.76,1558.18,500.3,1575.36,466.07,1575.36Z" transform="translate(-333.54 -1309.9)"/><path class="cls-8" d="M595.85,1513.74l-5.71-1.94q1.92-5.41,3.44-11l-.15,0a150.23,150.23,0,0,0,5.17-39.19c0-63.86-39.78-117.83-94.37-135.29l-22.73,22.74c51.63,8,91.29,55.32,91.29,112.55a120,120,0,0,1-7.43,41.76l.22.07-6.14-2.08c-3.45-1.17-6.78,2.1-6,5.86l8.76,40.57a4.58,4.58,0,0,0,7.78,2.48l27.65-28.2A5.12,5.12,0,0,0,595.85,1513.74Z" transform="translate(-333.54 -1309.9)"/><path class="cls-9" d="M405.38,1368.06a102.46,102.46,0,0,1,45.33-19l1.35,6.69a4.58,4.58,0,0,0,7.74,2.6l28.66-28.29a5.12,5.12,0,0,0-1.86-8.43l-36.71-11.52c-3.4-1.07-6.63,2.13-5.89,5.82l1.25,6.19a127.37,127.37,0,0,0-55.4,24Z" transform="translate(-333.54 -1309.9)"/><path class="cls-4" d="M647.54,1354.2A9.8,9.8,0,0,0,647,1352c-.26-.65-.54-1.38-.85-2.18a34.9,34.9,0,0,1-1.38-3.91,17.72,17.72,0,0,1-.62-5,6.53,6.53,0,0,1,.77-2.18,8.12,8.12,0,0,1,.92-1.13l.62-2.7h2.3a21,21,0,0,0,2.54.15h2.53q5.85,0,12-.45t12.6-1.06q7.07-.9,15.21-1.35c.51-1.1.85-1.8,1-2.1s.33-.65.54-1.06l1.69-.9q3.52-.15,4.91.83a11.33,11.33,0,0,1,2.15,1.88c2.67-.2,5.38-.48,8.15-.83s5.63-.73,8.6-1.13l12.45-1.5a104,104,0,0,1,12.29-.75q2.61,0,4.92.15c1.53.1,3,.25,4.45.45l1.85,1.35a9.44,9.44,0,0,0,1.53,2,20.4,20.4,0,0,0,2.15,1.8,29.64,29.64,0,0,1,4.54,4.51q2.22,2.7,1.61,8l-.77,1.5a9.61,9.61,0,0,1-1.53,1.21l-1.54,2h-1.69a8.8,8.8,0,0,0-2.31.23,18.34,18.34,0,0,0-1.84.67,8.83,8.83,0,0,1-1.38.53c-.52.15-1.08.32-1.69.53-1.13-.1-2-.16-2.61-.16h-2.16a90.44,90.44,0,0,0-10,.61q-5.38.6-10.45,1.35-3.69.45-7.07.83l-6.15.67c-1,2.61-1.94,4.91-2.76,6.92s-1.69,4-2.61,6-1.8,4-2.61,6.09a70.85,70.85,0,0,0-2.31,6.84,44.62,44.62,0,0,0-3.07,5.19,26.81,26.81,0,0,0-2,5.64,15.48,15.48,0,0,0-3.3,5.56q-1,3-1.77,5.11l-.62,2.26a5.59,5.59,0,0,0-1.3,1.65,5.06,5.06,0,0,1-.85,1.35,21.49,21.49,0,0,1-1.23,3.76c-.2.51-.41,1-.61,1.58a1.92,1.92,0,0,0-.15,1.28,7,7,0,0,1-.93,2.56,10.93,10.93,0,0,1-.15,1.8c-.1.6-.21,1.2-.31,1.8s-.36,1.33-.46,1.88a2.74,2.74,0,0,0,.16,1.58l.92,1.2a5.48,5.48,0,0,1,.77,1.51,1.92,1.92,0,0,0,.76.45,1.89,1.89,0,0,1,.77.45,4.69,4.69,0,0,0,2.31,1.2l1.53,1.81c.62,3.6,0,6.41-1.69,8.42q-2.76,3.45-9.22,3.45l-2.15-.15a9.39,9.39,0,0,1-1.23-1.35l-2.3-1a4,4,0,0,1-1.69-1.42,1.41,1.41,0,0,0-.77-.38,1.34,1.34,0,0,1-.77-.38,9.54,9.54,0,0,1-2.46-1l-1.69-.9c.11-1,.16-1.7.16-2.11a13.55,13.55,0,0,1-1.92-3.6,35.21,35.21,0,0,1-1.16-4.06c-.3-1.1-.59-2.11-.84-3a7.79,7.79,0,0,0-1.15-2.41q-.32-10.51,2-17.66t5.08-13.91q1.53-3.6,2.92-7.37c.92-2.5,1.74-5.06,2.45-7.66l1.69-1.66a4,4,0,0,0,2.15-4.88c.52-1.26,1.08-2.53,1.69-3.84.41-.8.8-1.6,1.16-2.4a9.32,9.32,0,0,0,.69-2.11c-.72,0-1.36,0-1.92.08s-1.15.12-1.77.22a17.44,17.44,0,0,1-3.84.45,9.41,9.41,0,0,1-2-.15,6.14,6.14,0,0,1-2.3.68c-.72,0-1.44.07-2.15.07h-3.69a7.72,7.72,0,0,0-2.92.46H658a19.2,19.2,0,0,1-2.76-.23,10,10,0,0,1-3.23-1.13l-1.07-1.2c-.62-1.1-1.18-1.7-1.69-1.8l-1.69-.46Z" transform="translate(-333.54 -1309.9)"/><path class="cls-4" d="M742.74,1430c-.36.07-.69-.2-1-.79a16.42,16.42,0,0,0-1-1.74H742a8.5,8.5,0,0,1-.37-4.26c.25-1.3.55-2.56.91-3.79s.66-2.42.92-3.58a6.17,6.17,0,0,0-.38-3.63.51.51,0,0,0,.81-.26,6.78,6.78,0,0,0,.43-1.48,8.31,8.31,0,0,0,.1-1.89,13.76,13.76,0,0,0-.16-1.63,40.57,40.57,0,0,0,2.21-6.74c.53-2.31,1-4.61,1.45-6.89s.91-4.49,1.45-6.63a35.64,35.64,0,0,1,2.1-6.05,6.7,6.7,0,0,1,3.17.37,4.14,4.14,0,0,1,2.21,1.42,28.62,28.62,0,0,0,5.91-6.11q2.58-3.57,5.22-7a34.2,34.2,0,0,1,6-6,15.84,15.84,0,0,1,8.28-3.16q2.58,1.8,5.81,3.85a17.7,17.7,0,0,1,5.27,5.1c.57.35,1.13.72,1.66,1.11s1.1.75,1.67,1.1v1.58a12.26,12.26,0,0,1,2.53,3.21,33.87,33.87,0,0,1,1.83,3.89c.54,1.37,1,2.76,1.56,4.16a27.18,27.18,0,0,0,1.72,3.89,2.45,2.45,0,0,0-.16,1.11,4.05,4.05,0,0,0,.21,1,6.68,6.68,0,0,1,.27,1,8.11,8.11,0,0,1,.11,1.42,14.16,14.16,0,0,1-3.71,9,26,26,0,0,1-8,5.58,72.25,72.25,0,0,1-9.95,3.68,91.52,91.52,0,0,0-9.57,3.31c0,.29.16.43.48.43s.41.21.27.63q3.22,1.89,5,3.05a36.43,36.43,0,0,0,3.34,1.95,18.79,18.79,0,0,0,3.44,1.31q1.88.52,5.21,1.26t5.22,1.21c1.25.32,2.38.57,3.39.74s2.08.33,3.23.47,2.68.32,4.62.53a9.7,9.7,0,0,1,1.94,2.74,13.48,13.48,0,0,1,1.07,3.15,9.36,9.36,0,0,1,.16,3,3.94,3.94,0,0,1-.91,2.27.48.48,0,0,0,.59.37,3.24,3.24,0,0,1,1,0,5.51,5.51,0,0,0-1.29,1.26l-1.07,1.47a9.42,9.42,0,0,1-1.24,1.37,3,3,0,0,1-1.78.74q-3.87,1.47-9.89.1a126.05,126.05,0,0,1-15.38-4.84c-3.09-1.12-5.59-2.14-7.53-3a52.52,52.52,0,0,1-5.06-2.68,34,34,0,0,1-4-2.84q-1.83-1.53-4.2-3.64a.55.55,0,0,0-.38.43.5.5,0,0,1-.37.42,26.18,26.18,0,0,1-1.67,6.84,24.54,24.54,0,0,1-3.28,5.37c-1.15-.22-1.92-.11-2.31.31a7.17,7.17,0,0,1-1.45,1.16,2.72,2.72,0,0,1-1.62-.05,6.91,6.91,0,0,1-1-.58,11.43,11.43,0,0,0-1-.63,3,3,0,0,0-1.72-.21c-.22-.64-.43-1.25-.65-1.85s-.79-.85-1.72-.79a3.41,3.41,0,0,0,.21-1.63,6.83,6.83,0,0,0-.32-1.26,10.69,10.69,0,0,1-.37-1.21A2.37,2.37,0,0,1,742.74,1430Zm35.92-48.1a23.68,23.68,0,0,1-3.12,3.63q-1.72,1.63-3.39,3.37a23.63,23.63,0,0,0-2.95,3.79,13.68,13.68,0,0,0-1.83,4.89,37.77,37.77,0,0,0,9.46-2.47q4.95-1.95,9.36-3.74a11,11,0,0,0-2.8-6.26A11.87,11.87,0,0,0,778.66,1381.85Z" transform="translate(-333.54 -1309.9)"/><path class="cls-4" d="M809.42,1440.26a7.56,7.56,0,0,1-2.42-2.42,15.55,15.55,0,0,1-1.5-3.16,26,26,0,0,1-1-3.52c-.25-1.23-.52-2.41-.81-3.53a3.08,3.08,0,0,1,.65-2.16,17.42,17.42,0,0,1,1.39-1.31,41.57,41.57,0,0,0,4.63-.42l4-.63c1.29-.22,2.58-.41,3.87-.58a30.47,30.47,0,0,1,4.2-.27q1.6-3.26,3-6.26t2.69-5.73a28.19,28.19,0,0,1,1.66-4.9c.68-1.51,1.35-2.95,2-4.31s1.22-2.74,1.72-4.11a17.18,17.18,0,0,0,1-4.37q1.29-3.67,2.31-6.78a40,40,0,0,0,1.56-7.42q-4.08.63-6.56,1.21a18.11,18.11,0,0,0-3.55,1.1,7.31,7.31,0,0,1-3.38-.84,6.4,6.4,0,0,1-2-1.79,10.48,10.48,0,0,1-1.29-2.42,30.31,30.31,0,0,0-1.3-2.84,5.45,5.45,0,0,0,.22-2.79,3.83,3.83,0,0,0-1.29-2.68,2,2,0,0,0,1.29-1.42,2.43,2.43,0,0,0,.11-1.85,19.79,19.79,0,0,1,3.87-.68l4-.32c1.33-.1,2.6-.24,3.82-.42a7.56,7.56,0,0,0,3.12-1.1l11.67-.42q6.07-.21,11.24-.53a14.42,14.42,0,0,0,4.46.63,40.92,40.92,0,0,1,5.06.32,13.13,13.13,0,0,1,4.52,1.37,5.72,5.72,0,0,1,2.74,3.68,5,5,0,0,1,2.42.84,2.73,2.73,0,0,1,1,1.53,7,7,0,0,1,.16,2c0,.73,0,1.45,0,2.16a14.37,14.37,0,0,1-4.36,2.05,43.77,43.77,0,0,1-5.75,1.26,60.36,60.36,0,0,1-6.51.63q-3.39.17-6.61.26a67.3,67.3,0,0,1-1.89,8.16c-.89,3.12-1.81,6.18-2.74,9.16s-1.74,5.65-2.42,8a15.82,15.82,0,0,0-.91,4.57c-.72,1.62-1.31,3-1.78,4.11s-.9,2.17-1.29,3.16-.79,1.94-1.18,2.89-.88,2-1.45,3.21h7.31a2.1,2.1,0,0,0,1,1.58,11.26,11.26,0,0,0,1.61.73,8.14,8.14,0,0,1,1.56.79,1.72,1.72,0,0,1,.7,1.53,3.78,3.78,0,0,1,2.58,1.58,3.25,3.25,0,0,1,.27,2.26,7.66,7.66,0,0,1-1.08,2.47,23.47,23.47,0,0,1-1.56,2.22,2,2,0,0,0-1.82.47,12.91,12.91,0,0,0-1.62,1.52,26.26,26.26,0,0,0-6.13-.1q-3,.31-5.59.53c-.36.07-.5.26-.43.57a.59.59,0,0,1-.22.69,18.79,18.79,0,0,0-6.83-.84,45.46,45.46,0,0,0-7.09,1c-2.41.52-4.86,1.09-7.37,1.68A37.12,37.12,0,0,1,809.42,1440.26Z" transform="translate(-333.54 -1309.9)"/><path class="cls-4" d="M869.22,1409.32a.41.41,0,0,1,.49-.37,1.44,1.44,0,0,0,.69,0,3.88,3.88,0,0,1-1.07-2.27,4.34,4.34,0,0,0-1.08-2.36,10.31,10.31,0,0,0,.38-1.06c.11-.35.41-.49.91-.42a12.35,12.35,0,0,1,.11-4.31,15.55,15.55,0,0,1,1.35-3.79,26.89,26.89,0,0,1,2.15-3.53c.82-1.15,1.63-2.33,2.42-3.52.64-.14,1-.09,1.18.16s.39.19.75-.16a6.36,6.36,0,0,0,2.37-2.58,7.42,7.42,0,0,0,.65-3.1c.64-1.83,1.38-3.64,2.2-5.42a31.64,31.64,0,0,1,2.85-5,26.34,26.34,0,0,1,3.44-4.06,14.09,14.09,0,0,1,4-2.68,16.64,16.64,0,0,1,3.82-2.31,25,25,0,0,1,5-1.64,28.39,28.39,0,0,1,5.43-.63,18.85,18.85,0,0,1,5.16.58c.36.14.57,0,.65-.26a.52.52,0,0,1,.53-.48,46.31,46.31,0,0,1,9.63,2.11,21.76,21.76,0,0,1,7.26,4.1,74,74,0,0,1,3.87,6.79,37.84,37.84,0,0,1,2.85,7.58,29.51,29.51,0,0,1,.92,8.16,23.9,23.9,0,0,1-1.83,8.42,28.63,28.63,0,0,1-9.14,7.41,65.29,65.29,0,0,1-11.57,4.64,116.39,116.39,0,0,1-12.79,3q-6.62,1.15-12.86,2.52c.07,1.9.07,3.91,0,6a42.44,42.44,0,0,1-.7,6.42,36.48,36.48,0,0,1-1.72,6.26,22.81,22.81,0,0,1-3.06,5.69,16.5,16.5,0,0,0-4.47.42q-2.31.52-4.14,1l-1.66-1a4.85,4.85,0,0,0-2-.58,3.23,3.23,0,0,0-.6-2.63c-.61-.91-1.22-1.8-1.82-2.68a7.22,7.22,0,0,1-1.19-2.63,2.29,2.29,0,0,1,1.24-2.37,2.9,2.9,0,0,1-.86-2.32,1.47,1.47,0,0,0,1.07.42,12.45,12.45,0,0,1,.49-4.52c.46-1.75.86-3.49,1.18-5.21a14.21,14.21,0,0,0,.16-4.74A3.87,3.87,0,0,0,869.22,1409.32Zm28-24.63c-.29.77-.52,1.46-.7,2a16.3,16.3,0,0,1-.59,1.64c-.22.49-.45,1-.7,1.47s-.52,1.05-.81,1.68a1.6,1.6,0,0,0,.86,1,1.6,1.6,0,0,1,.86,1,15.27,15.27,0,0,1,3-1.11c1-.24,2-.44,3-.58s2-.31,3-.52a14.31,14.31,0,0,0,3.11-1.06,22.33,22.33,0,0,1,3.39-1.21c1.19-.31,2.35-.64,3.5-1a32.89,32.89,0,0,0,3.33-1.21,8.85,8.85,0,0,0,2.8-1.84,13.29,13.29,0,0,0-4.52-2.42,25.32,25.32,0,0,0-6.51-1.31,24.6,24.6,0,0,0-7,.47A12.92,12.92,0,0,0,897.19,1384.69Z" transform="translate(-333.54 -1309.9)"/><path class="cls-4" d="M941,1435.1a4,4,0,0,1-.75-1,5.43,5.43,0,0,1-.54-1.52,14,14,0,0,1-2.37-4.11,22.22,22.22,0,0,1-1.18-4.79,23.74,23.74,0,0,1-.11-5,31.74,31.74,0,0,1,.76-4.74,20.41,20.41,0,0,0,.53-2.21c.36-1.33.72-2.65,1.08-4a8.43,8.43,0,0,1,1.61-3.21,3.46,3.46,0,0,1,.11-2.52c.36-.91.72-1.76,1.08-2.53a3.12,3.12,0,0,0,.32-.58c.07-.17.14-.33.21-.47.86-2.46,1.71-4.82,2.53-7.11s1.63-4.47,2.42-6.57q2.16-5.79,4.14-11.37t3.61-11.89a5.56,5.56,0,0,1,1.5-.84,3.83,3.83,0,0,1,.54-.21,2.37,2.37,0,0,1,.75-.11,37.23,37.23,0,0,0,5.33,2.16,17.2,17.2,0,0,0,5.21,1l1.83,1.58a21.06,21.06,0,0,1,2.42,3.31,6.62,6.62,0,0,1,.59,4.47,3.5,3.5,0,0,1-1.07,1.16,34.93,34.93,0,0,1-1.4,4.26c-.5,1.23-1,2.41-1.51,3.53s-1.11,2.53-1.61,3.79a26.89,26.89,0,0,0-1.29,4.63,3.82,3.82,0,0,0-.81,1.26c-.11.35-.23.7-.37,1s-.33.86-.54,1.32a3.49,3.49,0,0,1-1,1.21,21.45,21.45,0,0,1-1.29,5.32c-.58,1.36-1.15,2.72-1.72,4q-1.51,3.68-2.8,7.31a28.52,28.52,0,0,0-1.5,8.26,10,10,0,0,1,2.36-.31,8.65,8.65,0,0,1,2.69.42,24.13,24.13,0,0,1,8.44-2.32q4.57-.42,9.09-.52,3.76,0,7-.32a5.22,5.22,0,0,0,1.4.79,7.1,7.1,0,0,0,1.08,0h.64a4.78,4.78,0,0,1,.86.11,9.4,9.4,0,0,0,2.91,2c.93.39,1.93.76,3,1.11s1.84.72,2.74,1.1a13.67,13.67,0,0,1,2.64,1.53l1,5.36c.58.78.83,1.3.76,1.58a2.6,2.6,0,0,1-.43,1.48l.21,1.36a7.92,7.92,0,0,0-2.69.9,12.56,12.56,0,0,0-1.39,1.21c-.79.07-1.55.1-2.26.1a16.33,16.33,0,0,0-4.41.64,20.7,20.7,0,0,0-7.1-1.16c-1,0-2,0-3.07.1s-2.06.18-3.06.32-2.15.26-3.23.37-2.15.16-3.23.16c-.86.14-1.47.24-1.82.31a6.31,6.31,0,0,0-1.08.32q-3.66,1.15-7.9,2.31a32.57,32.57,0,0,1-8.56,1.16q-6.35,0-10.21-3.16a10.7,10.7,0,0,0-.65-1.26A6.93,6.93,0,0,1,941,1435.1Z" transform="translate(-333.54 -1309.9)"/><path class="cls-4" d="M1010.55,1435.42a4.79,4.79,0,0,1-1.24-2,3.41,3.41,0,0,0-1.77-1.9c-.15-1-.34-2.26-.59-3.63s-.51-2.77-.76-4.21a41.9,41.9,0,0,1-.53-4.31,15.38,15.38,0,0,1,.16-3.95,6.23,6.23,0,0,1,.7-1.79c.32-.56.64-1.1,1-1.63a7.08,7.08,0,0,0,.76-1.63,3,3,0,0,0,0-1.68.92.92,0,0,0,.81-.69c.11-.38.44-.5,1-.37.5-1.54,1-3,1.61-4.31s1.19-2.63,1.83-3.89,1.31-2.55,2-3.85a33,33,0,0,0,1.88-4.36,10.49,10.49,0,0,1-2.63-3.63,23.13,23.13,0,0,1-1.24-3.95,36.32,36.32,0,0,1-.64-4.05,22.48,22.48,0,0,0-.86-4.16,11.19,11.19,0,0,1,3.11-3.1,18.33,18.33,0,0,1,4-2,30.55,30.55,0,0,1,4.78-1.27q2.58-.46,5.49-1.1,5.16-1.57,9.25-2.48c2.72-.59,5.38-1.08,8-1.47s5.27-.74,8.06-1,6-.79,9.68-1.42a.39.39,0,0,0,.38.31h.7a1.17,1.17,0,0,0,1.18.74,3.48,3.48,0,0,0,0-.58,2,2,0,0,1-.05-.47,2.38,2.38,0,0,1,.59.1c.25.07.46.15.64.21a.48.48,0,0,0,.49,0c.14-.1.17-.33.1-.68a11.4,11.4,0,0,0,3.34,3.63,24.73,24.73,0,0,0,4.52,2.47,6.94,6.94,0,0,1,0,1.37,6.13,6.13,0,0,1-.16.79,3.11,3.11,0,0,0-.11.84,5.4,5.4,0,0,0,.22,1.32,14.86,14.86,0,0,1-3.93,4.42,18,18,0,0,1-4.68,2.42,30.74,30.74,0,0,1-5.21,1.26q-2.75.42-5.6.89a51.1,51.1,0,0,0-5.75,1.32,23.52,23.52,0,0,0-5.7,2.53,3.89,3.89,0,0,0-1.56-.27,7.83,7.83,0,0,0-1.45.27c-.51.14-1.06.28-1.67.42a5.83,5.83,0,0,1-2.21,0,5.08,5.08,0,0,1-2,1l-2.31.63a5,5,0,0,1,.49,2.32,5,5,0,0,0,.26,2,56,56,0,0,0,10-.06c3.65-.31,7.24-.54,10.75-.68a.81.81,0,0,1-.1.74,1,1,0,0,0-.22.73,9.86,9.86,0,0,1,1.83,1.58c.57.63,1.16,1.25,1.77,1.84a10.14,10.14,0,0,0,1.89,1.48,3.71,3.71,0,0,0,2.25.47,8.27,8.27,0,0,1,.76,2.21,4.18,4.18,0,0,1-.33,2.42q-2.14,1.37-4.19,2.79a39.1,39.1,0,0,1-4.25,2.58,24.89,24.89,0,0,1-4.79,1.89,18,18,0,0,1-5.59.63h-.91a1.63,1.63,0,0,1-.92-.42,5.35,5.35,0,0,1-2.85.37,6,6,0,0,0-3,.37,10.64,10.64,0,0,0-3.5-.53,10.55,10.55,0,0,1-3.49-.52,66.54,66.54,0,0,0-3.66,5.73,44.9,44.9,0,0,0-3,6.37,42.6,42.6,0,0,0,7.31.53c1.94-.07,3.76-.21,5.48-.42s3.5-.43,5.33-.64a49,49,0,0,1,6.72-.21,21.08,21.08,0,0,1,6.19-1.73,39.79,39.79,0,0,0,6.5-1.42,3.68,3.68,0,0,1,1.83,1.21c.5.59,1,1.19,1.45,1.79a10.12,10.12,0,0,0,1.46,1.52,2.24,2.24,0,0,0,1.93.42,2.5,2.5,0,0,1,.7,1.27c.11.49.22.94.32,1.36a2.34,2.34,0,0,0,.49,1,1.29,1.29,0,0,0,1.18.27,20.33,20.33,0,0,1-4.57,6.31,18.78,18.78,0,0,1-5.7,3.42,33.2,33.2,0,0,1-7.1,1.79q-3.93.59-8.77,1.42a4.2,4.2,0,0,1-2,0,5.15,5.15,0,0,0-1.66-.26c-2,.35-4.4.7-7.15,1.05a55.29,55.29,0,0,1-8.34.42,37.92,37.92,0,0,1-8.07-1A14.16,14.16,0,0,1,1010.55,1435.42Z" transform="translate(-333.54 -1309.9)"/><path class="cls-4" d="M651.07,1542.94c.1-.4.33-.58.69-.53a2.21,2.21,0,0,0,1-.07,5.56,5.56,0,0,1-1.54-3.24,6.32,6.32,0,0,0-1.53-3.38c.2-.5.38-1,.53-1.5s.59-.7,1.31-.6a17.58,17.58,0,0,1,.15-6.17,22.19,22.19,0,0,1,1.92-5.41,40.79,40.79,0,0,1,3.08-5c1.17-1.65,2.33-3.33,3.45-5,.93-.2,1.49-.13,1.69.22s.57.28,1.08-.22a9.11,9.11,0,0,0,3.38-3.69,10.49,10.49,0,0,0,.92-4.43q1.38-3.91,3.15-7.75a47.74,47.74,0,0,1,4.07-7.14,38.39,38.39,0,0,1,4.92-5.79,19.86,19.86,0,0,1,5.69-3.83,24.11,24.11,0,0,1,5.45-3.31,35.31,35.31,0,0,1,7.07-2.33,39.58,39.58,0,0,1,7.76-.9,26.6,26.6,0,0,1,7.37.83c.51.2.82.07.92-.38a.75.75,0,0,1,.77-.67,65.29,65.29,0,0,1,13.75,3,31.07,31.07,0,0,1,10.38,5.87,105.6,105.6,0,0,1,5.53,9.69A54.77,54.77,0,0,1,748.1,1502a42.18,42.18,0,0,1,1.31,11.65,34.07,34.07,0,0,1-2.62,12,40.92,40.92,0,0,1-13.06,10.6,94.48,94.48,0,0,1-16.51,6.61,160.42,160.42,0,0,1-18.29,4.29q-9.45,1.65-18.36,3.61.15,4,0,8.64a62,62,0,0,1-1,9.17,53.17,53.17,0,0,1-2.46,9,32.54,32.54,0,0,1-4.38,8.12,23.49,23.49,0,0,0-6.37.6q-3.32.75-5.92,1.5c-.82-.5-1.61-1-2.38-1.43a6.64,6.64,0,0,0-2.84-.82,4.61,4.61,0,0,0-.85-3.76q-1.3-1.95-2.61-3.84a10,10,0,0,1-1.69-3.76c-.26-1.25.33-2.38,1.77-3.38a4.12,4.12,0,0,1-1.23-3.31,2.07,2.07,0,0,0,1.53.61,17.88,17.88,0,0,1,.7-6.47c.66-2.5,1.23-5,1.69-7.44a20.6,20.6,0,0,0,.23-6.77A5.55,5.55,0,0,0,651.07,1542.94ZM691,1507.76c-.41,1.1-.75,2.08-1,2.93a20.83,20.83,0,0,1-.85,2.33c-.3.7-.64,1.4-1,2.1s-.75,1.51-1.16,2.41a2.33,2.33,0,0,0,1.23,1.35,2.25,2.25,0,0,1,1.23,1.36,21.57,21.57,0,0,1,4.3-1.58,43.62,43.62,0,0,1,4.31-.83c1.43-.2,2.86-.45,4.3-.75a20.71,20.71,0,0,0,4.45-1.51,30.82,30.82,0,0,1,4.84-1.72c1.69-.46,3.36-.93,5-1.43a49.82,49.82,0,0,0,4.76-1.73,12.82,12.82,0,0,0,4-2.63,19,19,0,0,0-6.46-3.46,36.46,36.46,0,0,0-9.29-1.88,35.44,35.44,0,0,0-10,.68A18.4,18.4,0,0,0,691,1507.76Z" transform="translate(-333.54 -1309.9)"/><path class="cls-4" d="M750.82,1581.76a4.79,4.79,0,0,1-1.24-2,3.41,3.41,0,0,0-1.77-1.9c-.15-1-.34-2.26-.59-3.63s-.51-2.77-.76-4.21a41.9,41.9,0,0,1-.53-4.31,15.38,15.38,0,0,1,.16-4,6.12,6.12,0,0,1,.7-1.79c.32-.56.64-1.1,1-1.63a7.28,7.28,0,0,0,.76-1.63,3.1,3.1,0,0,0,0-1.68.92.92,0,0,0,.81-.69c.1-.38.44-.51,1-.37.5-1.54,1-3,1.61-4.31s1.19-2.63,1.83-3.9,1.31-2.54,2-3.84a33,33,0,0,0,1.88-4.36,10.31,10.31,0,0,1-2.63-3.64,22.75,22.75,0,0,1-1.24-3.94,36.69,36.69,0,0,1-.64-4,22.52,22.52,0,0,0-.87-4.16,11.54,11.54,0,0,1,3.12-3.11,18.76,18.76,0,0,1,4-2,30.55,30.55,0,0,1,4.78-1.27q2.58-.47,5.49-1.1c3.44-1.06,6.52-1.88,9.25-2.48s5.38-1.08,8-1.47,5.27-.74,8.06-1,6-.79,9.68-1.42a.39.39,0,0,0,.38.31h.7a1.18,1.18,0,0,0,1.18.74,3.48,3.48,0,0,0-.05-.58,2,2,0,0,1,0-.47,2.38,2.38,0,0,1,.59.1c.25.07.46.14.64.21a.48.48,0,0,0,.49,0c.14-.11.17-.33.1-.68a11.29,11.29,0,0,0,3.34,3.63,25,25,0,0,0,4.52,2.47,6.94,6.94,0,0,1,.05,1.37,6.13,6.13,0,0,1-.16.79,3,3,0,0,0-.11.84,5.48,5.48,0,0,0,.22,1.32,14.69,14.69,0,0,1-3.93,4.41,17.7,17.7,0,0,1-4.68,2.43,30.62,30.62,0,0,1-5.22,1.26l-5.59.89a51.1,51.1,0,0,0-5.75,1.32,23.87,23.87,0,0,0-5.7,2.52,3.86,3.86,0,0,0-1.56-.26,8.7,8.7,0,0,0-1.45.26c-.51.15-1.06.29-1.67.43a5.83,5.83,0,0,1-2.21,0,5.08,5.08,0,0,1-2,1l-2.31.63a4.94,4.94,0,0,1,.49,2.31,4.94,4.94,0,0,0,.26,2,55,55,0,0,0,10-.05c3.65-.31,7.24-.54,10.75-.68.07.35,0,.6-.11.73a1.06,1.06,0,0,0-.21.74,9.86,9.86,0,0,1,1.83,1.58c.57.63,1.16,1.25,1.77,1.84a9.92,9.92,0,0,0,1.88,1.47,3.69,3.69,0,0,0,2.26.48,8.27,8.27,0,0,1,.76,2.21,4.18,4.18,0,0,1-.33,2.42q-2.15,1.37-4.19,2.79a39.1,39.1,0,0,1-4.25,2.58,24.89,24.89,0,0,1-4.79,1.89,18,18,0,0,1-5.59.63h-.91a1.63,1.63,0,0,1-.92-.42,5.35,5.35,0,0,1-2.85.37,5.87,5.87,0,0,0-3,.37,10.64,10.64,0,0,0-3.5-.53,10.65,10.65,0,0,1-3.5-.52q-1.93,2.73-3.65,5.73a44.9,44.9,0,0,0-3,6.37,42.6,42.6,0,0,0,7.31.53c1.94-.07,3.76-.22,5.48-.43l5.33-.63a49,49,0,0,1,6.72-.21,21,21,0,0,1,6.19-1.73,39,39,0,0,0,6.5-1.43,3.76,3.76,0,0,1,1.83,1.22c.5.59,1,1.19,1.45,1.78a10.18,10.18,0,0,0,1.45,1.53,2.27,2.27,0,0,0,1.94.42,2.47,2.47,0,0,1,.7,1.26c.11.5.22,1,.32,1.37a2.34,2.34,0,0,0,.49,1,1.28,1.28,0,0,0,1.18.27,20.33,20.33,0,0,1-4.57,6.31,19,19,0,0,1-5.7,3.42,33.8,33.8,0,0,1-7.1,1.79q-3.93.59-8.77,1.42a4.2,4.2,0,0,1-2,0,5.16,5.16,0,0,0-1.66-.27q-3,.54-7.16,1.06a55.1,55.1,0,0,1-8.33.42,37.92,37.92,0,0,1-8.07-1A14.25,14.25,0,0,1,750.82,1581.76Z" transform="translate(-333.54 -1309.9)"/><path class="cls-4" d="M815.78,1576.29c-.36.07-.68-.2-1-.79a16.34,16.34,0,0,0-1-1.74H815a8.51,8.51,0,0,1-.38-4.26c.25-1.3.56-2.56.92-3.79s.66-2.42.91-3.58a6.09,6.09,0,0,0-.38-3.63.51.51,0,0,0,.81-.26,6.27,6.27,0,0,0,.43-1.48,8.29,8.29,0,0,0,.11-1.89,16.28,16.28,0,0,0-.16-1.63,39.63,39.63,0,0,0,2.2-6.74q.81-3.46,1.45-6.89c.44-2.28.92-4.49,1.46-6.63a34.77,34.77,0,0,1,2.09-6,6.85,6.85,0,0,1,3.18.36,4.17,4.17,0,0,1,2.2,1.42,28.38,28.38,0,0,0,5.92-6.1q2.58-3.57,5.21-7a34.9,34.9,0,0,1,6-6,15.79,15.79,0,0,1,8.28-3.16c1.73,1.2,3.66,2.48,5.81,3.85a17.46,17.46,0,0,1,5.27,5.1c.58.35,1.13.72,1.67,1.1s1.09.76,1.67,1.11v1.58a12.44,12.44,0,0,1,2.52,3.21,30.18,30.18,0,0,1,1.83,3.89c.54,1.37,1.06,2.76,1.56,4.16a28.34,28.34,0,0,0,1.72,3.89,2.73,2.73,0,0,0-.16,1.11,4.57,4.57,0,0,0,.22.94,10.87,10.87,0,0,1,.27,1.06,8.14,8.14,0,0,1,.1,1.42,14.05,14.05,0,0,1-3.71,9,25.81,25.81,0,0,1-8,5.57,70.86,70.86,0,0,1-9.94,3.69,91.73,91.73,0,0,0-9.58,3.31c0,.28.16.42.49.42s.41.21.27.64c2.15,1.26,3.81,2.28,5,3a34,34,0,0,0,3.33,1.94,18.63,18.63,0,0,0,3.44,1.32q1.89.52,5.22,1.26c2.22.49,4,.9,5.22,1.21s2.38.57,3.38.74,2.08.33,3.23.47,2.69.32,4.63.53a9.53,9.53,0,0,1,1.93,2.74,14,14,0,0,1,1.08,3.15,9.65,9.65,0,0,1,.16,3,4,4,0,0,1-.92,2.27q.11.42.6.36a3.58,3.58,0,0,1,1,.06,5.15,5.15,0,0,0-1.29,1.26l-1.08,1.47a8.88,8.88,0,0,1-1.24,1.37,3,3,0,0,1-1.77.74q-3.87,1.47-9.9.1a126.6,126.6,0,0,1-15.38-4.84q-4.62-1.68-7.52-3.05a53.58,53.58,0,0,1-5.06-2.68,33.06,33.06,0,0,1-4-2.85q-1.83-1.52-4.19-3.63a.5.5,0,0,0-.38.43.51.51,0,0,1-.38.42,26.32,26.32,0,0,1-1.66,6.84,24.65,24.65,0,0,1-3.28,5.36c-1.15-.21-1.92-.1-2.32.32a6.9,6.9,0,0,1-1.45,1.16,2.69,2.69,0,0,1-1.61,0,6.91,6.91,0,0,1-1-.58c-.29-.21-.61-.42-1-.64a3,3,0,0,0-1.72-.21c-.21-.63-.43-1.24-.64-1.84s-.79-.86-1.73-.79a3.43,3.43,0,0,0,.22-1.63A6.83,6.83,0,0,0,816,1579a11.38,11.38,0,0,1-.38-1.21A2.44,2.44,0,0,1,815.78,1576.29Zm35.93-48.1a24.84,24.84,0,0,1-3.12,3.63q-1.73,1.64-3.39,3.37a23.25,23.25,0,0,0-3,3.79,14,14,0,0,0-1.83,4.89,37.84,37.84,0,0,0,9.47-2.47q4.93-2,9.35-3.74a11,11,0,0,0-2.79-6.26A12,12,0,0,0,851.71,1528.19Z" transform="translate(-333.54 -1309.9)"/><path class="cls-4" d="M888.7,1564a12,12,0,0,1-4.94-5,15.89,15.89,0,0,1-1.94-6.21,8.58,8.58,0,0,1,1.35-4,8.7,8.7,0,0,1,2.42-2.31,12,12,0,0,1,2.9-1.37c1-.32,2-.58,2.9-.79l1.62.53a8.41,8.41,0,0,0,1.13.94l1.13.85a2.07,2.07,0,0,0,1.34-1.27c.18-.56.38-1.12.59-1.68.22-.77.47-1.54.75-2.32A17.11,17.11,0,0,1,899,1539a4.23,4.23,0,0,1,.11-1.69,10.76,10.76,0,0,1,.43-1.26,2.88,2.88,0,0,0-.92-.58,7.69,7.69,0,0,1-.91-.26,4.74,4.74,0,0,1-.65,0l-.75-.16a8.14,8.14,0,0,1-2.1-2c-.32-.52-.66-1.07-1-1.63s-.68-1-1-1.47a7.69,7.69,0,0,0-1-1.16L890,1528l.64-1.27a.76.76,0,0,0,.22-.57,2.63,2.63,0,0,0-.43-1.11,3.83,3.83,0,0,1-.11-2l.21-1.26c.72-.91,1.11-1.44,1.19-1.58l1.07-1c1.65-.42,3.34-.9,5.06-1.42s3.4-1.07,5-1.63,3.34-1.13,5.06-1.69,3.44-1.05,5.16-1.47a3.78,3.78,0,0,1,1.88-.9l1.88-.26a8.78,8.78,0,0,0,1.4-.1,1.45,1.45,0,0,0,1-.53c1.22-.42,2.4-.77,3.55-1.05q3.23-.84,8.5-2a88.22,88.22,0,0,1,11.83-1.69l2.26-.1a5.07,5.07,0,0,0,1.29,0c.43,0,.86,0,1.29,0,3.72,0,6.2,1.12,7.42,3.37a8.31,8.31,0,0,1,1.93,1.31q.87.8,1.62,1.53c.36.35.68.65,1,.89a5.92,5.92,0,0,0,.75.58l.86.84a6.67,6.67,0,0,1,.43,5,2.61,2.61,0,0,1-1.4,1.47l-1.5.42-1.4.74c-.94-.07-1.63-.11-2.1-.11H954c-2.15,0-4.64.13-7.47.37s-5.72.6-8.66,1.06-5.81,1-8.61,1.68a65,65,0,0,0-7.31,2.16,9.67,9.67,0,0,1-2.26,1.15,5.61,5.61,0,0,0-1,.53,6.35,6.35,0,0,1,0,1.63,10.63,10.63,0,0,1-.32,1.53,9.39,9.39,0,0,0-.16,1.1c0,.39-.09.79-.16,1.21a8.76,8.76,0,0,0-2.15,6.21l-.54,1.06a3,3,0,0,0-.7,1.21,2.74,2.74,0,0,0,0,1.63l.43,1.26c1.43-.14,2.85-.3,4.24-.47l4.47-.58c2-.35,4-.65,6.07-.9a55,55,0,0,1,6.4-.37h4.2l-1,1,1.18.11-.64,1.68,1.13.47a5.16,5.16,0,0,1,.7.37l.75,1.06a2.91,2.91,0,0,1,1,1,4.36,4.36,0,0,1,.54,1.84l-.33,1-5,6.31-.65.85-1.07-.32a11.69,11.69,0,0,0-3.87.42l-1.83.47a7.21,7.21,0,0,1-1.94.27c-1.72.28-3.16.51-4.3.68s-2.3.34-3.44.48l-4.57.79a21.4,21.4,0,0,0-4.15,1.1,6.55,6.55,0,0,1-1.39.05,2.18,2.18,0,0,0-.43-.05,7.69,7.69,0,0,0-2.16.32l-2,.63a2.66,2.66,0,0,0-.86,1.1c-.14.39-.29.79-.43,1.21A6.76,6.76,0,0,1,905,1568a12.55,12.55,0,0,1-.92,1.42l.11,1.9a4.35,4.35,0,0,0-1,.26s0,.05-.1.05a4.52,4.52,0,0,1-.27,1.58c-.18.49-.34,1-.49,1.37a5.9,5.9,0,0,0-.32.74,2,2,0,0,0-.11.63,5.84,5.84,0,0,1,.54,4.31,8.65,8.65,0,0,1-1.61,3.53,8.43,8.43,0,0,1-2.8,2.37,5.58,5.58,0,0,1-2.53-.11l-1.66-.63c-.36-.14-.72-.26-1.08-.37s-.72-.19-1.07-.26l-1.29-1a8.46,8.46,0,0,0-.76-1.21c-.28-.39-.57-.79-.86-1.21l-1.07-1.48a9,9,0,0,1-1-1.68,16.15,16.15,0,0,1-.27-6.16,34.45,34.45,0,0,1,1.34-4.89c.15-.56.29-1.09.43-1.58S888.56,1564.53,888.7,1564Z" transform="translate(-333.54 -1309.9)"/><path class="cls-4" d="M973.24,1585.76a21.73,21.73,0,0,1-8.6-.42,21.23,21.23,0,0,1-6.94-3.27,23.08,23.08,0,0,1-5.27-5.26,30.52,30.52,0,0,1-3.6-6.52,33.54,33.54,0,0,1,.54-13,41.48,41.48,0,0,1,4.41-10.79,63.25,63.25,0,0,1,6.61-9.26l7.15-8.31a1.29,1.29,0,0,0,1.24,0,3.3,3.3,0,0,0,.86-.85,11.34,11.34,0,0,1,.86-1,2.71,2.71,0,0,1,1.13-.74,4.69,4.69,0,0,1,1.13-1.57,15,15,0,0,1,1.5-1.21,16.74,16.74,0,0,0,1.51-1.22,6.2,6.2,0,0,0,1.24-1.57,5.32,5.32,0,0,0,1.88-.74,12.33,12.33,0,0,0,1.51-1.16,16,16,0,0,1,1.45-1.16,6.2,6.2,0,0,1,1.83-.84v-1.37a9.69,9.69,0,0,0,3.44-2.31c.71-.84,1.57-1.93,2.58-3.26.79-.07,1.41-.11,1.88-.11a18,18,0,0,0,2.21-.21,11.19,11.19,0,0,1,1.82-2.63,16.71,16.71,0,0,1,2.48-1.89,9.11,9.11,0,0,0,3.44,1,5.27,5.27,0,0,1,3.33,1.63,3.16,3.16,0,0,0,.76,1.94,11.3,11.3,0,0,0,1.4,1.27c.5.38,1,.79,1.5,1.21a3,3,0,0,1,1,1.79.87.87,0,0,0,.7-.21c.11-.14.34-.18.7-.11a9.4,9.4,0,0,0,.43,1.37,5.62,5.62,0,0,0,.48,1c.18.28.36.59.54.94a7.23,7.23,0,0,1,.48,1.26,25,25,0,0,0-1,2.69,2.88,2.88,0,0,1-1.73,2c0,.56.22.86.65.89a.8.8,0,0,1,.75.79,2.26,2.26,0,0,1-.32,1.58,100.92,100.92,0,0,1,5.49,10.36,85.9,85.9,0,0,0,5.59,10.37,7.08,7.08,0,0,0,.16,2.9,19.1,19.1,0,0,0,1,2.78c.39.92.77,1.83,1.13,2.74a12.71,12.71,0,0,1,.75,2.74,17.59,17.59,0,0,1,0,3.84,17.94,17.94,0,0,1-.86,4,15.74,15.74,0,0,1-1.72,3.52,7.85,7.85,0,0,1-2.47,2.47,13.12,13.12,0,0,1-4.31,3.42,25.61,25.61,0,0,0-4.73,3.11,11.63,11.63,0,0,1-3.23,1.21l-3.55.79a24.68,24.68,0,0,1-3.33,1.63c-1.29.53-2.62,1-4,1.42a33.83,33.83,0,0,1-4.09,1,11.83,11.83,0,0,1-3.65.16,39.91,39.91,0,0,1-7.53,1.89A24.92,24.92,0,0,1,973.24,1585.76Zm1.4-38.31a22.93,22.93,0,0,1-2.53,4.37c-1,1.3-1.92,2.61-2.85,3.94a27.05,27.05,0,0,0-2.42,4.26,14.08,14.08,0,0,0-1.13,5.32,9.77,9.77,0,0,0,5.11,2.16,29.3,29.3,0,0,0,6.08.1q3.12-.25,6.24-.79a34,34,0,0,1,5.59-.52c0-.63.29-1,.86-1a22.24,22.24,0,0,0,8.39-2.47q3.87-2.05,8.07-4.16a7.7,7.7,0,0,1,1.4-2.21,4.34,4.34,0,0,0,1-2.74,6.67,6.67,0,0,1-.7-1.58,8.67,8.67,0,0,1-.16-1.89,46.49,46.49,0,0,1-4.84-8.26,59.13,59.13,0,0,0-4.73-8.47,2.75,2.75,0,0,1-.86,1c-.43.35-.9.28-1.4-.21a2.32,2.32,0,0,1-1,1.42,2.82,2.82,0,0,1-1.45.37,4.4,4.4,0,0,1-1.61-.32,5.34,5.34,0,0,1-1.45-.84q-3.76,3-7.48,5.68a37.73,37.73,0,0,0-6.72,6.42c-.36.21-.58.28-.65.21S975.07,1547.31,974.64,1547.45Z" transform="translate(-333.54 -1309.9)"/><path class="cls-4" d="M1032.29,1576.29c-.36.07-.68-.2-1-.79a14.82,14.82,0,0,0-1-1.74h1.19a8.51,8.51,0,0,1-.38-4.26c.25-1.3.56-2.56.92-3.79s.66-2.42.91-3.58a6.17,6.17,0,0,0-.38-3.63.51.51,0,0,0,.81-.26,6.27,6.27,0,0,0,.43-1.48,8.29,8.29,0,0,0,.11-1.89,16.28,16.28,0,0,0-.16-1.63,40.53,40.53,0,0,0,2.2-6.74q.81-3.46,1.45-6.89t1.46-6.63a34.77,34.77,0,0,1,2.09-6,6.85,6.85,0,0,1,3.18.36,4.17,4.17,0,0,1,2.2,1.42,28.38,28.38,0,0,0,5.92-6.1q2.58-3.57,5.21-7a34.9,34.9,0,0,1,6-6,15.75,15.75,0,0,1,8.28-3.16q2.58,1.8,5.81,3.85a17.46,17.46,0,0,1,5.27,5.1c.58.35,1.13.72,1.67,1.1s1.09.76,1.67,1.11v1.58a12.44,12.44,0,0,1,2.52,3.21,33.1,33.1,0,0,1,1.83,3.89c.54,1.37,1.06,2.76,1.56,4.16a28.34,28.34,0,0,0,1.72,3.89,2.57,2.57,0,0,0-.16,1.11,4.57,4.57,0,0,0,.22.94,8.66,8.66,0,0,1,.26,1.06,7.18,7.18,0,0,1,.11,1.42,14.05,14.05,0,0,1-3.71,9,25.81,25.81,0,0,1-8,5.57,70.53,70.53,0,0,1-10,3.69,92.33,92.33,0,0,0-9.57,3.31c0,.28.16.42.49.42s.41.21.26.64c2.16,1.26,3.82,2.28,5,3a34,34,0,0,0,3.33,1.94,18.63,18.63,0,0,0,3.44,1.32q1.89.52,5.22,1.26c2.22.49,4,.9,5.21,1.21s2.39.57,3.39.74,2.08.33,3.23.47,2.69.32,4.62.53a9.37,9.37,0,0,1,1.94,2.74,14,14,0,0,1,1.08,3.15,10,10,0,0,1,.16,3,4,4,0,0,1-.92,2.27.47.47,0,0,0,.59.36,3.63,3.63,0,0,1,1,.06,5.15,5.15,0,0,0-1.29,1.26l-1.08,1.47a8.88,8.88,0,0,1-1.24,1.37,3,3,0,0,1-1.77.74q-3.87,1.47-9.9.1a126.6,126.6,0,0,1-15.38-4.84q-4.62-1.68-7.53-3.05a54.57,54.57,0,0,1-5-2.68,33.06,33.06,0,0,1-4-2.85q-1.83-1.52-4.2-3.63a.5.5,0,0,0-.37.43.51.51,0,0,1-.38.42,25.89,25.89,0,0,1-1.67,6.84,23.89,23.89,0,0,1-3.28,5.36c-1.14-.21-1.92-.1-2.31.32a6.9,6.9,0,0,1-1.45,1.16,2.68,2.68,0,0,1-1.61,0,6.38,6.38,0,0,1-1-.58c-.29-.21-.61-.42-1-.64a3,3,0,0,0-1.72-.21c-.22-.63-.43-1.24-.65-1.84s-.79-.86-1.72-.79a3.43,3.43,0,0,0,.22-1.63,6.83,6.83,0,0,0-.32-1.26,11.38,11.38,0,0,1-.38-1.21A2.44,2.44,0,0,1,1032.29,1576.29Zm35.92-48.1a23.68,23.68,0,0,1-3.12,3.63q-1.71,1.64-3.38,3.37a22.71,22.71,0,0,0-3,3.79,14,14,0,0,0-1.83,4.89,37.84,37.84,0,0,0,9.47-2.47q4.93-2,9.35-3.74a11,11,0,0,0-2.79-6.26A12,12,0,0,0,1068.21,1528.19Z" transform="translate(-333.54 -1309.9)"/><path class="cls-4" d="M1110.16,1586.81a26.89,26.89,0,0,1-3.33-.32,16.38,16.38,0,0,1-3.07-4.89,32,32,0,0,1-2-6.63,33.65,33.65,0,0,1-.65-7,16.31,16.31,0,0,1,1.24-6.26c0-.07.34-.91,1-2.53s1.56-3.67,2.64-6.16,2.29-5.26,3.65-8.31,2.73-6.05,4.09-9,2.67-5.63,3.93-8.05a49.64,49.64,0,0,1,3.28-5.63c.64-1,1.23-1.93,1.77-2.84s1.06-1.76,1.56-2.53c.79-1.26,1.52-2.44,2.21-3.52a19.26,19.26,0,0,1,2.25-2.95,15.65,15.65,0,0,1,2.75-2.32,16.11,16.11,0,0,1,3.65-1.73,17.06,17.06,0,0,1,2.26,1.1,7.36,7.36,0,0,1,1.72,1.42l.33,1.48a1.54,1.54,0,0,0,.7,1,1.84,1.84,0,0,0,.8.26,21.74,21.74,0,0,1,2.42.68,8.59,8.59,0,0,0,2.21.48c.28.42.55.84.8,1.26a9.17,9.17,0,0,0,.81,1.16,44.28,44.28,0,0,1,3.55,5.89,7.25,7.25,0,0,1,0,6.21l.11,1.16a2.44,2.44,0,0,1,.54,1.37,11,11,0,0,1-.22,1.79c-.07.56-.13,1.17-.16,1.84a6.49,6.49,0,0,0,.27,2.16l.75.84a7.59,7.59,0,0,0,3.33.84,7.93,7.93,0,0,0,3.88-1c1.14-.63,2.22-1.26,3.22-1.89a18.66,18.66,0,0,1,2.21-1.37,8.09,8.09,0,0,1,2-.74q2.25-2.1,4.14-3.73t3.92-3.32a94.28,94.28,0,0,0,7.53-6.58,25.27,25.27,0,0,0,5.81-8.78,5,5,0,0,1,2.69-.74,8.25,8.25,0,0,1,3,.58c1,.38,2,.82,3,1.31a4,4,0,0,0,.59.32,3.58,3.58,0,0,1,.6.32,2.89,2.89,0,0,0,1,2.1,5.19,5.19,0,0,0,.76.53l.43.21c.57.35,1.05.66,1.45.94a2.78,2.78,0,0,1,.91,1.16,8.63,8.63,0,0,0,3.23,4.42,4.79,4.79,0,0,0,.11,2.26,19.66,19.66,0,0,0,.75,2.16,4.85,4.85,0,0,1,.32.79,7.47,7.47,0,0,0,.33.9l-2.37-.22.32,2.32a9,9,0,0,1-.27,4,13.89,13.89,0,0,1-1.34,3.47c.14,2.11.21,3.78.21,5a26,26,0,0,1-.21,3.42,16,16,0,0,1-.7,3,27.4,27.4,0,0,1-1.24,3,37.88,37.88,0,0,1-1.88,14.63q-2.31,6.63-5,12.42c-.22.49-.43,1-.65,1.37a9.66,9.66,0,0,0-.53,1.26,15,15,0,0,0-2.15.74,14.29,14.29,0,0,0-1.83.94,14,14,0,0,1-2.37,1.21,6.51,6.51,0,0,1-2.47.48q-5.16-3.69-5.33-12.74t3.93-23a1.57,1.57,0,0,0,.64-1.57v-1.16l-1.07-.11a4.11,4.11,0,0,0-1,.11c-.29.07-.5.38-.64,1q-3.45,2.41-7.48,5a90,90,0,0,1-8.34,4.74,60.37,60.37,0,0,1-8.76,3.58,28.41,28.41,0,0,1-8.66,1.42q-10.76,0-16.24-10.73l-1-1.9-1.07,1.68c-.22.36-.6,1-1.13,2.06a37.32,37.32,0,0,0-1.62,3.52,40.5,40.5,0,0,0-1.39,4.11,9,9,0,0,0-.38,3.68,25.47,25.47,0,0,0-2.53,2.63,9,9,0,0,0-1.77,3.37,1.6,1.6,0,0,0-.11,1,6.39,6.39,0,0,0,.32,1,1.77,1.77,0,0,1-.43,1,7.1,7.1,0,0,1-.75.63q-.54.52-1.08,1.11a6.81,6.81,0,0,0-1,1.31,7.08,7.08,0,0,0-.33,1.32c-.07.46-.14.86-.21,1.21a2.7,2.7,0,0,1-.33,1.58c-.71,1.47-1.34,2.68-1.88,3.63a9.59,9.59,0,0,1-1.56,2.16,4.09,4.09,0,0,1-1.56,1A6.19,6.19,0,0,1,1110.16,1586.81Z" transform="translate(-333.54 -1309.9)"/><path class="cls-4" d="M1204.92,1575.34l1.4-1,.1-2.21q2.68-6.42,5.54-12.32t6-12.1c.65-1.33,1.31-2.67,2-4s1.35-2.7,2-4.11a3.56,3.56,0,0,1-.11-.89,3.29,3.29,0,0,1,.22-1.1,38.85,38.85,0,0,0,2.42-3.79q.91-1.68,1.77-3.48,1-2.1,2.1-4.21a22.61,22.61,0,0,1,2.85-4.1l.75-1,1.19.1a7.51,7.51,0,0,1,.91-.37,4.28,4.28,0,0,1,1.24-.15l1.93.31a18.82,18.82,0,0,0,6.3-4.58A59.58,59.58,0,0,0,1249,1509l1.3-1.78,1.72,1a7.21,7.21,0,0,0,1.72.63c.79.21,1.61.46,2.47.74,1.51.35,3,.75,4.41,1.21a8.18,8.18,0,0,1,3.33,1.84l.54,1c.15.77.27,1.47.38,2.1s.23,1.26.38,1.89c.28,1.48.53,2.93.75,4.37a46.06,46.06,0,0,1,.43,4.79c.36,1.4.7,2.83,1,4.26s.63,2.86.92,4.27c.35,2,.75,4,1.18,5.84a31.4,31.4,0,0,0,1.72,5.31,4.25,4.25,0,0,1,1.29.11,9.76,9.76,0,0,1,3-.64l1.4-.1.43,1.26a3.78,3.78,0,0,0,.54.63,7.3,7.3,0,0,0,.75.64,4.88,4.88,0,0,1,2.53.68,12,12,0,0,1,1.34,1.1,5.63,5.63,0,0,0,.54.48,3.28,3.28,0,0,0,.54.37l1.93.73-1.07,2a15.69,15.69,0,0,1-3.6,4.32,22.4,22.4,0,0,1-5.44,3.47,6.24,6.24,0,0,1,.27,1.37,10.14,10.14,0,0,0,.27,1.47c.29,1.41.52,2.86.7,4.37a18.84,18.84,0,0,1,0,4.68,25.33,25.33,0,0,1-2.53,4.9,20.16,20.16,0,0,1-3.44,3.89,17.59,17.59,0,0,1-4.47,2.84,13.81,13.81,0,0,1-5.16,1.21,7.43,7.43,0,0,1-2.2-.73,10.69,10.69,0,0,1-1.24-.85,6.86,6.86,0,0,0-1.4-.84l-1.4-.63.43-1.58a1.6,1.6,0,0,0,0-1.47,8.28,8.28,0,0,0-1.56-1.68,4.55,4.55,0,0,1-.75-.69c-.22-.24-.47-.51-.76-.79l-2.15-2.42,3.55-.95c2.15-.56,3.59-1.27,4.3-2.15s1-2.44.87-4.69a11.2,11.2,0,0,0-4.41-.15c-1.15.24-2.3.51-3.45.78-1.65.43-3.26.79-4.84,1.11a25.9,25.9,0,0,1-5.16.47,25.37,25.37,0,0,1-3.87-.31l-1.18-.11-.33-1.16a.73.73,0,0,0-.27-.47l-.48-.47c-.36-.42-.79-1-1.29-1.69a3,3,0,0,1-.32-2.63,5.1,5.1,0,0,1-.86-2.42,12.3,12.3,0,0,0-.7,1.63c-.18.53-.34,1-.49,1.53l-.43,1.37-1.4.21a1.84,1.84,0,0,0-.37.63.81.81,0,0,0-.06.63l.43,1.16-1.07.95a1.91,1.91,0,0,1-.54.52,4.23,4.23,0,0,0-.54.42,13.76,13.76,0,0,1-.59,2.21c-.25.7-.52,1.41-.8,2.11-.36,1.12-.7,2.21-1,3.26a10.82,10.82,0,0,0-.48,3.16l-.43,1.37a3.58,3.58,0,0,1-1.34,1.26c-.54.28-1.06.53-1.56.74a4.68,4.68,0,0,0-1.51.84l-.32,1.37-1.62.21c-.93.21-1.59.35-2,.42a7.71,7.71,0,0,1-1.34.1l-1.4-.1q-1.29-1.26-2.1-2a8.56,8.56,0,0,0-1.88-1.21l-.64-.84a5,5,0,0,1-.54-1.53,11.87,11.87,0,0,0-.32-1.42,4.16,4.16,0,0,0-.65-1.89Zm34.31-27.37q-1.51,2.12-2.91,4.42a12.36,12.36,0,0,1,1.46-.1,10.68,10.68,0,0,0,1.45-.11q3.76-.21,7-.52t7-1.05c-.58-2.6-1.2-5.25-1.88-7.95s-1.42-5.42-2.21-8.16l-.54,1.06a74,74,0,0,0-5.16,6.1,51.85,51.85,0,0,0-4.09,6.21Z" transform="translate(-333.54 -1309.9)"/><path class="cls-4" d="M1304.51,1575.44a3.42,3.42,0,0,0-1.29,2.16q-.21,1.32-.54,2.58a5.07,5.07,0,0,1-1.12,2.16,3.5,3.5,0,0,1-2.85.79c-.29.35-.35.56-.17.63s.34.38.49.94a3.25,3.25,0,0,0-2.15.22,4.81,4.81,0,0,1-1.62.63,8.53,8.53,0,0,1-4.14-2.69,23.34,23.34,0,0,1-2.9-4.26,38.73,38.73,0,0,1-2.15-4.74,36.33,36.33,0,0,0-1.88-4.21c0-.27.12-.4.37-.36a6.06,6.06,0,0,0,.7,0,9.18,9.18,0,0,1-.81-2.37,4.49,4.49,0,0,0-1-2.16q3.12-6.52,6.67-13.63t7.15-14.41q3.62-7.32,7.21-14.74t6.94-14.57a50.12,50.12,0,0,1,5.86,2.47,29.48,29.48,0,0,1,5.22,3.31,19.88,19.88,0,0,1,4,4.37,14.28,14.28,0,0,1,2.2,5.63c-.14.42-.32.56-.53.42s-.4-.07-.54.21a2.67,2.67,0,0,1,.59.9.93.93,0,0,1,0,.52,1.72,1.72,0,0,0-.11.69,2.25,2.25,0,0,0,.54,1.16.76.76,0,0,0-.76.15q-.21.27-.75.06a4,4,0,0,1,.32,2.31,5.5,5.5,0,0,1-.64,1.53,7.09,7.09,0,0,0-.7,1.47,3.56,3.56,0,0,0,.16,2.16.82.82,0,0,0-.59.16,1.26,1.26,0,0,0-.27.37,1.22,1.22,0,0,1-.27.36c-.11.11-.31.13-.59.06a36.21,36.21,0,0,1,.21,5.52c-.07,1.86-.14,3.76-.21,5.68s-.07,3.92,0,6a33.36,33.36,0,0,0,.86,6.32,22.08,22.08,0,0,0,7.47-6.85,36.56,36.56,0,0,0,4.52-9.36,71.81,71.81,0,0,0,2.58-11q.91-5.89,1.88-12a8.51,8.51,0,0,0,1.89-2.84,28.9,28.9,0,0,0,1.18-3.47c.32-1.2.65-2.41,1-3.64a13.26,13.26,0,0,1,1.34-3.31,7.29,7.29,0,0,1,3.28,1.1,20.4,20.4,0,0,1,2.53,2,28.37,28.37,0,0,0,2.47,2.06,7.45,7.45,0,0,0,3.23,1.26c1,1.4,1.94,2.75,2.8,4a11.54,11.54,0,0,1,1.72,4.37,8.49,8.49,0,0,0-1,2.31c-.21.85-.45,1.69-.7,2.53a9.65,9.65,0,0,1-1,2.31,5.41,5.41,0,0,1-1.83,1.79,45.4,45.4,0,0,1-1,5.9q-.64,2.73-1.18,5.37t-1,5.47a34.11,34.11,0,0,0-.32,6.21c-.65,2-1.36,4.12-2.15,6.26a39.07,39.07,0,0,0-1.72,6,11.37,11.37,0,0,0-3.23,3.89c-.79,1.54-1.61,3.09-2.47,4.63-.36.28-.58.33-.65.16s-.39-.3-1-.37c.07.63,0,1-.37,1.21s-.31.68,0,1.53a11.3,11.3,0,0,0-3.23,2.21,23.58,23.58,0,0,1-3.06,2.52,9.48,9.48,0,0,1-3.87,1.53,12,12,0,0,1-5.76-.9,52.23,52.23,0,0,1-9.46-8.73,38.23,38.23,0,0,1-6.67-11.68,2.53,2.53,0,0,0-1.61,1.36,20,20,0,0,0-1,2.21c-.29.78-.58,1.48-.86,2.11a1.39,1.39,0,0,1-1.29,1,4.66,4.66,0,0,1-.81,1.73c-.39.53-.77,1.06-1.13,1.58a6,6,0,0,0-.81,1.74A3,3,0,0,0,1304.51,1575.44Z" transform="translate(-333.54 -1309.9)"/><path class="cls-4" d="M1370.45,1576.18a18.38,18.38,0,0,1-5.11-5.79,33.11,33.11,0,0,1-3.12-7.37,41.79,41.79,0,0,1-1.51-8,67.6,67.6,0,0,1-.27-7.94,28.25,28.25,0,0,1,2.37-5.21,38.75,38.75,0,0,1,3.12-4.53c1.14-1.43,2.35-2.8,3.6-4.1s2.49-2.61,3.71-4a2.3,2.3,0,0,1,1.18.32,5.47,5.47,0,0,1,1.29-2,16.48,16.48,0,0,1,1.83-1.53l1.94-1.37a6.23,6.23,0,0,0,1.61-1.63,18.46,18.46,0,0,0,4.79-1.79,42.57,42.57,0,0,0,4-2.52c1.29-.91,2.62-1.76,4-2.53a17.84,17.84,0,0,1,4.73-1.79,8.61,8.61,0,0,1,2.42-1.79c1-.49,1.94-.94,2.91-1.37s1.9-.87,2.8-1.36a6.3,6.3,0,0,0,2.2-2,1.67,1.67,0,0,0,1.83.58c.79-.18,1.5-.37,2.15-.58a1.36,1.36,0,0,1,1.07.21,7.67,7.67,0,0,1,.81.68,2.08,2.08,0,0,0,.65.48c.17.07.37-.14.59-.64.57.07.73.32.48.74s-.41.7-.48.84a2,2,0,0,1,1.77.37,4.4,4.4,0,0,0,2.21.79c.36.35.46.63.32.84a2.66,2.66,0,0,0-.32,1q3.87,1.17,5,3.64a7.13,7.13,0,0,1,.21,5.15,12.07,12.07,0,0,1-3.17,5,11.47,11.47,0,0,1-5.11,3c-2.22.56-4.29,1.12-6.19,1.68s-3.72,1.2-5.48,1.9a31.74,31.74,0,0,0-5,2.47,18.46,18.46,0,0,0-4,3.31,21.84,21.84,0,0,0-5.43,2.32,34.68,34.68,0,0,0-4.52,3.26c-1.4,1.2-2.74,2.44-4,3.74s-2.59,2.58-3.88,3.84a4.89,4.89,0,0,1-.64,2.74c-.43.63-.9,1.26-1.4,1.89a10.3,10.3,0,0,0,.91,3.42c.47,1,1,1.91,1.46,2.9a81.81,81.81,0,0,0,18.23,3.1q9.61.59,19.09.68a16.36,16.36,0,0,0,2.2,2.37,25.44,25.44,0,0,1,2.26,2.27,8.93,8.93,0,0,1,1.62,2.68,7,7,0,0,1,.26,3.63,43,43,0,0,1-4,3.42c-1.44,1.09-2.87,2.16-4.31,3.21a12.64,12.64,0,0,1-2.31,0c-.9-.07-1.83-.11-2.8-.11a28.34,28.34,0,0,0-2.9.16,10.3,10.3,0,0,0-2.74.69,84.67,84.67,0,0,1-13.88-1.63,112,112,0,0,1-13.12-3.42,31.86,31.86,0,0,0-2.47-2.58A7.52,7.52,0,0,0,1370.45,1576.18Z" transform="translate(-333.54 -1309.9)"/><path class="cls-4" d="M1432.72,1581.76a4.79,4.79,0,0,1-1.24-2,3.41,3.41,0,0,0-1.77-1.9c-.15-1-.34-2.26-.59-3.63s-.51-2.77-.76-4.21a41.9,41.9,0,0,1-.53-4.31,15.38,15.38,0,0,1,.16-4,6.12,6.12,0,0,1,.7-1.79c.32-.56.64-1.1,1-1.63a7.28,7.28,0,0,0,.76-1.63,3.1,3.1,0,0,0,0-1.68.92.92,0,0,0,.81-.69c.11-.38.44-.51,1-.37.5-1.54,1-3,1.61-4.31s1.19-2.63,1.83-3.9,1.31-2.54,2-3.84a33,33,0,0,0,1.88-4.36,10.43,10.43,0,0,1-2.63-3.64,22.75,22.75,0,0,1-1.24-3.94,36.69,36.69,0,0,1-.64-4,22.48,22.48,0,0,0-.86-4.16,11.36,11.36,0,0,1,3.11-3.11,18.76,18.76,0,0,1,4-2,30.55,30.55,0,0,1,4.78-1.27q2.58-.47,5.49-1.1c3.44-1.06,6.52-1.88,9.25-2.48s5.38-1.08,8-1.47,5.27-.74,8.06-1,6-.79,9.68-1.42a.39.39,0,0,0,.38.31h.7a1.19,1.19,0,0,0,1.18.74,3.48,3.48,0,0,0,0-.58,2,2,0,0,1,0-.47,2.38,2.38,0,0,1,.59.1c.25.07.46.14.64.21a.48.48,0,0,0,.49,0c.14-.11.17-.33.1-.68a11.4,11.4,0,0,0,3.34,3.63,25.35,25.35,0,0,0,4.52,2.47,6.94,6.94,0,0,1,0,1.37,6.13,6.13,0,0,1-.16.79,3,3,0,0,0-.11.84,5.48,5.48,0,0,0,.22,1.32,14.69,14.69,0,0,1-3.93,4.41,17.7,17.7,0,0,1-4.68,2.43,30.74,30.74,0,0,1-5.21,1.26q-2.74.42-5.6.89a51.1,51.1,0,0,0-5.75,1.32,23.87,23.87,0,0,0-5.7,2.52,3.86,3.86,0,0,0-1.56-.26,8.7,8.7,0,0,0-1.45.26c-.51.15-1.06.29-1.67.43a5.83,5.83,0,0,1-2.21,0,5.08,5.08,0,0,1-2,1l-2.31.63a4.94,4.94,0,0,1,.49,2.31,4.94,4.94,0,0,0,.26,2,55,55,0,0,0,10-.05c3.65-.31,7.24-.54,10.75-.68.07.35,0,.6-.1.73a1,1,0,0,0-.22.74,9.86,9.86,0,0,1,1.83,1.58c.57.63,1.16,1.25,1.77,1.84a9.67,9.67,0,0,0,1.89,1.47,3.65,3.65,0,0,0,2.25.48,8.27,8.27,0,0,1,.76,2.21,4.18,4.18,0,0,1-.33,2.42q-2.15,1.37-4.19,2.79a39.1,39.1,0,0,1-4.25,2.58,24.89,24.89,0,0,1-4.79,1.89,18,18,0,0,1-5.59.63H1466a1.63,1.63,0,0,1-.92-.42,5.35,5.35,0,0,1-2.85.37,5.87,5.87,0,0,0-3,.37,10.64,10.64,0,0,0-3.5-.53,10.65,10.65,0,0,1-3.5-.52q-1.93,2.73-3.65,5.73a44.9,44.9,0,0,0-3,6.37,42.6,42.6,0,0,0,7.31.53c1.94-.07,3.76-.22,5.48-.43l5.33-.63a49,49,0,0,1,6.72-.21,21.08,21.08,0,0,1,6.19-1.73,38.77,38.77,0,0,0,6.5-1.43,3.76,3.76,0,0,1,1.83,1.22c.5.59,1,1.19,1.45,1.78a9.75,9.75,0,0,0,1.46,1.53,2.24,2.24,0,0,0,1.93.42,2.47,2.47,0,0,1,.7,1.26c.11.5.22,1,.32,1.37a2.34,2.34,0,0,0,.49,1,1.29,1.29,0,0,0,1.18.27,20.33,20.33,0,0,1-4.57,6.31,19,19,0,0,1-5.7,3.42,33.8,33.8,0,0,1-7.1,1.79q-3.93.59-8.77,1.42a4.2,4.2,0,0,1-2,0,5.16,5.16,0,0,0-1.66-.27c-2,.36-4.4.71-7.15,1.06a55.29,55.29,0,0,1-8.34.42,37.92,37.92,0,0,1-8.07-1A14.25,14.25,0,0,1,1432.72,1581.76Z" transform="translate(-333.54 -1309.9)"/></svg>