<svg xmlns="http://www.w3.org/2000/svg" viewBox="0 0 1195.02 292.96"><defs><style>.cls-1,.cls-5{fill:#016242;}.cls-2{fill:#f57f17;}.cls-3{fill:#f9a825;}.cls-4{fill:#017f56;}.cls-4,.cls-5,.cls-6{fill-rule:evenodd;}.cls-6{fill:#00a46e;}</style></defs><title>performance - transparent</title><g id="Layer_2" data-name="Layer 2"><g id="Layer_1-2" data-name="Layer 1"><path class="cls-1" d="M344,49.16a9.41,9.41,0,0,0-.53-2.18c-.26-.65-.54-1.37-.85-2.18a34.9,34.9,0,0,1-1.38-3.91,17.72,17.72,0,0,1-.62-5,6.32,6.32,0,0,1,.77-2.18,8,8,0,0,1,.92-1.12l.62-2.71h2.3a21,21,0,0,0,2.54.15h2.53q5.85,0,12-.45c4.09-.3,8.3-.65,12.6-1.05q7.06-.91,15.21-1.36c.51-1.1.84-1.8,1-2.1l.54-1.05,1.69-.91c2.35-.09,4,.18,4.91.83a11.66,11.66,0,0,1,2.15,1.88c2.67-.2,5.38-.47,8.15-.83s5.63-.72,8.6-1.12q6.15-.77,12.45-1.51a103.86,103.86,0,0,1,12.29-.75q2.61,0,4.92.15c1.53.1,3,.25,4.45.45l1.85,1.35a8.88,8.88,0,0,0,1.53,2,20.4,20.4,0,0,0,2.15,1.8,30.11,30.11,0,0,1,4.54,4.51c1.48,1.81,2,4.46,1.61,8l-.77,1.51a10.2,10.2,0,0,1-1.53,1.2l-1.54,2h-1.69a8.8,8.8,0,0,0-2.31.23,16.46,16.46,0,0,0-1.84.68,8.84,8.84,0,0,1-1.38.52c-.52.15-1.08.33-1.69.53-1.13-.1-2-.15-2.62-.15h-2.15a90.3,90.3,0,0,0-10,.6q-5.39.6-10.45,1.35-3.69.45-7.07.83l-6.15.68c-1,2.6-1.94,4.91-2.76,6.91s-1.69,4-2.61,6-1.8,4-2.62,6.08a70.25,70.25,0,0,0-2.3,6.85,42.41,42.41,0,0,0-3.07,5.18,27,27,0,0,0-2,5.64,15.56,15.56,0,0,0-3.3,5.56c-.67,2-1.26,3.71-1.77,5.12l-.62,2.25a5.59,5.59,0,0,0-1.3,1.65,5.2,5.2,0,0,1-.85,1.36,23,23,0,0,1-1.23,3.76c-.2.5-.41,1-.61,1.57a1.93,1.93,0,0,0-.15,1.28,6.81,6.81,0,0,1-.93,2.56,10.93,10.93,0,0,1-.15,1.8c-.1.6-.21,1.21-.31,1.81s-.36,1.33-.46,1.88a2.71,2.71,0,0,0,.16,1.57c.3.41.61.81.92,1.21a5.54,5.54,0,0,1,.77,1.5,1.92,1.92,0,0,0,.76.45,1.89,1.89,0,0,1,.77.45,4.63,4.63,0,0,0,2.31,1.21l1.53,1.8c.62,3.61,0,6.42-1.69,8.42q-2.76,3.45-9.22,3.46l-2.15-.15a8.54,8.54,0,0,1-1.23-1.36c-.92-.4-1.69-.72-2.3-1a4.07,4.07,0,0,1-1.69-1.43,1.41,1.41,0,0,0-.77-.38,1.4,1.4,0,0,1-.77-.37,9.2,9.2,0,0,1-2.46-1.06l-1.69-.9c.1-1,.16-1.7.16-2.1a13.77,13.77,0,0,1-1.92-3.61,34.64,34.64,0,0,1-1.16-4.06c-.3-1.1-.59-2.11-.84-3a7.63,7.63,0,0,0-1.15-2.4q-.32-10.53,2-17.67t5.07-13.91c1-2.4,2-4.86,2.92-7.36s1.74-5.06,2.46-7.67l1.69-1.65A9.61,9.61,0,0,1,378.62,66a10.06,10.06,0,0,1,.76-3.83c.52-1.25,1.08-2.53,1.69-3.84.41-.8.8-1.6,1.16-2.4a9.68,9.68,0,0,0,.69-2.11c-.72,0-1.36,0-1.92.08s-1.16.13-1.77.23a17.44,17.44,0,0,1-3.84.45,9.41,9.41,0,0,1-2-.15,6.3,6.3,0,0,1-2.3.67c-.72,0-1.44.08-2.15.08h-3.69a7.71,7.71,0,0,0-2.92.45h-7.84a19.2,19.2,0,0,1-2.76-.23,10,10,0,0,1-3.23-1.12l-1.08-1.21c-.61-1.1-1.17-1.7-1.69-1.8L344,50.82Z" transform="translate(0 -4.08)"/><path class="cls-1" d="M439.25,124.91c-.36.07-.69-.19-1-.79a17.48,17.48,0,0,0-1-1.74h1.18a8.39,8.39,0,0,1-.37-4.26c.25-1.3.55-2.56.91-3.79s.66-2.42.91-3.58a6.1,6.1,0,0,0-.37-3.63.5.5,0,0,0,.81-.26,6.85,6.85,0,0,0,.43-1.47,8.43,8.43,0,0,0,.1-1.9,14,14,0,0,0-.16-1.63A40.46,40.46,0,0,0,443,95.13c.53-2.32,1-4.62,1.45-6.9s.91-4.49,1.45-6.63a35.64,35.64,0,0,1,2.1-6,6.7,6.7,0,0,1,3.17.37,4.14,4.14,0,0,1,2.21,1.42,28.39,28.39,0,0,0,5.91-6.11q2.58-3.57,5.22-7a34.26,34.26,0,0,1,6-6.06A15.75,15.75,0,0,1,478.72,55q2.58,1.78,5.81,3.84A17.82,17.82,0,0,1,489.8,64c.57.36,1.13.72,1.66,1.11s1.1.75,1.67,1.1v1.58A12.65,12.65,0,0,1,495.66,71a33.25,33.25,0,0,1,1.83,3.9c.53,1.36,1.05,2.75,1.56,4.15a27.31,27.31,0,0,0,1.72,3.9,2.4,2.4,0,0,0-.16,1.1,4.05,4.05,0,0,0,.21,1,7.3,7.3,0,0,1,.27,1,8.11,8.11,0,0,1,.11,1.42,14.16,14.16,0,0,1-3.71,9,26,26,0,0,1-8,5.58,69.74,69.74,0,0,1-9.95,3.68A91.45,91.45,0,0,0,470,109q0,.42.48.42t.27.63q3.23,1.89,5,3.05a36.43,36.43,0,0,0,3.34,1.95,18.79,18.79,0,0,0,3.44,1.31q1.88.54,5.21,1.27c2.23.49,4,.89,5.22,1.21s2.38.56,3.39.73,2.08.34,3.22.48,2.69.31,4.63.52a9.84,9.84,0,0,1,1.94,2.74,13.55,13.55,0,0,1,1.07,3.16,9.33,9.33,0,0,1,.16,3,4,4,0,0,1-.91,2.26.48.48,0,0,0,.59.37,3.24,3.24,0,0,1,1,0,5.51,5.51,0,0,0-1.29,1.26l-1.07,1.48a10,10,0,0,1-1.24,1.37,3,3,0,0,1-1.78.73q-3.87,1.47-9.89.11a127.85,127.85,0,0,1-15.38-4.84c-3.09-1.13-5.59-2.14-7.53-3.06a52.52,52.52,0,0,1-5.06-2.68,33.81,33.81,0,0,1-4-2.84c-1.22-1-2.61-2.23-4.19-3.63a.53.53,0,0,0-.38.42.5.5,0,0,1-.37.42,26.08,26.08,0,0,1-1.67,6.84,24.54,24.54,0,0,1-3.28,5.37c-1.15-.21-1.92-.11-2.31.31a7.17,7.17,0,0,1-1.45,1.16,2.72,2.72,0,0,1-1.62-.05,6.91,6.91,0,0,1-1-.58,11.43,11.43,0,0,0-1-.63,3,3,0,0,0-1.72-.21l-.65-1.84c-.22-.6-.79-.86-1.72-.79a3.55,3.55,0,0,0,.21-1.63,6.74,6.74,0,0,0-.32-1.27c-.14-.38-.27-.79-.38-1.21A2.46,2.46,0,0,1,439.25,124.91Zm35.92-48.1a22.77,22.77,0,0,1-3.12,3.63q-1.73,1.64-3.39,3.37a23.69,23.69,0,0,0-3,3.79,13.86,13.86,0,0,0-1.82,4.89A37.77,37.77,0,0,0,473.34,90q4.95-2,9.36-3.73A11,11,0,0,0,479.9,80,12,12,0,0,0,475.17,76.81Z" transform="translate(0 -4.08)"/><path class="cls-1" d="M505.93,135.22a7.46,7.46,0,0,1-2.42-2.42,16.13,16.13,0,0,1-1.51-3.16,27.08,27.08,0,0,1-1-3.52c-.25-1.23-.52-2.4-.81-3.53a3,3,0,0,1,.65-2.15,15.88,15.88,0,0,1,1.39-1.32,41.8,41.8,0,0,0,4.63-.42l4-.63c1.29-.21,2.58-.4,3.87-.58a32.15,32.15,0,0,1,4.19-.26C520,115.05,521,113,522,111s1.82-3.91,2.69-5.73a28.48,28.48,0,0,1,1.66-4.9c.68-1.5,1.35-2.94,2-4.31s1.22-2.74,1.72-4.1a17.27,17.27,0,0,0,1-4.37q1.29-3.69,2.31-6.79a39.82,39.82,0,0,0,1.56-7.42c-2.72.42-4.91.83-6.56,1.21a18,18,0,0,0-3.55,1.11,7.39,7.39,0,0,1-3.39-.85,6.35,6.35,0,0,1-2-1.79,10.68,10.68,0,0,1-1.3-2.42c-.36-.91-.79-1.85-1.29-2.84A5.45,5.45,0,0,0,517,65a3.85,3.85,0,0,0-1.29-2.68A2,2,0,0,0,517,60.87a2.45,2.45,0,0,0,.11-1.84,19.66,19.66,0,0,1,3.87-.69l4-.31c1.33-.11,2.6-.25,3.82-.42A7.71,7.71,0,0,0,532,56.5l11.67-.42q6.07-.21,11.24-.53a14.41,14.41,0,0,0,4.46.64,40.91,40.91,0,0,1,5.06.31,13,13,0,0,1,4.51,1.37,5.7,5.7,0,0,1,2.75,3.68,5,5,0,0,1,2.42.84,2.8,2.8,0,0,1,1,1.53,7.06,7.06,0,0,1,.16,2c0,.74,0,1.46,0,2.16a14.37,14.37,0,0,1-4.36,2,40.76,40.76,0,0,1-5.75,1.26,60.36,60.36,0,0,1-6.51.63c-2.26.11-4.46.2-6.62.27a67.38,67.38,0,0,1-1.88,8.15q-1.35,4.69-2.74,9.16t-2.42,8a15.86,15.86,0,0,0-.91,4.58c-.72,1.61-1.31,3-1.78,4.1s-.9,2.18-1.29,3.16l-1.18,2.89c-.4,1-.88,2-1.46,3.21h7.32a2.08,2.08,0,0,0,1,1.58,11.29,11.29,0,0,0,1.61.74,7.14,7.14,0,0,1,1.56.79,1.69,1.69,0,0,1,.7,1.52,3.81,3.81,0,0,1,2.58,1.58,3.25,3.25,0,0,1,.27,2.26,7.71,7.71,0,0,1-1.08,2.48,25.2,25.2,0,0,1-1.56,2.21,2.11,2.11,0,0,0-1.82.47,13,13,0,0,0-1.62,1.53,25.73,25.73,0,0,0-6.13-.11q-3,.32-5.59.53c-.36.07-.5.26-.43.58a.58.58,0,0,1-.22.68,18.79,18.79,0,0,0-6.83-.84,45.76,45.76,0,0,0-7.1,1q-3.6.79-7.36,1.68A37.12,37.12,0,0,1,505.93,135.22Z" transform="translate(0 -4.08)"/><path class="cls-1" d="M565.73,104.28a.41.41,0,0,1,.49-.37,1.44,1.44,0,0,0,.69,0,3.88,3.88,0,0,1-1.07-2.26,4.41,4.41,0,0,0-1.08-2.37,11.06,11.06,0,0,0,.38-1c.11-.35.41-.49.91-.42a12.39,12.39,0,0,1,.11-4.32,15.7,15.7,0,0,1,1.35-3.79,26.15,26.15,0,0,1,2.15-3.52c.82-1.16,1.63-2.34,2.42-3.53.64-.14,1-.09,1.18.16s.39.19.75-.16A6.36,6.36,0,0,0,576.38,80a7.38,7.38,0,0,0,.64-3.1c.65-1.83,1.38-3.63,2.21-5.42a31.64,31.64,0,0,1,2.85-5,26.25,26.25,0,0,1,3.44-4,13.92,13.92,0,0,1,4-2.69,16.64,16.64,0,0,1,3.82-2.31,24.35,24.35,0,0,1,4.95-1.63,26.88,26.88,0,0,1,5.43-.63,18.48,18.48,0,0,1,5.16.57c.36.15.57.06.65-.26A.52.52,0,0,1,610,55a45.7,45.7,0,0,1,9.63,2.1,21.78,21.78,0,0,1,7.26,4.11A72.52,72.52,0,0,1,630.8,68a38.07,38.07,0,0,1,2.85,7.58,29.51,29.51,0,0,1,.92,8.16,23.86,23.86,0,0,1-1.83,8.42,28.66,28.66,0,0,1-9.14,7.42A66,66,0,0,1,612,104.23a112,112,0,0,1-12.79,3q-6.62,1.15-12.86,2.52.11,2.85,0,6.06a42.44,42.44,0,0,1-.7,6.42,36.73,36.73,0,0,1-1.72,6.26,22.93,22.93,0,0,1-3.06,5.68,16.5,16.5,0,0,0-4.47.42q-2.31.53-4.14,1l-1.66-1a4.7,4.7,0,0,0-2-.57,3.25,3.25,0,0,0-.6-2.64c-.61-.91-1.22-1.8-1.82-2.68a7.15,7.15,0,0,1-1.19-2.63,2.29,2.29,0,0,1,1.24-2.37,2.86,2.86,0,0,1-.86-2.31,1.45,1.45,0,0,0,1.07.42,12.5,12.5,0,0,1,.49-4.53c.46-1.75.86-3.49,1.18-5.21a14.15,14.15,0,0,0,.16-4.73A3.87,3.87,0,0,0,565.73,104.28Zm28-24.63c-.29.78-.52,1.46-.7,2.06a16.08,16.08,0,0,1-.59,1.63c-.22.49-.45,1-.7,1.47s-.52,1-.81,1.69a1.59,1.59,0,0,0,.86.94,1.6,1.6,0,0,1,.86,1,15.27,15.27,0,0,1,3-1.11c1-.24,2-.43,3-.57s2-.32,3-.53a14.81,14.81,0,0,0,3.11-1.05,21.3,21.3,0,0,1,3.39-1.21c1.19-.32,2.35-.65,3.5-1s2.26-.76,3.33-1.21a9,9,0,0,0,2.8-1.84,13.28,13.28,0,0,0-4.52-2.43,25.32,25.32,0,0,0-6.51-1.31,24.6,24.6,0,0,0-7,.47A12.92,12.92,0,0,0,593.7,79.65Z" transform="translate(0 -4.08)"/><path class="cls-1" d="M637.47,130.07a4.22,4.22,0,0,1-.75-1,5.63,5.63,0,0,1-.54-1.53,14,14,0,0,1-2.37-4.1,22.37,22.37,0,0,1-1.18-4.79,23.85,23.85,0,0,1-.11-5,32,32,0,0,1,.76-4.74,20.41,20.41,0,0,0,.53-2.21c.36-1.33.72-2.65,1.08-4a8.5,8.5,0,0,1,1.61-3.21,3.46,3.46,0,0,1,.11-2.52c.36-.91.72-1.75,1.08-2.53a3.42,3.42,0,0,0,.32-.57q.11-.27.21-.48c.86-2.45,1.71-4.82,2.53-7.1s1.63-4.48,2.42-6.58c1.44-3.86,2.81-7.65,4.14-11.37s2.53-7.68,3.61-11.89a5.56,5.56,0,0,1,1.5-.84,3.83,3.83,0,0,1,.54-.21,2.37,2.37,0,0,1,.75-.11A36.1,36.1,0,0,0,659,57.5a17.2,17.2,0,0,0,5.21,1l1.83,1.58a21.53,21.53,0,0,1,2.42,3.31,6.64,6.64,0,0,1,.59,4.48A3.54,3.54,0,0,1,668,69a35.71,35.71,0,0,1-1.4,4.27c-.5,1.23-1,2.4-1.51,3.52S664,79.34,663.5,80.6a26.89,26.89,0,0,0-1.29,4.63,3.75,3.75,0,0,0-.81,1.27c-.11.35-.23.7-.37,1s-.33.86-.54,1.31a3.49,3.49,0,0,1-1,1.21,21.45,21.45,0,0,1-1.29,5.32c-.58,1.37-1.15,2.72-1.72,4-1,2.46-1.94,4.89-2.8,7.31a28.53,28.53,0,0,0-1.5,8.27,10.06,10.06,0,0,1,2.36-.32,8.65,8.65,0,0,1,2.69.42,24.12,24.12,0,0,1,8.44-2.31q4.57-.42,9.09-.53,3.76,0,7-.32a4.93,4.93,0,0,0,1.4.79,6.78,6.78,0,0,0,1.08.06h.64a4.62,4.62,0,0,1,.86.1,9.4,9.4,0,0,0,2.91,2c.93.39,1.93.76,3,1.11s1.84.72,2.74,1.1a13.67,13.67,0,0,1,2.64,1.53l1,5.37c.58.77.83,1.3.76,1.58a2.59,2.59,0,0,1-.43,1.47l.21,1.37a8,8,0,0,0-2.69.89,13.72,13.72,0,0,0-1.39,1.21c-.79.07-1.55.11-2.26.11a16.31,16.31,0,0,0-4.41.63,20.94,20.94,0,0,0-7.1-1.16c-1,0-2,0-3.07.11s-2.06.17-3.06.31-2.15.27-3.23.37a31.61,31.61,0,0,1-3.23.16l-1.82.31a6.31,6.31,0,0,0-1.08.32c-2.44.77-5.07,1.54-7.91,2.32a32.43,32.43,0,0,1-8.55,1.15q-6.35,0-10.21-3.15a10.28,10.28,0,0,0-.65-1.27A6.72,6.72,0,0,1,637.47,130.07Z" transform="translate(0 -4.08)"/><path class="cls-1" d="M707.06,130.38a4.83,4.83,0,0,1-1.24-2,3.36,3.36,0,0,0-1.77-1.89c-.15-1-.34-2.27-.59-3.63s-.51-2.77-.76-4.21a42.44,42.44,0,0,1-.53-4.32,15.28,15.28,0,0,1,.16-3.94,6,6,0,0,1,.7-1.79c.32-.56.64-1.11,1-1.64a6.89,6.89,0,0,0,.76-1.63,3,3,0,0,0,0-1.68.92.92,0,0,0,.81-.68c.11-.39.45-.51,1-.37.5-1.55,1-3,1.61-4.32s1.19-2.63,1.83-3.89,1.31-2.54,2-3.84a33.74,33.74,0,0,0,1.88-4.37,10.31,10.31,0,0,1-2.63-3.63,22.85,22.85,0,0,1-1.24-4,36.32,36.32,0,0,1-.64-4,22.65,22.65,0,0,0-.86-4.16,11.23,11.23,0,0,1,3.12-3.1,18,18,0,0,1,4-2A29.35,29.35,0,0,1,720.51,64c1.72-.32,3.54-.69,5.48-1.11,3.44-1.05,6.52-1.88,9.25-2.47s5.38-1.09,8-1.48,5.27-.73,8.07-1,6-.79,9.67-1.42c.08.21.2.32.38.32h.7a1.18,1.18,0,0,0,1.18.73,2.67,2.67,0,0,0-.05-.58,2,2,0,0,1,0-.47,2.42,2.42,0,0,1,.59.11c.25.07.46.14.64.21a.48.48,0,0,0,.49-.06c.14-.1.18-.33.11-.68a11.26,11.26,0,0,0,3.33,3.63,24.73,24.73,0,0,0,4.52,2.47,6.24,6.24,0,0,1,.05,1.37,5.8,5.8,0,0,1-.16.79,3.11,3.11,0,0,0-.11.84,5.4,5.4,0,0,0,.22,1.32,14.73,14.73,0,0,1-3.93,4.42,18,18,0,0,1-4.68,2.42A30.74,30.74,0,0,1,759,74.6q-2.75.42-5.6.9a48.94,48.94,0,0,0-5.75,1.31,24.32,24.32,0,0,0-5.7,2.53,3.7,3.7,0,0,0-1.56-.26,7,7,0,0,0-1.45.26c-.51.14-1.06.28-1.67.42a5.83,5.83,0,0,1-2.21,0,5.08,5.08,0,0,1-2,1l-2.31.63a5,5,0,0,1,.49,2.32,4.79,4.79,0,0,0,.27,2,56.79,56.79,0,0,0,10-.05c3.65-.32,7.24-.55,10.75-.69a.81.81,0,0,1-.1.74,1,1,0,0,0-.22.74,9.2,9.2,0,0,1,1.83,1.57c.57.64,1.16,1.25,1.77,1.85a10.5,10.5,0,0,0,1.89,1.47,3.66,3.66,0,0,0,2.26.47,8.61,8.61,0,0,1,.75,2.21,4.24,4.24,0,0,1-.32,2.42c-1.44.92-2.84,1.84-4.2,2.79a39.1,39.1,0,0,1-4.25,2.58,25.05,25.05,0,0,1-4.78,1.89,17.8,17.8,0,0,1-5.6.64h-.91a1.58,1.58,0,0,1-.91-.42,5.42,5.42,0,0,1-2.86.36,6,6,0,0,0-3,.37,10.65,10.65,0,0,0-3.5-.52,10.54,10.54,0,0,1-3.49-.53c-1.29,1.83-2.52,3.74-3.66,5.74a44.78,44.78,0,0,0-3,6.36,42.66,42.66,0,0,0,7.31.53c1.94-.07,3.76-.21,5.49-.42l5.32-.63a49,49,0,0,1,6.72-.21,21.08,21.08,0,0,1,6.19-1.74,39.57,39.57,0,0,0,6.5-1.42,3.68,3.68,0,0,1,1.83,1.21c.5.6,1,1.19,1.45,1.79a9.66,9.66,0,0,0,1.46,1.52,2.21,2.21,0,0,0,1.93.43,2.47,2.47,0,0,1,.7,1.26c.11.49.22,1,.32,1.37a2.4,2.4,0,0,0,.49,1,1.32,1.32,0,0,0,1.18.26,20.21,20.21,0,0,1-4.57,6.31,18.46,18.46,0,0,1-5.7,3.42,33.2,33.2,0,0,1-7.1,1.79q-3.93.59-8.76,1.42a4,4,0,0,1-2,0,5.55,5.55,0,0,0-1.67-.26q-3,.53-7.15,1a55.29,55.29,0,0,1-8.34.42,38,38,0,0,1-8.07-1.05A14.06,14.06,0,0,1,707.06,130.38Z" transform="translate(0 -4.08)"/><path class="cls-1" d="M347.58,237.9c.1-.4.33-.57.69-.52a2.21,2.21,0,0,0,1-.08,5.56,5.56,0,0,1-1.54-3.23,6.37,6.37,0,0,0-1.54-3.39,15,15,0,0,0,.54-1.5c.16-.5.59-.7,1.31-.6a17.52,17.52,0,0,1,.15-6.16,22.12,22.12,0,0,1,1.92-5.42,40,40,0,0,1,3.08-5c1.17-1.66,2.33-3.34,3.45-5,.92-.2,1.49-.13,1.69.22s.57.28,1.08-.22a9.17,9.17,0,0,0,3.38-3.68,10.69,10.69,0,0,0,.92-4.44c.92-2.6,2-5.19,3.15-7.74a46.76,46.76,0,0,1,4.07-7.14,37.43,37.43,0,0,1,4.92-5.79,19.85,19.85,0,0,1,5.68-3.84A24.05,24.05,0,0,1,387,171a35.31,35.31,0,0,1,7.07-2.33,40.36,40.36,0,0,1,7.76-.91,26.6,26.6,0,0,1,7.37.83c.51.2.82.08.92-.38a.74.74,0,0,1,.77-.67,65.29,65.29,0,0,1,13.75,3A31.07,31.07,0,0,1,435,176.41a107.15,107.15,0,0,1,5.53,9.7,54.45,54.45,0,0,1,4.07,10.82,41.85,41.85,0,0,1,1.3,11.65,33.83,33.83,0,0,1-2.61,12,40.79,40.79,0,0,1-13.06,10.6,94.3,94.3,0,0,1-16.52,6.62,161.88,161.88,0,0,1-18.28,4.28q-9.45,1.65-18.36,3.61c.1,2.7.1,5.59,0,8.64a62.24,62.24,0,0,1-1,9.18,53.06,53.06,0,0,1-2.46,8.94,32.37,32.37,0,0,1-4.38,8.12,23.49,23.49,0,0,0-6.37.6q-3.31.75-5.92,1.5c-.82-.5-1.61-1-2.38-1.42a6.78,6.78,0,0,0-2.84-.83,4.62,4.62,0,0,0-.85-3.76q-1.31-1.95-2.61-3.83a10.17,10.17,0,0,1-1.69-3.76q-.39-1.87,1.77-3.39a4.08,4.08,0,0,1-1.23-3.3,2.09,2.09,0,0,0,1.53.6,18.09,18.09,0,0,1,.69-6.47c.67-2.5,1.23-5,1.7-7.44a20.54,20.54,0,0,0,.23-6.76A5.55,5.55,0,0,0,347.58,237.9Zm39.95-35.18c-.41,1.1-.75,2.08-1,2.93a20.83,20.83,0,0,1-.85,2.33c-.3.7-.64,1.41-1,2.11s-.74,1.5-1.15,2.4a2.33,2.33,0,0,0,1.23,1.35A2.34,2.34,0,0,1,386,215.2a21.35,21.35,0,0,1,4.3-1.58c1.44-.35,2.87-.62,4.31-.83s2.86-.45,4.3-.75a21.22,21.22,0,0,0,4.45-1.5,30.85,30.85,0,0,1,4.84-1.73q2.54-.67,5-1.43a49.82,49.82,0,0,0,4.76-1.73,12.65,12.65,0,0,0,4-2.63,19,19,0,0,0-6.45-3.46,36.46,36.46,0,0,0-9.29-1.88,35.44,35.44,0,0,0-10,.68A18.49,18.49,0,0,0,387.53,202.72Z" transform="translate(0 -4.08)"/><path class="cls-1" d="M447.33,276.72a4.79,4.79,0,0,1-1.24-2,3.36,3.36,0,0,0-1.77-1.89c-.15-1.06-.34-2.27-.59-3.63s-.51-2.78-.76-4.21-.43-2.88-.54-4.32a15.82,15.82,0,0,1,.17-3.95,6.33,6.33,0,0,1,.69-1.78c.33-.57.65-1.11,1-1.64a6.89,6.89,0,0,0,.76-1.63,3.1,3.1,0,0,0,.05-1.68.92.92,0,0,0,.81-.69q.15-.57,1-.36c.5-1.55,1-3,1.61-4.32s1.18-2.63,1.83-3.89,1.31-2.55,2-3.84a33.74,33.74,0,0,0,1.88-4.37,10.19,10.19,0,0,1-2.63-3.63,23.13,23.13,0,0,1-1.24-3.95,38.82,38.82,0,0,1-.65-4.05,21.85,21.85,0,0,0-.86-4.16,11.22,11.22,0,0,1,3.12-3.1,18.33,18.33,0,0,1,4-2,30.55,30.55,0,0,1,4.78-1.27q2.58-.47,5.49-1.1c3.44-1,6.52-1.88,9.25-2.47s5.38-1.09,8-1.48,5.27-.73,8.06-1.05,6-.79,9.68-1.42a.4.4,0,0,0,.38.32h.7a1.17,1.17,0,0,0,1.18.73,3.48,3.48,0,0,0-.05-.58,2.09,2.09,0,0,1-.06-.47,2.48,2.48,0,0,1,.6.11c.25.07.46.14.64.21a.48.48,0,0,0,.49-.06c.14-.1.17-.33.1-.68a11.29,11.29,0,0,0,3.34,3.63,24.64,24.64,0,0,0,4.51,2.47,6.4,6.4,0,0,1,.06,1.37,5.8,5.8,0,0,1-.16.79,2.76,2.76,0,0,0-.11.84,5.82,5.82,0,0,0,.21,1.32,14.58,14.58,0,0,1-3.92,4.42,18,18,0,0,1-4.68,2.42,30.62,30.62,0,0,1-5.22,1.26c-1.82.28-3.69.58-5.59.9a48.94,48.94,0,0,0-5.75,1.31,23.91,23.91,0,0,0-5.7,2.53,3.89,3.89,0,0,0-1.56-.27,8.08,8.08,0,0,0-1.46.27c-.5.14-1.05.28-1.66.42a5.83,5.83,0,0,1-2.21,0,5.08,5.08,0,0,1-2,1.05l-2.31.63a4.87,4.87,0,0,1,.48,2.32,5.13,5.13,0,0,0,.27,2,56,56,0,0,0,10-.06c3.65-.31,7.24-.54,10.75-.68.07.35,0,.6-.11.74a1,1,0,0,0-.21.73,9.86,9.86,0,0,1,1.83,1.58c.57.63,1.16,1.25,1.77,1.84a10.42,10.42,0,0,0,1.88,1.48,3.76,3.76,0,0,0,2.26.47,8.27,8.27,0,0,1,.76,2.21,4.18,4.18,0,0,1-.33,2.42c-1.43.92-2.83,1.84-4.19,2.79a39.1,39.1,0,0,1-4.25,2.58,25.15,25.15,0,0,1-4.79,1.89,17.71,17.71,0,0,1-5.59.64h-.91a1.56,1.56,0,0,1-.92-.43,5.27,5.27,0,0,1-2.85.37,6,6,0,0,0-3,.37,10.54,10.54,0,0,0-3.49-.53,10.65,10.65,0,0,1-3.5-.52q-1.93,2.73-3.65,5.73a46.62,46.62,0,0,0-3,6.37,42.71,42.71,0,0,0,7.32.53c1.93-.07,3.76-.21,5.48-.42l5.33-.63a49,49,0,0,1,6.72-.21,20.71,20.71,0,0,1,6.18-1.74,39.92,39.92,0,0,0,6.51-1.42,3.68,3.68,0,0,1,1.83,1.21c.5.59,1,1.19,1.45,1.79a10.59,10.59,0,0,0,1.45,1.52,2.24,2.24,0,0,0,1.94.42,2.54,2.54,0,0,1,.7,1.27c.11.49.21.94.32,1.37a2.4,2.4,0,0,0,.49,1,1.31,1.31,0,0,0,1.18.26,20.33,20.33,0,0,1-4.57,6.31,18.58,18.58,0,0,1-5.7,3.42,33.2,33.2,0,0,1-7.1,1.79q-3.93.58-8.77,1.42a4,4,0,0,1-2-.05,5.44,5.44,0,0,0-1.66-.26q-3,.52-7.16,1.05a55.16,55.16,0,0,1-8.33.42,37.92,37.92,0,0,1-8.07-1.05A14.16,14.16,0,0,1,447.33,276.72Z" transform="translate(0 -4.08)"/><path class="cls-1" d="M512.29,271.25c-.36.07-.68-.19-1-.79a16.34,16.34,0,0,0-1-1.74h1.18a8.51,8.51,0,0,1-.38-4.26c.25-1.3.56-2.56.92-3.79s.66-2.42.91-3.58a6.09,6.09,0,0,0-.38-3.63.51.51,0,0,0,.81-.26,6.32,6.32,0,0,0,.43-1.47,8.42,8.42,0,0,0,.11-1.9c0-.66-.09-1.21-.16-1.63a40.23,40.23,0,0,0,2.2-6.74q.81-3.47,1.45-6.89t1.46-6.63a34.77,34.77,0,0,1,2.09-6.05,6.74,6.74,0,0,1,3.18.37,4.11,4.11,0,0,1,2.2,1.42,28.66,28.66,0,0,0,5.92-6.11q2.58-3.57,5.21-7a35,35,0,0,1,6-6.06,15.78,15.78,0,0,1,8.28-3.15c1.73,1.19,3.66,2.47,5.81,3.84a17.7,17.7,0,0,1,5.27,5.1c.58.35,1.13.72,1.67,1.11s1.09.75,1.67,1.1v1.58a12.44,12.44,0,0,1,2.52,3.21,30.31,30.31,0,0,1,1.83,3.9c.54,1.36,1.06,2.75,1.56,4.15a28.48,28.48,0,0,0,1.72,3.9,2.69,2.69,0,0,0-.16,1.1,4.66,4.66,0,0,0,.22.95,8.42,8.42,0,0,1,.27,1.05,8.21,8.21,0,0,1,.1,1.42,14.05,14.05,0,0,1-3.71,9,25.88,25.88,0,0,1-8,5.58,70.37,70.37,0,0,1-9.94,3.68,89.41,89.41,0,0,0-9.58,3.32c0,.28.16.42.49.42s.41.21.27.63c2.15,1.26,3.81,2.28,5,3a36.35,36.35,0,0,0,3.33,2,19.36,19.36,0,0,0,3.44,1.31q1.89.54,5.22,1.27T566,265.2c1.25.31,2.38.56,3.38.73s2.08.34,3.23.48,2.69.31,4.63.52a9.81,9.81,0,0,1,1.93,2.74,13.91,13.91,0,0,1,1.08,3.16,9.63,9.63,0,0,1,.16,3,4,4,0,0,1-.92,2.26c.07.28.27.4.6.37a3.24,3.24,0,0,1,1,.05,5.33,5.33,0,0,0-1.29,1.26l-1.08,1.48a8.81,8.81,0,0,1-1.24,1.36,2.91,2.91,0,0,1-1.77.74q-3.87,1.47-9.9.11a130.28,130.28,0,0,1-15.38-4.84c-3.08-1.13-5.59-2.14-7.52-3.06a51.35,51.35,0,0,1-5.06-2.68,33.81,33.81,0,0,1-4-2.84q-1.83-1.53-4.19-3.63a.5.5,0,0,0-.38.42.51.51,0,0,1-.38.42,26.11,26.11,0,0,1-1.66,6.84,24.94,24.94,0,0,1-3.28,5.37c-1.15-.21-1.92-.11-2.32.31a6.9,6.9,0,0,1-1.45,1.16,2.69,2.69,0,0,1-1.61-.05,6.91,6.91,0,0,1-1-.58c-.29-.21-.61-.42-1-.63a3,3,0,0,0-1.72-.21c-.21-.63-.43-1.25-.64-1.84s-.79-.86-1.73-.79a3.48,3.48,0,0,0,.22-1.64,6.83,6.83,0,0,0-.32-1.26,10.7,10.7,0,0,1-.38-1.21A2.44,2.44,0,0,1,512.29,271.25Zm35.93-48.1a23.84,23.84,0,0,1-3.12,3.63q-1.73,1.64-3.39,3.37a23.69,23.69,0,0,0-3,3.79,14.06,14.06,0,0,0-1.83,4.89,37.84,37.84,0,0,0,9.47-2.47q4.93-2,9.35-3.74a11,11,0,0,0-2.79-6.26A12,12,0,0,0,548.22,223.15Z" transform="translate(0 -4.08)"/><path class="cls-1" d="M585.21,258.93a12,12,0,0,1-4.94-5.05,15.89,15.89,0,0,1-1.94-6.21,8.5,8.5,0,0,1,1.35-3.94,8.74,8.74,0,0,1,2.42-2.32A12.37,12.37,0,0,1,585,240c1-.31,2-.58,2.9-.79l1.62.53a8.49,8.49,0,0,0,1.13.95c.39.28.77.56,1.13.84a2.08,2.08,0,0,0,1.34-1.26c.18-.56.38-1.13.59-1.69q.33-1.16.75-2.31a17.22,17.22,0,0,1,1.08-2.32,4.16,4.16,0,0,1,.11-1.68,11.67,11.67,0,0,1,.43-1.27,2.62,2.62,0,0,0-.92-.57c-.18,0-.48-.13-.91-.27a3.56,3.56,0,0,1-.65,0c-.21,0-.46-.09-.75-.16a8.32,8.32,0,0,1-2.1-1.94c-.32-.53-.66-1.07-1-1.64s-.68-1-1-1.47a7.69,7.69,0,0,0-1-1.16l-1.3-.84.65-1.26a.78.78,0,0,0,.22-.58,2.68,2.68,0,0,0-.43-1.11,3.79,3.79,0,0,1-.11-2l.21-1.27c.72-.91,1.11-1.44,1.19-1.58l1.07-1.05q2.48-.63,5.06-1.42t5-1.63l5.06-1.69q2.58-.84,5.16-1.47a3.68,3.68,0,0,1,1.88-.89c.68-.11,1.31-.2,1.88-.27a8.78,8.78,0,0,0,1.4-.1,1.48,1.48,0,0,0,1-.53c1.22-.42,2.4-.77,3.55-1q3.23-.84,8.5-2a88.31,88.31,0,0,1,11.83-1.68l2.26-.11a5.07,5.07,0,0,0,1.29.05c.43,0,.86-.05,1.29-.05q5.6,0,7.42,3.37a8.31,8.31,0,0,1,1.93,1.31q.87.8,1.62,1.53c.36.35.68.65,1,.9a6.79,6.79,0,0,0,.75.57l.86.85a6.64,6.64,0,0,1,.43,4.94,2.63,2.63,0,0,1-1.4,1.48l-1.5.42-1.4.73c-.93-.07-1.63-.1-2.1-.1H650.5q-3.22,0-7.47.37c-2.84.24-5.72.59-8.66,1.05s-5.81,1-8.61,1.68a65,65,0,0,0-7.31,2.16,9.66,9.66,0,0,1-2.26,1.16,4.79,4.79,0,0,0-1,.52,6.35,6.35,0,0,1,0,1.63,10.63,10.63,0,0,1-.32,1.53,9.26,9.26,0,0,0-.16,1.11c0,.38-.09.79-.16,1.21a8.73,8.73,0,0,0-2.15,6.21l-.54,1.05a3,3,0,0,0-.7,1.21,2.74,2.74,0,0,0-.05,1.63l.43,1.26c1.43-.14,2.85-.29,4.24-.47s2.89-.37,4.47-.58c2-.35,4-.65,6.07-.89a52.84,52.84,0,0,1,6.4-.37H637l-1,.94,1.18.11-.64,1.68,1.13.48a4.24,4.24,0,0,1,.7.37l.75,1.05a2.91,2.91,0,0,1,1,1,4.4,4.4,0,0,1,.54,1.84l-.33,1.05-5,6.32-.65.84-1.07-.32a11.78,11.78,0,0,0-3.88.42c-.57.15-1.18.3-1.82.48a7.61,7.61,0,0,1-1.94.26c-1.72.28-3.16.51-4.3.68s-2.3.34-3.44.48l-4.57.79a21.4,21.4,0,0,0-4.15,1.1,7.88,7.88,0,0,1-1.39.06,1.65,1.65,0,0,0-.43-.06,7.57,7.57,0,0,0-2.15.32c-.72.21-1.4.42-2.05.63a2.62,2.62,0,0,0-.86,1.11c-.14.38-.29.78-.43,1.21a7,7,0,0,1-.59,1.42,13.51,13.51,0,0,1-.92,1.42l.11,1.89a4.35,4.35,0,0,0-1,.26s0,.06-.1.06a4.56,4.56,0,0,1-.27,1.58l-.49,1.36a5.9,5.9,0,0,0-.32.74,2,2,0,0,0-.11.63,5.87,5.87,0,0,1,.54,4.32,8.6,8.6,0,0,1-1.61,3.52,8.43,8.43,0,0,1-2.8,2.37A5.61,5.61,0,0,1,592,281l-1.66-.64q-.54-.21-1.08-.36c-.36-.11-.72-.2-1.07-.27l-1.29-1a9.06,9.06,0,0,0-.76-1.21c-.28-.38-.57-.79-.86-1.21l-1.07-1.47a9.12,9.12,0,0,1-1-1.69A16.1,16.1,0,0,1,583,267a34.58,34.58,0,0,1,1.34-4.9c.15-.56.29-1.09.43-1.58S585.07,259.5,585.21,258.93Z" transform="translate(0 -4.08)"/><path class="cls-1" d="M669.75,280.72a21.73,21.73,0,0,1-8.6-.42,21.32,21.32,0,0,1-6.94-3.26,23.32,23.32,0,0,1-5.27-5.27,30.52,30.52,0,0,1-3.6-6.52,33.55,33.55,0,0,1,.54-13,41.62,41.62,0,0,1,4.41-10.79,63.79,63.79,0,0,1,6.61-9.26l7.15-8.31a1.29,1.29,0,0,0,1.24,0,3.26,3.26,0,0,0,.86-.84A12.92,12.92,0,0,1,667,222a2.6,2.6,0,0,1,1.13-.73,4.73,4.73,0,0,1,1.13-1.58,16.5,16.5,0,0,1,1.5-1.21,18.59,18.59,0,0,0,1.51-1.21,6.25,6.25,0,0,0,1.24-1.58,5.32,5.32,0,0,0,1.88-.74,12.26,12.26,0,0,0,1.51-1.15,13.16,13.16,0,0,1,1.45-1.16,6.2,6.2,0,0,1,1.83-.84v-1.37a9.69,9.69,0,0,0,3.44-2.32c.71-.84,1.57-1.93,2.58-3.26.79-.07,1.41-.11,1.88-.11a16.16,16.16,0,0,0,2.21-.21,11.41,11.41,0,0,1,1.82-2.63A16.71,16.71,0,0,1,694.6,200a9.11,9.11,0,0,0,3.44,1,5.32,5.32,0,0,1,3.33,1.63,3.15,3.15,0,0,0,.76,2,12.07,12.07,0,0,0,1.4,1.26c.5.39,1,.79,1.5,1.21a2.94,2.94,0,0,1,1,1.79.87.87,0,0,0,.7-.21c.11-.14.34-.18.7-.11a9.4,9.4,0,0,0,.43,1.37,5.62,5.62,0,0,0,.48,1c.18.28.36.6.54.95a6.94,6.94,0,0,1,.48,1.26,24.79,24.79,0,0,0-1,2.68,2.89,2.89,0,0,1-1.72,2c0,.56.21.86.64.89a.8.8,0,0,1,.75.79,2.26,2.26,0,0,1-.32,1.58,99.16,99.16,0,0,1,5.49,10.37,87.19,87.19,0,0,0,5.59,10.36,7.08,7.08,0,0,0,.16,2.9,18.81,18.81,0,0,0,1,2.79c.39.91.77,1.82,1.13,2.73a12.87,12.87,0,0,1,.75,2.74,17.59,17.59,0,0,1,0,3.84,17.81,17.81,0,0,1-.86,3.95,15.54,15.54,0,0,1-1.72,3.52,7.89,7.89,0,0,1-2.47,2.48,13.39,13.39,0,0,1-4.31,3.42,25.57,25.57,0,0,0-4.73,3.1,11,11,0,0,1-3.23,1.21l-3.55.79a23.54,23.54,0,0,1-3.33,1.63c-1.29.53-2.62,1-4,1.42a32.05,32.05,0,0,1-4.09,1,11.83,11.83,0,0,1-3.65.16,40.55,40.55,0,0,1-7.53,1.9A25,25,0,0,1,669.75,280.72Zm1.4-38.31a22.62,22.62,0,0,1-2.53,4.37c-1,1.3-1.92,2.61-2.85,3.95a26.18,26.18,0,0,0-2.42,4.26,14,14,0,0,0-1.13,5.31,9.69,9.69,0,0,0,5.11,2.16,29.29,29.29,0,0,0,6.08.11q3.12-.27,6.24-.79a34.07,34.07,0,0,1,5.59-.53c0-.63.29-.95.86-.95a22.06,22.06,0,0,0,8.39-2.47q3.87-2.06,8.07-4.16a7.7,7.7,0,0,1,1.4-2.21,4.33,4.33,0,0,0,1-2.73,6.51,6.51,0,0,1-.69-1.58,8.07,8.07,0,0,1-.17-1.9,46.13,46.13,0,0,1-4.84-8.26,59.67,59.67,0,0,0-4.73-8.47,2.75,2.75,0,0,1-.86,1c-.43.35-.9.28-1.4-.21a2.29,2.29,0,0,1-1,1.42,2.82,2.82,0,0,1-1.45.37,4.4,4.4,0,0,1-1.61-.32,5.34,5.34,0,0,1-1.45-.84q-3.76,3-7.48,5.69a37,37,0,0,0-6.72,6.42c-.36.21-.58.28-.65.21S671.58,242.27,671.15,242.41Z" transform="translate(0 -4.08)"/><path class="cls-1" d="M728.8,271.25c-.36.07-.68-.19-1-.79a16.34,16.34,0,0,0-1-1.74h1.18a8.51,8.51,0,0,1-.38-4.26c.25-1.3.56-2.56.92-3.79s.66-2.42.91-3.58a6.09,6.09,0,0,0-.38-3.63.51.51,0,0,0,.81-.26,6.32,6.32,0,0,0,.43-1.47,8.42,8.42,0,0,0,.11-1.9c0-.66-.09-1.21-.16-1.63a39.34,39.34,0,0,0,2.2-6.74q.81-3.47,1.45-6.89c.44-2.28.92-4.49,1.46-6.63a34.77,34.77,0,0,1,2.09-6.05,6.74,6.74,0,0,1,3.18.37,4.11,4.11,0,0,1,2.2,1.42,28.66,28.66,0,0,0,5.92-6.11q2.58-3.57,5.21-7a35,35,0,0,1,6-6.06,15.81,15.81,0,0,1,8.28-3.15c1.73,1.19,3.66,2.47,5.81,3.84a17.7,17.7,0,0,1,5.27,5.1c.58.35,1.13.72,1.67,1.11s1.09.75,1.67,1.1v1.58a12.69,12.69,0,0,1,2.53,3.21,31.67,31.67,0,0,1,1.82,3.9c.54,1.36,1.06,2.75,1.56,4.15a28.48,28.48,0,0,0,1.72,3.9,2.69,2.69,0,0,0-.16,1.1,4.66,4.66,0,0,0,.22.95,10.63,10.63,0,0,1,.27,1.05,8.21,8.21,0,0,1,.1,1.42,14.05,14.05,0,0,1-3.71,9,25.88,25.88,0,0,1-8,5.58,70.37,70.37,0,0,1-9.94,3.68,89.41,89.41,0,0,0-9.58,3.32c0,.28.16.42.49.42s.41.21.27.63c2.15,1.26,3.81,2.28,5,3a36.35,36.35,0,0,0,3.33,2,19.36,19.36,0,0,0,3.44,1.31q1.89.54,5.22,1.27t5.22,1.21c1.25.31,2.38.56,3.38.73s2.08.34,3.23.48,2.69.31,4.63.52a9.81,9.81,0,0,1,1.93,2.74,13.91,13.91,0,0,1,1.08,3.16,9.63,9.63,0,0,1,.16,3,4,4,0,0,1-.92,2.26.49.49,0,0,0,.6.37,3.24,3.24,0,0,1,1,.05,5.33,5.33,0,0,0-1.29,1.26l-1.08,1.48a8.81,8.81,0,0,1-1.24,1.36,2.91,2.91,0,0,1-1.77.74q-3.87,1.47-9.9.11A130.28,130.28,0,0,1,767,278.62c-3.08-1.13-5.59-2.14-7.52-3.06a51.35,51.35,0,0,1-5.06-2.68,33.81,33.81,0,0,1-4-2.84q-1.83-1.53-4.19-3.63a.51.51,0,0,0-.38.42.51.51,0,0,1-.38.42,26.11,26.11,0,0,1-1.66,6.84,24.94,24.94,0,0,1-3.28,5.37c-1.15-.21-1.92-.11-2.32.31a6.9,6.9,0,0,1-1.45,1.16,2.69,2.69,0,0,1-1.61-.05,6.91,6.91,0,0,1-1-.58c-.29-.21-.61-.42-1-.63a3,3,0,0,0-1.72-.21c-.21-.63-.43-1.25-.64-1.84s-.79-.86-1.73-.79a3.48,3.48,0,0,0,.22-1.64,6.83,6.83,0,0,0-.32-1.26,10.7,10.7,0,0,1-.38-1.21A2.44,2.44,0,0,1,728.8,271.25Zm35.93-48.1a23.84,23.84,0,0,1-3.12,3.63q-1.73,1.64-3.39,3.37a23.69,23.69,0,0,0-3,3.79,14.06,14.06,0,0,0-1.83,4.89,37.84,37.84,0,0,0,9.47-2.47q4.94-2,9.35-3.74a11,11,0,0,0-2.79-6.26A12,12,0,0,0,764.73,223.15Z" transform="translate(0 -4.08)"/><path class="cls-1" d="M806.67,281.77a26.41,26.41,0,0,1-3.33-.31,16.57,16.57,0,0,1-3.07-4.9,32,32,0,0,1-2-6.63,33.65,33.65,0,0,1-.65-7.05,16.31,16.31,0,0,1,1.24-6.26c0-.07.34-.91,1-2.53s1.56-3.66,2.64-6.15,2.29-5.27,3.65-8.32,2.73-6.05,4.09-9,2.67-5.63,3.93-8.05a50.56,50.56,0,0,1,3.28-5.63c.64-1,1.23-1.93,1.77-2.84s1.06-1.75,1.56-2.52c.79-1.27,1.52-2.44,2.21-3.53a18.7,18.7,0,0,1,2.26-3,15,15,0,0,1,6.39-4,15.88,15.88,0,0,1,2.26,1.11,7.12,7.12,0,0,1,1.72,1.42l.33,1.47a1.52,1.52,0,0,0,.7,1,1.71,1.71,0,0,0,.8.26,19.65,19.65,0,0,1,2.42.69,9,9,0,0,0,2.21.47c.28.42.55.84.8,1.26a9.17,9.17,0,0,0,.81,1.16,44.93,44.93,0,0,1,3.55,5.89,7.25,7.25,0,0,1,0,6.21l.11,1.16a2.37,2.37,0,0,1,.54,1.37,11,11,0,0,1-.22,1.79c-.07.56-.13,1.17-.16,1.84a6.46,6.46,0,0,0,.27,2.16l.75.84a7.6,7.6,0,0,0,3.34.84,7.82,7.82,0,0,0,3.87-1c1.14-.63,2.22-1.26,3.22-1.89a18.66,18.66,0,0,1,2.21-1.37,8,8,0,0,1,2-.73c1.5-1.41,2.88-2.65,4.14-3.74s2.56-2.19,3.93-3.32a97.91,97.91,0,0,0,7.52-6.57,25.22,25.22,0,0,0,5.81-8.79,5,5,0,0,1,2.69-.74,8.46,8.46,0,0,1,3,.58c1,.39,2,.83,3,1.32a3.46,3.46,0,0,0,.6.31,4,4,0,0,1,.59.32,2.89,2.89,0,0,0,1,2.1,5.19,5.19,0,0,0,.76.53l.43.21c.57.35,1.06.67,1.45,1a2.69,2.69,0,0,1,.91,1.15,8.63,8.63,0,0,0,3.23,4.42,4.83,4.83,0,0,0,.11,2.27,21.23,21.23,0,0,0,.75,2.16,4.77,4.77,0,0,1,.32.78c.08.25.18.55.33.9l-2.37-.21.32,2.31a9,9,0,0,1-.27,4,14,14,0,0,1-1.34,3.48c.14,2.1.22,3.77.22,5a26.14,26.14,0,0,1-.22,3.43,15.72,15.72,0,0,1-.7,3,25.55,25.55,0,0,1-1.24,3,37.85,37.85,0,0,1-1.88,14.63q-2.31,6.63-5,12.42c-.21.49-.43.95-.65,1.37a9.66,9.66,0,0,0-.53,1.26,15,15,0,0,0-2.15.74,14.33,14.33,0,0,0-1.83.95,15.61,15.61,0,0,1-2.37,1.21,6.69,6.69,0,0,1-2.47.47q-5.16-3.68-5.33-12.73t3.93-23a1.57,1.57,0,0,0,.64-1.58v-1.16l-1.07-.1a4.13,4.13,0,0,0-1,.1c-.29.07-.5.39-.64,1q-3.45,2.41-7.48,5a91.06,91.06,0,0,1-8.33,4.73,61,61,0,0,1-8.77,3.58,28.41,28.41,0,0,1-8.66,1.42q-10.75,0-16.24-10.73l-1-1.9-1.07,1.69c-.22.35-.59,1-1.13,2a37.58,37.58,0,0,0-1.62,3.53,40.32,40.32,0,0,0-1.39,4.1,9.14,9.14,0,0,0-.38,3.68,27.71,27.71,0,0,0-2.53,2.63,9.16,9.16,0,0,0-1.77,3.37,1.61,1.61,0,0,0-.11,1,6.39,6.39,0,0,0,.32,1,1.77,1.77,0,0,1-.43,1.05,7.13,7.13,0,0,1-.75.64c-.36.35-.72.72-1.08,1.1a3.93,3.93,0,0,0-1.29,2.63c-.07.46-.14.86-.21,1.21a2.78,2.78,0,0,1-.32,1.58q-1.08,2.2-1.89,3.63a9.59,9.59,0,0,1-1.56,2.16,4.09,4.09,0,0,1-1.56,1A6.19,6.19,0,0,1,806.67,281.77Z" transform="translate(0 -4.08)"/><path class="cls-1" d="M901.43,270.3l1.4-1.05.1-2.21q2.7-6.42,5.54-12.32t6-12.1q1-2,2-4c.68-1.33,1.35-2.7,2-4.1a3.7,3.7,0,0,1-.11-.9,3.62,3.62,0,0,1,.22-1.1,37.69,37.69,0,0,0,2.42-3.79c.61-1.12,1.2-2.28,1.78-3.47q1-2.12,2.09-4.21a22.68,22.68,0,0,1,2.85-4.11l.76-1.05,1.18.11a6.18,6.18,0,0,1,.91-.37,4,4,0,0,1,1.24-.16l1.94.31a18.86,18.86,0,0,0,6.29-4.57,60.38,60.38,0,0,0,5.54-7.21l1.29-1.79,1.72,1a7.39,7.39,0,0,0,1.72.63c.79.21,1.61.46,2.47.74,1.51.35,3,.75,4.41,1.21a8.34,8.34,0,0,1,3.34,1.84l.53.95c.15.77.27,1.47.38,2.1s.23,1.27.38,1.9c.28,1.47.54,2.93.75,4.37a43.05,43.05,0,0,1,.43,4.78c.36,1.41.7,2.83,1,4.27s.63,2.86.92,4.26c.35,2,.75,4,1.18,5.84a31.4,31.4,0,0,0,1.72,5.31,4.21,4.21,0,0,1,1.29.11,9.49,9.49,0,0,1,3-.63l1.4-.11.43,1.27a3.78,3.78,0,0,0,.54.63,6.21,6.21,0,0,0,.75.63,5,5,0,0,1,2.53.68,12,12,0,0,1,1.34,1.11c.15.14.33.3.54.47a3.08,3.08,0,0,0,.54.37l1.94.74-1.08,2a15.66,15.66,0,0,1-3.6,4.31,22.1,22.1,0,0,1-5.44,3.47,6.36,6.36,0,0,1,.27,1.37,10.5,10.5,0,0,0,.27,1.48c.29,1.4.52,2.85.7,4.36a18.93,18.93,0,0,1-.05,4.69,25.52,25.52,0,0,1-2.53,4.89,19.87,19.87,0,0,1-3.44,3.89,18,18,0,0,1-4.46,2.85,14.06,14.06,0,0,1-5.17,1.21,7.39,7.39,0,0,1-2.2-.74,12.11,12.11,0,0,1-1.24-.84,6.61,6.61,0,0,0-1.4-.84l-1.4-.64.44-1.57a1.65,1.65,0,0,0-.06-1.48,8.28,8.28,0,0,0-1.56-1.68,4.15,4.15,0,0,1-.75-.69l-.75-.79-2.16-2.42,3.55-.94q3.23-.84,4.31-2.16c.71-.88,1-2.44.86-4.68a11.24,11.24,0,0,0-4.41-.16c-1.15.25-2.3.51-3.44.79-1.66.42-3.27.79-4.84,1.1a26,26,0,0,1-5.17.48,25.43,25.43,0,0,1-3.87-.32l-1.18-.1-.33-1.16a.77.77,0,0,0-.26-.48l-.49-.47q-.54-.63-1.29-1.68a3,3,0,0,1-.32-2.63,5.24,5.24,0,0,1-.86-2.43,12.4,12.4,0,0,0-.7,1.64c-.18.52-.34,1-.49,1.52l-.43,1.37-1.39.21a1.7,1.7,0,0,0-.38.63.76.76,0,0,0-.05.63l.43,1.16-1.08.95a1.79,1.79,0,0,1-.54.52,4.26,4.26,0,0,0-.53.43A15.24,15.24,0,0,1,923,266c-.25.7-.52,1.4-.8,2.1-.36,1.12-.7,2.21-1,3.26a10.56,10.56,0,0,0-.49,3.16l-.43,1.37a3.58,3.58,0,0,1-1.34,1.26c-.54.28-1.06.53-1.56.74a4.68,4.68,0,0,0-1.51.84l-.32,1.37-1.62.21q-1.39.31-2,.42a7.84,7.84,0,0,1-1.35.11l-1.4-.11c-.86-.84-1.56-1.49-2.09-2a9.29,9.29,0,0,0-1.89-1.21l-.64-.84a5,5,0,0,1-.54-1.53,12.32,12.32,0,0,0-.32-1.42,4.16,4.16,0,0,0-.65-1.89Zm34.31-27.36c-1,1.4-2,2.88-2.91,4.42a10.7,10.7,0,0,1,1.46-.11,10.5,10.5,0,0,0,1.45-.1q3.76-.21,7-.53t7-1.05q-.86-3.9-1.88-7.95t-2.21-8.15l-.53,1.05a72.18,72.18,0,0,0-5.17,6.1,50.51,50.51,0,0,0-4.08,6.21Z" transform="translate(0 -4.08)"/><path class="cls-1" d="M1001,270.41a3.4,3.4,0,0,0-1.29,2.15c-.14.88-.32,1.74-.53,2.58a5.09,5.09,0,0,1-1.13,2.16,3.46,3.46,0,0,1-2.85.79c-.29.35-.34.56-.16.63s.34.39.48.95a3.26,3.26,0,0,0-2.15.21,4.81,4.81,0,0,1-1.62.63,8.51,8.51,0,0,1-4.14-2.68,23.42,23.42,0,0,1-2.9-4.27,39.29,39.29,0,0,1-2.15-4.73,34.86,34.86,0,0,0-1.88-4.21c0-.28.12-.41.37-.37a4.51,4.51,0,0,0,.7.05,9.18,9.18,0,0,1-.8-2.37,4.46,4.46,0,0,0-1-2.15q3.12-6.52,6.67-13.63t7.16-14.42q3.6-7.32,7.2-14.73t6.94-14.58a50.12,50.12,0,0,1,5.86,2.47,29,29,0,0,1,5.22,3.32,19.84,19.84,0,0,1,4,4.36,14.43,14.43,0,0,1,2.21,5.64q-.23.63-.54.42t-.54.21a2.77,2.77,0,0,1,.59.89.88.88,0,0,1,0,.53,1.64,1.64,0,0,0-.11.68,2.25,2.25,0,0,0,.54,1.16.74.74,0,0,0-.76.16c-.14.17-.39.19-.75.05a4.06,4.06,0,0,1,.32,2.32,5.31,5.31,0,0,1-.64,1.52,7.09,7.09,0,0,0-.7,1.47,3.56,3.56,0,0,0,.16,2.16.82.82,0,0,0-.59.16,1.26,1.26,0,0,0-.27.37,1.41,1.41,0,0,1-.27.37c-.11.1-.3.12-.59,0a35,35,0,0,1,.22,5.52c-.08,1.86-.15,3.76-.22,5.69s-.07,3.91,0,5.94a33.36,33.36,0,0,0,.86,6.32,22,22,0,0,0,7.48-6.84,36.77,36.77,0,0,0,4.51-9.37,71.81,71.81,0,0,0,2.58-11.05q.91-5.9,1.89-12a8.64,8.64,0,0,0,1.88-2.84,28.9,28.9,0,0,0,1.18-3.47c.32-1.19.65-2.4,1-3.63a13.33,13.33,0,0,1,1.34-3.32,7.13,7.13,0,0,1,3.28,1.11,18.69,18.69,0,0,1,2.53,2,28.38,28.38,0,0,0,2.48,2.05,7.36,7.36,0,0,0,3.22,1.26q1.51,2.11,2.8,4.05a11.54,11.54,0,0,1,1.72,4.37,8.55,8.55,0,0,0-1,2.32c-.21.84-.45,1.68-.7,2.52a9.72,9.72,0,0,1-1,2.32,5.51,5.51,0,0,1-1.83,1.79,47.05,47.05,0,0,1-1,5.89c-.44,1.83-.83,3.61-1.19,5.37s-.68,3.58-1,5.47a35.08,35.08,0,0,0-.32,6.21c-.64,2-1.36,4.12-2.15,6.26a39.07,39.07,0,0,0-1.72,6,11.48,11.48,0,0,0-3.23,3.89q-1.18,2.33-2.47,4.63c-.36.28-.58.34-.65.16s-.39-.3-1-.37c.07.63-.06,1-.38,1.21s-.31.69,0,1.53a11.32,11.32,0,0,0-3.22,2.21,25.35,25.35,0,0,1-3.07,2.53,9.33,9.33,0,0,1-3.87,1.52,12,12,0,0,1-5.76-.89,53,53,0,0,1-9.46-8.74,38.23,38.23,0,0,1-6.67-11.68,2.57,2.57,0,0,0-1.61,1.37,21.07,21.07,0,0,0-1,2.21c-.29.77-.58,1.47-.86,2.1a1.39,1.39,0,0,1-1.29.95,4.62,4.62,0,0,1-.81,1.74c-.39.52-.77,1.05-1.13,1.57a5.74,5.74,0,0,0-.8,1.74A3,3,0,0,0,1001,270.41Z" transform="translate(0 -4.08)"/><path class="cls-1" d="M1067,271.14a18.51,18.51,0,0,1-5.11-5.79,33.23,33.23,0,0,1-3.12-7.36,42.87,42.87,0,0,1-1.51-8.05A67.69,67.69,0,0,1,1057,242a28.55,28.55,0,0,1,2.37-5.21,38.75,38.75,0,0,1,3.12-4.53q1.72-2.15,3.6-4.1c1.26-1.3,2.49-2.61,3.71-4a2.33,2.33,0,0,1,1.19.32,5.23,5.23,0,0,1,1.29-2,14.84,14.84,0,0,1,1.83-1.53l1.93-1.36a6.39,6.39,0,0,0,1.61-1.63,19.07,19.07,0,0,0,4.79-1.79,44.8,44.8,0,0,0,4-2.53q1.93-1.37,4-2.53a18.26,18.26,0,0,1,4.74-1.79,8.31,8.31,0,0,1,2.42-1.78c1-.49,1.93-1,2.9-1.37s1.9-.88,2.8-1.37a6.3,6.3,0,0,0,2.2-2,1.67,1.67,0,0,0,1.83.58c.79-.18,1.51-.37,2.15-.58a1.39,1.39,0,0,1,1.08.21,8.7,8.7,0,0,1,.8.68,2.08,2.08,0,0,0,.65.48c.18.07.38-.14.59-.63.57.07.73.31.48.73s-.41.71-.48.85a2,2,0,0,1,1.77.36,4.4,4.4,0,0,0,2.21.79c.36.36.47.63.32.84a2.77,2.77,0,0,0-.32,1.06q3.87,1.15,5,3.63a7.16,7.16,0,0,1,.21,5.16,12.1,12.1,0,0,1-3.17,4.94,11.42,11.42,0,0,1-5.11,3q-3.33.84-6.18,1.69t-5.49,1.89a31.74,31.74,0,0,0-5,2.47,18.45,18.45,0,0,0-4,3.32,21.46,21.46,0,0,0-5.43,2.31,35.43,35.43,0,0,0-4.52,3.27q-2.1,1.79-4,3.73t-3.87,3.84a4.84,4.84,0,0,1-.65,2.74c-.43.63-.9,1.26-1.4,1.89a10.16,10.16,0,0,0,.92,3.42c.46.95,1,1.92,1.45,2.9a81.81,81.81,0,0,0,18.23,3.1q9.63.58,19.09.69a16.91,16.91,0,0,0,2.21,2.36,28.26,28.26,0,0,1,2.25,2.27,9.05,9.05,0,0,1,1.62,2.68,7.13,7.13,0,0,1,.27,3.63,40.32,40.32,0,0,1-4,3.42c-1.44,1.09-2.87,2.16-4.31,3.21a12.64,12.64,0,0,1-2.31,0c-.9-.07-1.83-.1-2.79-.1a25.8,25.8,0,0,0-2.91.16,9.92,9.92,0,0,0-2.74.68,83.72,83.72,0,0,1-13.88-1.63,112,112,0,0,1-13.12-3.42,35.54,35.54,0,0,0-2.47-2.58A7.52,7.52,0,0,0,1067,271.14Z" transform="translate(0 -4.08)"/><path class="cls-1" d="M1129.23,276.72a5,5,0,0,1-1.24-2,3.36,3.36,0,0,0-1.77-1.89c-.14-1.06-.34-2.27-.59-3.63s-.5-2.78-.75-4.21a42.48,42.48,0,0,1-.54-4.32,15.38,15.38,0,0,1,.16-3.95,6.35,6.35,0,0,1,.7-1.78c.32-.57.64-1.11,1-1.64a7.27,7.27,0,0,0,.75-1.63,2.92,2.92,0,0,0,0-1.68.92.92,0,0,0,.81-.69q.17-.57,1-.36c.5-1.55,1-3,1.61-4.32s1.19-2.63,1.83-3.89,1.31-2.55,2-3.84a33.74,33.74,0,0,0,1.88-4.37,10.44,10.44,0,0,1-2.63-3.63,23.13,23.13,0,0,1-1.24-3.95,38.8,38.8,0,0,1-.64-4.05,22.65,22.65,0,0,0-.86-4.16,11.22,11.22,0,0,1,3.12-3.1,18,18,0,0,1,4-2,30.68,30.68,0,0,1,4.79-1.27q2.58-.47,5.48-1.1c3.44-1,6.53-1.88,9.25-2.47s5.38-1.09,8-1.48,5.27-.73,8.07-1.05,6-.79,9.68-1.42c.07.21.19.32.37.32h.7a1.19,1.19,0,0,0,1.19.73,2.65,2.65,0,0,0-.06-.58,2,2,0,0,1,0-.47,2.42,2.42,0,0,1,.59.11c.25.07.46.14.65.21a.46.46,0,0,0,.48-.06c.14-.1.18-.33.11-.68a11.37,11.37,0,0,0,3.33,3.63,24.73,24.73,0,0,0,4.52,2.47,6.23,6.23,0,0,1,0,1.37,4.6,4.6,0,0,1-.16.79,3.11,3.11,0,0,0-.11.84,5.4,5.4,0,0,0,.22,1.32,14.73,14.73,0,0,1-3.93,4.42,18,18,0,0,1-4.68,2.42,30.51,30.51,0,0,1-5.21,1.26q-2.75.42-5.6.9a49.4,49.4,0,0,0-5.75,1.31,23.91,23.91,0,0,0-5.7,2.53,3.83,3.83,0,0,0-1.56-.27,7.83,7.83,0,0,0-1.45.27c-.5.14-1.06.28-1.67.42a5.77,5.77,0,0,1-2.2,0,5.22,5.22,0,0,1-2,1.05l-2.32.63a5,5,0,0,1,.49,2.32,4.79,4.79,0,0,0,.27,2,55.9,55.9,0,0,0,10-.06q5.49-.47,10.75-.68a.78.78,0,0,1-.1.74,1,1,0,0,0-.22.73,9.26,9.26,0,0,1,1.83,1.58c.57.63,1.17,1.25,1.78,1.84a9.77,9.77,0,0,0,1.88,1.48,3.74,3.74,0,0,0,2.26.47,8.24,8.24,0,0,1,.75,2.21,4.25,4.25,0,0,1-.32,2.42c-1.44.92-2.84,1.84-4.2,2.79a39.1,39.1,0,0,1-4.25,2.58,25.05,25.05,0,0,1-4.78,1.89,17.77,17.77,0,0,1-5.6.64h-.91a1.54,1.54,0,0,1-.91-.43,5.29,5.29,0,0,1-2.85.37,6,6,0,0,0-3,.37,10.64,10.64,0,0,0-3.5-.53,10.59,10.59,0,0,1-3.49-.52q-1.93,2.73-3.66,5.73a45.43,45.43,0,0,0-3,6.37,42.66,42.66,0,0,0,7.31.53q2.91-.11,5.49-.42l5.32-.63a49,49,0,0,1,6.72-.21,20.78,20.78,0,0,1,6.19-1.74,39.92,39.92,0,0,0,6.51-1.42,3.69,3.69,0,0,1,1.82,1.21c.5.59,1,1.19,1.46,1.79a9.6,9.6,0,0,0,1.45,1.52,2.21,2.21,0,0,0,1.93.42,2.47,2.47,0,0,1,.7,1.27c.11.49.22.94.33,1.37a2.28,2.28,0,0,0,.48,1,1.32,1.32,0,0,0,1.18.26,20.17,20.17,0,0,1-4.57,6.31,18.35,18.35,0,0,1-5.7,3.42,33,33,0,0,1-7.1,1.79q-3.93.58-8.76,1.42a4,4,0,0,1-2-.05,5.55,5.55,0,0,0-1.67-.26q-3,.52-7.15,1.05a55.23,55.23,0,0,1-8.34.42,37.91,37.91,0,0,1-8.06-1.05A14.14,14.14,0,0,1,1129.23,276.72Z" transform="translate(0 -4.08)"/><path class="cls-2" d="M145.14,143.56v14.22a26.72,26.72,0,0,1,4-7.46A25.07,25.07,0,0,1,168,140.14a25.55,25.55,0,0,1-4.9,21,25.27,25.27,0,0,1-17.93,10.11v9.26c-1,.88-2,1.78-3,2.69l-.1.09c-.9-.84-1.83-1.68-2.76-2.5v-9.54a25.27,25.27,0,0,1-17.94-10.11,25.58,25.58,0,0,1-4.9-21,25.09,25.09,0,0,1,18.81,10.16,27.4,27.4,0,0,1,4,7.46v-14.2a25.27,25.27,0,0,1-17.94-10.11,25.58,25.58,0,0,1-4.9-21,25.09,25.09,0,0,1,18.81,10.16,27.13,27.13,0,0,1,4,7.46V115.9a25.21,25.21,0,0,1-17.89-10.12,25.58,25.58,0,0,1-4.9-21,25.06,25.06,0,0,1,18.81,10.16,26.72,26.72,0,0,1,4,7.46V93.65A24.5,24.5,0,0,1,142.18,57a24.5,24.5,0,0,1,2.93,36.7v8.81a26.59,26.59,0,0,1,4-7.46A25,25,0,0,1,168,84.84a25.55,25.55,0,0,1-4.9,21,25.22,25.22,0,0,1-17.93,10.1v14.21a26.72,26.72,0,0,1,4-7.46A25.07,25.07,0,0,1,168,112.49a25.55,25.55,0,0,1-4.9,21,25.25,25.25,0,0,1-18,10.07Z" transform="translate(0 -4.08)"/><path class="cls-3" d="M195.69,137.7v10.43a19.87,19.87,0,0,1,17.6-12.93,17.87,17.87,0,0,1-2.9,14.2,148.91,148.91,0,0,0-25.08,7.17,20.08,20.08,0,0,1-7.91-6,18.11,18.11,0,0,1-3.78-15.39,19.88,19.88,0,0,1,17.61,12.93V137.7a19.7,19.7,0,0,1-13.83-7.42,18.11,18.11,0,0,1-3.78-15.39,19.9,19.9,0,0,1,17.61,12.94V117.39A19.7,19.7,0,0,1,177.4,110a18.11,18.11,0,0,1-3.78-15.39,19.9,19.9,0,0,1,17.61,12.94v-6.47a17.44,17.44,0,0,1,2.25-26.95,17.46,17.46,0,0,1,2.25,27v6.47a19.15,19.15,0,0,1,3.1-5.48,19.57,19.57,0,0,1,14.5-7.46A18,18,0,0,1,209.55,110a19.67,19.67,0,0,1-13.82,7.42v10.44a19.15,19.15,0,0,1,3.1-5.48,19.57,19.57,0,0,1,14.5-7.46,18,18,0,0,1-3.78,15.39,19.71,19.71,0,0,1-13.86,7.37Zm-102.75,0v10.43a19.87,19.87,0,0,1,17.6-12.93,18.08,18.08,0,0,1-3.78,15.39,20.12,20.12,0,0,1-7.9,6,148.43,148.43,0,0,0-25.14-7.19,18,18,0,0,1-2.89-14.19,19.92,19.92,0,0,1,17.61,12.93V137.7a19.7,19.7,0,0,1-13.83-7.42,18.11,18.11,0,0,1-3.78-15.39,19.57,19.57,0,0,1,14.5,7.46,19.18,19.18,0,0,1,3.11,5.48V117.39A19.7,19.7,0,0,1,74.61,110a18.11,18.11,0,0,1-3.78-15.39A19.57,19.57,0,0,1,85.33,102a19.18,19.18,0,0,1,3.11,5.48v-6.47A17.44,17.44,0,0,1,90.69,74.1a17.46,17.46,0,0,1,2.25,27v6.47a19.15,19.15,0,0,1,3.1-5.48,19.57,19.57,0,0,1,14.5-7.46A18,18,0,0,1,106.76,110a19.67,19.67,0,0,1-13.82,7.42v10.44A19.15,19.15,0,0,1,96,122.4a19.57,19.57,0,0,1,14.5-7.46,18,18,0,0,1-3.78,15.39A19.69,19.69,0,0,1,92.94,137.7Z" transform="translate(0 -4.08)"/><path class="cls-4" d="M168.73,250.34h-.08l-.28-.13c-4-1.82-42-19.51-95.21-67.61,0,0,27.18,46.71,80.07,70.55a104.25,104.25,0,0,1-11.17.63c-53.94,0-97.66-43.5-97.66-97.11,0-1.23,0-2.45.07-3.67a2.35,2.35,0,0,1,.05-.59c40.37.28,76.19,15.93,98.88,40,15.18,16.12,24.48,36,25.32,57.67v.25Z" transform="translate(0 -4.08)"/><path class="cls-4" d="M239.73,156.67a97.2,97.2,0,0,1-65.5,91.69,88.45,88.45,0,0,0-3.56-20.29c26.48-21.95,40.08-45.14,40.29-45.5a554.87,554.87,0,0,1-43.79,35.86,98.84,98.84,0,0,0-14.84-24.16c-1.52-1.84-3.11-3.65-4.78-5.41-.52-.55-1-1.1-1.58-1.64,22.76-21.13,56.25-34.57,93.64-34.83v.53c.09,1.24.12,2.49.12,3.75Z" transform="translate(0 -4.08)"/><path class="cls-5" d="M239.61,152.39c-40.53,7.56-68.4,24.32-87.28,41.88-1.52-1.84-3.11-3.65-4.78-5.41-.52-.55-1-1.1-1.58-1.64C168.73,166.09,202.22,152.65,239.61,152.39ZM153.23,253.12a104.25,104.25,0,0,1-11.17.63c-53.94,0-97.66-43.47-97.66-97.08,0-1.23,0-2.45.07-3.67C44.47,153,59.27,241.78,153.23,253.12Z" transform="translate(0 -4.08)"/><path class="cls-4" d="M69.78,67.7,53.17,45.78A142.37,142.37,0,0,0,30.48,68.6,140.43,140.43,0,0,0,8.14,109l26.34,8.22A114.69,114.69,0,0,1,69.78,67.7ZM27.67,155.78a113,113,0,0,1,4-30L5.28,117.56A141.37,141.37,0,0,0,3.92,188.9l32.13,9.7A112.91,112.91,0,0,1,27.67,155.78Z" transform="translate(0 -4.08)"/><path class="cls-5" d="M142.1,269.55a114.44,114.44,0,0,1-89.45-42.77l5.18-4.71a5,5,0,0,0-1.92-8.43L15.83,201.47a5,5,0,0,0-6.32,5.95L19.34,247a5,5,0,0,0,8.24,2.48l4.6-4.18a142.69,142.69,0,0,0,207.73,12.93l-7.51-32.59a114.53,114.53,0,0,1-90.3,43.88Z" transform="translate(0 -4.08)"/><path class="cls-6" d="M281.25,207.93,275.12,206q2.07-5.43,3.69-11h-.16a140.65,140.65,0,0,0,5.54-39.21C284.19,91.91,241.54,38,183,20.48L158.64,43.26c55.36,8,97.88,55.32,97.88,112.52a112.91,112.91,0,0,1-8,41.76l.24.07-6.59-2.09a5,5,0,0,0-6.4,5.86l9.4,40.58a5,5,0,0,0,8.34,2.48l29.65-28.21a5,5,0,0,0-1.91-8.3Z" transform="translate(0 -4.08)"/><path class="cls-4" d="M77,62.25a114.23,114.23,0,0,1,48.6-19l1.45,6.69a5,5,0,0,0,8.3,2.6l30.73-28.3a5,5,0,0,0-2-8.42L124.74,4.29a5,5,0,0,0-6.31,5.83l1.35,6.18a141.76,141.76,0,0,0-59.41,24Z" transform="translate(0 -4.08)"/></g></g></svg>