<?xml version="1.0" encoding="utf-8"?>
<!-- Generator: Adobe Illustrator 25.0.0, SVG Export Plug-In . SVG Version: 6.00 Build 0)  -->
<svg version="1.1" id="Calque_1" xmlns="http://www.w3.org/2000/svg" xmlns:xlink="http://www.w3.org/1999/xlink" x="0px" y="0px"
	 viewBox="0 0 2304.3 293.8" style="enable-background:new 0 0 2304.3 293.8;" xml:space="preserve">
<style type="text/css">
	.st0{fill:#016242;}
	.st1{fill-rule:evenodd;clip-rule:evenodd;fill:#FFFFFF;}
	.st2{fill:#F57F17;}
	.st3{fill:#F9A825;}
	.st4{fill-rule:evenodd;clip-rule:evenodd;fill:#017F56;}
	.st5{fill-rule:evenodd;clip-rule:evenodd;fill:#016242;}
	.st6{fill-rule:evenodd;clip-rule:evenodd;fill:#00A46E;}
	.st7{fill:none;}
</style>
<g>
	<g>
		<g>
			<path class="st0" d="M353.9,95.1c-0.2-1.2-0.4-2.2-0.8-3.2c-0.4-0.9-0.8-2-1.2-3.2c-0.7-1.8-1.4-3.6-2-5.7
				c-0.6-2-0.9-4.5-0.9-7.2c0.3-1.5,0.7-2.5,1.1-3.2c0.4-0.7,0.9-1.2,1.3-1.6l0.9-3.9h3.4c1.2,0.1,2.4,0.2,3.7,0.2
				c1.3,0,2.5,0,3.7,0c5.7,0,11.5-0.2,17.5-0.7c6-0.4,12.1-0.9,18.4-1.5c6.9-0.9,14.3-1.5,22.2-2c0.7-1.6,1.2-2.6,1.5-3.1
				c0.2-0.4,0.5-0.9,0.8-1.5l2.5-1.3c3.4-0.1,5.8,0.3,7.2,1.2c1.3,1,2.4,1.9,3.1,2.7c3.9-0.3,7.8-0.7,11.9-1.2
				c4-0.5,8.2-1.1,12.5-1.6c6-0.7,12-1.5,18.1-2.2c6.1-0.7,12.1-1.1,17.9-1.1c2.5,0,4.9,0.1,7.2,0.2c2.2,0.1,4.4,0.4,6.5,0.7l2.7,2
				c0.6,1,1.3,2,2.2,2.8c0.9,0.9,1.9,1.8,3.1,2.6c2.2,1.8,4.4,3.9,6.6,6.6c2.2,2.6,2.9,6.5,2.4,11.6l-1.1,2.2
				c-0.6,0.6-1.3,1.2-2.2,1.8l-2.2,2.8h-2.5c-1.5,0-2.6,0.1-3.4,0.3c-0.7,0.2-1.6,0.5-2.7,1c-0.6,0.3-1.3,0.5-2,0.8
				c-0.7,0.2-1.6,0.5-2.5,0.8c-1.6-0.1-2.9-0.2-3.8-0.2c-0.9,0-1.9,0-3.1,0c-4.5,0-9.3,0.3-14.6,0.9c-5.2,0.6-10.3,1.2-15.2,2
				c-3.6,0.4-7,0.8-10.3,1.2c-3.3,0.4-6.3,0.7-9,1c-1.5,3.8-2.8,7.2-4,10.1c-1.2,2.9-2.5,5.8-3.8,8.8c-1.3,2.9-2.6,5.9-3.8,8.9
				c-1.2,3-2.3,6.3-3.4,10c-1.8,2.6-3.3,5.1-4.5,7.6c-1.2,2.4-2.2,5.1-2.9,8.2c-2.2,2.5-3.8,5.2-4.8,8.1c-1,2.9-1.8,5.4-2.6,7.4
				l-0.9,3.3c-1,1-1.7,1.8-1.9,2.4c-0.2,0.6-0.6,1.2-1.2,2c-0.4,1.9-1,3.7-1.8,5.5c-0.3,0.7-0.6,1.5-0.9,2.3
				c-0.3,0.8-0.4,1.4-0.2,1.9c-0.3,1.6-0.7,2.8-1.3,3.7c0,0.9-0.1,1.8-0.2,2.6c-0.2,0.9-0.3,1.8-0.4,2.6c-0.3,1-0.5,1.9-0.7,2.7
				c-0.2,0.8-0.1,1.6,0.2,2.3c0.4,0.6,0.9,1.2,1.3,1.8c0.4,0.6,0.8,1.3,1.1,2.2c0.3,0.3,0.7,0.5,1.1,0.7c0.4,0.1,0.8,0.4,1.1,0.7
				c1.2,1,2.3,1.6,3.4,1.8l2.2,2.6c0.9,5.3,0.1,9.3-2.5,12.3c-2.7,3.4-7.2,5-13.4,5l-3.1-0.2c-1-1-1.6-1.7-1.8-2
				c-1.3-0.6-2.5-1.1-3.4-1.4c-0.9-0.4-1.7-1.1-2.5-2.1c-0.3-0.3-0.7-0.5-1.1-0.5c-0.4-0.1-0.8-0.3-1.1-0.5
				c-1.5-0.4-2.7-0.9-3.6-1.5l-2.5-1.3c0.1-1.5,0.2-2.5,0.2-3.1c-1.2-1.6-2.1-3.4-2.8-5.3c-0.7-1.9-1.2-3.9-1.7-5.9
				c-0.4-1.6-0.9-3.1-1.2-4.4c-0.4-1.3-0.9-2.5-1.7-3.5c-0.3-10.2,0.7-18.8,2.9-25.7c2.2-6.9,4.7-13.7,7.4-20.3
				c1.5-3.5,2.9-7.1,4.3-10.7c1.3-3.6,2.5-7.4,3.6-11.2l2.5-2.4c1-0.9,1.7-1.4,2-1.5c0-1.9,0.4-3.8,1.1-5.6c0.7-1.8,1.6-3.7,2.5-5.6
				c0.6-1.2,1.2-2.3,1.7-3.5c0.5-1.2,0.9-2.2,1-3.1c-1,0-2,0-2.8,0.1c-0.8,0.1-1.7,0.2-2.6,0.3c-1.9,0.4-3.8,0.7-5.6,0.7
				c-1.3,0-2.3-0.1-2.9-0.2c-1.2,0.6-2.3,0.9-3.4,1c-1,0.1-2.1,0.1-3.1,0.1h-2.7h-2.7c-1.8,0-3.2,0.2-4.3,0.7c-2.1,0-3.4,0-4,0
				c-0.6,0-1.3,0-2,0h-2.7h-2.7c-1.2,0-2.5-0.1-4-0.3c-1.5-0.2-3.1-0.8-4.7-1.6l-1.6-1.8c-0.9-1.6-1.7-2.5-2.5-2.6l-2.5-0.7V95.1z"
				/>
			<path class="st0" d="M492.6,205.4c-0.5,0.1-1-0.3-1.4-1.1c-0.4-0.9-0.9-1.7-1.4-2.5h1.7c-0.7-2.2-0.9-4.3-0.5-6.2
				c0.4-1.9,0.8-3.7,1.3-5.5c0.5-1.8,1-3.5,1.3-5.2c0.4-1.7,0.2-3.4-0.5-5.3c0.5,0.3,0.9,0.2,1.2-0.4c0.3-0.6,0.5-1.3,0.6-2.1
				c0.2-0.9,0.2-1.8,0.2-2.8c-0.1-1-0.1-1.8-0.2-2.4c1.4-3.2,2.4-6.4,3.2-9.8c0.8-3.4,1.5-6.7,2.1-10c0.6-3.3,1.3-6.5,2.1-9.7
				c0.8-3.1,1.8-6.1,3.1-8.8c1.5-0.2,3,0,4.6,0.5c1.6,0.6,2.7,1.3,3.2,2.1c3.2-2.5,6.1-5.4,8.6-8.9c2.5-3.5,5-6.9,7.6-10.2
				c2.6-3.3,5.5-6.3,8.7-8.8c3.2-2.6,7.3-4.1,12.1-4.6c2.5,1.7,5.3,3.6,8.5,5.6c3.1,2,5.7,4.5,7.7,7.4c0.8,0.5,1.6,1,2.4,1.6
				c0.8,0.6,1.6,1.1,2.4,1.6v2.3c1.5,1.3,2.7,2.9,3.7,4.7c1,1.8,1.9,3.7,2.7,5.7c0.8,2,1.5,4,2.3,6.1c0.7,2,1.6,3.9,2.5,5.7
				c-0.2,0.6-0.3,1.2-0.2,1.6c0.1,0.5,0.2,0.9,0.3,1.4c0.2,0.5,0.3,1,0.4,1.5c0.1,0.6,0.2,1.3,0.2,2.1c-0.4,5.4-2.2,9.8-5.4,13.1
				c-3.2,3.3-7.1,6-11.6,8.1c-4.5,2.1-9.4,3.9-14.5,5.4c-5.1,1.5-9.8,3.1-13.9,4.8c0,0.4,0.2,0.6,0.7,0.6s0.6,0.3,0.4,0.9
				c3.1,1.8,5.6,3.3,7.3,4.4c1.7,1.1,3.3,2.1,4.9,2.8c1.5,0.8,3.2,1.4,5,1.9c1.8,0.5,4.4,1.1,7.6,1.8c3.2,0.7,5.8,1.3,7.6,1.8
				c1.8,0.5,3.5,0.8,4.9,1.1c1.5,0.3,3,0.5,4.7,0.7c1.7,0.2,3.9,0.5,6.7,0.8c1.1,1.1,2.1,2.5,2.8,4c0.7,1.5,1.3,3.1,1.6,4.6
				c0.3,1.5,0.4,3,0.2,4.4c-0.2,1.4-0.6,2.5-1.3,3.3c0.1,0.4,0.4,0.6,0.9,0.5c0.5-0.1,1,0,1.5,0.1c-0.7,0.5-1.4,1.1-1.9,1.8
				c-0.5,0.7-1,1.4-1.6,2.1c-0.5,0.7-1.1,1.4-1.8,2c-0.7,0.6-1.5,1-2.6,1.1c-3.8,1.4-8.6,1.5-14.4,0.2c-5.9-1.3-13.3-3.7-22.4-7.1
				c-4.5-1.6-8.1-3.1-11-4.4c-2.8-1.3-5.3-2.6-7.4-3.9c-2.1-1.3-4-2.7-5.8-4.1c-1.8-1.5-3.8-3.2-6.1-5.3c-0.3,0.1-0.5,0.3-0.5,0.6
				c-0.1,0.3-0.2,0.5-0.5,0.6c-0.5,4.1-1.3,7.4-2.4,10c-1.1,2.6-2.7,5.2-4.8,7.8c-1.7-0.3-2.8-0.2-3.4,0.5c-0.6,0.6-1.3,1.2-2.1,1.7
				c-1,0.2-1.8,0.2-2.4-0.1c-0.5-0.3-1-0.5-1.4-0.8c-0.4-0.3-0.9-0.6-1.4-0.9c-0.5-0.3-1.4-0.4-2.5-0.3c-0.3-0.9-0.6-1.8-0.9-2.7
				c-0.3-0.9-1.2-1.3-2.5-1.2c0.3-0.9,0.4-1.7,0.3-2.4c-0.1-0.7-0.3-1.3-0.5-1.8c-0.2-0.6-0.4-1.1-0.5-1.8
				C492.2,207,492.3,206.3,492.6,205.4z M545,135.4c-1.4,1.9-2.9,3.7-4.5,5.3c-1.7,1.6-3.3,3.2-4.9,4.9c-1.6,1.7-3.1,3.5-4.3,5.5
				c-1.3,2-2.1,4.4-2.7,7.1c4.4-0.5,9-1.7,13.8-3.6c4.8-1.9,9.3-3.7,13.6-5.4c-0.5-3.8-1.9-6.8-4.1-9.1
				C549.7,137.7,547.4,136.2,545,135.4z"/>
			<path class="st0" d="M589.8,220.5c-1.5-0.9-2.6-2.1-3.5-3.5c-0.9-1.4-1.6-3-2.2-4.6c-0.6-1.6-1-3.3-1.4-5.1
				c-0.4-1.8-0.8-3.5-1.2-5.1c0-1.4,0.3-2.5,0.9-3.1c0.6-0.7,1.3-1.3,2-1.9c2.5-0.1,4.8-0.3,6.7-0.6c2-0.3,3.9-0.6,5.8-0.9
				s3.8-0.6,5.6-0.8c1.9-0.3,3.9-0.4,6.1-0.4c1.6-3.2,3-6.2,4.4-9.1c1.4-2.9,2.7-5.7,3.9-8.4c0.6-2.6,1.4-4.9,2.4-7.1
				c1-2.2,2-4.3,2.9-6.3s1.8-4,2.5-6c0.7-2,1.2-4.1,1.4-6.4c1.3-3.6,2.4-6.9,3.4-9.9c1-3,1.7-6.6,2.3-10.8c-4,0.6-7.2,1.2-9.6,1.8
				c-2.4,0.6-4.1,1.1-5.2,1.6c-2.1-0.1-3.7-0.5-4.9-1.2c-1.2-0.7-2.2-1.6-2.9-2.6c-0.7-1-1.4-2.2-1.9-3.5c-0.5-1.3-1.2-2.7-1.9-4.1
				c0.4-0.9,0.5-2.3,0.3-4.1c-0.2-1.8-0.8-3.1-1.9-3.9c0.8-0.2,1.5-0.9,1.9-2.1c0.4-1.2,0.5-2.1,0.2-2.7c1.8-0.5,3.7-0.8,5.6-1
				c2-0.2,3.9-0.3,5.9-0.5c1.9-0.2,3.8-0.4,5.6-0.6c1.8-0.3,3.3-0.8,4.5-1.6c5.4-0.2,11.1-0.4,17-0.6c5.9-0.2,11.4-0.5,16.4-0.8
				c1.9,0.6,4,0.9,6.5,0.9c2.5,0,4.9,0.2,7.4,0.5c2.5,0.3,4.6,1,6.6,2c1.9,1,3.3,2.8,4,5.4c1.6,0.2,2.7,0.6,3.5,1.2
				c0.8,0.6,1.3,1.4,1.5,2.2c0.2,0.9,0.3,1.8,0.2,2.9c-0.1,1.1-0.1,2.1-0.1,3.1c-1.7,1.2-3.8,2.2-6.3,3c-2.6,0.8-5.4,1.4-8.4,1.8
				c-3,0.5-6.2,0.8-9.5,0.9c-3.3,0.2-6.5,0.3-9.6,0.4c-0.5,3.4-1.4,7.3-2.7,11.9c-1.3,4.5-2.6,9-4,13.3c-1.4,4.3-2.5,8.2-3.5,11.7
				c-1,3.4-1.4,5.6-1.3,6.7c-1,2.4-1.9,4.3-2.6,6c-0.7,1.6-1.3,3.2-1.9,4.6c-0.6,1.4-1.2,2.8-1.7,4.2c-0.6,1.4-1.3,2.9-2.1,4.7h10.7
				c0.2,1.1,0.7,1.9,1.4,2.3c0.7,0.4,1.5,0.8,2.4,1.1c0.8,0.3,1.6,0.7,2.3,1.2c0.7,0.5,1,1.2,1,2.2c2,0.5,3.2,1.3,3.8,2.3
				c0.5,1,0.7,2.1,0.4,3.3c-0.3,1.2-0.8,2.4-1.6,3.6c-0.8,1.2-1.5,2.3-2.3,3.2c-0.9-0.2-1.8,0-2.7,0.7c-0.8,0.7-1.6,1.4-2.4,2.2
				c-3-0.4-6-0.5-8.9-0.2c-2.9,0.3-5.6,0.6-8.1,0.8c-0.5,0.1-0.7,0.4-0.6,0.8c0.1,0.5,0,0.8-0.3,1c-3.2-1-6.6-1.4-10-1.2
				c-3.4,0.2-6.8,0.7-10.3,1.5c-3.5,0.8-7.1,1.6-10.7,2.5C597.3,219.9,593.6,220.4,589.8,220.5z"/>
			<path class="st0" d="M676.9,175.4c0.1-0.4,0.3-0.6,0.7-0.5c0.4,0.1,0.7,0,1-0.1c-0.8-0.8-1.4-1.9-1.6-3.3
				c-0.2-1.4-0.7-2.5-1.6-3.5c0.2-0.5,0.4-1,0.5-1.5c0.2-0.5,0.6-0.7,1.3-0.6c-0.3-2.2-0.3-4.3,0.2-6.3c0.4-1.9,1.1-3.8,2-5.5
				c0.9-1.7,1.9-3.5,3.1-5.1c1.2-1.7,2.4-3.4,3.5-5.1c0.9-0.2,1.5-0.1,1.7,0.2c0.2,0.4,0.6,0.3,1.1-0.2c1.7-1.1,2.8-2.4,3.4-3.8
				c0.6-1.4,0.9-2.9,0.9-4.5c0.9-2.7,2-5.3,3.2-7.9c1.2-2.6,2.6-5,4.2-7.3c1.6-2.2,3.2-4.2,5-5.9c1.8-1.7,3.7-3,5.8-3.9
				c1.5-1.2,3.3-2.4,5.6-3.4c2.2-1,4.6-1.8,7.2-2.4c2.6-0.6,5.2-0.9,7.9-0.9c2.7-0.1,5.2,0.2,7.5,0.8c0.5,0.2,0.8,0.1,0.9-0.4
				c0.1-0.5,0.4-0.7,0.8-0.7c5.2,0.6,9.9,1.6,14,3.1c4.1,1.4,7.7,3.4,10.6,6c2,3.1,3.9,6.4,5.6,9.9c1.8,3.5,3.2,7.2,4.2,11
				c1,3.8,1.4,7.8,1.3,11.9c-0.1,4.1-1,8.2-2.7,12.3c-3.7,4.5-8.1,8.1-13.3,10.8c-5.2,2.7-10.8,5-16.8,6.7c-6,1.8-12.2,3.2-18.6,4.4
				c-6.4,1.1-12.7,2.4-18.7,3.7c0.1,2.8,0.1,5.7,0,8.8c-0.1,3.1-0.4,6.2-1,9.4c-0.6,3.1-1.4,6.2-2.5,9.1c-1.1,3-2.6,5.7-4.5,8.3
				c-2.1-0.1-4.3,0.1-6.5,0.6c-2.2,0.5-4.3,1-6,1.5c-0.8-0.5-1.6-1-2.4-1.5c-0.8-0.5-1.8-0.7-2.9-0.8c0.3-1.2,0-2.5-0.9-3.8
				c-0.9-1.3-1.8-2.6-2.7-3.9c-0.9-1.3-1.5-2.6-1.7-3.8c-0.3-1.3,0.3-2.4,1.8-3.5c-0.8-0.7-1.3-1.8-1.3-3.4c0.4,0.4,0.9,0.6,1.6,0.6
				c-0.2-1.8,0-4,0.7-6.6c0.7-2.6,1.3-5.1,1.7-7.6c0.5-2.5,0.5-4.8,0.2-6.9C680.4,177.8,679.1,176.3,676.9,175.4z M717.7,139.5
				c-0.4,1.1-0.8,2.1-1,3c-0.3,0.9-0.5,1.7-0.9,2.4c-0.3,0.7-0.7,1.4-1,2.1c-0.4,0.7-0.8,1.5-1.2,2.5c0.2,0.6,0.6,1.1,1.3,1.4
				s1,0.8,1.3,1.4c1.5-0.7,2.9-1.2,4.4-1.6c1.5-0.4,2.9-0.6,4.4-0.8c1.5-0.2,2.9-0.5,4.4-0.8c1.5-0.3,3-0.8,4.5-1.5
				c1.6-0.7,3.2-1.3,4.9-1.8s3.4-0.9,5.1-1.5c1.7-0.5,3.3-1.1,4.9-1.8c1.6-0.7,2.9-1.6,4.1-2.7c-1.5-1.3-3.7-2.5-6.6-3.5
				c-2.9-1-6.1-1.7-9.5-1.9c-3.4-0.3-6.8,0-10.2,0.7C723.1,135.8,720.2,137.3,717.7,139.5z"/>
			<path class="st0" d="M781.4,213c-0.4-0.4-0.8-0.9-1.1-1.5c-0.3-0.6-0.6-1.3-0.8-2.2c-1.5-1.7-2.6-3.7-3.4-6
				c-0.8-2.2-1.4-4.6-1.7-7c-0.3-2.4-0.4-4.8-0.2-7.3c0.2-2.5,0.6-4.8,1.1-6.9c0.3-1,0.6-2.1,0.8-3.2c0.5-1.9,1-3.9,1.6-5.8
				c0.5-1.9,1.3-3.5,2.4-4.7c-0.4-1.1-0.4-2.4,0.2-3.7c0.5-1.3,1-2.6,1.6-3.7c0.2-0.3,0.4-0.6,0.5-0.8c0.1-0.3,0.2-0.5,0.3-0.7
				c1.3-3.6,2.5-7,3.7-10.3c1.2-3.3,2.4-6.5,3.5-9.6c2.1-5.6,4.1-11.1,6-16.6c1.9-5.4,3.7-11.2,5.2-17.3c0.8-0.6,1.6-1,2.2-1.2
				c0.2-0.1,0.5-0.2,0.8-0.3c0.3-0.1,0.7-0.2,1.1-0.2c2.2,1.1,4.8,2.2,7.8,3.1c3,1,5.5,1.5,7.6,1.5l2.7,2.3c1.4,1.5,2.5,3.1,3.5,4.8
				c1,1.7,1.3,3.9,0.9,6.5c-0.6,0.9-1.2,1.5-1.6,1.7c-0.6,2.4-1.3,4.4-2,6.2c-0.7,1.8-1.5,3.5-2.2,5.1c-0.8,1.8-1.6,3.7-2.4,5.5
				c-0.7,1.8-1.4,4.1-1.9,6.7c-0.6,0.7-1,1.3-1.2,1.8c-0.2,0.5-0.3,1-0.5,1.5c-0.2,0.6-0.5,1.3-0.8,1.9c-0.3,0.7-0.8,1.3-1.4,1.8
				c-0.4,3.2-1,5.8-1.9,7.7c-0.8,2-1.7,4-2.5,5.9c-1.5,3.6-2.8,7.1-4.1,10.7c-1.3,3.5-2,7.5-2.2,12c1.3-0.3,2.4-0.5,3.4-0.5
				c1.4,0,2.7,0.2,3.9,0.6c3.8-1.8,7.9-3,12.3-3.4c4.4-0.4,8.9-0.7,13.2-0.8c3.7,0,7.1-0.2,10.2-0.5c1,0.7,1.7,1.1,2,1.2
				c0.3,0.1,0.8,0.1,1.6,0.1c0.3,0,0.6,0,0.9,0s0.7,0.1,1.3,0.2c1.5,1.4,2.9,2.4,4.2,3c1.4,0.6,2.8,1.1,4.4,1.6c1.4,0.5,2.7,1,4,1.6
				c1.3,0.6,2.6,1.3,3.8,2.2l1.4,7.8c0.8,1.1,1.2,1.9,1.1,2.3c0,0.8-0.2,1.5-0.6,2.1l0.3,2c-2,0.4-3.3,0.8-3.9,1.3
				c-0.6,0.5-1.3,1-2,1.8c-1.2,0.1-2.2,0.2-3.3,0.2c-2.1,0-4.2,0.3-6.4,0.9c-3.1-1.1-6.6-1.7-10.3-1.7c-1.5,0-3,0.1-4.5,0.2
				c-1.5,0.1-3,0.3-4.5,0.5c-1.6,0.2-3.1,0.4-4.7,0.5c-1.6,0.2-3.1,0.2-4.7,0.2c-1.3,0.2-2.1,0.4-2.7,0.5c-0.5,0.1-1,0.3-1.6,0.5
				c-3.6,1.1-7.4,2.2-11.5,3.4c-4.1,1.1-8.3,1.7-12.5,1.7c-6.2,0-11.1-1.5-14.9-4.6c-0.4-0.9-0.7-1.5-0.9-1.8
				C781.9,213.7,781.7,213.4,781.4,213z"/>
			<path class="st0" d="M882.8,213.4c-0.8-0.8-1.4-1.8-1.8-2.9c-0.4-1.1-1.2-2-2.6-2.8c-0.2-1.5-0.5-3.3-0.9-5.3
				c-0.4-2-0.7-4-1.1-6.1c-0.4-2.1-0.6-4.2-0.8-6.3c-0.2-2.1-0.1-4,0.2-5.8c0.2-0.9,0.5-1.8,1-2.6c0.5-0.8,0.9-1.6,1.4-2.4
				c0.5-0.8,0.8-1.6,1.1-2.4c0.3-0.8,0.3-1.6,0.1-2.5c0.6-0.1,1-0.4,1.2-1c0.2-0.6,0.7-0.7,1.5-0.5c0.7-2.2,1.5-4.3,2.4-6.3
				c0.8-1.9,1.7-3.8,2.7-5.7c0.9-1.8,1.9-3.7,2.9-5.6c1-1.9,1.9-4,2.7-6.4c-1.8-1.6-3.1-3.4-3.8-5.3c-0.8-1.9-1.4-3.8-1.8-5.8
				c-0.4-1.9-0.7-3.9-0.9-5.9c-0.2-2-0.6-4-1.3-6.1c1.3-1.8,2.8-3.3,4.5-4.5c1.8-1.2,3.7-2.1,5.9-2.9c2.1-0.8,4.5-1.4,7-1.8
				c2.5-0.5,5.2-1,8-1.6c5-1.5,9.5-2.7,13.5-3.6c4-0.9,7.8-1.6,11.6-2.1c3.8-0.6,7.7-1.1,11.8-1.5s8.8-1.1,14.1-2.1
				c0.1,0.3,0.3,0.5,0.5,0.5c0.3,0,0.6,0,1,0c0.3,0.7,0.9,1.1,1.7,1.1c0-0.3,0-0.6-0.1-0.8c-0.1-0.3-0.1-0.5-0.1-0.7
				c0.2,0,0.5,0.1,0.9,0.2c0.4,0.1,0.7,0.2,0.9,0.3c0.3,0.1,0.5,0.1,0.7-0.1c0.2-0.2,0.3-0.5,0.2-1c1.3,2.1,2.9,3.9,4.9,5.3
				c2,1.4,4.2,2.6,6.6,3.6c0.1,0.9,0.1,1.6,0.1,2c-0.1,0.4-0.1,0.8-0.2,1.1c-0.1,0.4-0.2,0.8-0.2,1.2s0.1,1.1,0.3,1.9
				c-1.7,2.8-3.6,4.9-5.7,6.4c-2.1,1.5-4.4,2.7-6.8,3.5c-2.4,0.8-4.9,1.4-7.6,1.8c-2.7,0.4-5.4,0.8-8.1,1.3
				c-2.8,0.5-5.6,1.1-8.4,1.9c-2.8,0.8-5.6,2-8.3,3.7c-0.8-0.3-1.6-0.4-2.3-0.4c-0.7,0.1-1.4,0.2-2.1,0.4c-0.7,0.2-1.5,0.4-2.4,0.6
				c-0.9,0.2-2,0.2-3.2,0c-0.8,0.7-1.8,1.2-2.9,1.5s-2.2,0.6-3.4,0.9c0.5,1.1,0.8,2.2,0.7,3.4c-0.1,1.1,0.1,2.1,0.4,2.9
				c4.4,0.4,9.2,0.4,14.6-0.1c5.3-0.5,10.6-0.8,15.7-1c0.1,0.5,0.1,0.9-0.2,1.1c-0.2,0.2-0.3,0.6-0.3,1.1c0.9,0.6,1.8,1.4,2.7,2.3
				c0.8,0.9,1.7,1.8,2.6,2.7c0.9,0.9,1.8,1.6,2.7,2.1c0.9,0.6,2,0.8,3.3,0.7c0.5,1,0.9,2.1,1.1,3.2c0.2,1.1,0.1,2.3-0.5,3.5
				c-2.1,1.3-4.1,2.7-6.1,4.1c-2,1.4-4,2.6-6.2,3.8c-2.1,1.1-4.5,2-7,2.8c-2.5,0.7-5.2,1-8.1,0.9c-0.5,0-1,0-1.3,0
				c-0.4,0-0.8-0.2-1.3-0.6c-1,0.5-2.4,0.7-4.2,0.5s-3.2,0-4.3,0.5c-1.5-0.5-3.2-0.8-5.1-0.8c-1.9,0-3.6-0.3-5.1-0.8
				c-1.9,2.7-3.7,5.4-5.3,8.4c-1.7,2.9-3.1,6-4.4,9.3c4.3,0.6,7.8,0.9,10.7,0.8c2.8-0.1,5.5-0.3,8-0.6c2.5-0.3,5.1-0.6,7.8-0.9
				s5.9-0.4,9.8-0.3c2.6-1.2,5.6-2.1,9-2.5c3.4-0.5,6.6-1.2,9.5-2.1c1,0.3,1.9,0.9,2.7,1.8c0.7,0.9,1.4,1.7,2.1,2.6
				c0.7,0.9,1.4,1.6,2.1,2.2c0.7,0.6,1.7,0.8,2.8,0.6c0.5,0.5,0.9,1.1,1,1.8c0.2,0.7,0.3,1.4,0.5,2c0.2,0.6,0.4,1.1,0.7,1.5
				c0.3,0.4,0.9,0.5,1.7,0.4c-2,4-4.2,7.1-6.7,9.2c-2.5,2.1-5.2,3.8-8.3,5c-3.1,1.2-6.5,2-10.3,2.6c-3.8,0.6-8.1,1.3-12.8,2.1
				c-1.2,0.2-2.1,0.2-2.9-0.1c-0.8-0.3-1.6-0.4-2.4-0.4c-2.9,0.5-6.4,1-10.4,1.5c-4,0.5-8.1,0.7-12.1,0.6c-4.1-0.1-8-0.6-11.8-1.5
				S885.3,215.8,882.8,213.4z"/>
			<path class="st0" d="M1069.6,156.9c0.1-0.6,0.5-0.8,1-0.8c0.5,0.1,1,0,1.5-0.1c-1.2-1.2-1.9-2.7-2.2-4.7c-0.3-2-1-3.6-2.2-4.9
				c0.3-0.7,0.6-1.5,0.8-2.2c0.2-0.7,0.9-1,1.9-0.9c-0.4-3.2-0.4-6.2,0.2-9c0.6-2.8,1.5-5.4,2.8-7.9c1.3-2.5,2.8-4.9,4.5-7.3
				c1.7-2.4,3.4-4.9,5-7.3c1.3-0.3,2.2-0.2,2.5,0.3c0.3,0.5,0.8,0.4,1.6-0.3c2.4-1.6,4-3.4,4.9-5.4c0.9-2,1.3-4.1,1.3-6.5
				c1.3-3.8,2.9-7.6,4.6-11.3c1.7-3.7,3.7-7.2,5.9-10.4c2.2-3.2,4.6-6,7.2-8.4c2.5-2.4,5.3-4.3,8.3-5.6c2.1-1.8,4.7-3.4,7.9-4.8
				c3.2-1.5,6.6-2.6,10.3-3.4c3.7-0.8,7.4-1.2,11.3-1.3c3.9-0.1,7.5,0.3,10.7,1.2c0.7,0.3,1.2,0.1,1.3-0.5c0.1-0.7,0.5-1,1.1-1
				c7.5,0.9,14.1,2.3,20,4.4c5.9,2,10.9,4.9,15.1,8.5c2.8,4.4,5.5,9.1,8.1,14.1c2.5,5,4.5,10.3,5.9,15.8c1.4,5.5,2,11.1,1.9,17
				c-0.2,5.8-1.4,11.7-3.8,17.5c-5.2,6.4-11.6,11.6-19,15.4c-7.5,3.9-15.5,7.1-24.1,9.6c-8.6,2.6-17.5,4.6-26.6,6.2
				c-9.2,1.6-18.1,3.4-26.8,5.3c0.1,3.9,0.1,8.1,0,12.6c-0.2,4.5-0.6,8.9-1.5,13.4c-0.8,4.5-2,8.8-3.6,13c-1.6,4.2-3.7,8.2-6.4,11.8
				c-3-0.1-6.1,0.1-9.3,0.9c-3.2,0.7-6.1,1.5-8.6,2.2c-1.2-0.7-2.4-1.4-3.5-2.1s-2.5-1.1-4.1-1.2c0.4-1.8,0-3.6-1.2-5.5
				c-1.3-1.9-2.5-3.8-3.8-5.6c-1.3-1.8-2.1-3.6-2.5-5.5c-0.4-1.8,0.5-3.5,2.6-4.9c-1.2-1-1.8-2.6-1.8-4.8c0.6,0.6,1.3,0.9,2.2,0.9
				c-0.3-2.6,0-5.8,1-9.4c1-3.6,1.8-7.3,2.5-10.8c0.7-3.6,0.8-6.9,0.3-9.9C1074.5,160.3,1072.7,158.2,1069.6,156.9z M1127.8,105.6
				c-0.6,1.6-1.1,3-1.5,4.3c-0.4,1.2-0.8,2.4-1.2,3.4c-0.4,1-0.9,2-1.5,3.1c-0.5,1-1.1,2.2-1.7,3.5c0.3,0.9,0.9,1.5,1.8,2
				s1.5,1.1,1.8,2c2.1-1,4.2-1.8,6.3-2.3c2.1-0.5,4.2-0.9,6.3-1.2c2.1-0.3,4.2-0.7,6.3-1.1c2.1-0.4,4.3-1.2,6.5-2.2
				c2.2-1,4.6-1.9,7.1-2.5c2.5-0.7,4.9-1.3,7.3-2.1c2.4-0.7,4.7-1.6,6.9-2.5c2.2-0.9,4.2-2.2,5.8-3.8c-2.1-1.9-5.2-3.6-9.4-5
				c-4.2-1.5-8.7-2.4-13.5-2.7c-4.9-0.4-9.7,0-14.6,1C1135.6,100.3,1131.4,102.4,1127.8,105.6z"/>
			<path class="st0" d="M1214.9,213.4c-0.8-0.8-1.4-1.8-1.8-2.9c-0.4-1.1-1.2-2-2.6-2.8c-0.2-1.5-0.5-3.3-0.9-5.3
				c-0.4-2-0.7-4-1.1-6.1c-0.4-2.1-0.6-4.2-0.8-6.3c-0.2-2.1-0.1-4,0.2-5.8c0.2-0.9,0.5-1.8,1-2.6c0.5-0.8,0.9-1.6,1.4-2.4
				c0.5-0.8,0.8-1.6,1.1-2.4c0.3-0.8,0.3-1.6,0.1-2.5c0.6-0.1,1-0.4,1.2-1c0.2-0.6,0.7-0.7,1.5-0.5c0.7-2.2,1.5-4.3,2.4-6.3
				c0.8-1.9,1.7-3.8,2.7-5.7c0.9-1.8,1.9-3.7,2.9-5.6c1-1.9,1.9-4,2.7-6.4c-1.8-1.6-3.1-3.4-3.8-5.3c-0.8-1.9-1.4-3.8-1.8-5.8
				c-0.4-1.9-0.7-3.9-0.9-5.9c-0.2-2-0.6-4-1.3-6.1c1.3-1.8,2.8-3.3,4.5-4.5c1.8-1.2,3.7-2.1,5.9-2.9c2.1-0.8,4.5-1.4,7-1.8
				c2.5-0.5,5.2-1,8-1.6c5-1.5,9.5-2.7,13.5-3.6c4-0.9,7.8-1.6,11.6-2.1c3.8-0.6,7.7-1.1,11.8-1.5s8.8-1.1,14.1-2.1
				c0.1,0.3,0.3,0.5,0.5,0.5c0.3,0,0.6,0,1,0c0.3,0.7,0.9,1.1,1.7,1.1c0-0.3,0-0.6-0.1-0.8c-0.1-0.3-0.1-0.5-0.1-0.7
				c0.2,0,0.5,0.1,0.9,0.2c0.4,0.1,0.7,0.2,0.9,0.3c0.3,0.1,0.5,0.1,0.7-0.1c0.2-0.2,0.3-0.5,0.2-1c1.3,2.1,2.9,3.9,4.9,5.3
				c2,1.4,4.2,2.6,6.6,3.6c0.1,0.9,0.1,1.6,0.1,2c-0.1,0.4-0.1,0.8-0.2,1.1c-0.1,0.4-0.2,0.8-0.2,1.2s0.1,1.1,0.3,1.9
				c-1.7,2.8-3.6,4.9-5.7,6.4c-2.1,1.5-4.4,2.7-6.8,3.5c-2.4,0.8-4.9,1.4-7.6,1.8c-2.7,0.4-5.4,0.8-8.1,1.3
				c-2.8,0.5-5.6,1.1-8.4,1.9c-2.8,0.8-5.6,2-8.3,3.7c-0.8-0.3-1.6-0.4-2.3-0.4c-0.7,0.1-1.4,0.2-2.1,0.4c-0.7,0.2-1.5,0.4-2.4,0.6
				c-0.9,0.2-2,0.2-3.2,0c-0.8,0.7-1.8,1.2-2.9,1.5s-2.2,0.6-3.4,0.9c0.5,1.1,0.8,2.2,0.7,3.4c-0.1,1.1,0.1,2.1,0.4,2.9
				c4.4,0.4,9.2,0.4,14.6-0.1c5.3-0.5,10.6-0.8,15.7-1c0.1,0.5,0.1,0.9-0.2,1.1c-0.2,0.2-0.3,0.6-0.3,1.1c0.9,0.6,1.8,1.4,2.7,2.3
				c0.8,0.9,1.7,1.8,2.6,2.7c0.9,0.9,1.8,1.6,2.7,2.1c0.9,0.6,2,0.8,3.3,0.7c0.5,1,0.9,2.1,1.1,3.2c0.2,1.1,0.1,2.3-0.5,3.5
				c-2.1,1.3-4.1,2.7-6.1,4.1c-2,1.4-4,2.6-6.2,3.8c-2.1,1.1-4.5,2-7,2.8c-2.5,0.7-5.2,1-8.1,0.9c-0.5,0-1,0-1.3,0
				c-0.4,0-0.8-0.2-1.3-0.6c-1,0.5-2.4,0.7-4.2,0.5s-3.2,0-4.3,0.5c-1.5-0.5-3.2-0.8-5.1-0.8c-1.9,0-3.6-0.3-5.1-0.8
				c-1.9,2.7-3.7,5.4-5.3,8.4c-1.7,2.9-3.1,6-4.4,9.3c4.3,0.6,7.8,0.9,10.7,0.8c2.8-0.1,5.5-0.3,8-0.6c2.5-0.3,5.1-0.6,7.8-0.9
				s5.9-0.4,9.8-0.3c2.6-1.2,5.6-2.1,9-2.5c3.4-0.5,6.6-1.2,9.5-2.1c1,0.3,1.9,0.9,2.7,1.8c0.7,0.9,1.4,1.7,2.1,2.6
				c0.7,0.9,1.4,1.6,2.1,2.2c0.7,0.6,1.7,0.8,2.8,0.6c0.5,0.5,0.9,1.1,1,1.8c0.2,0.7,0.3,1.4,0.5,2c0.2,0.6,0.4,1.1,0.7,1.5
				c0.3,0.4,0.9,0.5,1.7,0.4c-2,4-4.2,7.1-6.7,9.2c-2.5,2.1-5.2,3.8-8.3,5c-3.1,1.2-6.5,2-10.3,2.6c-3.8,0.6-8.1,1.3-12.8,2.1
				c-1.2,0.2-2.1,0.2-2.9-0.1c-0.8-0.3-1.6-0.4-2.4-0.4c-2.9,0.5-6.4,1-10.4,1.5c-4,0.5-8.1,0.7-12.1,0.6c-4.1-0.1-8-0.6-11.8-1.5
				S1217.4,215.8,1214.9,213.4z"/>
			<path class="st0" d="M1309.6,205.4c-0.5,0.1-1-0.3-1.4-1.1c-0.4-0.9-0.9-1.7-1.4-2.5h1.7c-0.7-2.2-0.9-4.3-0.5-6.2
				c0.4-1.9,0.8-3.7,1.3-5.5c0.5-1.8,1-3.5,1.3-5.2c0.4-1.7,0.2-3.4-0.5-5.3c0.5,0.3,0.9,0.2,1.2-0.4c0.3-0.6,0.5-1.3,0.6-2.1
				c0.2-0.9,0.2-1.8,0.2-2.8c-0.1-1-0.1-1.8-0.2-2.4c1.4-3.2,2.4-6.4,3.2-9.8c0.8-3.4,1.5-6.7,2.1-10c0.6-3.3,1.3-6.5,2.1-9.7
				c0.8-3.1,1.8-6.1,3.1-8.8c1.5-0.2,3,0,4.6,0.5c1.6,0.6,2.7,1.3,3.2,2.1c3.2-2.5,6.1-5.4,8.6-8.9c2.5-3.5,5-6.9,7.6-10.2
				c2.6-3.3,5.5-6.3,8.7-8.8c3.2-2.6,7.3-4.1,12.1-4.6c2.5,1.7,5.3,3.6,8.5,5.6c3.1,2,5.7,4.5,7.7,7.4c0.8,0.5,1.6,1,2.4,1.6
				c0.8,0.6,1.6,1.1,2.4,1.6v2.3c1.5,1.3,2.7,2.9,3.7,4.7c1,1.8,1.9,3.7,2.7,5.7c0.8,2,1.5,4,2.3,6.1c0.7,2,1.6,3.9,2.5,5.7
				c-0.2,0.6-0.3,1.2-0.2,1.6c0.1,0.5,0.2,0.9,0.3,1.4c0.2,0.5,0.3,1,0.4,1.5c0.1,0.6,0.2,1.3,0.2,2.1c-0.4,5.4-2.2,9.8-5.4,13.1
				c-3.2,3.3-7.1,6-11.6,8.1c-4.5,2.1-9.4,3.9-14.5,5.4c-5.1,1.5-9.8,3.1-13.9,4.8c0,0.4,0.2,0.6,0.7,0.6c0.5,0,0.6,0.3,0.4,0.9
				c3.1,1.8,5.6,3.3,7.3,4.4c1.7,1.1,3.3,2.1,4.9,2.8c1.5,0.8,3.2,1.4,5,1.9c1.8,0.5,4.4,1.1,7.6,1.8c3.2,0.7,5.8,1.3,7.6,1.8
				c1.8,0.5,3.5,0.8,4.9,1.1c1.5,0.3,3,0.5,4.7,0.7c1.7,0.2,3.9,0.5,6.7,0.8c1.1,1.1,2.1,2.5,2.8,4c0.7,1.5,1.3,3.1,1.6,4.6
				c0.3,1.5,0.4,3,0.2,4.4c-0.2,1.4-0.6,2.5-1.3,3.3c0.1,0.4,0.4,0.6,0.9,0.5c0.5-0.1,1,0,1.5,0.1c-0.7,0.5-1.4,1.1-1.9,1.8
				c-0.5,0.7-1,1.4-1.6,2.1c-0.5,0.7-1.1,1.4-1.8,2c-0.7,0.6-1.5,1-2.6,1.1c-3.8,1.4-8.6,1.5-14.4,0.2c-5.9-1.3-13.3-3.7-22.4-7.1
				c-4.5-1.6-8.1-3.1-11-4.4c-2.8-1.3-5.3-2.6-7.4-3.9c-2.1-1.3-4-2.7-5.8-4.1c-1.8-1.5-3.8-3.2-6.1-5.3c-0.3,0.1-0.5,0.3-0.5,0.6
				c-0.1,0.3-0.2,0.5-0.5,0.6c-0.5,4.1-1.3,7.4-2.4,10c-1.1,2.6-2.7,5.2-4.8,7.8c-1.7-0.3-2.8-0.2-3.4,0.5c-0.6,0.6-1.3,1.2-2.1,1.7
				c-1,0.2-1.8,0.2-2.4-0.1c-0.5-0.3-1-0.5-1.4-0.8c-0.4-0.3-0.9-0.6-1.4-0.9c-0.5-0.3-1.4-0.4-2.5-0.3c-0.3-0.9-0.6-1.8-0.9-2.7
				c-0.3-0.9-1.2-1.3-2.5-1.2c0.3-0.9,0.4-1.7,0.3-2.4c-0.1-0.7-0.3-1.3-0.5-1.8c-0.2-0.6-0.4-1.1-0.5-1.8
				C1309.2,207,1309.3,206.3,1309.6,205.4z M1361.9,135.4c-1.4,1.9-2.9,3.7-4.5,5.3c-1.7,1.6-3.3,3.2-4.9,4.9
				c-1.6,1.7-3.1,3.5-4.3,5.5s-2.1,4.4-2.7,7.1c4.4-0.5,9-1.7,13.8-3.6c4.8-1.9,9.3-3.7,13.6-5.4c-0.5-3.8-1.9-6.8-4.1-9.1
				C1366.6,137.7,1364.3,136.2,1361.9,135.4z"/>
			<path class="st0" d="M1415.8,187.5c-3.1-1.7-5.5-4.2-7.2-7.4c-1.7-3.2-2.6-6.2-2.8-9c0.3-2.5,1-4.4,2-5.8c1-1.4,2.2-2.5,3.5-3.4
				c1.4-0.9,2.8-1.5,4.2-2c1.5-0.5,2.9-0.8,4.2-1.2l2.4,0.8c0.5,0.5,1.1,1,1.6,1.4c0.6,0.4,1.1,0.8,1.6,1.2c1-0.4,1.7-1,2-1.8
				c0.3-0.8,0.5-1.6,0.9-2.5c0.3-1.1,0.7-2.2,1.1-3.4c0.4-1.1,0.9-2.2,1.6-3.4c-0.1-0.9-0.1-1.7,0.2-2.5c0.2-0.7,0.4-1.3,0.6-1.8
				c-0.6-0.5-1.1-0.8-1.3-0.8c-0.3-0.1-0.7-0.2-1.3-0.4c-0.3,0-0.6,0-0.9-0.1c-0.3-0.1-0.7-0.1-1.1-0.2c-1.6-1.1-2.6-2.1-3.1-2.8
				c-0.5-0.8-1-1.6-1.5-2.4c-0.5-0.8-1-1.5-1.4-2.1c-0.4-0.6-0.9-1.2-1.4-1.7l-1.9-1.2l0.9-1.8c0.2-0.2,0.3-0.5,0.3-0.8
				c0-0.4-0.2-0.9-0.6-1.6c-0.3-1.3-0.4-2.3-0.2-2.9l0.3-1.8c1-1.3,1.6-2.1,1.7-2.3l1.6-1.5c2.4-0.6,4.9-1.3,7.4-2.1
				c2.5-0.8,5-1.6,7.4-2.4c2.4-0.8,4.9-1.6,7.4-2.5c2.5-0.8,5-1.5,7.5-2.1c0.8-0.7,1.7-1.2,2.7-1.3c1-0.2,1.9-0.3,2.7-0.4
				c0.7,0,1.4-0.1,2-0.2c0.6-0.1,1.1-0.4,1.4-0.8c1.8-0.6,3.5-1.1,5.2-1.5c3.1-0.8,7.3-1.8,12.4-2.9c5.1-1.1,10.9-1.9,17.2-2.5
				l3.3-0.2c0.6,0.1,1.3,0.1,1.9,0.1c0.6-0.1,1.3-0.1,1.9-0.1c5.4,0,9,1.6,10.8,4.9c1,0.5,2,1.2,2.8,1.9c0.8,0.8,1.6,1.5,2.4,2.2
				c0.5,0.5,1,0.9,1.4,1.3c0.4,0.4,0.8,0.6,1.1,0.8l1.3,1.2c1.1,2.5,1.4,4.9,0.6,7.2c-0.6,1.2-1.3,1.9-2,2.1
				c-0.7,0.2-1.5,0.4-2.2,0.6l-2,1.1c-1.4-0.1-2.4-0.2-3.1-0.2c-0.7,0-1.4,0-2.3,0c-3.1,0-6.8,0.2-10.9,0.5
				c-4.1,0.4-8.3,0.9-12.6,1.5c-4.3,0.7-8.5,1.5-12.5,2.5c-4.1,1-7.6,2-10.7,3.1c-0.8,0.6-1.9,1.2-3.3,1.7c-0.3,0.1-0.8,0.4-1.4,0.8
				c0.1,0.8,0.1,1.6,0,2.4c-0.1,0.8-0.3,1.5-0.5,2.2c-0.1,0.5-0.2,1-0.2,1.6c-0.1,0.6-0.1,1.1-0.2,1.8c-2.2,2.6-3.2,5.6-3.1,9
				l-0.8,1.5c-0.4,0.4-0.8,1-1,1.8c-0.3,0.8-0.3,1.6-0.1,2.4l0.6,1.8c2.1-0.2,4.2-0.4,6.2-0.7c2-0.3,4.2-0.5,6.5-0.8
				c2.9-0.5,5.9-0.9,8.9-1.3c3-0.4,6.1-0.5,9.3-0.5h6.1l-1.4,1.4l1.7,0.2l-0.9,2.5c0.7,0.3,1.3,0.5,1.6,0.7c0.4,0.2,0.7,0.3,1,0.5
				l1.1,1.5c0.5,0.3,1,0.8,1.4,1.5c0.4,0.7,0.7,1.6,0.8,2.7l-0.5,1.5l-7.4,9.2l-0.9,1.2l-1.6-0.5c-2-0.1-3.9,0.1-5.6,0.6
				c-0.8,0.2-1.7,0.4-2.7,0.7c-0.9,0.3-1.9,0.4-2.8,0.4c-2.5,0.4-4.6,0.7-6.3,1c-1.7,0.3-3.3,0.5-5,0.7c-2.3,0.4-4.5,0.8-6.7,1.2
				c-2.1,0.4-4.2,0.9-6,1.6c-1.2,0.1-1.8,0.1-2,0.1c-0.2-0.1-0.4-0.1-0.6-0.1c-1,0-2.1,0.2-3.1,0.5c-1,0.3-2,0.6-3,0.9
				c-0.6,0.5-1,1-1.3,1.6c-0.2,0.6-0.4,1.2-0.6,1.8c-0.2,0.7-0.5,1.4-0.9,2.1c-0.4,0.7-0.8,1.4-1.3,2.1l0.2,2.8
				c-0.9,0.2-1.4,0.3-1.4,0.4c0,0.1-0.1,0.1-0.2,0.1c0,0.8-0.1,1.6-0.4,2.3c-0.3,0.7-0.5,1.4-0.7,2c-0.2,0.4-0.4,0.8-0.5,1.1
				c-0.1,0.3-0.2,0.6-0.2,0.9c1,1.8,1.3,3.9,0.8,6.3c-0.4,1.9-1.2,3.7-2.4,5.1c-1.2,1.5-2.5,2.6-4.1,3.5c-1.7,0.2-2.9,0.2-3.7-0.2
				c-0.8-0.3-1.6-0.6-2.4-0.9c-0.5-0.2-1-0.4-1.6-0.5c-0.5-0.2-1-0.3-1.6-0.4l-1.9-1.5c-0.3-0.6-0.7-1.2-1.1-1.8
				c-0.4-0.6-0.8-1.2-1.3-1.8c-0.5-0.7-1-1.4-1.6-2.1c-0.5-0.7-1-1.5-1.4-2.5c-0.7-3.6-0.9-6.6-0.4-9c0.5-2.4,1.1-4.8,2-7.1
				c0.2-0.8,0.4-1.6,0.6-2.3C1415.4,189.1,1415.6,188.3,1415.8,187.5z"/>
			<path class="st0" d="M1539,219.2c-4.6,0.6-8.8,0.4-12.5-0.6s-7.1-2.6-10.1-4.8s-5.5-4.7-7.7-7.7c-2.1-3-3.9-6.1-5.2-9.5
				c-0.9-7-0.7-13.3,0.8-18.9c1.5-5.7,3.6-10.9,6.4-15.7c2.8-4.8,6-9.3,9.6-13.5c3.6-4.2,7.1-8.2,10.4-12.1c0.7,0.3,1.3,0.3,1.8,0
				c0.5-0.3,0.9-0.7,1.3-1.2c0.4-0.5,0.8-1,1.3-1.5c0.5-0.5,1-0.9,1.6-1.1c0.4-0.9,1-1.7,1.6-2.3c0.7-0.6,1.4-1.2,2.2-1.8
				c0.8-0.6,1.5-1.1,2.2-1.8c0.7-0.6,1.3-1.4,1.8-2.3c1-0.2,2-0.6,2.7-1.1c0.8-0.5,1.5-1.1,2.2-1.7c0.7-0.6,1.4-1.2,2.1-1.7
				c0.7-0.5,1.6-0.9,2.7-1.2v-2c2.3-1,4-2.1,5-3.4c1-1.2,2.3-2.8,3.8-4.8c1.1-0.1,2.1-0.2,2.7-0.2c0.7,0,1.7-0.1,3.2-0.3
				c0.9-1.7,1.8-3,2.7-3.8c0.8-0.8,2-1.7,3.6-2.8c1.6,0.8,3.2,1.3,5,1.5c1.8,0.2,3.4,0.9,4.9,2.4c0.1,1.2,0.5,2.2,1.1,2.8
				c0.6,0.7,1.3,1.3,2,1.8c0.7,0.6,1.5,1.1,2.2,1.8c0.7,0.6,1.2,1.5,1.4,2.6c0.5,0,0.9-0.1,1-0.3c0.2-0.2,0.5-0.3,1-0.2
				c0.2,0.8,0.4,1.5,0.6,2c0.2,0.5,0.4,1,0.7,1.4c0.3,0.4,0.5,0.9,0.8,1.4c0.3,0.5,0.5,1.1,0.7,1.8c-0.5,1.2-1,2.5-1.4,3.9
				c-0.4,1.4-1.3,2.3-2.5,2.8c0,0.8,0.3,1.3,0.9,1.3c0.6,0.1,1,0.4,1.1,1.1c0.1,0.9-0.1,1.7-0.5,2.3c2.9,4.8,5.6,9.8,8,15.1
				c2.4,5.3,5.1,10.3,8.1,15.1c-0.2,1.4-0.1,2.8,0.2,4.2c0.4,1.4,0.8,2.7,1.4,4.1c0.6,1.3,1.1,2.7,1.6,4c0.5,1.3,0.9,2.7,1.1,4
				c0.2,1.7,0.2,3.6,0,5.6c-0.2,2-0.6,3.9-1.3,5.8c-0.6,1.8-1.5,3.6-2.5,5.1c-1,1.6-2.2,2.8-3.6,3.6c-1.7,2-3.8,3.7-6.3,5
				c-2.5,1.3-4.8,2.8-6.9,4.5c-1.5,0.8-3,1.4-4.7,1.8c-1.7,0.4-3.4,0.7-5.2,1.2c-1.4,0.8-3,1.6-4.9,2.4c-1.9,0.8-3.8,1.5-5.8,2.1
				c-2,0.6-4,1.1-6,1.5c-2,0.4-3.8,0.4-5.3,0.2c-3.8,1.3-7.4,2.2-11,2.8C1548,220.5,1543.8,220.3,1539,219.2z M1541,163.4
				c-1,2.4-2.3,4.5-3.7,6.4c-1.4,1.9-2.8,3.8-4.2,5.8c-1.4,1.9-2.5,4-3.5,6.2c-1,2.2-1.5,4.8-1.6,7.7c2.1,1.7,4.6,2.8,7.4,3.1
				c2.9,0.4,5.8,0.4,8.9,0.2c3-0.3,6.1-0.6,9.1-1.1c3-0.5,5.7-0.8,8.1-0.8c0-0.9,0.4-1.4,1.3-1.4c4.4-0.4,8.5-1.6,12.2-3.6
				c3.8-2,7.7-4,11.8-6.1c0.5-1.2,1.2-2.3,2-3.2c0.8-0.9,1.3-2.2,1.4-4c-0.5-0.9-0.9-1.7-1-2.3c-0.2-0.6-0.2-1.5-0.2-2.8
				c-2.7-3.7-5.1-7.7-7.1-12c-2-4.3-4.3-8.5-6.9-12.3c-0.2,0.5-0.6,1-1.3,1.5c-0.6,0.5-1.3,0.4-2-0.3c-0.3,1-0.8,1.7-1.4,2.1
				c-0.6,0.4-1.3,0.5-2.1,0.5c-0.8,0-1.6-0.2-2.4-0.5c-0.8-0.3-1.5-0.7-2.1-1.2c-3.7,2.9-7.3,5.6-10.9,8.3c-3.6,2.7-6.9,5.8-9.8,9.4
				c-0.5,0.3-0.8,0.4-0.9,0.3C1542,163.2,1541.6,163.2,1541,163.4z"/>
			<path class="st0" d="M1625,205.4c-0.5,0.1-1-0.3-1.4-1.1c-0.4-0.9-0.9-1.7-1.4-2.5h1.7c-0.7-2.2-0.9-4.3-0.5-6.2
				c0.4-1.9,0.8-3.7,1.3-5.5c0.5-1.8,1-3.5,1.3-5.2c0.4-1.7,0.2-3.4-0.5-5.3c0.5,0.3,0.9,0.2,1.2-0.4c0.3-0.6,0.5-1.3,0.6-2.1
				c0.2-0.9,0.2-1.8,0.2-2.8c-0.1-1-0.1-1.8-0.2-2.4c1.4-3.2,2.4-6.4,3.2-9.8c0.8-3.4,1.5-6.7,2.1-10c0.6-3.3,1.3-6.5,2.1-9.7
				c0.8-3.1,1.8-6.1,3.1-8.8c1.5-0.2,3,0,4.6,0.5c1.6,0.6,2.7,1.3,3.2,2.1c3.2-2.5,6.1-5.4,8.6-8.9c2.5-3.5,5-6.9,7.6-10.2
				c2.6-3.3,5.5-6.3,8.7-8.8c3.2-2.6,7.3-4.1,12.1-4.6c2.5,1.7,5.3,3.6,8.5,5.6c3.1,2,5.7,4.5,7.7,7.4c0.8,0.5,1.6,1,2.4,1.6
				c0.8,0.6,1.6,1.1,2.4,1.6v2.3c1.5,1.3,2.7,2.9,3.7,4.7c1,1.8,1.9,3.7,2.7,5.7c0.8,2,1.5,4,2.3,6.1c0.7,2,1.6,3.9,2.5,5.7
				c-0.2,0.6-0.3,1.2-0.2,1.6c0.1,0.5,0.2,0.9,0.3,1.4c0.2,0.5,0.3,1,0.4,1.5c0.1,0.6,0.2,1.3,0.2,2.1c-0.4,5.4-2.2,9.8-5.4,13.1
				c-3.2,3.3-7.1,6-11.6,8.1c-4.5,2.1-9.4,3.9-14.5,5.4c-5.1,1.5-9.8,3.1-13.9,4.8c0,0.4,0.2,0.6,0.7,0.6c0.5,0,0.6,0.3,0.4,0.9
				c3.1,1.8,5.6,3.3,7.3,4.4c1.7,1.1,3.3,2.1,4.9,2.8c1.5,0.8,3.2,1.4,5,1.9c1.8,0.5,4.4,1.1,7.6,1.8c3.2,0.7,5.8,1.3,7.6,1.8
				c1.8,0.5,3.5,0.8,4.9,1.1c1.5,0.3,3,0.5,4.7,0.7c1.7,0.2,3.9,0.5,6.7,0.8c1.1,1.1,2.1,2.5,2.8,4c0.7,1.5,1.3,3.1,1.6,4.6
				c0.3,1.5,0.4,3,0.2,4.4c-0.2,1.4-0.6,2.5-1.3,3.3c0.1,0.4,0.4,0.6,0.9,0.5c0.5-0.1,1,0,1.5,0.1c-0.7,0.5-1.4,1.1-1.9,1.8
				c-0.5,0.7-1,1.4-1.6,2.1c-0.5,0.7-1.1,1.4-1.8,2c-0.7,0.6-1.5,1-2.6,1.1c-3.8,1.4-8.6,1.5-14.4,0.2c-5.9-1.3-13.3-3.7-22.4-7.1
				c-4.5-1.6-8.1-3.1-11-4.4c-2.8-1.3-5.3-2.6-7.4-3.9c-2.1-1.3-4-2.7-5.8-4.1c-1.8-1.5-3.8-3.2-6.1-5.3c-0.3,0.1-0.5,0.3-0.5,0.6
				c-0.1,0.3-0.2,0.5-0.5,0.6c-0.5,4.1-1.3,7.4-2.4,10c-1.1,2.6-2.7,5.2-4.8,7.8c-1.7-0.3-2.8-0.2-3.4,0.5c-0.6,0.6-1.3,1.2-2.1,1.7
				c-1,0.2-1.8,0.2-2.4-0.1c-0.5-0.3-1-0.5-1.4-0.8c-0.4-0.3-0.9-0.6-1.4-0.9c-0.5-0.3-1.4-0.4-2.5-0.3c-0.3-0.9-0.6-1.8-0.9-2.7
				c-0.3-0.9-1.2-1.3-2.5-1.2c0.3-0.9,0.4-1.7,0.3-2.4c-0.1-0.7-0.3-1.3-0.5-1.8c-0.2-0.6-0.4-1.1-0.5-1.8
				C1624.6,207,1624.7,206.3,1625,205.4z M1677.4,135.4c-1.4,1.9-2.9,3.7-4.5,5.3c-1.7,1.6-3.3,3.2-4.9,4.9
				c-1.6,1.7-3.1,3.5-4.3,5.5s-2.1,4.4-2.7,7.1c4.4-0.5,9-1.7,13.8-3.6c4.8-1.9,9.3-3.7,13.6-5.4c-0.5-3.8-1.9-6.8-4.1-9.1
				C1682.1,137.7,1679.8,136.2,1677.4,135.4z"/>
			<path class="st0" d="M1738.5,220.8c-1,0-2.7-0.2-4.9-0.5c-1.7-1.7-3.2-4.1-4.5-7.1c-1.3-3-2.3-6.2-3-9.7c-0.7-3.4-1-6.8-0.9-10.3
				c0.1-3.4,0.7-6.5,1.8-9.1c0-0.1,0.5-1.3,1.5-3.7c1-2.4,2.3-5.3,3.8-9c1.6-3.6,3.3-7.7,5.3-12.1c2-4.4,4-8.8,6-13.1
				c2-4.3,3.9-8.2,5.7-11.7c1.8-3.5,3.4-6.3,4.8-8.2c0.9-1.4,1.8-2.8,2.6-4.1c0.8-1.3,1.5-2.6,2.3-3.7c1.1-1.8,2.2-3.6,3.2-5.1
				c1-1.6,2.1-3,3.3-4.3c1.2-1.3,2.5-2.4,4-3.4c1.5-1,3.2-1.8,5.3-2.5c1.3,0.5,2.4,1,3.3,1.6c0.9,0.6,1.8,1.3,2.5,2.1l0.5,2.1
				c0.2,0.7,0.5,1.2,1,1.5c0.5,0.3,0.9,0.4,1.2,0.4c1.4,0.3,2.5,0.6,3.5,1c1,0.4,2.1,0.6,3.2,0.7c0.4,0.6,0.8,1.2,1.2,1.8
				c0.4,0.6,0.8,1.2,1.2,1.7c2.1,3,3.8,5.8,5.2,8.6c1.4,2.8,1.4,5.8,0,9l0.2,1.7c0.5,0.7,0.8,1.4,0.8,2s-0.1,1.5-0.3,2.6
				c-0.1,0.8-0.2,1.7-0.2,2.7c-0.1,1,0.1,2,0.4,3.1l1.1,1.2c1.7,0.8,3.3,1.2,4.9,1.2c2.1,0,4-0.5,5.6-1.4c1.7-0.9,3.2-1.8,4.7-2.8
				c1.1-0.8,2.2-1.5,3.2-2c1-0.5,2-0.9,2.9-1.1c2.2-2,4.2-3.9,6-5.4c1.8-1.6,3.7-3.2,5.7-4.8c3.8-3,7.4-6.2,11-9.6
				c3.5-3.4,6.4-7.7,8.5-12.8c1.1-0.7,2.5-1.1,3.9-1.1c1.5,0,2.9,0.3,4.4,0.8c1.5,0.6,2.9,1.2,4.4,1.9c0.3,0.2,0.6,0.4,0.9,0.5
				c0.3,0.1,0.5,0.3,0.9,0.5c0,1.1,0.5,2.1,1.4,3.1c0.5,0.4,0.9,0.7,1.1,0.8c0.2,0.1,0.4,0.2,0.6,0.3c0.8,0.5,1.5,1,2.1,1.4
				c0.6,0.4,1,1,1.3,1.7c0.9,2.8,2.5,4.9,4.7,6.4c-0.2,1.1-0.2,2.2,0.2,3.3c0.3,1.1,0.7,2.1,1.1,3.1c0.2,0.4,0.4,0.8,0.5,1.1
				c0.1,0.4,0.3,0.8,0.5,1.3l-3.4-0.3l0.5,3.4c0.3,1.7,0.2,3.7-0.4,5.8c-0.6,2.1-1.2,3.8-2,5.1c0.2,3.1,0.3,5.5,0.3,7.3
				c0,1.8-0.1,3.5-0.3,5c-0.2,1.5-0.5,3-1,4.4s-1.1,2.8-1.8,4.4c0.4,7.8-0.5,14.9-2.7,21.3c-2.2,6.4-4.7,12.5-7.3,18.1
				c-0.3,0.7-0.6,1.4-0.9,2s-0.6,1.2-0.8,1.8c-1.2,0.3-2.2,0.7-3.1,1.1c-0.9,0.4-1.8,0.9-2.7,1.4c-1.2,0.7-2.3,1.3-3.4,1.8
				c-1.2,0.5-2.4,0.7-3.6,0.7c-5-3.6-7.6-9.8-7.8-18.6c-0.2-8.8,1.7-20,5.7-33.6c0.7-0.5,1-1.3,0.9-2.3v-1.7l-1.6-0.2
				c-0.5,0-1,0.1-1.4,0.2c-0.4,0.1-0.7,0.6-0.9,1.4c-3.3,2.4-7,4.8-10.9,7.3c-3.9,2.5-8,4.8-12.1,6.9c-4.2,2.1-8.4,3.8-12.8,5.2
				c-4.3,1.4-8.5,2.1-12.6,2.1c-10.4,0-18.3-5.2-23.7-15.6l-1.4-2.8l-1.6,2.5c-0.3,0.5-0.9,1.5-1.6,3c-0.8,1.5-1.6,3.2-2.4,5.1
				c-0.8,1.9-1.5,3.9-2,6c-0.6,2-0.8,3.8-0.5,5.4c-1.3,1.1-2.5,2.4-3.7,3.8c-1.2,1.4-2.1,3.1-2.6,4.9c-0.2,0.5-0.3,1-0.2,1.5
				c0.1,0.5,0.3,0.9,0.5,1.5c-0.1,0.7-0.3,1.2-0.6,1.5s-0.7,0.6-1.1,0.9c-0.5,0.5-1,1-1.6,1.6c-0.5,0.6-1,1.2-1.4,1.9
				c-0.2,0.6-0.4,1.3-0.5,1.9c-0.1,0.7-0.2,1.3-0.3,1.8c0,1.1-0.2,1.9-0.5,2.3c-1,2.1-2,3.9-2.7,5.3c-0.8,1.4-1.5,2.4-2.3,3.1
				c-0.7,0.7-1.5,1.2-2.3,1.5C1740.4,220.6,1739.5,220.8,1738.5,220.8z"/>
			<path class="st0" d="M1876.5,204.1l2-1.5l0.2-3.2c2.6-6.2,5.3-12.2,8.1-17.9c2.8-5.7,5.7-11.6,8.7-17.6c0.9-1.9,1.9-3.9,2.9-5.8
				c1-1.9,2-3.9,2.9-6c-0.1-0.4-0.2-0.8-0.2-1.3s0.1-1,0.3-1.6c1.5-2,2.6-3.9,3.5-5.5c0.9-1.6,1.7-3.3,2.6-5.1c0.9-2,2-4.1,3.1-6.1
				c1.1-2,2.5-4,4.2-6l1.1-1.5l1.7,0.2c0.4-0.2,0.9-0.4,1.3-0.5c0.5-0.2,1.1-0.2,1.8-0.2l2.8,0.5c3.4-1.5,6.5-3.8,9.2-6.7
				c2.7-2.9,5.4-6.4,8.1-10.5l1.9-2.6l2.5,1.5c0.5,0.3,1.4,0.6,2.5,0.9c1.1,0.3,2.4,0.7,3.6,1.1c2.2,0.5,4.3,1.1,6.4,1.8
				c2.1,0.7,3.7,1.6,4.9,2.7l0.8,1.4c0.2,1.1,0.4,2.1,0.5,3.1c0.2,0.9,0.3,1.8,0.5,2.8c0.4,2.1,0.8,4.3,1.1,6.4
				c0.3,2.1,0.5,4.4,0.6,7c0.5,2,1,4.1,1.5,6.2c0.5,2.1,0.9,4.2,1.3,6.2c0.5,3,1.1,5.8,1.7,8.5c0.6,2.7,1.5,5.3,2.5,7.7
				c1,0,1.7,0.1,1.9,0.2c1.3-0.5,2.7-0.8,4.4-0.9l2-0.2l0.6,1.8c0.2,0.3,0.5,0.6,0.8,0.9s0.7,0.6,1.1,0.9c1.7,0.1,2.9,0.4,3.7,1
				c0.8,0.6,1.4,1.1,2,1.6c0.2,0.2,0.5,0.4,0.8,0.7c0.3,0.3,0.6,0.4,0.8,0.5l2.8,1.1l-1.6,2.9c-1.2,2.1-2.9,4.2-5.2,6.3
				c-2.4,2-5,3.7-7.9,5.1c0.2,0.7,0.3,1.4,0.4,2c0.1,0.6,0.2,1.3,0.4,2.1c0.4,2,0.8,4.2,1,6.4c0.3,2.2,0.2,4.5-0.1,6.8
				c-1,2.7-2.3,5-3.7,7.1c-1.4,2.1-3.1,4-5,5.7c-1.9,1.7-4.1,3.1-6.5,4.1c-2.4,1.1-4.9,1.7-7.5,1.8c-1.5-0.3-2.5-0.7-3.2-1.1
				c-0.7-0.4-1.3-0.8-1.8-1.2c-0.8-0.6-1.5-1-2-1.2l-2-0.9l0.6-2.3c0.3-0.8,0.3-1.5-0.1-2.1c-0.4-0.6-1.1-1.4-2.3-2.5
				c-0.4-0.3-0.8-0.6-1.1-1c-0.3-0.4-0.7-0.7-1.1-1.2l-3.1-3.5l5.2-1.4c3.1-0.8,5.2-1.9,6.3-3.1c1-1.3,1.5-3.6,1.3-6.8
				c-2.6-0.5-4.8-0.6-6.4-0.2c-1.7,0.4-3.3,0.7-5,1.2c-2.4,0.6-4.8,1.1-7.1,1.6c-2.3,0.5-4.8,0.7-7.5,0.7c-1.8,0-3.7-0.2-5.6-0.5
				l-1.7-0.2l-0.5-1.7c0-0.2-0.1-0.4-0.4-0.7c-0.3-0.3-0.5-0.5-0.7-0.7c-0.5-0.6-1.2-1.4-1.9-2.5c-0.7-1-0.9-2.3-0.5-3.8
				c-0.7-1.1-1.2-2.3-1.3-3.5c-0.4,0.8-0.8,1.6-1,2.4c-0.3,0.8-0.5,1.5-0.7,2.2l-0.6,2l-2,0.3c-0.2,0.2-0.4,0.5-0.5,0.9
				c-0.2,0.4-0.2,0.7-0.1,0.9l0.6,1.7l-1.6,1.4c-0.2,0.3-0.5,0.6-0.8,0.8c-0.3,0.2-0.6,0.4-0.8,0.6c-0.2,1.1-0.5,2.2-0.9,3.2
				c-0.4,1-0.8,2-1.2,3.1c-0.5,1.6-1,3.2-1.5,4.8c-0.5,1.5-0.7,3.1-0.7,4.6l-0.6,2c-0.5,0.8-1.2,1.4-2,1.8c-0.8,0.4-1.5,0.8-2.3,1.1
				c-1,0.4-1.8,0.8-2.2,1.2l-0.5,2l-2.4,0.3c-1.4,0.3-2.3,0.5-2.9,0.6c-0.6,0.1-1.2,0.2-2,0.2l-2-0.2c-1.3-1.2-2.3-2.2-3.1-2.8
				c-0.8-0.7-1.7-1.3-2.7-1.8l-0.9-1.2c-0.4-0.8-0.7-1.6-0.8-2.2c-0.1-0.7-0.3-1.4-0.5-2.1c-0.2-1.3-0.5-2.2-0.9-2.8L1876.5,204.1z
				 M1926.5,164.2c-1.5,2-2.9,4.2-4.2,6.4c0.7-0.1,1.4-0.2,2.1-0.2c0.7,0,1.4,0,2.1-0.2c3.7-0.2,7.1-0.5,10.2-0.8s6.5-0.8,10.2-1.5
				c-0.8-3.8-1.8-7.6-2.7-11.6c-1-3.9-2.1-7.9-3.2-11.9l-0.8,1.5c-2.6,2.8-5.1,5.7-7.5,8.9c-2.4,3.2-4.4,6.2-6,9L1926.5,164.2z"/>
			<path class="st0" d="M2021.6,204.2c-1,0.8-1.7,1.9-1.9,3.1c-0.2,1.3-0.5,2.5-0.8,3.8c-0.3,1.2-0.9,2.3-1.6,3.1
				c-0.8,0.9-2.2,1.3-4.2,1.1c-0.4,0.5-0.5,0.8-0.2,0.9c0.3,0.1,0.5,0.6,0.7,1.4c-1.5-0.2-2.5-0.1-3.1,0.3c-0.6,0.4-1.4,0.7-2.4,0.9
				c-2.4-0.7-4.4-2-6-3.9c-1.6-1.9-3-4-4.2-6.2c-1.2-2.2-2.2-4.5-3.1-6.9c-0.9-2.4-1.8-4.4-2.7-6.1c0-0.4,0.2-0.6,0.5-0.5
				c0.4,0.1,0.7,0.1,1,0.1c-0.5-1-0.9-2.2-1.2-3.5c-0.3-1.3-0.8-2.3-1.5-3.1c3-6.3,6.3-13,9.7-19.9c3.4-6.9,6.9-13.9,10.4-21
				c3.5-7.1,7-14.3,10.5-21.5c3.5-7.2,6.9-14.3,10.1-21.2c2.9,1,5.8,2.2,8.5,3.6c2.8,1.4,5.3,3,7.6,4.8c2.3,1.8,4.3,4,5.9,6.4
				c1.6,2.4,2.7,5.1,3.2,8.2c-0.2,0.6-0.5,0.8-0.8,0.6c-0.3-0.2-0.6-0.1-0.8,0.3c0.5,0.6,0.8,1,0.9,1.3c0.1,0.3,0,0.5-0.1,0.8
				c-0.1,0.3-0.2,0.6-0.2,1c0,0.4,0.3,1,0.8,1.7c-0.5-0.1-0.9,0-1.1,0.2c-0.2,0.3-0.6,0.3-1.1,0.1c0.5,1.4,0.7,2.6,0.5,3.4
				c-0.2,0.8-0.5,1.6-0.9,2.2c-0.4,0.7-0.8,1.4-1,2.1c-0.3,0.8-0.2,1.8,0.2,3.1c-0.4,0-0.7,0.1-0.9,0.2c-0.2,0.2-0.3,0.3-0.4,0.5
				c-0.1,0.2-0.2,0.4-0.4,0.5c-0.2,0.2-0.4,0.2-0.9,0.1c0.3,2.7,0.4,5.3,0.3,8c-0.1,2.7-0.2,5.5-0.3,8.3c-0.1,2.8-0.1,5.7,0,8.7
				c0.1,3,0.5,6,1.3,9.2c4.5-2.6,8.1-5.9,10.9-10c2.8-4.1,5-8.6,6.6-13.6c1.6-5,2.9-10.4,3.8-16.1c0.9-5.7,1.8-11.6,2.7-17.5
				c1.1-1.1,2.1-2.5,2.7-4.1c0.7-1.6,1.3-3.3,1.7-5.1c0.5-1.7,0.9-3.5,1.4-5.3c0.5-1.8,1.1-3.4,2-4.8c1.9,0.2,3.5,0.7,4.8,1.6
				c1.3,0.9,2.5,1.8,3.7,2.9c1.1,1.1,2.4,2.1,3.6,3c1.3,0.9,2.8,1.5,4.7,1.8c1.5,2,2.8,4,4.1,5.9c1.3,1.9,2.1,4,2.5,6.4
				c-0.6,1-1.1,2.1-1.4,3.4c-0.3,1.2-0.7,2.5-1,3.7c-0.4,1.2-0.9,2.4-1.5,3.4c-0.6,1-1.5,1.9-2.7,2.6c-0.3,3.1-0.8,5.9-1.4,8.6
				c-0.6,2.7-1.2,5.3-1.7,7.8c-0.5,2.6-1,5.2-1.4,8c-0.4,2.8-0.6,5.8-0.5,9c-0.9,3-2,6-3.1,9.1c-1.2,3.1-2,6-2.5,8.7
				c-2,1.5-3.6,3.4-4.7,5.7c-1.2,2.2-2.4,4.5-3.6,6.7c-0.5,0.4-0.8,0.5-0.9,0.2c-0.1-0.3-0.6-0.4-1.4-0.5c0.1,0.9-0.1,1.5-0.5,1.8
				c-0.5,0.3-0.4,1,0.1,2.2c-1.8,0.8-3.3,1.9-4.7,3.2c-1.4,1.3-2.8,2.6-4.5,3.7c-1.6,1.1-3.5,1.9-5.6,2.2c-2.1,0.4-4.9-0.1-8.4-1.3
				c-5.1-3.7-9.7-7.9-13.8-12.7c-4.1-4.8-7.3-10.5-9.7-17c-1,0.3-1.8,1-2.4,2c-0.5,1-1,2.1-1.4,3.2c-0.4,1.1-0.8,2.1-1.3,3.1
				c-0.4,0.9-1,1.4-1.9,1.4c-0.2,0.9-0.6,1.8-1.2,2.5c-0.6,0.8-1.1,1.5-1.6,2.3c-0.5,0.8-0.9,1.6-1.2,2.5
				C2021,202.1,2021.1,203.1,2021.6,204.2z"/>
			<path class="st0" d="M2117.7,205.3c-3-2.2-5.5-5.1-7.4-8.4c-1.9-3.4-3.4-7-4.5-10.7c-1.1-3.8-1.8-7.7-2.2-11.7
				c-0.4-4-0.5-7.9-0.4-11.6c0.9-2.8,2.1-5.3,3.4-7.6c1.4-2.3,2.9-4.5,4.5-6.6c1.7-2.1,3.4-4.1,5.2-6c1.8-1.9,3.6-3.8,5.4-5.8
				c0.6,0,1.2,0.2,1.7,0.5c0.4-1.1,1-2.1,1.9-2.9c0.8-0.8,1.7-1.6,2.7-2.2c0.9-0.7,1.9-1.3,2.8-2c0.9-0.7,1.7-1.5,2.4-2.4
				c2.6-0.6,4.9-1.5,7-2.6c2-1.1,4-2.4,5.9-3.7c1.9-1.3,3.8-2.6,5.8-3.7c2-1.1,4.3-2,6.9-2.6c0.9-1,2.1-1.9,3.5-2.6
				c1.4-0.7,2.8-1.4,4.2-2s2.8-1.3,4.1-2c1.3-0.7,2.4-1.7,3.2-2.9c0.6,0.8,1.5,1.1,2.7,0.8c1.1-0.3,2.2-0.5,3.1-0.8
				c0.6-0.1,1.1,0,1.6,0.3c0.4,0.3,0.8,0.6,1.2,1c0.4,0.4,0.7,0.6,0.9,0.7c0.3,0.1,0.5-0.2,0.9-0.9c0.8,0.1,1.1,0.5,0.7,1.1
				c-0.4,0.6-0.6,1-0.7,1.2c1-0.2,1.9,0,2.6,0.5c0.7,0.6,1.7,0.9,3.2,1.1c0.5,0.5,0.7,0.9,0.5,1.2c-0.2,0.3-0.4,0.8-0.5,1.5
				c3.8,1.1,6.2,2.9,7.2,5.3c1,2.4,1.1,4.9,0.3,7.5c-0.8,2.6-2.4,5-4.6,7.2c-2.2,2.2-4.7,3.7-7.4,4.4c-3.2,0.8-6.2,1.6-9,2.5
				c-2.8,0.8-5.4,1.7-8,2.8c-2.6,1-5,2.2-7.2,3.6c-2.2,1.4-4.2,3-5.9,4.8c-2.9,0.8-5.6,1.9-7.9,3.4c-2.4,1.4-4.5,3-6.6,4.8
				c-2,1.7-4,3.6-5.9,5.4c-1.9,1.9-3.8,3.8-5.6,5.6c0,1.7-0.3,3.1-0.9,4s-1.3,1.8-2,2.8c0.2,1.9,0.7,3.6,1.3,5
				c0.7,1.4,1.4,2.8,2.1,4.2c8.4,2.5,17.2,4,26.6,4.5c9.3,0.6,18.6,0.9,27.8,1c0.9,1.2,2,2.4,3.2,3.5c1.2,1.1,2.3,2.2,3.3,3.3
				c1,1.1,1.8,2.4,2.4,3.9c0.6,1.5,0.7,3.2,0.4,5.3c-1.8,1.7-3.7,3.4-5.8,5c-2.1,1.6-4.2,3.1-6.3,4.7c-0.9,0.1-2.1,0.1-3.4,0
				c-1.3-0.1-2.7-0.2-4.1-0.2s-2.8,0.1-4.2,0.2s-2.7,0.5-4,1c-6.6-0.2-13.3-1-20.2-2.4s-13.3-3-19.1-5c-1.2-1.3-2.4-2.6-3.6-3.8
				C2121.5,206.6,2119.8,205.8,2117.7,205.3z"/>
			<path class="st0" d="M2208.4,213.4c-0.8-0.8-1.4-1.8-1.8-2.9c-0.4-1.1-1.2-2-2.6-2.8c-0.2-1.5-0.5-3.3-0.9-5.3
				c-0.4-2-0.7-4-1.1-6.1c-0.4-2.1-0.6-4.2-0.8-6.3c-0.2-2.1-0.1-4,0.2-5.8c0.2-0.9,0.5-1.8,1-2.6c0.5-0.8,0.9-1.6,1.4-2.4
				c0.5-0.8,0.8-1.6,1.1-2.4c0.3-0.8,0.3-1.6,0.1-2.5c0.6-0.1,1-0.4,1.2-1c0.2-0.6,0.7-0.7,1.5-0.5c0.7-2.2,1.5-4.3,2.4-6.3
				c0.8-1.9,1.7-3.8,2.7-5.7c0.9-1.8,1.9-3.7,2.9-5.6c1-1.9,1.9-4,2.7-6.4c-1.8-1.6-3.1-3.4-3.8-5.3c-0.8-1.9-1.4-3.8-1.8-5.8
				c-0.4-1.9-0.7-3.9-0.9-5.9c-0.2-2-0.6-4-1.3-6.1c1.3-1.8,2.8-3.3,4.5-4.5c1.8-1.2,3.7-2.1,5.9-2.9c2.1-0.8,4.5-1.4,7-1.8
				c2.5-0.5,5.2-1,8-1.6c5-1.5,9.5-2.7,13.5-3.6c4-0.9,7.8-1.6,11.6-2.1c3.8-0.6,7.7-1.1,11.8-1.5s8.8-1.1,14.1-2.1
				c0.1,0.3,0.3,0.5,0.5,0.5c0.3,0,0.6,0,1,0c0.3,0.7,0.9,1.1,1.7,1.1c0-0.3,0-0.6-0.1-0.8c-0.1-0.3-0.1-0.5-0.1-0.7
				c0.2,0,0.5,0.1,0.9,0.2c0.4,0.1,0.7,0.2,0.9,0.3c0.3,0.1,0.5,0.1,0.7-0.1c0.2-0.2,0.3-0.5,0.2-1c1.3,2.1,2.9,3.9,4.9,5.3
				c2,1.4,4.2,2.6,6.6,3.6c0.1,0.9,0.1,1.6,0.1,2c-0.1,0.4-0.1,0.8-0.2,1.1c-0.1,0.4-0.2,0.8-0.2,1.2s0.1,1.1,0.3,1.9
				c-1.7,2.8-3.6,4.9-5.7,6.4c-2.1,1.5-4.4,2.7-6.8,3.5c-2.4,0.8-4.9,1.4-7.6,1.8c-2.7,0.4-5.4,0.8-8.1,1.3
				c-2.8,0.5-5.6,1.1-8.4,1.9c-2.8,0.8-5.6,2-8.3,3.7c-0.8-0.3-1.6-0.4-2.3-0.4c-0.7,0.1-1.4,0.2-2.1,0.4c-0.7,0.2-1.5,0.4-2.4,0.6
				c-0.9,0.2-2,0.2-3.2,0c-0.8,0.7-1.8,1.2-2.9,1.5s-2.2,0.6-3.4,0.9c0.5,1.1,0.8,2.2,0.7,3.4c-0.1,1.1,0.1,2.1,0.4,2.9
				c4.4,0.4,9.2,0.4,14.6-0.1c5.3-0.5,10.6-0.8,15.7-1c0.1,0.5,0.1,0.9-0.2,1.1c-0.2,0.2-0.3,0.6-0.3,1.1c0.9,0.6,1.8,1.4,2.7,2.3
				c0.8,0.9,1.7,1.8,2.6,2.7c0.9,0.9,1.8,1.6,2.7,2.1c0.9,0.6,2,0.8,3.3,0.7c0.5,1,0.9,2.1,1.1,3.2c0.2,1.1,0.1,2.3-0.5,3.5
				c-2.1,1.3-4.1,2.7-6.1,4.1c-2,1.4-4,2.6-6.2,3.8c-2.1,1.1-4.5,2-7,2.8c-2.5,0.7-5.2,1-8.1,0.9c-0.5,0-1,0-1.3,0
				c-0.4,0-0.8-0.2-1.3-0.6c-1,0.5-2.4,0.7-4.2,0.5s-3.2,0-4.3,0.5c-1.5-0.5-3.2-0.8-5.1-0.8c-1.9,0-3.6-0.3-5.1-0.8
				c-1.9,2.7-3.7,5.4-5.3,8.4c-1.7,2.9-3.1,6-4.4,9.3c4.3,0.6,7.8,0.9,10.7,0.8c2.8-0.1,5.5-0.3,8-0.6c2.5-0.3,5.1-0.6,7.8-0.9
				s5.9-0.4,9.8-0.3c2.6-1.2,5.6-2.1,9-2.5c3.4-0.5,6.6-1.2,9.5-2.1c1,0.3,1.9,0.9,2.7,1.8c0.7,0.9,1.4,1.7,2.1,2.6
				c0.7,0.9,1.4,1.6,2.1,2.2c0.7,0.6,1.7,0.8,2.8,0.6c0.5,0.5,0.9,1.1,1,1.8c0.2,0.7,0.3,1.4,0.5,2c0.2,0.6,0.4,1.1,0.7,1.5
				c0.3,0.4,0.9,0.5,1.7,0.4c-2,4-4.2,7.1-6.7,9.2c-2.5,2.1-5.2,3.8-8.3,5c-3.1,1.2-6.5,2-10.3,2.6c-3.8,0.6-8.1,1.3-12.8,2.1
				c-1.2,0.2-2.1,0.2-2.9-0.1c-0.8-0.3-1.6-0.4-2.4-0.4c-2.9,0.5-6.4,1-10.4,1.5c-4,0.5-8.1,0.7-12.1,0.6c-4.1-0.1-8-0.6-11.8-1.5
				S2210.9,215.8,2208.4,213.4z"/>
		</g>
	</g>
</g>
<g>
	<g>
		<circle class="st1" cx="146.6" cy="152.5" r="140.5"/>
		<g>
			<path class="st2" d="M149.2,139.5v14.2c0.9-2.7,2.3-5.2,4-7.5c4.4-6,11.4-9.8,18.9-10.2c1.5,7.4-0.2,15.1-4.9,21
				c-4.3,5.8-10.8,9.4-17.9,10.1v9.3c-1,0.9-2,1.8-3,2.7l-0.1,0.1c-0.9-0.8-1.8-1.7-2.8-2.5v-9.5c-7.1-0.7-13.7-4.3-17.9-10.1
				c-4.7-5.9-6.4-13.6-4.9-21c7.5,0.4,14.4,4.1,18.8,10.2c1.7,2.3,3.1,4.8,4,7.5v-14.2c-7.1-0.7-13.7-4.3-17.9-10.1
				c-4.7-5.9-6.4-13.6-4.9-21c7.5,0.4,14.4,4.1,18.8,10.2c1.7,2.3,3.1,4.8,4,7.5v-14.2c-7.1-0.7-13.6-4.4-17.9-10.1
				c-4.6-5.9-6.4-13.6-4.9-21c7.5,0.4,14.4,4.1,18.8,10.2c1.7,2.3,3.1,4.8,4,7.5v-8.8c-4.9-5.1-7.4-12-6.8-19
				c0.6-7,4.1-13.5,9.8-17.7c5.6,4.2,9.2,10.7,9.8,17.7c0.6,7-1.9,14-6.8,19v8.8c0.9-2.7,2.3-5.2,4-7.5c4.5-6,11.4-9.8,18.9-10.2
				c1.5,7.4-0.2,15.1-4.9,21c-4.3,5.8-10.8,9.4-17.9,10.1v14.2c0.9-2.7,2.3-5.2,4-7.5c4.4-6,11.3-9.8,18.8-10.2
				c1.5,7.4-0.2,15.1-4.9,21C162.9,135.2,156.4,138.8,149.2,139.5L149.2,139.5z"/>
			<path class="st3" d="M199.8,133.6V144c2.8-7.4,9.7-12.5,17.6-12.9c1.1,4.9,0,10.1-2.9,14.2c-8.6,1.7-16.9,4.1-25.1,7.2
				c-3.1-1.3-5.8-3.4-7.9-6c-3.6-4.3-4.9-10-3.8-15.4c7.9,0.4,14.8,5.5,17.6,12.9v-10.4c-5.4-0.4-10.4-3.1-13.8-7.4
				c-3.6-4.3-4.9-10-3.8-15.4c7.9,0.4,14.8,5.5,17.6,12.9v-10.4c-5.4-0.4-10.4-3.1-13.8-7.4c-3.6-4.3-4.9-10-3.8-15.4
				c7.9,0.4,14.8,5.5,17.6,12.9V97c-3.8-3.6-5.7-8.8-5.3-14c0.4-5.2,3.2-10,7.5-12.9c4.3,3,7.1,7.7,7.5,13c0.4,5.2-1.5,10.4-5.3,14
				v6.5c0.7-2,1.8-3.8,3.1-5.5c3.5-4.5,8.8-7.2,14.5-7.5c1.2,5.4-0.2,11.1-3.8,15.4c-3.4,4.3-8.4,7-13.8,7.4v10.4
				c0.7-2,1.8-3.8,3.1-5.5c3.5-4.5,8.8-7.2,14.5-7.5c1.2,5.4-0.2,11.1-3.8,15.4C210.3,130.5,205.2,133.2,199.8,133.6L199.8,133.6z
				 M97,133.6V144c2.8-7.4,9.7-12.5,17.6-12.9c1.2,5.4-0.2,11.1-3.8,15.4c-2.1,2.6-4.8,4.7-7.9,6c-8.2-3.1-16.6-5.5-25.1-7.2
				c-2.9-4.1-4-9.3-2.9-14.2c7.9,0.4,14.8,5.5,17.6,12.9v-10.4c-5.4-0.4-10.4-3.1-13.8-7.4c-3.6-4.3-4.9-10-3.8-15.4
				c5.7,0.3,11,3,14.5,7.5c1.3,1.6,2.4,3.5,3.1,5.5v-10.4c-5.4-0.4-10.4-3.1-13.8-7.4c-3.6-4.3-4.9-10-3.8-15.4
				c5.7,0.3,11,3,14.5,7.5c1.3,1.6,2.4,3.5,3.1,5.5V97c-3.8-3.6-5.7-8.8-5.3-14c0.4-5.2,3.2-10,7.5-12.9c4.3,3,7.1,7.7,7.5,13
				c0.4,5.2-1.5,10.4-5.3,14v6.5c0.7-2,1.8-3.8,3.1-5.5c3.5-4.5,8.8-7.2,14.5-7.5c1.2,5.4-0.2,11.1-3.8,15.4
				c-3.4,4.3-8.4,7-13.8,7.4v10.4c0.7-2,1.8-3.8,3.1-5.5c3.5-4.5,8.8-7.2,14.5-7.5c1.2,5.4-0.2,11.1-3.8,15.4
				C107.5,130.5,102.5,133.2,97,133.6z"/>
			<path class="st4" d="M172.8,246.3L172.8,246.3l-0.4-0.1c-4-1.8-42-19.5-95.2-67.6c0,0,27.2,46.7,80.1,70.6
				c-3.7,0.4-7.4,0.6-11.2,0.6c-53.9,0-97.7-43.5-97.7-97.1c0-1.2,0-2.4,0.1-3.7c0-0.2,0-0.4,0-0.6c40.4,0.3,76.2,15.9,98.9,40
				c15.2,16.1,24.5,36,25.3,57.7L172.8,246.3L172.8,246.3z"/>
			<path class="st4" d="M243.8,152.6c-0.1,41.4-26.4,78.2-65.5,91.7c-0.4-6.9-1.6-13.7-3.6-20.3c26.5-21.9,40.1-45.1,40.3-45.5
				c-14,12.7-28.6,24.7-43.8,35.9c-3.8-8.7-8.8-16.9-14.8-24.2c-1.5-1.8-3.1-3.6-4.8-5.4c-0.5-0.6-1-1.1-1.6-1.6
				c22.8-21.1,56.2-34.6,93.6-34.8v0.5C243.8,150.1,243.8,151.3,243.8,152.6L243.8,152.6z"/>
			<path class="st5" d="M243.7,148.3c-40.5,7.6-68.4,24.3-87.3,41.9c-1.5-1.8-3.1-3.6-4.8-5.4c-0.5-0.6-1-1.1-1.6-1.6
				C172.8,162,206.3,148.6,243.7,148.3z M157.3,249c-3.7,0.4-7.4,0.6-11.2,0.6c-53.9,0-97.7-43.5-97.7-97.1c0-1.2,0-2.4,0.1-3.7
				C48.6,148.9,63.4,237.7,157.3,249z"/>
			<path class="st4" d="M73.9,63.6L57.3,41.7c-8.4,6.7-16,14.4-22.7,22.8C25,76.7,17.4,90.3,12.2,104.9l26.3,8.2
				C45.7,93.7,57.9,76.6,73.9,63.6z M31.8,151.7c0-10.1,1.3-20.2,4-30l-26.4-8.2c-6.5,23.3-7,47.8-1.4,71.3l32.1,9.7
				C34.6,180.9,31.8,166.4,31.8,151.7z"/>
			<path class="st5" d="M146.2,265.5c-34.8,0.1-67.7-15.7-89.4-42.8l5.2-4.7c1.3-1.2,1.9-3,1.5-4.8c-0.4-1.7-1.7-3.1-3.4-3.7
				l-40.1-12.2c-1.7-0.5-3.6-0.1-4.9,1.1c-1.3,1.2-1.9,3.1-1.4,4.8l9.8,39.6c0.4,1.7,1.7,3.1,3.4,3.6s3.5,0.1,4.8-1.1l4.6-4.2
				c25.1,30.4,61.7,49,101.1,51.4c39.3,2.4,78-11.5,106.7-38.5l-7.5-32.6C214.8,249.3,181.5,265.5,146.2,265.5L146.2,265.5z"/>
			<path class="st6" d="M285.4,203.8l-6.1-1.9c1.4-3.6,2.6-7.3,3.7-11h-0.2c3.7-12.7,5.5-25.9,5.5-39.2
				c0-63.9-42.7-117.8-101.2-135.3l-24.4,22.8c55.4,8,97.9,55.3,97.9,112.5c0,14.3-2.7,28.5-8,41.8l0.2,0.1l-6.6-2.1
				c-1.7-0.5-3.6-0.1-4.9,1.1c-1.3,1.2-1.9,3-1.5,4.8l9.4,40.6c0.4,1.8,1.7,3.2,3.4,3.7c1.7,0.5,3.6,0.1,4.9-1.2l29.6-28.2
				c1.2-1.2,1.8-3,1.4-4.7C288.2,205.8,287,204.4,285.4,203.8L285.4,203.8z"/>
			<path class="st4" d="M81.1,58.2c14.5-10,31.2-16.5,48.6-19l1.4,6.7c0.4,1.8,1.7,3.2,3.4,3.7c1.7,0.5,3.6,0.1,4.9-1.1l30.7-28.3
				c1.3-1.2,1.8-3,1.4-4.8c-0.4-1.7-1.7-3.1-3.4-3.6L128.8,0.2c-1.7-0.5-3.5-0.1-4.8,1.1c-1.3,1.2-1.9,3-1.5,4.7l1.3,6.2
				c-21.4,3.4-41.7,11.6-59.4,24L81.1,58.2z"/>
		</g>
	</g>
</g>
<rect y="0.8" class="st7" width="293" height="293"/>
</svg>
