<svg id="Layer_1" data-name="Layer 1" xmlns="http://www.w3.org/2000/svg" xmlns:xlink="http://www.w3.org/1999/xlink" viewBox="0 0 1518.92 386.56"><defs><style>.cls-1{fill:#dbd112;}.cls-2{fill:#3bba65;}.cls-3{fill:#248d7b;}.cls-4{fill:#187687;}.cls-5{fill:url(#linear-gradient);}.cls-6{fill:url(#linear-gradient-2);}.cls-7{fill:url(#linear-gradient-3);}.cls-8{fill:url(#linear-gradient-4);}.cls-9{fill:url(#linear-gradient-5);}</style><linearGradient id="linear-gradient" x1="368.49" y1="1591.41" x2="388.75" y2="1199.8" gradientUnits="userSpaceOnUse"><stop offset="0" stop-color="#0c5f92"/><stop offset="0.17" stop-color="#146e8b"/><stop offset="0.49" stop-color="#279478"/><stop offset="0.77" stop-color="#3bba65"/></linearGradient><linearGradient id="linear-gradient-2" x1="347.03" y1="1590.3" x2="367.29" y2="1198.69" xlink:href="#linear-gradient"/><linearGradient id="linear-gradient-3" x1="490.35" y1="1597.72" x2="510.61" y2="1206.1" xlink:href="#linear-gradient"/><linearGradient id="linear-gradient-4" x1="610.21" y1="1603.91" x2="630.47" y2="1212.3" xlink:href="#linear-gradient"/><linearGradient id="linear-gradient-5" x1="462.76" y1="1596.29" x2="483.02" y2="1204.67" xlink:href="#linear-gradient"/></defs><title>Logo Triple Performance</title><path class="cls-1" d="M523.89,1352.07v18.74a35.88,35.88,0,0,1,5.28-9.84c6.38-8.42,15.63-13.08,24.68-13.4a33.9,33.9,0,0,1-6.43,27.65,33,33,0,0,1-23.53,13.34v12.21c-1.32,1.17-2.62,2.35-3.9,3.56l-.13.12q-1.77-1.68-3.62-3.3v-12.59a33,33,0,0,1-23.53-13.34,33.86,33.86,0,0,1-6.42-27.65c9,.32,18.28,5,24.67,13.4a36,36,0,0,1,5.28,9.84v-18.74a33,33,0,0,1-23.53-13.33,33.87,33.87,0,0,1-6.42-27.66c9,.32,18.28,5,24.67,13.4a35.93,35.93,0,0,1,5.28,9.85v-18.74a33,33,0,0,1-23.53-13.34,33.86,33.86,0,0,1-6.42-27.65c9,.31,18.28,5,24.67,13.4a35.88,35.88,0,0,1,5.28,9.84v-11.62a32.46,32.46,0,0,1,3.82-48.42,32.45,32.45,0,0,1,3.83,48.42v11.62a35.88,35.88,0,0,1,5.28-9.84c6.38-8.42,15.63-13.09,24.68-13.4a33.9,33.9,0,0,1-6.43,27.65,33,33,0,0,1-23.53,13.34v18.74a35.93,35.93,0,0,1,5.28-9.85c6.38-8.42,15.63-13.08,24.68-13.4a33.92,33.92,0,0,1-6.43,27.66A33,33,0,0,1,523.89,1352.07Z" transform="translate(-333.54 -1168.05)"/><path class="cls-1" d="M590.2,1344.35v13.76A26.17,26.17,0,0,1,613.28,1341a23.65,23.65,0,0,1-3.8,18.74,195.3,195.3,0,0,0-32.89,9.46l-.06,0a26.37,26.37,0,0,1-10.37-7.91,24,24,0,0,1-4.95-20.31,25.71,25.71,0,0,1,19,9.84,26.1,26.1,0,0,1,4.07,7.23v-13.76a25.79,25.79,0,0,1-18.14-9.8,23.94,23.94,0,0,1-4.95-20.3,26.17,26.17,0,0,1,23.09,17.07v-13.77a25.76,25.76,0,0,1-18.14-9.8,23.94,23.94,0,0,1-4.95-20.3,26.17,26.17,0,0,1,23.09,17.07V1296a23.1,23.1,0,0,1,3-35.56,23.1,23.1,0,0,1,3,35.56v8.54a25.33,25.33,0,0,1,4.07-7.23,25.66,25.66,0,0,1,19-9.84,23.94,23.94,0,0,1-4.95,20.3,25.74,25.74,0,0,1-18.13,9.8v13.77a25.33,25.33,0,0,1,4.07-7.23,25.62,25.62,0,0,1,19-9.84,23.94,23.94,0,0,1-4.95,20.3A25.77,25.77,0,0,1,590.2,1344.35Z" transform="translate(-333.54 -1168.05)"/><path class="cls-1" d="M455.43,1344.35v13.76a26,26,0,0,1,4.07-7.23,25.69,25.69,0,0,1,19-9.84,24,24,0,0,1-4.95,20.31,26.44,26.44,0,0,1-10.37,7.91,193.88,193.88,0,0,0-33-9.49,23.79,23.79,0,0,1-3.79-18.73,25.69,25.69,0,0,1,19,9.84,26.1,26.1,0,0,1,4.07,7.23v-13.76a25.83,25.83,0,0,1-18.14-9.8,24,24,0,0,1-4.95-20.3,26.17,26.17,0,0,1,23.09,17.07v-13.77a25.8,25.8,0,0,1-18.14-9.8,24,24,0,0,1-4.95-20.3,26.17,26.17,0,0,1,23.09,17.07V1296a23.12,23.12,0,0,1,3-35.56,23.1,23.1,0,0,1,2.95,35.56v8.54a26.17,26.17,0,0,1,23.09-17.07,23.94,23.94,0,0,1-4.95,20.3,25.76,25.76,0,0,1-18.14,9.8v13.77a26.17,26.17,0,0,1,23.09-17.07,23.94,23.94,0,0,1-4.95,20.3A25.79,25.79,0,0,1,455.43,1344.35Z" transform="translate(-333.54 -1168.05)"/><path class="cls-2" d="M554.84,1493l-.1,0-.37-.16c-5.3-2.4-55.08-25.74-124.88-89.21,0,0,35.65,61.63,105,93.09a131,131,0,0,1-14.65.82,128.09,128.09,0,0,1-128.09-128.09c0-1.62,0-3.23.09-4.84v0c0-.26.05-.51.07-.77,52.95.37,99.93,21,129.68,52.82,19.91,21.27,32.11,47.54,33.22,76.08v.34Z" transform="translate(-333.54 -1168.05)"/><path class="cls-2" d="M648,1369.37a128.15,128.15,0,0,1-85.91,121,116.72,116.72,0,0,0-4.67-26.77c34.74-29,52.58-59.56,52.85-60a730.47,730.47,0,0,1-57.43,47.31A130.86,130.86,0,0,0,533.32,1419q-3-3.65-6.26-7.15c-.68-.72-1.36-1.44-2.07-2.16,29.85-27.88,73.77-45.61,122.81-46l.06.69h0C647.92,1366.07,648,1367.72,648,1369.37Z" transform="translate(-333.54 -1168.05)"/><path class="cls-3" d="M647.8,1363.73c-53.16,10-89.7,32.09-114.48,55.26q-3-3.65-6.26-7.15c-.68-.72-1.36-1.44-2.07-2.16C554.84,1381.8,598.76,1364.07,647.8,1363.73Z" transform="translate(-333.54 -1168.05)"/><path class="cls-4" d="M534.51,1496.64a131,131,0,0,1-14.65.82,128.09,128.09,0,0,1-128.09-128.09c0-1.62,0-3.23.09-4.84v0S411.27,1481.72,534.51,1496.64Z" transform="translate(-333.54 -1168.05)"/><path class="cls-5" d="M425.06,1252l-21.79-29a187.5,187.5,0,0,0-59,83.41l34.55,10.85A151.25,151.25,0,0,1,425.06,1252Z" transform="translate(-333.54 -1168.05)"/><path class="cls-6" d="M369.84,1368.24a150.27,150.27,0,0,1,5.28-39.59l-34.66-10.88a187.57,187.57,0,0,0-1.77,94.13l42.13,12.8A149.69,149.69,0,0,1,369.84,1368.24Z" transform="translate(-333.54 -1168.05)"/><path class="cls-7" d="M519.91,1518.31a149.79,149.79,0,0,1-117.32-56.49l6.8-6.22a6.57,6.57,0,0,0-2.52-11.13l-52.56-16a6.57,6.57,0,0,0-8.29,7.86l12.89,52.26a6.57,6.57,0,0,0,10.81,3.27l6-5.51a186.37,186.37,0,0,0,272.44,17.06l-9.85-43A149.79,149.79,0,0,1,519.91,1518.31Z" transform="translate(-333.54 -1168.05)"/><path class="cls-8" d="M702.41,1437l-8-2.57q2.7-7.12,4.84-14.52l-.22,0a186.6,186.6,0,0,0-125.43-230.22l-32,30a150.16,150.16,0,0,1,117.93,203.61l.31.09-8.64-2.75a6.57,6.57,0,0,0-8.39,7.73L655.13,1482a6.57,6.57,0,0,0,10.94,3.27L705,1448A6.57,6.57,0,0,0,702.41,1437Z" transform="translate(-333.54 -1168.05)"/><path class="cls-9" d="M434.56,1244.79a149.27,149.27,0,0,1,63.74-25.07l1.9,8.82a6.57,6.57,0,0,0,10.89,3.44l40.3-37.34a6.57,6.57,0,0,0-2.61-11.12l-51.63-15.2a6.56,6.56,0,0,0-8.27,7.68l1.75,8.17a185.2,185.2,0,0,0-77.9,31.61Z" transform="translate(-333.54 -1168.05)"/><path class="cls-4" d="M787.32,1338.59q7.21-22.35,13.81-44.08,2.82-9.15,5.65-19.1t5.49-19.6q2.65-9.64,4.7-18.69t3.61-16.55a131,131,0,0,0-14.59-.41,65.44,65.44,0,0,1-14.59-1.22q.32-3.24.32-7.52t.31-8.53q.32-4.67.63-10,8.15.4,16.31.61t16.32.2q16,0,30.9-.51T883.8,1192q12.71-.7,25-1.72l-3.46,11q-1.56,4.67-3,9.54t-2.66,8.33a135.41,135.41,0,0,1-14,1.73q-7.07.51-14,1.32-2.19,6.91-4.7,15.34T862.15,1255q-2.35,9-4.55,18.38t-4.39,17.88q-5,20.12-9.41,41.64Z" transform="translate(-333.54 -1168.05)"/><path class="cls-4" d="M873.54,1338.53q5.94-18.91,11.42-37,2-7.68,4.4-16t4.5-16.5q2.08-8.18,3.95-15.78t3-13.86a230.83,230.83,0,0,1,27-3.77q14.51-1.22,28.77-1.21a65.45,65.45,0,0,1,14.17,1.28,23.53,23.53,0,0,1,8.78,3.63,13.23,13.23,0,0,1,4.51,5.47,18,18,0,0,1,1.31,7,22.54,22.54,0,0,1-3.07,11.16,44.39,44.39,0,0,1-8.24,10.38,68.63,68.63,0,0,1-11.86,9,71.26,71.26,0,0,1-14.38,6.61q3.94,5.68,8.45,12.44t8.46,12.87q4.39,7.11,9,14.22l-34,7.68q-4.39-9.81-7.91-18.48c-1-2.37-2-4.82-3.07-7.33s-2-4.88-2.86-7.11-1.61-4.19-2.19-5.9a24,24,0,0,1-1.1-4l-2.85.57q-1.32,4.55-3.19,11.09t-3.4,12.66q-2,7.24-4,14.93Zm51.62-61.72a42.52,42.52,0,0,0,10.21-2.27,85.3,85.3,0,0,0,11.53-4.76,62.08,62.08,0,0,0,9.44-5.76q4-3,4-5.27a2.8,2.8,0,0,0-1.54-2.48,13.1,13.1,0,0,0-4.28-1.43,44.68,44.68,0,0,0-6-.63q-3.3-.15-6.81-.15c-1.61,0-3.26,0-4.94.07s-3.19.08-4.51.08Z" transform="translate(-333.54 -1168.05)"/><path class="cls-4" d="M997.19,1335.9q-5.72.35-11.86.85t-11.09.92c-3.3.29-5.09.48-5.38.57q2.64-6.1,5.27-13.58t5.38-15.64q2.75-8.18,5.27-16.56t4.94-16.21q5.49-18.21,10.76-37.4l34.27-3.56q-5.71,19.07-11.42,37.4-2.43,7.83-5,16.21t-4.83,16.64q-2.31,8.25-4.61,16t-4.06,14Q1002.9,1335.54,997.19,1335.9Z" transform="translate(-333.54 -1168.05)"/><path class="cls-4" d="M1013.44,1338.53q6.59-19.2,12.52-37.54,2.41-7.68,5-16.21t5-16.78q2.42-8.25,4.62-15.93t3.73-14.08q6.36-1.27,12.52-2.2t12.63-1.63a110.5,110.5,0,0,1,12.19-.72,55.42,55.42,0,0,1,16.58,2.14,30.4,30.4,0,0,1,10.87,5.76,20.28,20.28,0,0,1,5.93,8.46,30.17,30.17,0,0,1,1.76,10.38,29.1,29.1,0,0,1-4.51,15.35,47.57,47.57,0,0,1-12.08,13.16,62.49,62.49,0,0,1-17.35,9.17,61.25,61.25,0,0,1-20.31,3.41h-2.42q-1.76,4.85-3.29,10.52t-2.64,10.53q-1.53,5.68-2.85,11.37Zm56.45-70.11q-2.43,8.4-5.27,17.92a23.52,23.52,0,0,0,7.35-2.63,29.74,29.74,0,0,0,7.14-5.4,26.19,26.19,0,0,0,5.27-7.75,22.32,22.32,0,0,0,2-9.25c0-3.5-1.21-6.16-3.63-8a13.07,13.07,0,0,0-8-2.7Q1072.3,1260,1069.89,1268.42Z" transform="translate(-333.54 -1168.05)"/><path class="cls-4" d="M1143.57,1334.12q-7.58.29-15.26.85t-15,1.5q-7.35.91-13.28,2.2c.87-4.27,1.9-9,3.07-14.22s2.53-10.62,4.06-16.21,3.08-11.23,4.62-16.92,3.1-11.14,4.72-16.35q5.49-18.63,11.64-38l38.43-3.27q-5.93,16.5-11.42,32.14-2.41,6.68-4.83,13.86t-4.61,14q-2.21,6.83-4,13.22t-2.86,11.38q5.49-.28,11.75-.36t11.09-.07c.14,1.8.36,3.58.66,5.33s.62,3.34,1,4.76.66,2.68.88,3.77a15.82,15.82,0,0,0,.55,2.21c-1.18,0-2.31,0-3.41-.07s-2.23-.08-3.4-.08Q1151.15,1333.83,1143.57,1334.12Z" transform="translate(-333.54 -1168.05)"/><path class="cls-4" d="M1165.42,1338.53l28.77-101.1,69.4-3.84a52.17,52.17,0,0,0-2.63,6.4c-.74,1.8-1.43,3.67-2.09,5.61s-1.2,3.68-1.64,5.19q-2.2.15-6.26.22l-8.68.14c-3.07,0-6.19.07-9.33.07h-8.24l-7.69,25.45q6.81-.29,12.74-.42,4.83-.15,9.89-.15c3.36,0,5.85,0,7.46-.14-.58,2.66-1.13,5.26-1.64,7.82s-1.14,5.17-1.87,7.82c-1.47.1-3.84.17-7.14.22s-6.63.12-10,.21q-5.71.15-12.52.28l-7.47,26.17,32.07-3.27-2.2,16.21Z" transform="translate(-333.54 -1168.05)"/><path class="cls-4" d="M758.14,1531.68q9.42-27.43,17.89-53.63,3.45-11,7.21-23.16t7.22-24q3.45-11.78,6.59-22.75t5.33-20.11q9.11-1.83,17.89-3.15t18-2.34a161.73,161.73,0,0,1,17.41-1q14.12,0,23.69,3a43.65,43.65,0,0,1,15.53,8.23,29.09,29.09,0,0,1,8.47,12.09,43.16,43.16,0,0,1,2.51,14.83,41.6,41.6,0,0,1-6.43,21.94,68.24,68.24,0,0,1-17.26,18.79,89.34,89.34,0,0,1-24.78,13.1,87.4,87.4,0,0,1-29,4.87H825q-2.51,6.91-4.7,15t-3.77,15q-2.19,8.13-4.08,16.25Zm80.64-100.15q-3.45,12-7.53,25.6a34.19,34.19,0,0,0,10.51-3.76,42.62,42.62,0,0,0,10.2-7.72,37.66,37.66,0,0,0,7.53-11.07,32,32,0,0,0,2.82-13.21q0-7.51-5.18-11.37a18.74,18.74,0,0,0-11.45-3.86Q842.23,1419.55,838.78,1431.53Z" transform="translate(-333.54 -1168.05)"/><path class="cls-4" d="M879.75,1531.62l28.78-101.11,69.4-3.84a51.32,51.32,0,0,0-2.64,6.4q-1.1,2.72-2.08,5.62c-.66,1.94-1.21,3.68-1.65,5.19-1.47.1-3.55.17-6.26.21l-8.67.15c-3.08,0-6.19.07-9.34.07h-8.24l-7.68,25.45q6.79-.29,12.74-.43c3.21-.09,6.51-.14,9.88-.14s5.85,0,7.47-.14q-.88,4-1.65,7.82t-1.87,7.82q-2.19.15-7.14.21t-10,.22q-5.71.14-12.52.28l-7.46,26.17,32.06-3.27-2.19,16.21Z" transform="translate(-333.54 -1168.05)"/><path class="cls-4" d="M953.77,1531.62q5.93-18.91,11.42-37,2-7.67,4.39-16t4.5-16.5q2.08-8.18,4-15.78t3-13.87a231.08,231.08,0,0,1,27-3.76q14.49-1.21,28.77-1.21a64.67,64.67,0,0,1,14.16,1.28,23.75,23.75,0,0,1,8.79,3.62,13.23,13.23,0,0,1,4.5,5.48,17.74,17.74,0,0,1,1.32,7,22.55,22.55,0,0,1-3.08,11.16,44.34,44.34,0,0,1-8.23,10.38,69.92,69.92,0,0,1-11.86,9A71.35,71.35,0,0,1,1028,1482q4,5.68,8.46,12.44t8.45,12.87q4.39,7.11,9,14.22l-34,7.68q-4.41-9.81-7.91-18.49c-1-2.37-2.05-4.81-3.08-7.32s-2-4.88-2.85-7.11-1.61-4.2-2.2-5.9a26.22,26.22,0,0,1-1.1-4l-2.85.57q-1.32,4.54-3.19,11.09t-3.4,12.65q-2,7.26-3.95,14.93Zm51.61-61.72a43,43,0,0,0,10.21-2.27,83.55,83.55,0,0,0,11.53-4.77,61.9,61.9,0,0,0,9.45-5.76q3.95-3,4-5.26a2.81,2.81,0,0,0-1.54-2.49,13.18,13.18,0,0,0-4.28-1.42,45.9,45.9,0,0,0-6-.64q-3.3-.13-6.81-.14c-1.61,0-3.26,0-4.94.07s-3.18.07-4.5.07Z" transform="translate(-333.54 -1168.05)"/><path class="cls-4" d="M1064,1529.77q-7.26,1-12.74,1.85,2.64-6.12,5.16-13.73t5-16q2.52-8.4,4.83-17t4.51-16.56q4.61-18.91,9.22-39.11l73.58-2.41-6.37,17.49h-34.49l-6.81,25.31q6.81-.15,13-.14h10.33q5.26,0,8.12-.15c-.44,2.66-1,5.26-1.65,7.82s-1.28,5.12-1.86,7.68c-1.91,0-4.61,0-8.13-.07s-7.14-.12-10.87-.21l-12.63-.29-10.1,42q-7.47.86-14.72,1.85Q1071.26,1528.78,1064,1529.77Z" transform="translate(-333.54 -1168.05)"/><path class="cls-4" d="M1244.44,1476.51a76.65,76.65,0,0,1-10.21,18.92,82.24,82.24,0,0,1-14.83,15.35,106.19,106.19,0,0,1-17.68,11.52,90.57,90.57,0,0,1-18.67,7.25,70.69,70.69,0,0,1-18,2.49,45.56,45.56,0,0,1-13.17-1.78,30.28,30.28,0,0,1-10.33-5.26,24.06,24.06,0,0,1-6.92-9,31.22,31.22,0,0,1-2.52-13.15,51,51,0,0,1,3.07-16.78,92.21,92.21,0,0,1,8.35-17.49,90.45,90.45,0,0,1,13-16.49,102.14,102.14,0,0,1,16.91-13.87,86.48,86.48,0,0,1,19.77-9.59,68.19,68.19,0,0,1,22-3.56q9.89,0,16.36,2.63a25.92,25.92,0,0,1,10.1,6.83,24.92,24.92,0,0,1,5.16,9.45,37.21,37.21,0,0,1,1.54,10.52A62.39,62.39,0,0,1,1244.44,1476.51Zm-78.74,26a9.58,9.58,0,0,0,2.42,3,14.3,14.3,0,0,0,3.84,2.21,13.31,13.31,0,0,0,4.94.92,34.66,34.66,0,0,0,17.57-4.41,43.73,43.73,0,0,0,12.74-10.8,51.21,51.21,0,0,0,7.8-13.66,37.66,37.66,0,0,0,2.74-13.22,22.74,22.74,0,0,0-.33-3.7,11,11,0,0,0-1.31-3.69,8.21,8.21,0,0,0-3.08-2.92,11.21,11.21,0,0,0-5.6-1.21,35.83,35.83,0,0,0-13,2.28,39.75,39.75,0,0,0-10.65,6,45.23,45.23,0,0,0-8.24,8.53,72.43,72.43,0,0,0-6,9.67,41.91,41.91,0,0,0-3.62,9.6,36.5,36.5,0,0,0-1.1,8.11A7.24,7.24,0,0,0,1165.7,1502.47Z" transform="translate(-333.54 -1168.05)"/><path class="cls-4" d="M1234.45,1531.62q5.92-18.91,11.42-37,2-7.67,4.39-16t4.5-16.5q2.09-8.18,4-15.78c1.25-5.07,2.23-9.69,3-13.87a230.9,230.9,0,0,1,27-3.76q14.5-1.21,28.77-1.21a64.76,64.76,0,0,1,14.17,1.28,23.82,23.82,0,0,1,8.79,3.62,13.23,13.23,0,0,1,4.5,5.48,17.74,17.74,0,0,1,1.32,7,22.55,22.55,0,0,1-3.08,11.16,44.39,44.39,0,0,1-8.24,10.38,69.14,69.14,0,0,1-11.86,9,71.26,71.26,0,0,1-14.38,6.61q3.94,5.68,8.45,12.44t8.46,12.87q4.4,7.11,9,14.22l-34,7.68q-4.4-9.81-7.9-18.49-1.55-3.56-3.08-7.32c-1-2.51-2-4.88-2.85-7.11s-1.62-4.2-2.2-5.9a25.08,25.08,0,0,1-1.1-4l-2.85.57q-1.32,4.54-3.19,11.09t-3.4,12.65q-2,7.26-4,14.93Zm51.61-61.72a43,43,0,0,0,10.21-2.27,83.55,83.55,0,0,0,11.53-4.77,61.9,61.9,0,0,0,9.45-5.76q3.95-3,4-5.26a2.82,2.82,0,0,0-1.54-2.49,13.27,13.27,0,0,0-4.28-1.42,46.28,46.28,0,0,0-6-.64q-3.3-.13-6.81-.14c-1.61,0-3.26,0-4.94.07s-3.19.07-4.5.07Z" transform="translate(-333.54 -1168.05)"/><path class="cls-4" d="M1324.49,1530.62q9.66-18.91,18.45-37.11,3.74-7.68,7.69-16.07t7.9-16.64q4-8.25,7.36-15.92t6-14.22q12.08,0,22.84-.86t23.28-1.56c-.44,2.09-.92,4.43-1.43,7s-1.09,5.33-1.75,8.17-1.36,5.79-2.09,8.82-1.61,6.92-2.64,11.66-2.41,10.66-4.17,17.78h2.86q6.36-10.82,10.54-18l6.81-11.73q2.63-4.56,5.38-8.89t5.27-8.25c1.68-2.61,3.26-4.9,4.72-6.9q5.49-.27,10.32-.71t9.67-.92l9.77-1q4.95-.49,10.87-1.2-2.19,8.24-4.17,16.92t-3.51,17.27q-1.55,8.61-3,17t-2.53,15.92q-2.62,17.64-4.61,34.41l-38.21,4.41q0-.71.33-3.84t.87-7.68c.37-3,.88-6.4,1.54-10.09l2-11.09q1-5.55,2.09-10.74t2.19-8.89h-2q-3.09,6-6.81,12.59t-7.58,13.44q-3.84,6.82-7.58,13.36t-6.59,12.52c-5.12.09-9.52.21-13.17.35l-12.74.5,7-52.76h-3.3a48.1,48.1,0,0,1-2.2,6.19q-1.76,4.33-4.06,9.95t-4.94,11.66q-2.64,6-4.94,11.24t-3.84,8.53c-1,2.23-1.62,3.48-1.76,3.77Z" transform="translate(-333.54 -1168.05)"/><path class="cls-4" d="M1535.77,1529.91l-11.86,1.28q.87-4.7,1.76-9.24c.44-2.66.84-5.31,1.2-8s.7-4.92,1-6.82h-19.11l-8.78,20.47q-4.83.43-11.42.93l-12.3.92-13.84,1.14q8.79-18.91,17.35-37.25,3.51-7.68,7.36-16.07t7.69-16.71q3.84-8.33,7.36-16t6.15-14.08q14.92-.71,30.41-1.7t30.2-2.7q-.66,4.55-1.43,11.3t-1.42,14.72q-.66,8-1.32,16.63t-1.32,17.07q-1.1,19.62-2.41,41.66-6.6.72-13.18,1.14Zm-21.74-37c.58,0,1.64,0,3.18-.07l4.83-.15,4.72-.14a27.66,27.66,0,0,0,3.08-.21,21.57,21.57,0,0,1,.33-2.92c.22-1.37.44-2.93.66-4.69s.47-3.67.77-5.76.58-4.12.87-6.11q.88-7.26,2.2-15.64l1.32-12.37-3.3.14-5,12.23Z" transform="translate(-333.54 -1168.05)"/><path class="cls-4" d="M1563.44,1532.18q6.15-20,11.86-39.1,2.19-8,4.72-16.71t4.73-17.2q2.19-8.46,4.06-16.36t3-14.43l13.18-.57q5.71-.29,11.64-.5c4-.14,7.47-.3,10.54-.49q2.85,11,5,20.9c.74,2.84,1.5,5.81,2.31,8.89l2.31,8.88c.73,2.85,1.46,5.57,2.19,8.18s1.47,4.91,2.2,6.9q.87-3,2-6.9c.73-2.61,1.53-5.35,2.41-8.25s1.79-5.85,2.75-8.88,1.86-6,2.74-8.82q3.3-10,6.81-20.76l26.8-2.13q-7.47,21.33-13.18,40.38-2.64,8.25-5.16,16.64t-4.73,16.21q-2.19,7.82-3.73,14.43t-2.42,11.16c-.43,0-2.16.22-5.16.64l-10.32,1.5c-3.88.56-7.76,1.16-11.64,1.77s-6.77,1.12-8.67,1.5q-1.55-11.52-3.3-21.9-.66-4.41-1.54-9.1t-1.64-9c-.52-2.85-1-5.52-1.54-8s-1-4.62-1.43-6.32c-.44,1.7-1,3.79-1.76,6.25s-1.46,5.1-2.19,7.9-1.47,5.68-2.2,8.67-1.54,5.9-2.41,8.74q-2.87,10.11-6.15,21Z" transform="translate(-333.54 -1168.05)"/><path class="cls-4" d="M1743.64,1514.48a74.44,74.44,0,0,1-13.61,9.67,61.48,61.48,0,0,1-14.39,5.76,56.92,56.92,0,0,1-14.06,1.85,36.7,36.7,0,0,1-12.4-2,27.09,27.09,0,0,1-9.78-6,29.54,29.54,0,0,1-6.7-9.81,34.14,34.14,0,0,1-2.52-13.65,65,65,0,0,1,5.71-26.37,76.51,76.51,0,0,1,16-23.4,80.23,80.23,0,0,1,24.49-16.7,75.86,75.86,0,0,1,31.3-6.33,35.52,35.52,0,0,1,10.1,1.42,27.06,27.06,0,0,1,8.35,4,19.7,19.7,0,0,1,5.6,6.26,16.47,16.47,0,0,1,2.08,8.25v1.77a8.64,8.64,0,0,1-.22,1.92l-28.77,5q-2.64-3.55-6.15-3.56a13.16,13.16,0,0,0-7.36,2.63,42,42,0,0,0-7.57,6.83,89.89,89.89,0,0,0-7.25,9.39,93.39,93.39,0,0,0-6.15,10.45,83.55,83.55,0,0,0-4.28,10,25,25,0,0,0-1.65,7.75q0,4.56,1.87,6.4a6.72,6.72,0,0,0,4.94,1.85,15.16,15.16,0,0,0,5.49-1.21,25.33,25.33,0,0,0,5.71-3.13,31.53,31.53,0,0,0,4.83-4.33,15.14,15.14,0,0,0,3.08-4.84l25,6.54A71.18,71.18,0,0,1,1743.64,1514.48Z" transform="translate(-333.54 -1168.05)"/><path class="cls-4" d="M1754.29,1531.62l28.77-101.11,69.41-3.84a51.32,51.32,0,0,0-2.64,6.4q-1.1,2.72-2.09,5.62c-.66,1.94-1.2,3.68-1.64,5.19q-2.2.15-6.26.21l-8.68.15c-3.07,0-6.19.07-9.33.07h-8.24l-7.69,25.45q6.81-.29,12.74-.43,4.83-.13,9.89-.14t7.46-.14q-.87,4-1.64,7.82t-1.87,7.82c-1.47.1-3.84.17-7.14.21s-6.63.12-10,.22q-5.71.14-12.52.28l-7.47,26.17,32.07-3.27-2.2,16.21Z" transform="translate(-333.54 -1168.05)"/></svg>