<?xml version="1.0" standalone="no"?>
<!DOCTYPE svg PUBLIC "-//W3C//DTD SVG 20010904//EN"
 "http://www.w3.org/TR/2001/REC-SVG-20010904/DTD/svg10.dtd">
<svg version="1.0" xmlns="http://www.w3.org/2000/svg"
 width="700.000000pt" height="700.000000pt" viewBox="0 0 700.000000 700.000000"
 preserveAspectRatio="xMidYMid meet">
<metadata>
Created by potrace 1.11, written by Peter Selinger 2001-2013
</metadata>
<g transform="translate(0.000000,700.000000) scale(0.100000,-0.100000)"
fill="#000000" stroke="none">
<path d="M2988 6985 c-57 -32 -69 -91 -43 -204 9 -35 14 -66 11 -68 -2 -2 -16
-6 -32 -9 -16 -3 -36 -7 -44 -9 -8 -2 -31 -7 -50 -10 -162 -27 -432 -109 -634
-191 -116 -48 -321 -148 -386 -189 -22 -14 -42 -25 -45 -25 -3 0 -18 -8 -33
-19 -15 -10 -64 -42 -109 -71 -82 -53 -82 -54 -65 -76 412 -547 381 -508 401
-490 32 28 208 130 321 185 247 122 561 221 774 246 49 6 52 5 53 -17 4 -49
36 -164 52 -182 52 -59 125 -60 187 -1 6 5 51 47 100 91 116 107 130 119 258
238 133 123 131 122 241 221 110 99 133 123 149 155 27 52 -5 129 -63 154 -20
8 -178 56 -351 106 -173 51 -375 109 -449 131 -163 48 -207 54 -243 34z"/>
<path d="M4444 6581 c-29 -26 -74 -68 -313 -291 -73 -69 -159 -149 -190 -177
-48 -45 -53 -53 -33 -53 13 0 58 -7 100 -16 384 -78 709 -211 1017 -418 183
-122 429 -342 555 -495 25 -30 50 -59 55 -65 60 -65 206 -289 278 -426 130
-246 239 -563 273 -790 3 -19 9 -60 14 -90 18 -106 25 -216 25 -390 0 -269
-27 -472 -94 -710 -35 -125 -90 -280 -99 -280 -4 0 -41 12 -82 25 -41 14 -87
25 -103 25 -61 0 -117 -54 -117 -113 0 -13 25 -129 55 -258 60 -251 94 -399
101 -439 3 -14 23 -97 44 -184 34 -139 43 -162 67 -182 54 -43 117 -36 178 21
17 16 109 103 205 195 96 92 211 201 255 243 272 257 274 260 261 330 -9 49
-44 76 -138 107 -46 15 -82 31 -81 36 1 5 15 47 32 94 46 130 115 407 135 545
4 22 8 54 11 70 37 242 42 634 10 885 -9 67 -25 175 -30 200 -2 14 -10 50 -16
80 -39 198 -128 481 -199 635 -84 182 -113 242 -150 305 -23 41 -51 91 -62
110 -23 40 -179 272 -188 280 -3 3 -23 27 -43 53 -150 200 -412 456 -645 631
-299 225 -673 417 -1018 521 -40 12 -44 11 -70 -14z"/>
<path d="M1269 5919 c-151 -129 -327 -316 -473 -499 -56 -72 -177 -254 -249
-375 -80 -137 -247 -502 -247 -541 0 -6 15 -15 32 -21 85 -30 590 -184 592
-181 2 1 13 30 26 63 40 104 141 306 207 415 55 90 175 264 193 280 3 3 30 34
59 70 64 76 263 275 315 315 42 32 44 41 13 76 -12 15 -98 128 -192 252 -93
125 -173 226 -176 227 -3 0 -48 -36 -100 -81z"/>
<path d="M3431 5678 c-98 -98 -160 -241 -166 -383 -6 -142 32 -266 117 -381
l45 -61 1 -98 1 -98 -26 54 c-79 158 -204 274 -354 326 -88 30 -158 40 -169
24 -16 -26 -9 -200 11 -271 61 -223 229 -388 449 -444 l85 -22 1 -157 c1 -86
-3 -157 -8 -157 -4 0 -8 8 -9 18 0 27 -79 147 -132 201 -96 99 -214 158 -354
177 l-41 6 -8 -47 c-30 -206 73 -448 246 -577 78 -58 223 -118 285 -118 l24 0
-1 -167 0 -168 -28 58 c-99 198 -274 328 -474 352 l-45 5 -7 -45 c-3 -25 -4
-80 -1 -123 18 -275 227 -514 492 -564 l65 -13 0 -115 0 -115 30 -25 c34 -28
33 -28 78 8 l32 26 0 111 0 110 66 13 c284 54 502 339 488 637 -2 42 -6 81
-10 86 -5 9 -34 7 -104 -6 -169 -33 -354 -190 -423 -360 l-16 -40 -1 35 c-3
80 -2 291 1 295 2 2 24 6 48 10 284 42 517 335 505 634 -4 102 -5 104 -57 97
-206 -28 -398 -177 -479 -371 -17 -40 -17 -39 -17 126 l-1 167 48 7 c237 35
459 260 500 510 10 59 5 206 -7 218 -17 17 -156 -18 -237 -58 -120 -61 -232
-178 -283 -298 -11 -26 -22 -47 -23 -47 -2 0 -3 44 -2 98 l1 97 44 60 c89 119
120 221 115 375 -4 123 -26 196 -88 292 -43 66 -121 148 -141 148 -7 0 -37
-24 -66 -52z"/>
<path d="M2211 5279 c-150 -147 -167 -379 -40 -547 33 -43 42 -63 41 -94 -2
-113 1 -108 -27 -52 -29 58 -93 129 -153 172 -46 32 -141 68 -204 75 -42 5
-39 12 -43 -98 -4 -148 111 -323 259 -393 59 -28 128 -48 154 -43 13 2 14 -5
13 -139 0 -109 0 -110 -14 -78 -58 130 -212 245 -354 264 -49 6 -50 6 -56 -22
-9 -49 0 -151 19 -201 58 -156 193 -273 351 -305 44 -9 53 -15 54 -32 1 -30 1
-145 0 -185 l-1 -35 -26 52 c-29 58 -104 139 -163 177 -43 27 -136 60 -192 69
-33 5 -37 3 -42 -20 -9 -50 2 -162 23 -218 28 -73 56 -104 100 -109 62 -8 271
-64 413 -112 79 -26 146 -43 157 -40 39 13 140 96 178 147 61 83 85 150 88
246 4 104 1 111 -39 105 -153 -22 -285 -111 -355 -239 l-31 -59 -1 121 0 122
48 7 c71 10 181 68 241 128 93 92 141 206 141 330 0 71 -8 80 -59 72 -141 -21
-283 -123 -345 -247 l-27 -53 3 124 3 125 34 4 c120 13 255 108 334 233 47 76
77 265 47 295 -18 18 -109 -2 -185 -40 -94 -47 -170 -121 -215 -212 l-19 -39
-1 76 c0 65 3 79 21 95 12 10 32 37 45 59 95 163 75 368 -48 496 -73 76 -69
76 -127 18z"/>
<path d="M4677 5289 c-53 -46 -98 -120 -121 -197 -19 -67 -15 -181 9 -247 18
-49 80 -147 97 -153 4 -2 8 -38 8 -80 l0 -77 -33 58 c-73 131 -201 218 -355
240 -28 5 -33 2 -38 -19 -11 -43 3 -167 25 -224 11 -31 42 -83 69 -115 76 -95
167 -149 305 -179 l27 -6 0 -118 0 -117 -32 55 c-66 113 -187 203 -312 231
-86 19 -90 15 -84 -96 5 -84 10 -104 41 -169 65 -131 189 -229 325 -257 l62
-13 0 -121 0 -120 -33 58 c-17 32 -54 81 -82 108 -55 55 -165 115 -230 125
-22 3 -47 7 -55 9 -23 4 -30 -15 -30 -86 0 -158 89 -309 233 -394 l48 -27 172
56 c95 31 224 68 287 82 63 13 123 27 132 30 21 6 50 56 73 124 19 57 25 194
9 209 -14 15 -112 -7 -183 -41 -75 -36 -177 -133 -205 -195 -10 -23 -22 -41
-25 -38 -4 2 -7 52 -6 111 l0 108 58 13 c160 36 286 144 347 297 18 44 24 79
24 142 0 46 -3 86 -7 90 -12 12 -123 -14 -185 -44 -68 -31 -180 -139 -208
-200 -10 -23 -21 -42 -24 -42 -7 0 -6 218 2 225 3 3 14 7 24 9 184 37 323 155
379 321 18 55 26 154 15 194 -6 23 -11 26 -44 23 -48 -4 -155 -44 -198 -74
-54 -38 -117 -107 -149 -164 -17 -30 -32 -54 -32 -54 -1 0 -2 31 -2 68 1 61 4
73 31 108 146 184 122 440 -53 588 l-31 26 -45 -41z"/>
<path d="M221 4269 c-9 -25 -46 -183 -55 -234 -3 -16 -10 -55 -16 -85 -6 -30
-13 -77 -16 -105 -4 -27 -8 -52 -10 -55 -10 -18 -19 -225 -19 -425 0 -256 5
-316 41 -550 12 -74 45 -220 52 -226 8 -8 196 -66 598 -187 l161 -48 -42 121
c-110 317 -154 594 -150 945 2 118 5 224 8 235 2 11 8 46 12 79 10 85 12 99
41 234 15 67 25 124 23 126 -2 1 -103 34 -224 71 -242 75 -351 109 -377 120
-13 5 -20 1 -27 -16z"/>
<path d="M1163 3443 c-6 -16 3 -308 11 -358 3 -16 10 -61 15 -100 54 -361 220
-743 455 -1045 75 -97 93 -117 196 -221 385 -387 901 -628 1450 -677 118 -10
431 -7 453 5 4 2 -62 39 -146 82 -254 129 -546 321 -762 499 -375 309 -724
696 -958 1061 l-29 45 34 -30 c18 -16 48 -43 67 -59 19 -17 59 -52 89 -80 30
-27 64 -56 76 -64 11 -8 23 -18 26 -21 13 -17 311 -263 419 -347 419 -323 731
-541 1075 -747 157 -95 472 -266 489 -266 6 0 1 116 -7 175 -85 587 -400 1102
-920 1500 -480 367 -1120 602 -1771 650 -185 14 -256 13 -262 -2z"/>
<path d="M5668 3455 c-2 -1 -50 -5 -108 -9 -307 -19 -672 -99 -975 -213 -338
-127 -749 -372 -955 -569 -44 -43 -44 -44 -25 -62 33 -31 156 -170 190 -215
99 -131 179 -261 255 -415 l45 -93 75 56 c41 31 89 66 105 79 17 13 68 54 115
90 47 37 100 79 119 94 38 29 148 119 171 140 26 21 63 53 110 91 24 20 51 43
60 51 9 8 32 28 51 44 19 16 70 61 114 100 111 97 121 105 110 86 -66 -114
-248 -352 -425 -555 -95 -110 -458 -460 -519 -502 -2 -1 3 -31 12 -65 36 -135
49 -209 63 -351 7 -68 7 -68 33 -62 14 4 73 27 131 52 420 181 781 483 1026
859 49 75 68 107 127 217 100 183 210 532 233 737 15 134 18 182 18 290 l1
125 -77 1 c-43 0 -79 0 -80 -1z"/>
<path d="M383 2270 c-56 -34 -69 -80 -46 -167 8 -32 17 -65 18 -73 3 -12 85
-350 100 -410 3 -8 16 -62 30 -120 26 -102 31 -121 39 -157 45 -196 71 -236
150 -236 47 0 63 9 151 88 44 39 50 41 62 21 23 -39 199 -223 319 -333 446
-408 1068 -719 1649 -822 33 -6 69 -13 80 -15 63 -12 151 -23 280 -35 91 -9
555 -7 610 3 17 3 68 10 115 16 47 5 96 13 110 15 14 3 40 8 57 10 140 20 431
103 623 177 387 151 766 386 1069 664 33 31 34 33 23 75 -12 47 -71 301 -78
334 -5 26 -8 39 -40 175 -15 63 -32 140 -38 170 l-12 54 -63 -74 c-80 -96
-291 -303 -367 -360 -33 -25 -68 -53 -79 -63 -58 -52 -292 -196 -440 -270
-194 -96 -523 -206 -697 -232 -24 -4 -45 -8 -48 -10 -3 -2 -48 -8 -100 -14
-52 -6 -111 -13 -130 -16 -84 -11 -446 -5 -545 9 -16 3 -52 8 -80 11 -403 53
-861 236 -1200 479 -169 121 -415 348 -513 473 -32 41 -33 42 -14 60 138 129
151 149 137 212 -11 50 -52 76 -180 116 -66 20 -133 41 -150 45 -16 5 -136 41
-265 80 -518 158 -487 151 -537 120z"/>
</g>
</svg>
