<?xml version="1.0" standalone="no"?>
<!DOCTYPE svg PUBLIC "-//W3C//DTD SVG 20010904//EN"
 "http://www.w3.org/TR/2001/REC-SVG-20010904/DTD/svg10.dtd">
<svg version="1.0" xmlns="http://www.w3.org/2000/svg"
 width="700.000000pt" height="700.000000pt" viewBox="0 0 700.000000 700.000000"
 preserveAspectRatio="xMidYMid meet">
<metadata>
Created by potrace 1.11, written by Peter Selinger 2001-2013
</metadata>
<g transform="translate(0.000000,700.000000) scale(0.100000,-0.100000)"
fill="#000000" stroke="none">
<path d="M3070 6942 c-38 -6 -77 -39 -89 -75 -9 -26 -8 -52 4 -113 18 -96 18
-101 3 -101 -34 -1 -267 -59 -380 -94 -204 -64 -421 -159 -598 -262 -115 -68
-291 -187 -296 -202 -4 -9 303 -460 346 -508 4 -5 56 24 115 64 184 123 432
239 650 303 115 33 284 68 300 62 7 -2 18 -33 24 -68 17 -98 29 -132 55 -150
56 -40 116 -27 177 38 20 22 172 173 338 337 165 164 308 308 315 320 40 61
13 144 -56 171 -32 13 -394 128 -776 247 -51 16 -96 30 -100 32 -4 2 -18 1
-32 -1z"/>
<path d="M4124 6289 c-213 -213 -264 -269 -246 -270 12 -1 25 -2 30 -4 4 -1
25 -5 47 -9 110 -22 293 -73 310 -88 5 -4 17 -8 26 -8 15 0 51 -14 149 -57
215 -95 430 -227 595 -366 66 -56 284 -272 329 -327 350 -428 559 -923 622
-1470 14 -124 19 -417 9 -525 -7 -80 -15 -158 -20 -190 -11 -71 -14 -89 -30
-167 -16 -79 -24 -110 -59 -238 -17 -60 -52 -160 -60 -167 -2 -3 -42 7 -88 22
-79 26 -85 27 -120 12 -44 -18 -68 -52 -70 -98 -1 -29 18 -127 52 -274 8 -32
68 -314 85 -398 2 -10 6 -26 9 -35 3 -9 8 -30 10 -47 13 -77 56 -257 66 -275
13 -23 60 -50 90 -50 39 0 64 21 238 198 96 98 247 251 336 342 90 91 168 175
175 188 6 12 11 40 9 62 -3 52 -38 89 -109 114 -110 39 -102 18 -59 158 32
104 56 194 75 284 2 10 10 51 18 89 8 39 18 90 21 115 3 25 8 59 11 75 39 220
41 741 5 958 -6 31 -14 83 -20 115 -5 31 -12 75 -15 97 -8 51 -77 321 -104
400 -46 139 -80 229 -124 325 -11 25 -32 72 -47 105 -15 34 -59 118 -99 188
-159 284 -327 505 -560 737 -326 324 -698 560 -1127 715 l-91 33 -269 -269z"/>
<path d="M1504 5929 c-118 -100 -364 -369 -460 -505 -25 -35 -154 -230 -171
-259 -119 -198 -296 -583 -305 -665 -3 -24 7 -28 272 -117 151 -51 280 -92
287 -93 6 0 17 17 23 38 43 131 154 365 249 517 95 154 230 324 371 468 l136
139 -174 246 c-95 136 -177 251 -182 255 -4 5 -25 -6 -46 -24z"/>
<path d="M3437 5640 c-169 -182 -202 -454 -84 -686 14 -28 37 -65 51 -82 24
-28 26 -37 26 -127 l0 -97 -42 83 c-84 169 -249 292 -420 313 -33 4 -37 2 -41
-22 -3 -15 -4 -70 -3 -122 7 -184 84 -344 223 -461 62 -53 170 -105 233 -114
48 -7 50 -8 50 -38 0 -18 2 -89 3 -160 1 -70 0 -127 -3 -127 -3 0 -13 20 -23
44 -74 179 -248 321 -424 345 -50 7 -52 7 -56 -18 -3 -14 -4 -69 -3 -121 6
-213 120 -412 295 -514 61 -35 149 -66 187 -66 21 0 24 -5 25 -37 1 -52 1
-244 0 -266 -1 -10 -20 18 -43 63 -86 167 -258 296 -418 312 -29 3 -35 -1 -41
-22 -19 -67 -1 -238 33 -325 44 -113 145 -238 243 -300 57 -37 159 -75 200
-75 29 0 28 4 26 -131 l-1 -95 33 -32 33 -32 32 35 c32 34 32 35 32 146 0 62
3 110 6 107 9 -10 116 22 180 53 61 29 167 122 210 184 49 71 94 181 109 269
10 60 7 197 -5 211 -23 28 -195 -28 -276 -90 -97 -74 -181 -188 -217 -295 -3
-8 -6 59 -6 150 l-1 166 25 2 c38 3 145 41 190 67 132 76 244 233 281 392 15
67 20 215 8 247 -8 22 -47 20 -125 -4 -151 -46 -298 -187 -362 -345 -16 -39
-16 -37 -16 122 l-1 163 28 6 c75 16 132 36 177 63 189 110 308 321 307 548
-1 109 -9 123 -64 112 -178 -33 -325 -150 -414 -327 l-33 -67 -1 94 c0 90 1
95 34 140 144 198 156 481 27 677 -35 54 -113 144 -124 144 -3 0 -30 -27 -60
-60z"/>
<path d="M2323 5257 c-87 -94 -123 -192 -118 -317 4 -87 30 -166 78 -234 30
-41 34 -54 35 -113 l1 -67 -39 66 c-70 116 -183 199 -299 217 -47 7 -49 7 -54
-17 -10 -52 2 -159 24 -217 54 -145 177 -255 317 -285 l48 -11 1 -116 2 -117
-29 52 c-70 129 -192 219 -317 236 -48 6 -45 11 -48 -84 -5 -200 157 -406 345
-438 l45 -8 2 -119 1 -119 -31 59 c-62 116 -193 213 -309 230 -53 8 -48 14
-53 -70 -4 -58 13 -142 41 -202 21 -47 28 -53 66 -62 146 -36 280 -75 388
-114 141 -52 149 -51 232 23 102 89 156 208 156 342 0 95 -4 98 -90 74 -74
-21 -132 -53 -183 -103 -39 -39 -105 -134 -105 -152 0 -5 -3 -12 -7 -14 -5 -3
-7 43 -6 101 2 135 2 136 9 130 8 -9 112 24 160 49 124 66 218 225 223 375 3
92 -3 109 -37 103 -147 -26 -265 -113 -328 -241 -15 -30 -27 -54 -28 -54 -1 0
2 219 3 231 1 4 18 10 39 14 146 27 284 156 332 312 22 71 27 192 9 210 -14
14 -103 -9 -171 -43 -65 -33 -150 -120 -183 -188 -15 -31 -28 -56 -29 -56 -1
0 -1 30 -1 68 1 60 5 73 38 122 127 190 97 429 -70 573 -20 17 -21 16 -60 -26z"/>
<path d="M4566 5248 c-140 -161 -147 -386 -20 -554 20 -26 24 -43 24 -100 l-1
-69 -32 59 c-58 108 -147 180 -267 216 -88 26 -93 22 -92 -85 1 -188 147 -380
322 -421 19 -4 38 -9 43 -10 4 -1 12 -2 17 -3 6 -1 10 -47 10 -118 l-1 -118
-27 55 c-47 96 -166 195 -267 224 -46 13 -84 15 -90 6 -10 -17 -8 -133 4 -185
39 -162 183 -308 331 -333 l45 -8 2 -119 3 -120 -28 53 c-64 123 -194 221
-314 238 -47 6 -48 6 -49 -22 0 -16 -2 -40 -3 -53 -5 -47 23 -162 54 -220 36
-67 106 -141 166 -177 l42 -25 103 39 c90 34 249 81 410 122 41 11 49 17 68
58 30 65 49 168 42 227 l-6 50 -44 -2 c-25 -2 -74 -18 -116 -38 -83 -39 -158
-115 -200 -199 l-25 -50 0 117 0 117 28 5 c90 19 181 71 249 143 75 81 126
231 114 336 -7 59 -17 63 -105 36 -111 -35 -201 -112 -260 -224 l-26 -49 0
115 0 114 48 12 c144 38 260 139 314 277 17 42 32 124 31 163 -3 96 -4 96 -85
74 -121 -34 -217 -110 -276 -219 l-31 -58 -1 67 c0 62 3 72 36 117 65 91 94
226 72 339 -17 87 -118 242 -158 242 -10 0 -34 -19 -54 -42z"/>
<path d="M471 4183 c-11 -49 -22 -101 -25 -118 -3 -16 -10 -55 -16 -85 -36
-202 -45 -322 -45 -610 0 -234 4 -314 20 -425 3 -22 10 -71 15 -110 22 -152
46 -245 63 -245 9 0 336 -104 613 -195 l72 -23 -34 102 c-98 287 -148 596
-148 911 0 85 12 296 18 330 3 18 12 74 21 135 9 57 17 99 31 163 9 38 14 70
12 71 -8 6 -554 186 -565 186 -6 0 -20 -39 -32 -87z"/>
<path d="M1354 3287 c3 -95 8 -190 11 -212 48 -320 105 -513 225 -762 367
-762 1107 -1243 1905 -1237 153 1 225 5 230 14 2 4 -17 17 -43 29 -216 104
-502 294 -742 495 -108 91 -427 407 -490 485 -19 24 -60 73 -90 110 -30 37
-66 82 -80 101 -14 18 -41 54 -60 79 -47 61 -194 281 -216 323 -13 26 1 16 67
-48 87 -84 182 -172 258 -240 25 -21 54 -48 66 -59 11 -11 34 -31 51 -45 16
-14 61 -52 99 -86 419 -366 914 -728 1315 -962 72 -42 205 -112 213 -112 18 0
-30 324 -68 465 -167 608 -604 1138 -1211 1467 -303 164 -715 300 -1014 333
-30 3 -66 8 -80 10 -45 7 -173 17 -263 20 l-88 4 5 -172z"/>
<path d="M5488 3455 c-2 -1 -46 -5 -98 -9 -96 -6 -117 -9 -225 -26 -33 -5 -77
-12 -97 -15 -21 -4 -106 -23 -190 -44 -466 -117 -915 -357 -1247 -670 l-55
-50 20 -23 c10 -13 22 -25 25 -28 22 -19 174 -221 219 -290 45 -71 189 -342
202 -382 5 -14 111 70 378 298 112 95 395 348 435 389 11 11 49 47 84 80 l63
60 -31 -52 c-62 -107 -216 -328 -291 -419 -14 -17 -34 -42 -44 -55 -30 -38
-117 -140 -161 -189 -22 -25 -110 -115 -196 -200 l-156 -155 22 -100 c13 -55
26 -122 29 -150 4 -27 9 -63 12 -80 3 -16 7 -52 9 -80 2 -27 4 -53 4 -57 3
-21 262 107 402 197 145 94 225 160 364 299 177 179 305 357 418 582 58 116
142 330 152 384 3 18 8 37 12 42 5 10 28 102 38 155 2 15 7 38 9 50 3 11 8 43
12 70 3 26 8 57 10 68 11 59 20 268 15 378 l-1 28 -70 -2 c-38 -1 -71 -3 -72
-4z"/>
<path d="M665 2303 c-45 -11 -83 -67 -79 -118 1 -16 14 -79 28 -140 14 -60 40
-171 57 -245 16 -74 37 -162 45 -195 9 -33 18 -71 20 -85 3 -14 7 -33 10 -42
3 -9 7 -27 9 -40 10 -51 38 -166 51 -210 17 -52 48 -78 97 -82 37 -3 57 8 129
75 29 27 55 45 59 41 4 -4 42 -50 85 -102 105 -128 297 -317 430 -424 97 -78
314 -231 354 -249 8 -4 31 -17 50 -28 232 -142 646 -300 895 -343 206 -36 258
-43 365 -52 146 -11 466 -5 560 11 14 2 45 7 70 10 190 25 526 111 645 165 11
5 43 18 71 29 187 72 445 218 652 369 178 130 376 313 368 340 -6 20 -54 240
-61 284 -3 17 -8 35 -10 38 -3 4 -7 25 -11 46 -3 22 -11 64 -18 94 -8 30 -21
93 -31 140 -10 47 -21 98 -24 114 l-7 29 -34 -44 c-295 -381 -680 -671 -1105
-831 -77 -29 -123 -45 -155 -53 -8 -2 -46 -13 -85 -24 -373 -104 -860 -100
-1240 10 -418 122 -770 330 -1075 638 -109 109 -240 261 -240 277 0 3 32 40
71 82 l71 74 -4 50 c-8 79 -25 90 -264 168 -471 155 -707 230 -718 229 -6 -1
-20 -4 -31 -6z"/>
</g>
</svg>
