<svg xmlns="http://www.w3.org/2000/svg" viewBox="0 0 90.25 60.95"><defs><style>.cls-1{fill:#716d6d;}</style></defs><title>Asset 3</title><g id="Layer_2" data-name="Layer 2"><g id="Layer_1-2" data-name="Layer 1"><path class="cls-1" d="M74.19,0a1.31,1.31,0,0,0-.66.18,1.3,1.3,0,0,0-.48,1.74l-2.12,4.7L69.67,2.16A1.31,1.31,0,0,0,69.19.38a1.3,1.3,0,0,0-1.32,2.24l1.55,5.2L67.62,14A3.55,3.55,0,0,1,64.2,16.3,8.88,8.88,0,0,1,60,14.87l-1.8-4.95a6,6,0,0,0-3.45-4.8c-.14-2.18-.85-2.74-1.54-2.74A2.63,2.63,0,0,0,51.72,3,7.88,7.88,0,0,0,46.4,1.3l-.81,0c-.29,0-.46.05-.46.05a10.4,10.4,0,0,0-1.28-.07A7.88,7.88,0,0,0,38.53,3a2.63,2.63,0,0,0-1.46-.64c-.69,0-1.4.56-1.54,2.74a6,6,0,0,0-3.45,4.8l-1.8,4.95a8.88,8.88,0,0,1-4.23,1.43A3.55,3.55,0,0,1,22.63,14l-1.8-6.15,1.55-5.2A1.29,1.29,0,0,0,22.82.84,1.28,1.28,0,0,0,21.71.21,1.26,1.26,0,0,0,21,.4a1.3,1.3,0,0,0-.46,1.76L19.33,6.62,17.2,1.92A1.29,1.29,0,0,0,16.68.16,1.25,1.25,0,0,0,16.06,0a1.3,1.3,0,0,0-.66,2.42l1.83,4.8L12.48,5.3a1.29,1.29,0,0,0-1.22-.85,1.42,1.42,0,0,0-.45.08,1.3,1.3,0,0,0,.45,2.52,1,1,0,0,0,.35,0l5.32,1.8,1.65,5.32s.65,7,7.47,7a14,14,0,0,0,4.23-.74s-3.9,13.35-.3,20.25c0,0-8.47-4.05-13.11-4.05-2.67,0-4.08,1.33-1.89,5.55l5.7,11.4-9.75-5.85L8.44,42.21a1.27,1.27,0,0,0,0-.34,1.3,1.3,0,1,0-1.75,1.22l2.7,5.53L4,45.9a1.32,1.32,0,0,0-1.22-.83,1.35,1.35,0,0,0-.47.09,1.3,1.3,0,0,0,.47,2.51h.08l5.52,2.9-6.45,1a1.41,1.41,0,0,0-.45-.07A1.48,1.48,0,0,0,1,54.38a1.31,1.31,0,0,0,.44.07A1.48,1.48,0,0,0,2.59,54l8-1.58,9.75,5.7S25.51,61,29,61c2.73,0,4.46-1.75,2-8,0,0,2.55,2.55,4.5,2.7A27.88,27.88,0,0,0,42.41,57a4,4,0,0,0,5.43,0,27.88,27.88,0,0,0,6.88-1.36c2-.15,4.5-2.7,4.5-2.7-2.46,6.23-.72,8,2,8,3.5,0,8.64-2.88,8.64-2.88l9.75-5.7,8,1.58a1.48,1.48,0,0,0,1.11.5,1.43,1.43,0,0,0,1-.38,1.48,1.48,0,0,0-1-2.59h0a1.76,1.76,0,0,0-.45.07l-6.45-1,5.52-2.9h.08a1.3,1.3,0,1,0-1.21-1.77l-5.44,2.72,2.7-5.53a1.3,1.3,0,0,0-.45-2.52,1.42,1.42,0,0,0-.45.08,1.31,1.31,0,0,0-.81,1.56l-2.49,5.51-9.75,5.85,5.7-11.4c2.19-4.22.79-5.55-1.88-5.55-4.65,0-13.12,4.05-13.12,4.05,3.6-6.9-.3-20.25-.3-20.25a14,14,0,0,0,4.23.74c6.82,0,7.47-7,7.47-7L73.32,8.8,78.64,7a1,1,0,0,0,.35,0,1.3,1.3,0,0,0,.35-2.55,1.48,1.48,0,0,0-.35,0,1.3,1.3,0,0,0-1.22.85L73,7.22l1.83-4.8A1.3,1.3,0,0,0,74.19,0"/></g></g></svg>