<svg xmlns="http://www.w3.org/2000/svg" viewBox="0 0 86.39 78.64"><defs><style>.cls-1{fill:#716d6d;}</style></defs><title>Asset 4</title><g id="Layer_2" data-name="Layer 2"><g id="Layer_1-2" data-name="Layer 1"><path class="cls-1" d="M21.84,69.55a11,11,0,0,1-8.45-4,11.18,11.18,0,0,1-2.46-6.3c0-.21,0-.42,0-.64s0-.44,0-.65a10.77,10.77,0,0,1,1.7-5.24,10,10,0,0,1,.75-1.05,11,11,0,0,1,4.47-3.24,10.39,10.39,0,0,1,1.23-.4,10.44,10.44,0,0,1,5.51,0,10.39,10.39,0,0,1,1.23.4,11.05,11.05,0,0,1,4.47,3.22A11.18,11.18,0,0,1,32.76,58c0,.22,0,.43,0,.65s0,.43,0,.64h0a11.15,11.15,0,0,1-2.47,6.3,10.94,10.94,0,0,1-8.45,4m2.21-30.23h-6.4v1.56a14.5,14.5,0,0,0-4.72,1.77l-.77-1.55L7.88,44.34,9.1,45.89a17.58,17.58,0,0,0-3.31,4.63L4,49.92l-1.7,5.24,1.83.6a18.23,18.23,0,0,0,0,5.71l-1.82.6L4,67.31l1.83-.59a18,18,0,0,0,3.36,4.62L8.06,72.89l4.46,3.24.41-1.55a14.5,14.5,0,0,0,4.72,1.77v2.29h6.4V76.35a20.46,20.46,0,0,0,5.71-1.77L31,76.13l4.54-3.24-1.1-1.55a18.32,18.32,0,0,0,3.38-4.62l1.83.59,1.71-5.24-1.82-.59a19.58,19.58,0,0,0,.23-2.86,18.19,18.19,0,0,0-.23-2.86l1.82-.59-1.7-5.25-1.82.6a18.06,18.06,0,0,0-3.36-4.63l1.12-1.55L31.17,41.1l-1.42,1.55a20.4,20.4,0,0,0-5.7-1.77V39.32"/><path class="cls-1" d="M70.49,73.71a6.07,6.07,0,1,1,6.07-6.07h0a6.08,6.08,0,0,1-6.07,6.07h0M8.5,5.48H5.76V33.39a30.39,30.39,0,0,0-5.07,4.4,2.69,2.69,0,0,0,2,4.48,2.7,2.7,0,0,0,2-.84A24.31,24.31,0,0,1,46.31,62.59a2.67,2.67,0,0,0,2.11,3.13h0a2.73,2.73,0,0,0,.5,0h0a3,3,0,0,0,2.62-2.54,22,22,0,0,0,.45-3.8H62.27a11.81,11.81,0,0,0-2.9,7.84,11.12,11.12,0,0,0,11,11.27h.16a11.11,11.11,0,0,0,11.11-11v-.41a11.49,11.49,0,0,0-2.9-7.74h7.69l-9.34-25.6H63.36V23.77H60.62V11.89H57V33.83H53.5l-8-28.34H42.87l5,18.28H42.2l-6.72-6.7,2.5-2.5a1.35,1.35,0,1,0-1.83-2l-.08.08-6.19,6.19a1.35,1.35,0,0,0,0,1.91,1.34,1.34,0,0,0,1.91,0l2.5-2.52,5.54,5.53H17.63V18c0-3.21-1.5-6.1-4.71-6.1H8.5V5.48"/><polyline class="cls-1" points="47 0 2.1 0 2.1 3.66 47.74 3.66 47 0"/></g></g></svg>