<svg xmlns="http://www.w3.org/2000/svg" viewBox="0 0 84.02 79.32"><defs><style>.cls-1{fill:#716d6d;}</style></defs><title>Asset 7</title><g id="Layer_2" data-name="Layer 2"><g id="Layer_1-2" data-name="Layer 1"><path class="cls-1" d="M63.78,27.5a7.08,7.08,0,1,1,7.07-7.07,7.08,7.08,0,0,1-7.07,7.07M61.7,0a1.28,1.28,0,0,0-1.28,1.24L60,6.1a18.27,18.27,0,0,0-3.63,1.5l-3.71-3a1.47,1.47,0,0,0-1.86.09L48,7.43A1.37,1.37,0,0,0,48,9.29l3,3.8a16.37,16.37,0,0,0-1.5,3.62l-4.78.44a1.36,1.36,0,0,0-1.24,1.33v3.89a1.29,1.29,0,0,0,1.24,1.33l4.77.53A16.94,16.94,0,0,0,51,27.86l-3,3.71A1.36,1.36,0,0,0,48,33.42l2.74,2.75a1.38,1.38,0,0,0,1,.41,1.36,1.36,0,0,0,.88-.33l3.71-3A14.57,14.57,0,0,0,60,34.75l.53,4.77a1.34,1.34,0,0,0,1.32,1.24h3.94a1.27,1.27,0,0,0,1.28-1.24l.53-4.77a14.57,14.57,0,0,0,3.63-1.5l3.71,3a1.36,1.36,0,0,0,.88.33,1.38,1.38,0,0,0,1-.41l2.74-2.75a1.36,1.36,0,0,0,.09-1.85l-3.1-3.72A16.37,16.37,0,0,0,78,24.23l4.78-.53A1.34,1.34,0,0,0,84,22.37V18.48a1.33,1.33,0,0,0-1.23-1.32L78,16.62A12.89,12.89,0,0,0,76.51,13l3-3.8a1.46,1.46,0,0,0-.09-1.86L76.69,4.6a1.38,1.38,0,0,0-1-.41,1.35,1.35,0,0,0-.88.32l-3.71,3A18.27,18.27,0,0,0,67.49,6L67,1.24A1.35,1.35,0,0,0,65.64,0H61.7"/><path class="cls-1" d="M28.68,63.75a8.27,8.27,0,0,1,0-16.53h.05a8.27,8.27,0,0,1-.07,16.53h0m2.65-32H26a1.17,1.17,0,0,0-1.15,1.07l-.62,6A17.7,17.7,0,0,0,20,40.59l-4.69-3.8a1.08,1.08,0,0,0-.7-.26,1.14,1.14,0,0,0-.8.34L10,40.59a1.2,1.2,0,0,0-.08,1.59l3.8,4.69A17.7,17.7,0,0,0,12,51.11l-6,.62a1.1,1.1,0,0,0-1.07,1.13v5.32A1.15,1.15,0,0,0,6,59.33L12,60a18.19,18.19,0,0,0,1.77,4.25L9.84,68.88a1.22,1.22,0,0,0,.09,1.59l3.8,3.72a1.19,1.19,0,0,0,.84.34,1.21,1.21,0,0,0,.75-.25L20,70.48a17.67,17.67,0,0,0,4.24,1.76l.62,6A1.15,1.15,0,0,0,26,79.32h5.31a1.15,1.15,0,0,0,1.15-1.06l.62-6a17.67,17.67,0,0,0,4.24-1.76L42,74.28a1.23,1.23,0,0,0,1.59-.09l3.8-3.8a1.22,1.22,0,0,0,.09-1.59l-3.8-4.69a18.09,18.09,0,0,0,1.76-4.24l6-.63a1.14,1.14,0,0,0,1.06-1.15v-5.3a1.23,1.23,0,0,0-1.15-1.06l-6-.62a18.12,18.12,0,0,0-1.77-4.24l3.8-4.69a1.2,1.2,0,0,0-.09-1.59l-3.8-3.72a1.1,1.1,0,0,0-.79-.34,1.13,1.13,0,0,0-.71.26l-4.68,3.8a17.77,17.77,0,0,0-4.25-1.77l-.62-6a1.15,1.15,0,0,0-1.15-1.06"/><path class="cls-1" d="M24.55,8.82a1.29,1.29,0,0,0-1.07.59,1.3,1.3,0,0,0-.19.67v3.27C18,14,4.63,17.6,0,37.75a1.21,1.21,0,0,0,.9,1.45,1.33,1.33,0,0,0,.28,0,1.2,1.2,0,0,0,1.12-.77C6.75,28.74,14.09,23,23.28,22.2v3.18a1.22,1.22,0,0,0,1.16,1.29h.07a1.23,1.23,0,0,0,.72-.23l12.29-7.6A1.32,1.32,0,0,0,37.9,17a1.37,1.37,0,0,0-.38-.38L25.23,9a1.28,1.28,0,0,0-.68-.2"/></g></g></svg>