<svg xmlns="http://www.w3.org/2000/svg" viewBox="0 0 73.4 73.47"><defs><style>.cls-1{fill:#716d6d;}</style></defs><title>Asset 8</title><g id="Layer_2" data-name="Layer 2"><g id="Layer_1-2" data-name="Layer 1"><path class="cls-1" d="M51.17,26.31V48.54H73.4A23.59,23.59,0,0,0,51.17,26.31"/><polyline class="cls-1" points="23 6.47 14 6.47 14 48.47 23 48.47 23 6.47"/><polyline class="cls-1" points="10 14.47 0 14.47 0 48.47 10 48.47 10 14.47"/><path class="cls-1" d="M36.74,0H26.24V38.49a26.34,26.34,0,0,1,10.5-11.32V0"/><path class="cls-1" d="M48.54,26.31a23.6,23.6,0,0,0,1.28,47.16c.44,0,.87,0,1.32,0A23.59,23.59,0,0,0,73.4,51.17H49.85a1.31,1.31,0,0,1-1.31-1.31h0V26.31"/><path class="cls-1" d="M66.91,5.25H57.73V7.87h6L55.1,16.51l-4.32-4.32a1.32,1.32,0,0,0-1.85,0h0l-6.56,6.56,1.85,1.86L49.85,15l4.32,4.32a1.35,1.35,0,0,0,.93.38A1.33,1.33,0,0,0,56,19.3h0L65.6,9.73v6h2.62V6.56h0a1.43,1.43,0,0,0-.09-.5,1.31,1.31,0,0,0-1.21-.81"/><polyline class="cls-1" points="22 56.47 0 56.47 0 58.47 22 58.47 22 56.47"/><polyline class="cls-1" points="22 62.47 0 62.47 0 64.47 22 64.47 22 62.47"/><polyline class="cls-1" points="22 66.47 0 66.47 0 70.47 22 70.47 22 66.47"/></g></g></svg>