<svg xmlns="http://www.w3.org/2000/svg" viewBox="0 0 90.21 72.17"><defs><style>.cls-1{fill:#716d6d;}</style></defs><title>Asset 5</title><g id="Layer_2" data-name="Layer 2"><g id="Layer_1-2" data-name="Layer 1"><path class="cls-1" d="M31.57,36.08a18,18,0,1,0-18-18A18,18,0,0,0,31.57,36.08ZM44.2,40.59H41.85a24.49,24.49,0,0,1-20.55,0H18.94A19,19,0,0,0,0,59.54V65.4a6.77,6.77,0,0,0,6.77,6.77H45.51a6.79,6.79,0,0,1-.36-3l1-8.59L46.27,59l1.12-1.12L58.28,47A18.72,18.72,0,0,0,44.2,40.59Zm6.39,20.48-1,8.6a2.24,2.24,0,0,0,2.48,2.48l8.58-1L80.13,51.76,70,41.65ZM89.22,37.9l-5.34-5.34a3.37,3.37,0,0,0-4.76,0l-5.33,5.33-.58.58,10.12,10.1,5.89-5.89A3.4,3.4,0,0,0,89.22,37.9Z"/></g></g></svg>