<svg xmlns="http://www.w3.org/2000/svg" viewBox="0 0 63.48 54.4"><defs><style>.cls-1{fill:#716d6d;}</style></defs><title>Asset 2</title><g id="Layer_2" data-name="Layer 2"><g id="Layer_1-2" data-name="Layer 1"><path class="cls-1" d="M31.79,0a11.18,11.18,0,0,0-8.67,4.12,10.56,10.56,0,0,0-2.26,7.13.66.66,0,0,0,.09.31.65.65,0,0,0,.87.24,18.37,18.37,0,0,1,7.59-2.9,17.84,17.84,0,0,1,8.14.83,19.19,19.19,0,0,1,4.15,2.08.65.65,0,0,0,.31.08h0a.64.64,0,0,0,.64-.63c0-.2,0-.41,0-.61v-.09a10.76,10.76,0,0,0-7.36-10A11.27,11.27,0,0,0,31.79,0"/><path class="cls-1" d="M6.32,3.75a1.63,1.63,0,0,0-.31,0,1.28,1.28,0,0,0-.89,1.57q1.61,4,3.2,8l1.23,3.06a1.42,1.42,0,0,0,.9.9l.1,0,.61.23,2.31.83,3.31,1.2a21.43,21.43,0,0,0-1.32,2.33,24.14,24.14,0,0,0-2.1,6.59l-4,0c-.75,0-1.49,0-2.23,0a1.44,1.44,0,0,0-1.18.6L5.05,30.2l-2.8,3.53L.37,36.1A1.35,1.35,0,0,0,0,37a1.26,1.26,0,0,0,.37.89,1.28,1.28,0,0,0,.9.38,1.3,1.3,0,0,0,.9-.37q2.52-3.18,5-6.36L7.59,31h5.47a25.38,25.38,0,0,0,.08,4.18,24.57,24.57,0,0,0,1.35,6L8.76,43a1.79,1.79,0,0,0-.63.28,1.48,1.48,0,0,0-.5.8l-.36,1.22L6,49.47c-.29,1-.58,2-.88,2.94A1.3,1.3,0,0,0,6,54a1.87,1.87,0,0,0,.32,0,1.29,1.29,0,0,0,1.24-.93c.75-2.49,1.49-5,2.23-7.46l.12-.37,5.14-1.6.43-.13a21.84,21.84,0,0,0,2,3.33,18.93,18.93,0,0,0,8.59,6.6,15.82,15.82,0,0,0,4.35.95V11h0a17.1,17.1,0,0,0-6.22,1.77,18.85,18.85,0,0,0-5.89,4.75l-6.32-2.3-.3-.11c-.41-1-.82-2.05-1.24-3.07Q9.33,9,8.12,6c-.18-.45-.37-.91-.55-1.37a1.3,1.3,0,0,0-1.25-.92"/><path class="cls-1" d="M57.15,3.75a1.3,1.3,0,0,0-1.25.92L54.4,8.41q-1.2,3-2.39,5.94l-.29.7-5.81,2.12-.8.29h0a18.75,18.75,0,0,0-8-5.64A17,17,0,0,0,33,11v.62c0,.21,0,.43,0,.64V54.4a16.68,16.68,0,0,0,3.71-.72,18.55,18.55,0,0,0,8.75-6.19,22.59,22.59,0,0,0,2.51-4l5.46,1.69.15,0c.67,2.26,1.35,4.52,2,6.78.1.35.21.7.31,1a1.28,1.28,0,0,0,1.23.93,1.24,1.24,0,0,0,.33,0,1.27,1.27,0,0,0,.89-1.57l-2-6.74c-.15-.49-.29-1-.43-1.44l-.09-.3a1.41,1.41,0,0,0-1-.92c-1.08-.37-2.17-.68-3.26-1L49,41.16a23.82,23.82,0,0,0,1.24-5,27,27,0,0,0,.25-3.48h0c0-.55,0-1.1-.07-1.67H55.9c1.57,2,3.14,4,4.71,6l.71.91h0a1.26,1.26,0,0,0,.9.37,1.27,1.27,0,0,0,.9-.37,1.3,1.3,0,0,0,0-1.8l-4.37-5.55-1-1.3a1.47,1.47,0,0,0-1.22-.77c-.41,0-.83,0-1.24,0l-2,0H50.11a23.59,23.59,0,0,0-3.19-8.53,1.45,1.45,0,0,0-.25-.36c2.13-.76,4.25-1.5,6.35-2.31a1.42,1.42,0,0,0,.9-.9l0-.11c.07-.17.13-.34.2-.5l.75-1.88c.7-1.72,1.39-3.46,2.09-5.19l1.35-3.34a1.28,1.28,0,0,0-.89-1.56,1.1,1.1,0,0,0-.31,0"/></g></g></svg>