<?xml version="1.0" encoding="utf-8"?>
<!-- Generator: Adobe Illustrator 23.0.0, SVG Export Plug-In . SVG Version: 6.00 Build 0)  -->
<svg version="1.1" baseProfile="tiny" id="Layer_1" xmlns="http://www.w3.org/2000/svg" xmlns:xlink="http://www.w3.org/1999/xlink"
	 x="0px" y="0px" viewBox="0 0 383.09 108.43" xml:space="preserve">
<title>Asset 1</title>
<g>
	<g id="Layer_1-2">
		<path fill="#765F3F" d="M87.33,50.71c0,0.37,0,0.74,0,1.1c-0.1,4.21-0.81,8.39-2.11,12.4l0,0C79.36,82.2,62.59,94.38,43.67,94.38
			c-0.7,0-1.4,0-2.1,0c-10.82-0.52-21.05-5.06-28.71-12.72L12,80.79C-4.6,63.3-3.88,35.66,13.61,19.05
			c1.38-1.31,2.85-2.53,4.39-3.65c7.46-5.43,16.44-8.36,25.67-8.35c8.4,0,16.63,2.43,23.68,7c1.55,1.01,3.04,2.11,4.45,3.3
			c6.12,5.15,10.71,11.87,13.27,19.45c0.35,1.05,0.67,2.13,0.94,3.22c0.15,0.56,0.28,1.12,0.39,1.69s0.24,1.2,0.34,1.81
			c0.06,0.33,0.11,0.66,0.16,1s0.11,0.84,0.16,1.27s0.11,1.08,0.15,1.61c0.07,0.91,0.11,1.83,0.12,2.75L87.33,50.71z"/>
		<path fill="#E8B988" d="M41.15,37.45c-0.63,0.12-1.26,0.2-1.9,0.25c-1.47,0.12-2.96,0.06-4.42-0.16
			c9.06-5.16,12.22-16.69,7.06-25.75c-2.61-4.58-7.02-7.86-12.16-9.05c-0.44-0.1-0.89-0.19-1.35-0.26c1.85-1.05,3.85-1.78,5.94-2.17
			c10.26-1.89,20.1,4.9,21.99,15.15C58.19,25.72,51.41,35.56,41.15,37.45z"/>
		<path fill="#D1A175" d="M39.25,37.7c-1.47,0.12-2.96,0.06-4.42-0.16c9.06-5.16,12.22-16.69,7.06-25.75
			c-2.61-4.58-7.02-7.86-12.16-9.05c10.43,0.19,18.74,8.8,18.55,19.23c-0.12,6.46-3.52,12.4-9.03,15.77V37.7z"/>
		<path fill="#F3F3F3" d="M77.36,56c0,0,0.65,5.46-2.43,9.57s-2.31,8.22-0.77,10.14c0,0-6.16-3.59-4.36-9.88s1.28-8.86-0.52-10.78
			S77.36,56,77.36,56z"/>
		<path fill="#E6E6E5" d="M90.52,41.27l-0.07,0.36l-0.54,2.89l-0.11,0.59v0.24l-0.38,2h-6.1v0.08c0.01,1.48,1.2,2.69,2.68,2.72h2.41
			c-1.42,2.7-4,4.59-7,5.12l-4,0.7l-8.82,1.51l-15,2.58c-1.69,0.29-3.06,1.54-3.51,3.19l-8.51,31.08
			c-10.81-0.51-21.05-5.03-28.71-12.67L12,80.79c-3.19-3.37-5.83-7.22-7.82-11.41l31.26-43.8c2.35-4.26,6.82-6.9,11.68-6.9h3.25
			c0.71,0,1.42,0,2.13,0.11c4.49,0.45,8.73,2.31,12.09,5.32l0.06,0.05c0.47,0.41,0.94,0.82,1.42,1.22c5.68,4.8,12.1,8.66,19,11.42
			c1.19,0.47,2.4,0.92,3.62,1.33C89.99,38.58,90.77,39.91,90.52,41.27z"/>
		<path fill="#4E4E4E" d="M90.45,41.63l-0.54,2.89h-3c-0.79,0.01-1.44-0.62-1.45-1.41c0-0.01,0-0.02,0-0.03
			c0-0.8,0.65-1.45,1.45-1.45H90.45z"/>
		<path fill="#CCCCCC" d="M47.21,18.4c10.28,0.8,20.36-3.14,27.37-10.69c0,0-1.17,8.91-6.65,15.54c-3.92,4.64-10.86,5.24-15.5,1.32
			c-0.55-0.46-1.05-0.98-1.5-1.54L47.21,18.4z"/>
		<path fill="#4E4E4E" d="M64.39,31.67H61V32c0,1.42,1.14,2.56,2.56,2.57H67v-0.32c0.01-1.42-1.14-2.57-2.56-2.58
			C64.42,31.67,64.41,31.67,64.39,31.67z"/>
		<polygon fill="#F15F5E" points="48.11,82.1 12,54.72 16.09,51.03 48.26,75.88 		"/>
		<g>
			<path fill="#765F3F" d="M105.51,17.39c-0.03-0.23-0.08-0.44-0.15-0.62c-0.07-0.19-0.15-0.39-0.24-0.62
				c-0.14-0.34-0.27-0.72-0.39-1.12c-0.11-0.4-0.17-0.87-0.17-1.42c0.06-0.29,0.13-0.49,0.21-0.62s0.17-0.24,0.26-0.32l0.17-0.77
				h0.64c0.23,0.03,0.47,0.04,0.71,0.04c0.24,0,0.48,0,0.71,0c1.09,0,2.21-0.04,3.35-0.13c1.15-0.09,2.32-0.19,3.52-0.3
				c1.32-0.17,2.74-0.3,4.26-0.39c0.14-0.32,0.24-0.52,0.28-0.6c0.04-0.09,0.09-0.19,0.15-0.3l0.47-0.26
				c0.66-0.03,1.12,0.05,1.38,0.24c0.26,0.19,0.46,0.37,0.6,0.54c0.74-0.06,1.5-0.14,2.28-0.24c0.77-0.1,1.58-0.21,2.41-0.32
				c1.15-0.14,2.31-0.29,3.48-0.43c1.17-0.14,2.32-0.21,3.44-0.21c0.49,0,0.95,0.01,1.38,0.04c0.43,0.03,0.84,0.07,1.25,0.13
				l0.52,0.39c0.11,0.2,0.26,0.39,0.43,0.56s0.37,0.34,0.6,0.52c0.43,0.34,0.85,0.77,1.27,1.29c0.42,0.52,0.57,1.28,0.45,2.28
				l-0.21,0.43c-0.12,0.11-0.26,0.23-0.43,0.34l-0.43,0.56h-0.47c-0.29,0-0.5,0.02-0.64,0.06c-0.14,0.04-0.32,0.11-0.52,0.19
				c-0.11,0.06-0.24,0.11-0.39,0.15c-0.14,0.04-0.3,0.09-0.47,0.15c-0.32-0.03-0.56-0.04-0.73-0.04s-0.37,0-0.6,0
				c-0.86,0-1.79,0.06-2.79,0.17c-1,0.12-1.98,0.24-2.92,0.39c-0.69,0.09-1.35,0.17-1.98,0.24c-0.63,0.07-1.2,0.14-1.72,0.19
				c-0.29,0.75-0.54,1.4-0.77,1.98c-0.23,0.57-0.47,1.15-0.73,1.72s-0.5,1.15-0.73,1.74c-0.23,0.59-0.44,1.24-0.64,1.96
				c-0.34,0.52-0.63,1.01-0.86,1.48c-0.23,0.47-0.42,1.01-0.56,1.61c-0.43,0.49-0.74,1.02-0.92,1.59c-0.19,0.57-0.35,1.06-0.49,1.46
				l-0.17,0.64c-0.2,0.2-0.32,0.36-0.37,0.47s-0.12,0.24-0.24,0.39c-0.09,0.37-0.2,0.73-0.34,1.07c-0.06,0.14-0.11,0.29-0.17,0.45
				c-0.06,0.16-0.07,0.28-0.04,0.37c-0.06,0.32-0.14,0.56-0.26,0.73c0,0.17-0.02,0.34-0.04,0.52c-0.03,0.17-0.06,0.34-0.09,0.52
				c-0.06,0.2-0.1,0.38-0.13,0.54c-0.03,0.16-0.01,0.31,0.04,0.45c0.09,0.12,0.17,0.23,0.26,0.34c0.09,0.12,0.16,0.26,0.21,0.43
				c0.06,0.06,0.13,0.1,0.21,0.13c0.09,0.03,0.16,0.07,0.21,0.13c0.23,0.2,0.44,0.32,0.65,0.34l0.43,0.52
				c0.17,1.03,0.01,1.83-0.47,2.41c-0.52,0.66-1.38,0.99-2.58,0.99l-0.6-0.04c-0.2-0.2-0.32-0.33-0.34-0.39
				c-0.26-0.11-0.47-0.21-0.65-0.28c-0.17-0.07-0.33-0.21-0.47-0.41c-0.06-0.06-0.13-0.09-0.22-0.11s-0.16-0.05-0.21-0.11
				c-0.29-0.09-0.52-0.19-0.69-0.3l-0.47-0.26c0.03-0.29,0.04-0.49,0.04-0.6c-0.23-0.31-0.41-0.66-0.54-1.03
				c-0.13-0.37-0.24-0.76-0.32-1.16c-0.09-0.31-0.17-0.6-0.24-0.86c-0.07-0.26-0.18-0.49-0.32-0.69c-0.06-2.01,0.13-3.69,0.56-5.05
				c0.43-1.36,0.9-2.69,1.42-3.98c0.29-0.69,0.56-1.39,0.82-2.11c0.26-0.72,0.49-1.45,0.69-2.19l0.47-0.47
				c0.2-0.17,0.33-0.27,0.39-0.3c0-0.37,0.07-0.74,0.21-1.1c0.14-0.36,0.3-0.72,0.47-1.1c0.11-0.23,0.22-0.46,0.32-0.69
				c0.1-0.23,0.16-0.43,0.19-0.6c-0.2,0-0.38,0.01-0.54,0.02c-0.16,0.01-0.32,0.04-0.49,0.06c-0.37,0.09-0.73,0.13-1.07,0.13
				c-0.26,0-0.44-0.01-0.56-0.04c-0.23,0.12-0.44,0.18-0.65,0.19c-0.2,0.01-0.4,0.02-0.6,0.02h-0.52h-0.52
				c-0.34,0-0.62,0.04-0.82,0.13c-0.4,0-0.66,0-0.77,0c-0.11,0-0.24,0-0.39,0h-0.52h-0.52c-0.23,0-0.49-0.02-0.77-0.06
				c-0.29-0.04-0.59-0.15-0.9-0.32l-0.3-0.34c-0.17-0.31-0.33-0.49-0.47-0.52l-0.47-0.13V17.39z"/>
			<path fill="#765F3F" d="M138.22,37.16c-0.32,1.15-0.59,2.01-0.84,2.6c-0.24,0.59-0.61,1.2-1.1,1.83
				c-0.37-0.06-0.63-0.01-0.77,0.13c-0.14,0.14-0.3,0.27-0.47,0.39c-0.26,0.06-0.44,0.06-0.56,0c-0.11-0.06-0.21-0.12-0.3-0.19
				s-0.19-0.14-0.32-0.21s-0.32-0.11-0.58-0.11c-0.06-0.23-0.12-0.44-0.19-0.64c-0.07-0.2-0.27-0.27-0.58-0.21
				c0.06-0.23,0.07-0.42,0.04-0.58c-0.03-0.16-0.06-0.3-0.11-0.43s-0.08-0.26-0.11-0.39c-0.03-0.13-0.01-0.29,0.04-0.49
				c-0.14,0-0.26-0.1-0.34-0.3s-0.19-0.4-0.3-0.6c0.09-0.52,0.17-1,0.26-1.46s0.19-0.89,0.32-1.29s0.24-0.8,0.32-1.2
				c0.09-0.4,0.04-0.82-0.13-1.25c0.11,0.09,0.2,0.06,0.26-0.06c0.06-0.13,0.1-0.3,0.13-0.52c0.03-0.22,0.04-0.43,0.04-0.65
				s-0.02-0.39-0.04-0.54c0.29-0.75,0.52-1.51,0.71-2.3c0.19-0.79,0.36-1.57,0.52-2.34c0.16-0.77,0.32-1.53,0.49-2.28
				s0.4-1.43,0.69-2.06c0.31-0.06,0.67-0.02,1.05,0.11c0.39,0.13,0.62,0.29,0.71,0.49c0.75-0.57,1.4-1.27,1.98-2.08
				c0.57-0.82,1.16-1.61,1.76-2.39c0.6-0.77,1.27-1.46,2-2.06c0.73-0.6,1.65-0.96,2.77-1.07c0.57,0.43,1.21,0.87,1.91,1.31
				c0.7,0.45,1.28,1.03,1.74,1.74c0.23,0.12,0.42,0.24,0.58,0.37c0.16,0.13,0.35,0.27,0.58,0.41v0.52c0.34,0.32,0.62,0.68,0.84,1.1
				c0.21,0.42,0.41,0.86,0.58,1.33s0.34,0.95,0.52,1.42c0.17,0.47,0.37,0.92,0.6,1.35c-0.06,0.14-0.09,0.27-0.09,0.37
				c0,0.1,0.02,0.21,0.06,0.32c0.04,0.12,0.08,0.23,0.11,0.34c0.03,0.11,0.03,0.27,0,0.47c-0.09,1.26-0.49,2.28-1.23,3.05
				c-0.73,0.77-1.61,1.41-2.64,1.91c-1.03,0.5-2.14,0.92-3.31,1.27c-1.18,0.34-2.24,0.72-3.18,1.12c0,0.12,0.05,0.17,0.15,0.17
				c0.1,0,0.14,0.07,0.11,0.21c0.69,0.43,1.23,0.77,1.63,1.03s0.78,0.47,1.14,0.64s0.75,0.32,1.16,0.45s1,0.28,1.74,0.45
				c0.75,0.17,1.33,0.31,1.74,0.41c0.42,0.1,0.79,0.19,1.14,0.26c0.34,0.07,0.69,0.13,1.05,0.17c0.36,0.04,0.87,0.09,1.53,0.15
				c0.26,0.26,0.48,0.57,0.67,0.92c0.19,0.36,0.31,0.72,0.37,1.08c0.06,0.36,0.07,0.7,0.04,1.03c-0.03,0.33-0.13,0.6-0.3,0.8
				c0.03,0.09,0.09,0.12,0.19,0.11c0.1-0.01,0.21-0.01,0.32,0.02c-0.17,0.11-0.32,0.26-0.43,0.43c-0.11,0.17-0.23,0.34-0.34,0.52
				c-0.12,0.17-0.24,0.32-0.39,0.45c-0.14,0.13-0.34,0.21-0.6,0.24c-0.89,0.34-2.01,0.37-3.35,0.06c-1.35-0.3-3.05-0.85-5.12-1.66
				c-1.03-0.4-1.87-0.75-2.52-1.05c-0.64-0.3-1.2-0.6-1.68-0.9c-0.47-0.3-0.9-0.62-1.29-0.97
				C139.23,38.06,138.76,37.65,138.22,37.16z M144.37,22.41c-0.32,0.46-0.67,0.88-1.05,1.25c-0.39,0.37-0.76,0.75-1.12,1.14
				c-0.36,0.39-0.68,0.82-0.97,1.29c-0.29,0.47-0.49,1.02-0.6,1.66c1-0.11,2.05-0.39,3.14-0.84c1.09-0.44,2.12-0.87,3.09-1.27
				c-0.11-0.89-0.42-1.61-0.92-2.15C145.43,22.94,144.91,22.59,144.37,22.41z"/>
			<path fill="#765F3F" d="M164.23,38.62c0.14,0.86,0.09,1.53-0.15,2.02c-0.24,0.49-0.59,0.85-1.03,1.1s-0.95,0.38-1.53,0.41
				c-0.57,0.03-1.12,0-1.63-0.09c-0.29-0.4-0.54-0.9-0.77-1.5c-0.23-0.6-0.44-1.23-0.65-1.87c-0.2-0.65-0.38-1.28-0.54-1.91
				c-0.16-0.63-0.29-1.19-0.41-1.68c0.14-0.34,0.24-0.74,0.28-1.18c0.04-0.44,0.07-0.89,0.09-1.35c0.01-0.46,0.03-0.92,0.04-1.4
				c0.01-0.47,0.05-0.92,0.11-1.35c0.2-1.2,0.49-2.35,0.88-3.44c0.39-1.09,0.69-2.22,0.92-3.4c0.06-0.26,0.04-0.5-0.06-0.73
				c-0.1-0.23-0.12-0.44-0.06-0.64c0.03-0.11,0.11-0.19,0.26-0.24c0.14-0.04,0.23-0.14,0.26-0.28c0.09-0.31,0.11-0.57,0.06-0.77
				c-0.04-0.2,0.01-0.44,0.15-0.73c0.14-0.23,0.32-0.57,0.54-1.01c0.22-0.44,0.29-0.91,0.24-1.4c0.26-0.17,0.5-0.37,0.73-0.6
				c0.23-0.23,0.47-0.44,0.71-0.62c0.24-0.19,0.52-0.35,0.82-0.49s0.67-0.21,1.1-0.21c0.23,0.29,0.38,0.6,0.45,0.95
				c0.07,0.34,0.14,0.69,0.21,1.03c0.07,0.34,0.18,0.67,0.32,0.97c0.14,0.3,0.39,0.54,0.73,0.71c0,0.23,0,0.52,0,0.86
				s0.01,0.68,0.04,1.01c0.03,0.33,0.09,0.63,0.19,0.9c0.1,0.27,0.26,0.45,0.49,0.54c-0.52,1.38-1,2.74-1.44,4.08
				c-0.44,1.35-0.81,2.7-1.1,4.06c-0.29,1.36-0.47,2.73-0.54,4.11C163.88,35.83,163.97,37.22,164.23,38.62z"/>
			<path fill="#765F3F" d="M185.42,14.98c1.2,0.14,2.28,0.39,3.22,0.73c0.95,0.34,1.75,0.8,2.41,1.38c0.46,0.72,0.9,1.49,1.31,2.32
				c0.42,0.83,0.73,1.7,0.94,2.6c0.22,0.9,0.32,1.83,0.3,2.77c-0.02,0.95-0.22,1.91-0.62,2.88c-0.83,1.03-1.84,1.87-3.03,2.51
				c-1.19,0.64-2.47,1.17-3.85,1.57c-1.38,0.4-2.8,0.75-4.28,1.03c-1.48,0.29-2.92,0.57-4.32,0.86c0.03,0.66,0.04,1.35,0.02,2.08
				c-0.02,0.73-0.09,1.46-0.21,2.19c-0.13,0.73-0.32,1.44-0.58,2.13c-0.26,0.69-0.6,1.32-1.03,1.89c-0.49,0-0.99,0.06-1.5,0.19
				c-0.52,0.13-0.97,0.24-1.38,0.32c-0.2-0.11-0.38-0.22-0.54-0.32c-0.16-0.1-0.38-0.17-0.67-0.19c0.06-0.29-0.01-0.58-0.21-0.88
				c-0.2-0.3-0.4-0.61-0.6-0.92c-0.2-0.31-0.34-0.62-0.41-0.9c-0.07-0.29,0.06-0.56,0.41-0.82c-0.2-0.2-0.3-0.46-0.3-0.77
				c0.2-0.34,0.38-0.82,0.54-1.42c0.16-0.6,0.29-1.2,0.39-1.78c0.1-0.59,0.12-1.13,0.06-1.61c-0.06-0.49-0.34-0.84-0.86-1.08
				c0.03-0.06,0.09-0.09,0.17-0.09c0.09,0,0.17-0.01,0.26-0.04c-0.23-0.17-0.37-0.42-0.41-0.73s-0.15-0.59-0.32-0.82
				c0.06-0.14,0.1-0.27,0.13-0.39c0.03-0.11,0.13-0.16,0.3-0.13c-0.09-0.52-0.08-1,0.02-1.46c0.1-0.46,0.25-0.9,0.45-1.31
				c0.2-0.42,0.44-0.82,0.73-1.22c0.29-0.4,0.56-0.8,0.82-1.2c0.2-0.03,0.32,0,0.37,0.09s0.14,0.07,0.28-0.04
				c0.37-0.29,0.63-0.59,0.77-0.9c0.14-0.32,0.21-0.67,0.21-1.08c0.2-0.6,0.44-1.21,0.73-1.83c0.29-0.62,0.6-1.18,0.95-1.7
				c0.34-0.52,0.72-0.97,1.14-1.38s0.85-0.7,1.31-0.9c0.34-0.29,0.77-0.55,1.29-0.79c0.52-0.24,1.07-0.43,1.68-0.56
				c0.6-0.13,1.21-0.2,1.83-0.21c0.62-0.01,1.18,0.05,1.7,0.19c0.14,0.06,0.22,0.03,0.24-0.09
				C185.28,15.04,185.33,14.98,185.42,14.98z M183.66,25.25c0.72-0.31,1.48-0.57,2.3-0.75c0.82-0.19,1.5-0.54,2.04-1.05
				c-0.34-0.32-0.85-0.59-1.5-0.84c-0.66-0.24-1.38-0.39-2.15-0.45s-1.55,0.01-2.34,0.19c-0.79,0.19-1.47,0.54-2.04,1.05
				c-0.17,0.52-0.32,0.92-0.43,1.22c-0.12,0.3-0.27,0.67-0.47,1.1c0.06,0.14,0.15,0.25,0.28,0.32c0.13,0.07,0.22,0.18,0.28,0.32
				c0.66-0.34,1.33-0.54,2-0.58C182.29,25.75,182.97,25.57,183.66,25.25z"/>
			<path fill="#765F3F" d="M203.65,41.16c-0.8,0.26-1.68,0.52-2.62,0.77c-0.95,0.26-1.89,0.39-2.84,0.39c-1.43,0-2.57-0.36-3.4-1.07
				c-0.14-0.32-0.27-0.53-0.39-0.64c-0.09-0.11-0.17-0.24-0.24-0.37s-0.12-0.31-0.15-0.54c-0.34-0.4-0.62-0.87-0.82-1.4
				c-0.2-0.53-0.34-1.07-0.41-1.63c-0.07-0.56-0.09-1.13-0.04-1.7s0.14-1.12,0.28-1.63c0.06-0.11,0.09-0.23,0.11-0.34
				c0.01-0.11,0.04-0.24,0.06-0.39c0.11-0.46,0.24-0.9,0.37-1.33s0.31-0.8,0.54-1.12c-0.12-0.26-0.12-0.54,0-0.86
				c0.11-0.31,0.24-0.6,0.39-0.86c0.4-1.09,0.74-2.01,1.01-2.77c0.27-0.76,0.55-1.51,0.84-2.26c0.49-1.29,0.95-2.57,1.38-3.83
				s0.82-2.62,1.16-4.08c0.23-0.14,0.4-0.24,0.52-0.3c0.17-0.06,0.31-0.1,0.43-0.13c0.52,0.26,1.12,0.51,1.81,0.75
				c0.69,0.24,1.26,0.37,1.72,0.37c0.23,0.14,0.37,0.25,0.43,0.32c0.06,0.07,0.11,0.14,0.17,0.19c0.31,0.37,0.59,0.75,0.82,1.14
				s0.3,0.9,0.21,1.53c-0.17,0.26-0.3,0.39-0.39,0.39c-0.14,0.57-0.29,1.06-0.45,1.46c-0.16,0.4-0.32,0.8-0.49,1.2
				c-0.2,0.43-0.39,0.86-0.56,1.29c-0.17,0.43-0.32,0.96-0.43,1.59c-0.12,0.14-0.19,0.27-0.24,0.39s-0.09,0.24-0.15,0.39
				c-0.06,0.14-0.12,0.29-0.19,0.45c-0.07,0.16-0.18,0.29-0.32,0.41c-0.09,0.75-0.22,1.35-0.41,1.81c-0.19,0.46-0.38,0.92-0.58,1.38
				c-0.34,0.83-0.65,1.66-0.92,2.49c-0.27,0.83-0.44,1.78-0.49,2.84c0.14-0.06,0.28-0.09,0.41-0.09s0.25,0,0.37,0
				c0.26,0,0.56,0.04,0.9,0.13c0.86-0.46,1.8-0.73,2.82-0.82c1.02-0.09,2.03-0.14,3.03-0.17c0.4,0,0.8,0,1.2,0
				c0.4,0,0.77-0.03,1.12-0.09c0.26,0.14,0.42,0.22,0.49,0.24s0.18,0.02,0.32,0.02c0.2,0,0.37,0.01,0.52,0.04
				c0.34,0.32,0.67,0.54,0.99,0.69c0.32,0.14,0.64,0.27,0.99,0.39c0.31,0.12,0.62,0.24,0.92,0.37c0.3,0.13,0.59,0.31,0.88,0.54
				l0.3,1.85c0.2,0.26,0.29,0.43,0.26,0.52c0,0.23-0.06,0.4-0.17,0.52l0.09,0.47c-0.43,0.09-0.72,0.19-0.88,0.3
				c-0.16,0.12-0.31,0.24-0.45,0.39c-0.23,0.03-0.39,0.04-0.49,0.04c-0.1,0-0.19,0-0.28,0c-0.4,0-0.89,0.07-1.46,0.21
				c-0.77-0.26-1.58-0.39-2.41-0.39c-0.32,0-0.64,0.01-0.99,0.04c-0.34,0.03-0.69,0.06-1.03,0.09c-0.34,0.06-0.7,0.1-1.05,0.13
				s-0.72,0.04-1.1,0.04L203.65,41.16z"/>
			<path fill="#765F3F" d="M239.76,17.43c0.03,0.2,0.04,0.35,0.02,0.45c-0.01,0.1-0.03,0.19-0.04,0.28
				c-0.01,0.09-0.02,0.18-0.02,0.28c0,0.1,0.03,0.25,0.09,0.45c-0.6,0.97-1.3,1.64-2.08,2c-0.79,0.36-1.64,0.62-2.56,0.77
				c-0.92,0.16-1.86,0.32-2.82,0.49s-1.91,0.54-2.86,1.12c-0.37-0.14-0.71-0.14-1.01,0c-0.3,0.14-0.74,0.19-1.31,0.13
				c-0.17,0.17-0.39,0.29-0.64,0.37s-0.52,0.15-0.77,0.24c0.11,0.26,0.17,0.52,0.15,0.79c-0.01,0.27,0.02,0.49,0.11,0.67
				c1,0.09,2.11,0.07,3.33-0.04c1.22-0.11,2.41-0.19,3.59-0.21c0.03,0.14,0.01,0.24-0.04,0.28c-0.06,0.04-0.07,0.12-0.04,0.24
				c0.2,0.14,0.4,0.32,0.6,0.54c0.2,0.21,0.4,0.42,0.6,0.62c0.2,0.2,0.41,0.37,0.62,0.49c0.21,0.13,0.46,0.18,0.75,0.15
				c0.11,0.23,0.19,0.48,0.24,0.75s0.01,0.55-0.11,0.84c-0.46,0.32-0.92,0.64-1.38,0.97s-0.94,0.62-1.44,0.88
				c-0.5,0.26-1.03,0.47-1.59,0.62c-0.56,0.16-1.18,0.22-1.87,0.19c-0.14,0-0.25,0-0.32,0c-0.07,0-0.17-0.04-0.28-0.13
				c-0.23,0.14-0.55,0.19-0.97,0.13c-0.42-0.06-0.74-0.01-0.97,0.13c-0.32-0.14-0.7-0.21-1.14-0.19c-0.44,0.02-0.84-0.04-1.18-0.15
				c-0.46,0.6-0.88,1.25-1.25,1.93c-0.37,0.69-0.7,1.42-0.99,2.19c0.97,0.14,1.78,0.2,2.43,0.17c0.64-0.03,1.25-0.08,1.83-0.15
				c0.57-0.07,1.16-0.14,1.76-0.21c0.6-0.07,1.36-0.09,2.28-0.06c0.57-0.31,1.25-0.52,2.04-0.62c0.79-0.1,1.51-0.26,2.17-0.49
				c0.23,0.09,0.43,0.24,0.6,0.45s0.34,0.42,0.49,0.6c0.16,0.19,0.32,0.35,0.49,0.49c0.17,0.14,0.39,0.2,0.65,0.17
				c0.11,0.12,0.19,0.25,0.24,0.41s0.08,0.31,0.11,0.45c0.03,0.14,0.08,0.26,0.15,0.37c0.07,0.1,0.19,0.14,0.37,0.11
				c-0.43,0.95-0.92,1.67-1.48,2.17c-0.56,0.5-1.2,0.88-1.91,1.14c-0.72,0.26-1.51,0.46-2.39,0.6s-1.84,0.32-2.9,0.52
				c-0.26,0.06-0.47,0.05-0.64-0.02c-0.17-0.07-0.37-0.11-0.6-0.11c-0.66,0.14-1.45,0.27-2.36,0.39s-1.85,0.16-2.79,0.13
				s-1.85-0.15-2.71-0.37c-0.86-0.21-1.56-0.59-2.11-1.14c-0.23-0.2-0.38-0.44-0.45-0.71c-0.07-0.27-0.27-0.48-0.58-0.62
				c-0.03-0.37-0.09-0.79-0.17-1.25c-0.09-0.46-0.17-0.94-0.26-1.44s-0.15-1-0.19-1.48s-0.02-0.93,0.06-1.33
				c0.09-0.43,0.26-0.82,0.54-1.16s0.37-0.72,0.28-1.12c0.14-0.03,0.23-0.11,0.26-0.24s0.14-0.18,0.34-0.15
				c0.17-0.52,0.36-1,0.56-1.46c0.2-0.46,0.41-0.9,0.62-1.33s0.43-0.87,0.65-1.31c0.21-0.44,0.42-0.94,0.62-1.48
				c-0.4-0.37-0.7-0.78-0.88-1.23s-0.32-0.89-0.41-1.33c-0.09-0.44-0.16-0.9-0.21-1.38c-0.06-0.47-0.16-0.95-0.3-1.44
				c0.29-0.43,0.64-0.78,1.05-1.05c0.42-0.27,0.87-0.5,1.35-0.67s1.02-0.31,1.59-0.43c0.57-0.11,1.17-0.24,1.81-0.39
				c1.15-0.37,2.17-0.66,3.07-0.86c0.9-0.2,1.79-0.37,2.67-0.49s1.78-0.25,2.73-0.37c0.95-0.11,2.02-0.29,3.22-0.52
				c0.26,0.26,0.5,0.39,0.73,0.39c0.11-0.26,0.25-0.34,0.41-0.24c0.16,0.1,0.22,0.02,0.19-0.24c0.29,0.49,0.65,0.9,1.1,1.22
				C238.72,16.92,239.21,17.2,239.76,17.43z"/>
		</g>
		<g>
			<path fill="#765F3F" d="M106.49,82.34c0.03-0.11,0.09-0.16,0.19-0.15c0.1,0.01,0.19,0.01,0.28-0.02
				c-0.23-0.23-0.37-0.54-0.43-0.92c-0.06-0.39-0.2-0.71-0.43-0.97c0.06-0.14,0.11-0.29,0.15-0.43c0.04-0.14,0.16-0.2,0.37-0.17
				c-0.09-0.63-0.07-1.22,0.04-1.76c0.11-0.54,0.29-1.06,0.54-1.55c0.24-0.49,0.53-0.97,0.86-1.44c0.33-0.47,0.65-0.95,0.97-1.44
				c0.26-0.06,0.42-0.04,0.47,0.06c0.06,0.1,0.16,0.08,0.3-0.06c0.46-0.31,0.77-0.67,0.95-1.05s0.26-0.81,0.26-1.27
				c0.26-0.75,0.55-1.48,0.88-2.21c0.33-0.73,0.71-1.41,1.14-2.04c0.43-0.63,0.89-1.18,1.38-1.66c0.49-0.47,1.02-0.84,1.59-1.1
				c0.4-0.34,0.91-0.66,1.53-0.95c0.62-0.29,1.27-0.51,1.98-0.67c0.7-0.16,1.43-0.24,2.17-0.26c0.74-0.01,1.43,0.06,2.06,0.24
				c0.14,0.06,0.23,0.02,0.26-0.11c0.03-0.13,0.1-0.19,0.21-0.19c1.43,0.17,2.72,0.46,3.85,0.86c1.13,0.4,2.1,0.96,2.9,1.68
				c0.54,0.86,1.06,1.78,1.55,2.77c0.49,0.99,0.87,2.02,1.14,3.1c0.27,1.07,0.39,2.19,0.37,3.33c-0.03,1.15-0.27,2.29-0.73,3.44
				c-1,1.26-2.22,2.27-3.65,3.03c-1.43,0.76-2.97,1.39-4.62,1.89c-1.65,0.5-3.35,0.91-5.12,1.23c-1.76,0.32-3.48,0.66-5.14,1.03
				c0.03,0.77,0.03,1.6,0,2.47c-0.03,0.87-0.12,1.75-0.28,2.62c-0.16,0.87-0.39,1.73-0.69,2.56c-0.3,0.83-0.71,1.61-1.23,2.32
				c-0.57-0.03-1.17,0.03-1.78,0.17c-0.62,0.14-1.17,0.29-1.66,0.43c-0.23-0.14-0.45-0.28-0.67-0.41c-0.22-0.13-0.48-0.21-0.8-0.24
				c0.09-0.34,0.01-0.7-0.24-1.07c-0.24-0.37-0.49-0.74-0.73-1.1c-0.24-0.36-0.4-0.72-0.47-1.07c-0.07-0.36,0.09-0.68,0.49-0.97
				c-0.23-0.2-0.34-0.52-0.34-0.95c0.11,0.11,0.26,0.17,0.43,0.17c-0.06-0.52,0.01-1.13,0.19-1.85c0.19-0.72,0.34-1.43,0.47-2.13
				s0.15-1.35,0.06-1.93C107.44,83.02,107.1,82.6,106.49,82.34z M117.67,72.28c-0.11,0.32-0.21,0.59-0.28,0.84
				c-0.07,0.24-0.15,0.47-0.24,0.67c-0.09,0.2-0.18,0.4-0.28,0.6c-0.1,0.2-0.21,0.43-0.32,0.69c0.06,0.17,0.17,0.3,0.34,0.39
				c0.17,0.09,0.29,0.21,0.34,0.39c0.4-0.2,0.8-0.35,1.2-0.45c0.4-0.1,0.8-0.18,1.2-0.24c0.4-0.06,0.8-0.13,1.2-0.21
				c0.4-0.09,0.82-0.23,1.25-0.43c0.43-0.2,0.88-0.37,1.35-0.5c0.47-0.13,0.94-0.26,1.4-0.41c0.46-0.14,0.9-0.31,1.33-0.49
				c0.43-0.19,0.8-0.44,1.12-0.75c-0.4-0.37-1-0.7-1.81-0.99c-0.8-0.29-1.67-0.46-2.6-0.54c-0.93-0.07-1.86-0.01-2.79,0.19
				C119.17,71.23,118.36,71.65,117.67,72.28z"/>
		</g>
		<g>
			<path fill="#765F3F" d="M156.71,70.26c0.03,0.2,0.04,0.35,0.02,0.45c-0.01,0.1-0.03,0.19-0.04,0.28
				c-0.01,0.09-0.02,0.18-0.02,0.28c0,0.1,0.03,0.25,0.09,0.45c-0.6,0.97-1.3,1.64-2.08,2c-0.79,0.36-1.64,0.62-2.56,0.77
				c-0.92,0.16-1.86,0.32-2.82,0.49c-0.96,0.17-1.91,0.54-2.86,1.12c-0.37-0.14-0.71-0.14-1.01,0c-0.3,0.14-0.74,0.19-1.31,0.13
				c-0.17,0.17-0.39,0.29-0.65,0.37s-0.52,0.15-0.77,0.24c0.11,0.26,0.16,0.52,0.15,0.79c-0.01,0.27,0.02,0.49,0.11,0.67
				c1,0.09,2.11,0.07,3.33-0.04c1.22-0.11,2.41-0.19,3.59-0.21c0.03,0.14,0.01,0.24-0.04,0.28c-0.06,0.04-0.07,0.12-0.04,0.24
				c0.2,0.14,0.4,0.32,0.6,0.54c0.2,0.21,0.4,0.42,0.6,0.62c0.2,0.2,0.41,0.37,0.62,0.49c0.21,0.13,0.47,0.18,0.75,0.15
				c0.11,0.23,0.19,0.48,0.24,0.75c0.04,0.27,0.01,0.55-0.11,0.84c-0.46,0.32-0.92,0.64-1.38,0.97c-0.46,0.33-0.94,0.62-1.44,0.88
				c-0.5,0.26-1.03,0.47-1.59,0.62c-0.56,0.16-1.18,0.22-1.87,0.19c-0.14,0-0.25,0-0.32,0c-0.07,0-0.17-0.04-0.28-0.13
				c-0.23,0.14-0.55,0.19-0.97,0.13c-0.42-0.06-0.74-0.01-0.97,0.13c-0.32-0.14-0.7-0.21-1.14-0.19c-0.44,0.02-0.84-0.04-1.18-0.15
				c-0.46,0.6-0.87,1.25-1.25,1.93c-0.37,0.69-0.7,1.42-0.99,2.19c0.97,0.14,1.78,0.2,2.43,0.17c0.65-0.03,1.25-0.08,1.83-0.15
				c0.57-0.07,1.16-0.14,1.76-0.21c0.6-0.07,1.36-0.09,2.28-0.06c0.57-0.31,1.25-0.52,2.04-0.62c0.79-0.1,1.51-0.26,2.17-0.49
				c0.23,0.09,0.43,0.24,0.6,0.45s0.34,0.42,0.49,0.6c0.16,0.19,0.32,0.35,0.49,0.49c0.17,0.14,0.39,0.2,0.65,0.17
				c0.11,0.12,0.19,0.25,0.24,0.41s0.08,0.31,0.11,0.45c0.03,0.14,0.08,0.26,0.15,0.37c0.07,0.1,0.19,0.14,0.37,0.11
				c-0.43,0.95-0.92,1.67-1.48,2.17c-0.56,0.5-1.2,0.88-1.91,1.14c-0.72,0.26-1.51,0.46-2.39,0.6c-0.87,0.14-1.84,0.32-2.9,0.52
				c-0.26,0.06-0.47,0.05-0.64-0.02c-0.17-0.07-0.37-0.11-0.6-0.11c-0.66,0.14-1.45,0.27-2.36,0.39c-0.92,0.11-1.85,0.16-2.79,0.13
				c-0.95-0.03-1.85-0.15-2.71-0.37s-1.56-0.59-2.11-1.14c-0.23-0.2-0.38-0.44-0.45-0.71c-0.07-0.27-0.27-0.48-0.58-0.62
				c-0.03-0.37-0.09-0.79-0.17-1.25c-0.09-0.46-0.17-0.94-0.26-1.44s-0.15-1-0.19-1.48s-0.02-0.93,0.06-1.33
				c0.09-0.43,0.26-0.82,0.54-1.16c0.27-0.34,0.37-0.72,0.28-1.12c0.14-0.03,0.23-0.11,0.26-0.24c0.03-0.13,0.14-0.18,0.34-0.15
				c0.17-0.52,0.36-1,0.56-1.46c0.2-0.46,0.41-0.9,0.62-1.33s0.43-0.87,0.65-1.31c0.21-0.44,0.42-0.94,0.62-1.48
				c-0.4-0.37-0.7-0.78-0.88-1.23c-0.19-0.44-0.32-0.89-0.41-1.33c-0.09-0.44-0.16-0.9-0.21-1.38c-0.06-0.47-0.16-0.95-0.3-1.44
				c0.29-0.43,0.64-0.78,1.05-1.05s0.87-0.5,1.35-0.67c0.49-0.17,1.02-0.31,1.59-0.43c0.57-0.11,1.17-0.24,1.81-0.39
				c1.15-0.37,2.17-0.66,3.07-0.86c0.9-0.2,1.79-0.37,2.67-0.49c0.87-0.13,1.78-0.25,2.73-0.37c0.95-0.11,2.02-0.29,3.22-0.52
				c0.26,0.26,0.5,0.39,0.73,0.39c0.11-0.26,0.25-0.34,0.41-0.24c0.16,0.1,0.22,0.02,0.19-0.24c0.29,0.49,0.65,0.9,1.1,1.22
				C155.67,69.75,156.16,70.03,156.71,70.26z"/>
		</g>
		<g>
			<path fill="#765F3F" d="M162.17,89.99c-0.32,1.15-0.59,2.01-0.84,2.6c-0.24,0.59-0.61,1.2-1.1,1.83
				c-0.37-0.06-0.63-0.01-0.77,0.13c-0.14,0.14-0.3,0.27-0.47,0.39c-0.26,0.06-0.44,0.06-0.56,0c-0.11-0.06-0.21-0.12-0.3-0.19
				s-0.19-0.14-0.32-0.21s-0.32-0.11-0.58-0.11c-0.06-0.23-0.12-0.44-0.19-0.64c-0.07-0.2-0.27-0.27-0.58-0.21
				c0.06-0.23,0.07-0.42,0.04-0.58c-0.03-0.16-0.06-0.3-0.11-0.43s-0.08-0.26-0.11-0.39c-0.03-0.13-0.01-0.29,0.04-0.49
				c-0.14,0-0.26-0.1-0.34-0.3s-0.19-0.4-0.3-0.6c0.09-0.52,0.17-1,0.26-1.46s0.19-0.89,0.32-1.29s0.24-0.8,0.32-1.2
				c0.09-0.4,0.04-0.82-0.13-1.25c0.11,0.09,0.2,0.06,0.26-0.06c0.06-0.13,0.1-0.3,0.13-0.52c0.03-0.22,0.04-0.43,0.04-0.65
				s-0.02-0.39-0.04-0.54c0.29-0.75,0.52-1.51,0.71-2.3c0.19-0.79,0.36-1.57,0.52-2.34c0.16-0.77,0.32-1.53,0.49-2.28
				s0.4-1.43,0.69-2.06c0.31-0.06,0.67-0.02,1.05,0.11c0.39,0.13,0.62,0.29,0.71,0.49c0.75-0.57,1.4-1.27,1.98-2.08
				c0.57-0.82,1.16-1.61,1.76-2.39c0.6-0.77,1.27-1.46,2-2.06c0.73-0.6,1.65-0.96,2.77-1.07c0.57,0.43,1.21,0.87,1.91,1.31
				c0.7,0.45,1.28,1.03,1.74,1.74c0.23,0.12,0.42,0.24,0.58,0.37c0.16,0.13,0.35,0.27,0.58,0.41v0.52c0.34,0.32,0.62,0.68,0.84,1.1
				c0.21,0.42,0.41,0.86,0.58,1.33s0.34,0.95,0.52,1.42c0.17,0.47,0.37,0.92,0.6,1.35c-0.06,0.14-0.09,0.27-0.09,0.37
				c0,0.1,0.02,0.21,0.06,0.32c0.04,0.12,0.08,0.23,0.11,0.34c0.03,0.11,0.03,0.27,0,0.47c-0.09,1.26-0.49,2.28-1.23,3.05
				c-0.73,0.77-1.61,1.41-2.64,1.91c-1.03,0.5-2.14,0.92-3.31,1.27c-1.18,0.34-2.24,0.72-3.18,1.12c0,0.12,0.05,0.17,0.15,0.17
				c0.1,0,0.14,0.07,0.11,0.21c0.69,0.43,1.23,0.77,1.63,1.03s0.78,0.47,1.14,0.64s0.75,0.32,1.16,0.45s1,0.28,1.74,0.45
				c0.75,0.17,1.33,0.31,1.74,0.41c0.42,0.1,0.79,0.19,1.14,0.26c0.34,0.07,0.69,0.13,1.05,0.17c0.36,0.04,0.87,0.09,1.53,0.15
				c0.26,0.26,0.48,0.57,0.67,0.92c0.19,0.36,0.31,0.72,0.37,1.08c0.06,0.36,0.07,0.7,0.04,1.03c-0.03,0.33-0.13,0.6-0.3,0.8
				c0.03,0.09,0.09,0.12,0.19,0.11c0.1-0.01,0.21-0.01,0.32,0.02c-0.17,0.11-0.32,0.26-0.43,0.43c-0.11,0.17-0.23,0.34-0.34,0.52
				c-0.12,0.17-0.24,0.32-0.39,0.45c-0.14,0.13-0.34,0.21-0.6,0.24c-0.89,0.34-2.01,0.37-3.35,0.06c-1.35-0.3-3.05-0.85-5.12-1.66
				c-1.03-0.4-1.87-0.75-2.52-1.05c-0.64-0.3-1.2-0.6-1.68-0.9c-0.47-0.3-0.9-0.62-1.29-0.97
				C163.18,90.89,162.72,90.48,162.17,89.99z M168.32,75.24c-0.32,0.46-0.67,0.88-1.05,1.25c-0.39,0.37-0.76,0.75-1.12,1.14
				c-0.36,0.39-0.68,0.82-0.97,1.29c-0.29,0.47-0.49,1.02-0.6,1.66c1-0.11,2.05-0.39,3.14-0.84c1.09-0.44,2.12-0.87,3.09-1.27
				c-0.11-0.89-0.42-1.61-0.92-2.15C169.39,75.77,168.86,75.42,168.32,75.24z"/>
			<path fill="#765F3F" d="M185.08,93c-0.17,0.97-0.66,1.65-1.46,2.02c-0.37,0.03-0.65,0.01-0.84-0.04s-0.38-0.13-0.58-0.21
				c-0.26-0.11-0.49-0.19-0.69-0.21l-0.47-0.34c-0.06-0.14-0.13-0.29-0.21-0.43s-0.19-0.29-0.3-0.43c-0.23-0.29-0.46-0.64-0.69-1.07
				c-0.17-0.83-0.2-1.53-0.09-2.08c0.11-0.56,0.26-1.11,0.43-1.66c0.06-0.17,0.11-0.35,0.17-0.54c0.06-0.19,0.11-0.37,0.17-0.54
				c-0.75-0.4-1.3-0.97-1.68-1.72s-0.59-1.46-0.65-2.15c0.09-0.54,0.24-0.98,0.47-1.31c0.23-0.33,0.49-0.59,0.79-0.79
				c0.3-0.2,0.62-0.36,0.95-0.47c0.33-0.11,0.65-0.21,0.97-0.3l0.56,0.21c0.26,0.26,0.52,0.46,0.77,0.6
				c0.2-0.09,0.34-0.22,0.41-0.41c0.07-0.19,0.14-0.39,0.19-0.62c0.09-0.26,0.18-0.52,0.28-0.77c0.1-0.26,0.22-0.52,0.37-0.77
				c-0.03-0.37,0.03-0.72,0.17-1.03c-0.2-0.14-0.42-0.23-0.65-0.26c-0.06,0-0.2-0.03-0.43-0.09c-0.34-0.26-0.58-0.48-0.71-0.67
				s-0.25-0.37-0.37-0.54c-0.17-0.37-0.39-0.67-0.65-0.9l-0.43-0.3l0.21-0.43c0.06-0.06,0.09-0.13,0.09-0.21s-0.06-0.21-0.17-0.39
				c-0.06-0.32-0.06-0.53,0-0.65l0.09-0.43c0.23-0.32,0.34-0.49,0.34-0.52l0.39-0.39c0.57-0.14,1.14-0.31,1.7-0.5
				c0.56-0.19,1.12-0.38,1.7-0.58c0.54-0.17,1.1-0.35,1.65-0.54c0.56-0.19,1.12-0.35,1.7-0.49c0.2-0.14,0.42-0.24,0.64-0.28
				c0.23-0.04,0.44-0.08,0.65-0.11c0.17-0.03,0.33-0.05,0.47-0.06c0.14-0.01,0.24-0.06,0.3-0.15c0.34-0.11,0.74-0.24,1.2-0.39
				c0.72-0.2,1.66-0.42,2.84-0.67c1.18-0.24,2.49-0.44,3.96-0.58l0.73-0.04c0.14,0.03,0.29,0.04,0.43,0.02
				c0.14-0.01,0.29-0.02,0.43-0.02c1.29,0,2.11,0.39,2.45,1.16c0.26,0.14,0.49,0.3,0.69,0.47s0.39,0.34,0.56,0.52
				c0.09,0.11,0.18,0.21,0.28,0.3c0.1,0.09,0.18,0.14,0.24,0.17c0.49,0.75,0.64,1.4,0.47,1.98c-0.26,0.37-0.59,0.59-0.99,0.64
				l-0.47,0.26c-0.32-0.03-0.55-0.04-0.71-0.04c-0.16,0-0.32,0-0.49,0c-0.72,0-1.55,0.04-2.49,0.13c-0.95,0.09-1.91,0.21-2.9,0.37
				c-0.99,0.16-1.94,0.35-2.86,0.58c-0.92,0.23-1.72,0.47-2.41,0.73l-0.77,0.39c-0.2,0.32-0.32,0.57-0.34,0.75
				c-0.03,0.19-0.06,0.37-0.09,0.54c-0.03,0.11-0.05,0.23-0.06,0.34c-0.01,0.12-0.04,0.24-0.06,0.39c-0.49,0.6-0.73,1.32-0.73,2.15
				c-0.2,0.34-0.33,0.59-0.39,0.75c-0.06,0.16-0.06,0.35,0,0.58c0.54,0.23,1.06,0.32,1.55,0.26c0.49-0.06,0.97-0.13,1.46-0.21
				c0.66-0.11,1.34-0.21,2.04-0.3c0.7-0.09,1.43-0.13,2.17-0.13h1.38l-0.34,0.34l0.21,0.6c0.17,0.09,0.29,0.14,0.37,0.17
				c0.07,0.03,0.15,0.07,0.24,0.13l0.21,0.39c0.11,0.06,0.22,0.16,0.32,0.3c0.1,0.14,0.16,0.36,0.19,0.65l-1.76,2.49l-0.6,0.17
				c-0.49-0.03-0.92,0.03-1.29,0.17c-0.2,0.06-0.4,0.11-0.6,0.15c-0.2,0.04-0.42,0.06-0.64,0.06c-0.57,0.12-1.05,0.2-1.44,0.26
				c-0.39,0.06-0.78,0.12-1.18,0.17c-0.52,0.06-1.02,0.14-1.5,0.24c-0.49,0.1-0.95,0.24-1.38,0.41c-0.29,0-0.49,0-0.6,0
				c-0.23,0-0.47,0.04-0.71,0.11c-0.24,0.07-0.47,0.14-0.67,0.19c-0.14,0.11-0.24,0.24-0.3,0.37c-0.06,0.13-0.12,0.27-0.17,0.41
				c-0.12,0.4-0.27,0.73-0.47,0.99v0.64c-0.23,0.29-0.37,0.51-0.41,0.67c-0.04,0.16-0.09,0.31-0.15,0.45
				c-0.06,0.09-0.1,0.17-0.13,0.24c-0.03,0.07-0.04,0.15-0.04,0.24C185.14,91.97,185.2,92.45,185.08,93z"/>
			<path fill="#765F3F" d="M224.16,81.56c-0.03,0.34,0,0.67,0.09,0.99c0.09,0.32,0.19,0.62,0.32,0.92s0.25,0.61,0.37,0.92
				c0.12,0.32,0.2,0.63,0.26,0.95c0.06,0.4,0.06,0.84,0,1.31c-0.06,0.47-0.16,0.93-0.3,1.38c-0.14,0.44-0.33,0.85-0.56,1.2
				s-0.5,0.62-0.82,0.79c-0.4,0.52-0.89,0.92-1.46,1.2c-0.57,0.29-1.1,0.63-1.59,1.03c-0.32,0.2-0.67,0.34-1.05,0.43
				s-0.78,0.17-1.18,0.26c-0.32,0.17-0.69,0.35-1.12,0.54c-0.43,0.19-0.87,0.36-1.33,0.52s-0.92,0.27-1.38,0.34
				c-0.46,0.07-0.86,0.09-1.2,0.06c-0.86,0.32-1.7,0.52-2.51,0.62s-1.77,0.04-2.86-0.19c-1.03,0.14-1.98,0.1-2.86-0.13
				s-1.65-0.59-2.32-1.1s-1.26-1.1-1.76-1.81c-0.5-0.7-0.91-1.44-1.23-2.21c-0.23-1.63-0.17-3.12,0.17-4.45
				c0.34-1.33,0.84-2.56,1.48-3.7c0.64-1.13,1.38-2.18,2.21-3.14c0.83-0.96,1.63-1.9,2.41-2.82c0.17,0.06,0.31,0.05,0.41-0.02
				c0.1-0.07,0.19-0.17,0.28-0.3s0.18-0.25,0.28-0.37c0.1-0.11,0.22-0.19,0.37-0.21c0.2-0.43,0.49-0.75,0.88-0.97
				c0.39-0.21,0.7-0.52,0.92-0.92c0.26-0.06,0.47-0.14,0.65-0.26s0.34-0.24,0.49-0.39c0.16-0.14,0.32-0.28,0.49-0.41
				s0.37-0.22,0.6-0.28V70.9c0.52-0.23,0.9-0.49,1.14-0.79c0.24-0.3,0.54-0.67,0.88-1.1c0.26-0.03,0.47-0.04,0.62-0.04
				c0.16,0,0.39-0.03,0.71-0.09c0.23-0.4,0.44-0.7,0.62-0.9c0.19-0.2,0.46-0.42,0.84-0.65c0.34,0.17,0.72,0.29,1.14,0.34
				c0.42,0.06,0.78,0.24,1.1,0.56c0.03,0.29,0.11,0.51,0.26,0.67c0.14,0.16,0.3,0.3,0.47,0.43s0.34,0.27,0.49,0.41
				c0.16,0.14,0.26,0.34,0.32,0.6c0.11,0.03,0.19,0.01,0.24-0.04s0.12-0.07,0.24-0.04c0.09,0.4,0.19,0.67,0.3,0.79
				c0.12,0.13,0.23,0.38,0.34,0.75c-0.14,0.29-0.25,0.58-0.32,0.88c-0.07,0.3-0.25,0.52-0.54,0.67c-0.03,0.2,0.03,0.31,0.17,0.32
				c0.14,0.01,0.23,0.09,0.26,0.24c0.03,0.26-0.01,0.45-0.13,0.56c0.69,1.12,1.3,2.3,1.85,3.55
				C222.86,79.26,223.47,80.45,224.16,81.56z M218.79,85.65c0.11-0.32,0.26-0.57,0.45-0.77c0.19-0.2,0.29-0.5,0.32-0.9
				c-0.14-0.23-0.23-0.41-0.26-0.54c-0.03-0.13-0.04-0.34-0.04-0.62c-0.63-0.89-1.18-1.84-1.63-2.86c-0.46-1.02-0.97-1.97-1.55-2.86
				c-0.06,0.12-0.16,0.23-0.3,0.34c-0.14,0.12-0.3,0.09-0.47-0.09c-0.06,0.23-0.16,0.39-0.3,0.49c-0.14,0.1-0.3,0.14-0.47,0.13
				c-0.17-0.01-0.35-0.06-0.54-0.13c-0.19-0.07-0.35-0.16-0.5-0.28c-0.83,0.66-1.66,1.3-2.49,1.93c-0.83,0.63-1.58,1.36-2.24,2.19
				c-0.11,0.06-0.19,0.08-0.21,0.06c-0.03-0.01-0.11,0.01-0.26,0.06c-0.23,0.54-0.51,1.04-0.84,1.48s-0.65,0.9-0.97,1.35
				c-0.32,0.46-0.59,0.95-0.82,1.46c-0.23,0.52-0.36,1.12-0.39,1.81c0.49,0.4,1.06,0.64,1.72,0.73c0.66,0.09,1.34,0.1,2.04,0.04
				c0.7-0.06,1.39-0.15,2.06-0.28s1.3-0.19,1.87-0.19c1.2-0.29,2.24-0.67,3.09-1.14C216.94,86.61,217.84,86.14,218.79,85.65z"/>
			<path fill="#765F3F" d="M233.7,89.99c-0.31,1.15-0.59,2.01-0.84,2.6c-0.24,0.59-0.61,1.2-1.1,1.83
				c-0.37-0.06-0.63-0.01-0.77,0.13c-0.14,0.14-0.3,0.27-0.47,0.39c-0.26,0.06-0.44,0.06-0.56,0s-0.21-0.12-0.3-0.19
				s-0.19-0.14-0.32-0.21s-0.32-0.11-0.58-0.11c-0.06-0.23-0.12-0.44-0.19-0.64c-0.07-0.2-0.27-0.27-0.58-0.21
				c0.06-0.23,0.07-0.42,0.04-0.58c-0.03-0.16-0.06-0.3-0.11-0.43s-0.08-0.26-0.11-0.39c-0.03-0.13-0.01-0.29,0.04-0.49
				c-0.14,0-0.26-0.1-0.34-0.3s-0.19-0.4-0.3-0.6c0.09-0.52,0.17-1,0.26-1.46s0.19-0.89,0.32-1.29s0.24-0.8,0.32-1.2
				c0.09-0.4,0.04-0.82-0.13-1.25c0.11,0.09,0.2,0.06,0.26-0.06c0.06-0.13,0.1-0.3,0.13-0.52c0.03-0.22,0.04-0.43,0.04-0.65
				s-0.01-0.39-0.04-0.54c0.29-0.75,0.52-1.51,0.71-2.3c0.19-0.79,0.36-1.57,0.52-2.34c0.16-0.77,0.32-1.53,0.49-2.28
				s0.4-1.43,0.69-2.06c0.31-0.06,0.67-0.02,1.05,0.11s0.62,0.29,0.71,0.49c0.75-0.57,1.4-1.27,1.98-2.08
				c0.57-0.82,1.16-1.61,1.76-2.39s1.27-1.46,2-2.06c0.73-0.6,1.66-0.96,2.77-1.07c0.57,0.43,1.21,0.87,1.91,1.31
				c0.7,0.45,1.28,1.03,1.74,1.74c0.23,0.12,0.42,0.24,0.58,0.37c0.16,0.13,0.35,0.27,0.58,0.41v0.52c0.34,0.32,0.62,0.68,0.84,1.1
				c0.21,0.42,0.41,0.86,0.58,1.33s0.34,0.95,0.52,1.42c0.17,0.47,0.37,0.92,0.6,1.35c-0.06,0.14-0.09,0.27-0.09,0.37
				c0,0.1,0.02,0.21,0.06,0.32c0.04,0.12,0.08,0.23,0.11,0.34c0.03,0.11,0.03,0.27,0,0.47c-0.09,1.26-0.49,2.28-1.23,3.05
				c-0.73,0.77-1.61,1.41-2.64,1.91c-1.03,0.5-2.14,0.92-3.31,1.27c-1.18,0.34-2.24,0.72-3.18,1.12c0,0.12,0.05,0.17,0.15,0.17
				s0.14,0.07,0.11,0.21c0.69,0.43,1.23,0.77,1.63,1.03c0.4,0.26,0.78,0.47,1.14,0.64s0.75,0.32,1.16,0.45
				c0.42,0.13,1,0.28,1.74,0.45c0.74,0.17,1.32,0.31,1.74,0.41s0.79,0.19,1.14,0.26c0.34,0.07,0.69,0.13,1.05,0.17
				c0.36,0.04,0.87,0.09,1.53,0.15c0.26,0.26,0.48,0.57,0.67,0.92c0.19,0.36,0.31,0.72,0.37,1.08c0.06,0.36,0.07,0.7,0.04,1.03
				c-0.03,0.33-0.13,0.6-0.3,0.8c0.03,0.09,0.09,0.12,0.19,0.11c0.1-0.01,0.21-0.01,0.32,0.02c-0.17,0.11-0.31,0.26-0.43,0.43
				c-0.11,0.17-0.23,0.34-0.34,0.52c-0.12,0.17-0.24,0.32-0.39,0.45c-0.14,0.13-0.34,0.21-0.6,0.24c-0.89,0.34-2.01,0.37-3.35,0.06
				c-1.35-0.3-3.05-0.85-5.12-1.66c-1.03-0.4-1.87-0.75-2.52-1.05c-0.64-0.3-1.2-0.6-1.68-0.9s-0.9-0.62-1.29-0.97
				C234.71,90.89,234.25,90.48,233.7,89.99z M239.85,75.24c-0.32,0.46-0.67,0.88-1.05,1.25c-0.39,0.37-0.76,0.75-1.12,1.14
				c-0.36,0.39-0.68,0.82-0.97,1.29c-0.29,0.47-0.49,1.02-0.6,1.66c1-0.11,2.05-0.39,3.14-0.84c1.09-0.44,2.12-0.87,3.09-1.27
				c-0.11-0.89-0.42-1.61-0.92-2.15C240.92,75.77,240.39,75.42,239.85,75.24z"/>
			<path fill="#765F3F" d="M280.35,93.69c-0.29,0.14-0.55,0.27-0.79,0.39c-0.24,0.11-0.52,0.17-0.84,0.17
				c-1.12-0.83-1.7-2.28-1.74-4.34c-0.04-2.06,0.39-4.69,1.31-7.87c0.14-0.09,0.21-0.26,0.21-0.52l-0.39-0.43
				c-0.12,0-0.22,0.01-0.32,0.04s-0.18,0.13-0.24,0.3c-0.75,0.54-1.56,1.11-2.45,1.7c-0.89,0.59-1.81,1.13-2.77,1.63
				c-0.96,0.5-1.93,0.91-2.92,1.23c-0.99,0.32-1.96,0.47-2.9,0.47c-2.41,0-4.21-1.22-5.42-3.65l-0.34-0.65l-0.34,0.56
				c-0.09,0.11-0.21,0.35-0.39,0.71s-0.34,0.77-0.52,1.22c-0.17,0.46-0.32,0.92-0.45,1.4s-0.18,0.88-0.15,1.23
				c-0.26,0.26-0.53,0.56-0.82,0.9c-0.29,0.34-0.5,0.73-0.64,1.16c-0.06,0.23-0.03,0.44,0.09,0.64c-0.06,0.26-0.19,0.46-0.39,0.6
				c-0.12,0.14-0.24,0.28-0.37,0.41s-0.24,0.27-0.32,0.41c-0.06,0.14-0.09,0.29-0.11,0.43s-0.04,0.29-0.06,0.43
				c0,0.2-0.03,0.39-0.09,0.56c-0.49,1-0.87,1.66-1.16,1.96c-0.29,0.3-0.67,0.45-1.16,0.45c-0.23,0-0.6-0.04-1.12-0.13
				c-0.37-0.4-0.71-0.95-1.01-1.65s-0.53-1.46-0.69-2.26c-0.16-0.8-0.23-1.61-0.21-2.43c0.01-0.82,0.15-1.53,0.41-2.13
				c0-0.03,0.11-0.31,0.34-0.86c0.23-0.54,0.52-1.25,0.88-2.11c0.36-0.86,0.77-1.81,1.22-2.86c0.46-1.05,0.92-2.06,1.38-3.05
				c0.46-0.99,0.9-1.9,1.31-2.73s0.77-1.46,1.05-1.89c0.23-0.34,0.44-0.67,0.62-0.97c0.19-0.3,0.37-0.59,0.54-0.88
				c0.52-0.89,1.01-1.63,1.48-2.21c0.47-0.59,1.17-1.05,2.08-1.4c0.63,0.26,1.09,0.56,1.38,0.9l0.09,0.47
				c0.12,0.29,0.29,0.43,0.52,0.43c0.32,0.09,0.58,0.17,0.79,0.24c0.22,0.07,0.45,0.14,0.71,0.19c0.2,0.23,0.39,0.5,0.56,0.82
				c0.23,0.34,0.45,0.68,0.67,1.01c0.21,0.33,0.39,0.66,0.52,0.99c0.13,0.33,0.2,0.67,0.21,1.01c0.01,0.34-0.05,0.7-0.19,1.08
				l0.04,0.43c0.14,0.26,0.17,0.62,0.09,1.08c-0.03,0.2-0.04,0.41-0.04,0.62s0.03,0.45,0.09,0.71c0.52,0.4,0.97,0.6,1.38,0.6
				c0.46,0,0.88-0.11,1.27-0.32s0.75-0.44,1.1-0.67c0.23-0.17,0.46-0.32,0.69-0.45s0.46-0.21,0.69-0.24
				c0.52-0.49,0.98-0.92,1.4-1.29c0.41-0.37,0.85-0.75,1.31-1.12c0.86-0.69,1.69-1.43,2.49-2.24c0.8-0.8,1.45-1.81,1.93-3.01
				c0.29-0.17,0.59-0.26,0.9-0.26s0.65,0.07,0.99,0.21c0.34,0.14,0.67,0.29,0.99,0.43c0.09,0.06,0.16,0.1,0.24,0.13
				c0.07,0.03,0.13,0.06,0.19,0.09c0,0.29,0.11,0.53,0.34,0.73c0.11,0.09,0.19,0.14,0.21,0.17c0.03,0.03,0.07,0.06,0.13,0.09
				c0.43,0.23,0.7,0.46,0.82,0.69c0.2,0.66,0.56,1.16,1.08,1.5c-0.06,0.29-0.05,0.55,0.02,0.79c0.07,0.24,0.17,0.49,0.28,0.75
				c0.03,0.09,0.06,0.17,0.09,0.26s0.07,0.19,0.13,0.3l-0.82-0.09l0.13,0.82c0.06,0.4,0.02,0.85-0.11,1.33
				c-0.13,0.49-0.28,0.87-0.45,1.16c0.03,0.75,0.05,1.33,0.06,1.74c0.01,0.42-0.01,0.8-0.06,1.16c-0.06,0.36-0.14,0.7-0.24,1.01
				c-0.1,0.32-0.24,0.66-0.41,1.03c0.11,1.83-0.09,3.5-0.62,5.01c-0.53,1.5-1.08,2.92-1.66,4.23c-0.06,0.14-0.12,0.29-0.19,0.43
				c-0.07,0.14-0.14,0.29-0.19,0.43c-0.26,0.09-0.49,0.18-0.69,0.28C280.79,93.47,280.58,93.57,280.35,93.69z"/>
			<path fill="#765F3F" d="M309.19,90.85c-0.17,0.49-0.42,0.98-0.75,1.48c-0.33,0.5-0.72,0.95-1.16,1.33
				c-0.44,0.39-0.94,0.71-1.48,0.97c-0.54,0.26-1.12,0.4-1.72,0.43c-0.37-0.09-0.62-0.18-0.75-0.28s-0.27-0.19-0.41-0.28
				c-0.09-0.06-0.16-0.11-0.24-0.15c-0.07-0.04-0.14-0.08-0.19-0.11l-0.52-0.21l0.17-0.56c0.06-0.23,0.04-0.41-0.04-0.54
				s-0.26-0.31-0.52-0.54c-0.09-0.09-0.17-0.17-0.26-0.26s-0.16-0.17-0.21-0.26l-0.73-0.82l1.16-0.3c0.72-0.2,1.2-0.46,1.44-0.77
				c0.24-0.32,0.34-0.84,0.28-1.59c-0.57-0.11-1.05-0.13-1.44-0.04s-0.78,0.19-1.18,0.3c-0.52,0.14-1.04,0.27-1.57,0.37
				c-0.53,0.1-1.11,0.15-1.74,0.15c-0.23,0-0.45-0.01-0.64-0.02c-0.2-0.01-0.42-0.04-0.64-0.06L295.61,89
				c-0.06-0.31-0.12-0.49-0.17-0.54s-0.11-0.09-0.17-0.15c-0.14-0.14-0.29-0.34-0.45-0.58c-0.16-0.24-0.19-0.55-0.11-0.92
				c-0.14-0.26-0.23-0.52-0.26-0.77c-0.17,0.34-0.3,0.7-0.39,1.08l-0.17,0.43l-0.43,0.09c-0.06,0.03-0.1,0.09-0.13,0.19
				c-0.03,0.1-0.04,0.18-0.04,0.24l-0.21,0.73c-0.06,0.06-0.12,0.11-0.17,0.15c-0.06,0.04-0.12,0.09-0.17,0.15
				c-0.06,0.26-0.13,0.52-0.21,0.77s-0.17,0.5-0.26,0.73c-0.14,0.37-0.27,0.74-0.37,1.1c-0.1,0.36-0.14,0.71-0.11,1.05l-0.17,0.47
				c-0.14,0.17-0.3,0.31-0.47,0.41c-0.17,0.1-0.34,0.19-0.52,0.28c-0.06,0.06-0.14,0.11-0.24,0.15s-0.18,0.08-0.24,0.11l-0.13,0.47
				l-0.52,0.09c-0.32,0.06-0.54,0.1-0.67,0.13s-0.28,0.04-0.45,0.04l-0.43-0.04c-0.32-0.26-0.56-0.46-0.73-0.62
				c-0.17-0.16-0.37-0.31-0.6-0.45c-0.26-0.34-0.4-0.6-0.43-0.77s-0.06-0.33-0.09-0.47c-0.06-0.17-0.09-0.31-0.11-0.43
				c-0.01-0.11-0.05-0.2-0.11-0.26l-0.56-0.52l0.47-0.39l0.04-0.73c0.57-1.46,1.18-2.87,1.83-4.21c0.64-1.35,1.31-2.72,2-4.13
				c0.23-0.46,0.45-0.92,0.67-1.38c0.21-0.46,0.44-0.92,0.67-1.38c-0.03-0.09-0.04-0.19-0.04-0.3s0.03-0.24,0.09-0.39
				c0.32-0.49,0.57-0.92,0.77-1.31c0.2-0.39,0.4-0.78,0.6-1.18c0.23-0.49,0.46-0.96,0.71-1.42c0.24-0.46,0.55-0.93,0.92-1.42
				l0.69-0.3c0.09-0.03,0.19-0.06,0.3-0.11s0.24-0.06,0.39-0.06l0.65,0.09c0.8-0.37,1.5-0.9,2.11-1.57c0.6-0.67,1.22-1.48,1.85-2.43
				l0.43-0.6l0.56,0.34c0.14,0.09,0.34,0.17,0.6,0.24c0.26,0.07,0.53,0.15,0.82,0.24c0.52,0.12,1,0.24,1.46,0.39
				c0.46,0.14,0.83,0.36,1.12,0.65c0.17,0.46,0.27,0.8,0.3,1.03c0.03,0.23,0.07,0.46,0.13,0.69c0.09,0.49,0.16,0.97,0.24,1.46
				c0.07,0.49,0.12,1.03,0.15,1.63c0.14,0.49,0.26,0.97,0.37,1.44c0.1,0.47,0.19,0.95,0.28,1.44c0.14,0.69,0.29,1.35,0.43,2
				c0.14,0.64,0.33,1.25,0.56,1.83c0.23,0,0.37,0.01,0.43,0.04c0.14-0.06,0.29-0.1,0.45-0.13s0.34-0.06,0.54-0.09l0.47-0.04
				l0.17,0.43c0.03,0.14,0.17,0.29,0.43,0.43c0.37,0.03,0.64,0.11,0.82,0.24s0.33,0.27,0.47,0.41c0.12,0.11,0.23,0.2,0.34,0.26
				l0.65,0.26l-0.34,0.64c-0.29,0.52-0.7,1.01-1.23,1.48s-1.13,0.87-1.78,1.18c0.03,0.17,0.05,0.34,0.06,0.5
				c0.01,0.16,0.05,0.32,0.11,0.49c0.09,0.49,0.16,0.99,0.21,1.5c0.06,0.52,0.06,1.05,0,1.59L309.19,90.85z M296.77,83.41
				c0.86-0.06,1.64-0.12,2.34-0.19s1.48-0.19,2.34-0.37c-0.2-0.86-0.42-1.76-0.64-2.69c-0.23-0.93-0.47-1.85-0.73-2.77l-0.26,0.43
				c-0.57,0.6-1.13,1.28-1.66,2.02c-0.53,0.75-0.98,1.45-1.35,2.11c-0.17,0.26-0.34,0.52-0.52,0.77c-0.17,0.26-0.33,0.52-0.47,0.77
				c0.17-0.03,0.34-0.04,0.49-0.04C296.47,83.46,296.62,83.44,296.77,83.41z"/>
			<path fill="#765F3F" d="M320.84,86.64c-0.26,0.06-0.44,0.21-0.56,0.45c-0.12,0.24-0.22,0.49-0.32,0.75
				c-0.1,0.26-0.2,0.49-0.3,0.71c-0.1,0.21-0.25,0.32-0.45,0.32c-0.03,0.23-0.11,0.43-0.24,0.6s-0.25,0.35-0.37,0.54
				c-0.12,0.19-0.2,0.39-0.26,0.6c-0.06,0.21-0.03,0.47,0.09,0.75c-0.23,0.17-0.37,0.42-0.43,0.73c-0.06,0.32-0.12,0.62-0.19,0.9
				c-0.07,0.29-0.19,0.53-0.37,0.73s-0.49,0.29-0.95,0.26c-0.09,0.11-0.1,0.19-0.04,0.21s0.1,0.13,0.13,0.3
				c-0.32-0.06-0.55-0.04-0.71,0.06c-0.16,0.1-0.35,0.17-0.58,0.19c-0.54-0.17-1-0.47-1.35-0.9c-0.36-0.43-0.67-0.91-0.95-1.44
				c-0.27-0.53-0.52-1.07-0.73-1.61c-0.21-0.54-0.42-1.02-0.62-1.42c0.09-0.32,0.1-0.62,0.04-0.92s-0.16-0.55-0.3-0.75
				c1.4-2.98,2.94-6.16,4.6-9.54c1.66-3.38,3.24-6.72,4.73-10.02c0.66,0.26,1.31,0.55,1.96,0.88c0.64,0.33,1.23,0.71,1.76,1.14
				c0.53,0.43,0.98,0.92,1.35,1.48c0.37,0.56,0.62,1.18,0.73,1.87c-0.06,0.17-0.12,0.24-0.19,0.19c-0.07-0.04-0.14-0.02-0.19,0.06
				c0.11,0.14,0.18,0.24,0.19,0.3c0.01,0.06,0.01,0.11,0,0.17c-0.02,0.06-0.02,0.14-0.02,0.24s0.04,0.24,0.13,0.41
				c-0.12-0.03-0.19-0.01-0.24,0.04s-0.14,0.06-0.28,0c0.11,0.32,0.15,0.57,0.11,0.77c-0.04,0.2-0.11,0.38-0.19,0.54
				s-0.16,0.33-0.21,0.52c-0.06,0.19-0.04,0.42,0.04,0.71c-0.09,0-0.15,0.02-0.19,0.06c-0.04,0.04-0.08,0.09-0.11,0.13
				s-0.06,0.09-0.11,0.13s-0.11,0.05-0.19,0.02c0.09,0.63,0.11,1.26,0.09,1.89c-0.03,0.63-0.05,1.27-0.06,1.91s-0.01,1.32,0.02,2.02
				s0.13,1.43,0.3,2.17c1.03-0.6,1.86-1.38,2.47-2.32c0.62-0.95,1.12-2.01,1.5-3.18c0.39-1.17,0.68-2.44,0.88-3.78
				c0.2-1.35,0.41-2.72,0.64-4.13c0.26-0.26,0.46-0.57,0.6-0.95c0.14-0.37,0.27-0.77,0.39-1.18c0.11-0.42,0.23-0.83,0.34-1.25
				c0.12-0.42,0.26-0.79,0.43-1.14c0.43,0.06,0.8,0.19,1.1,0.41s0.58,0.44,0.84,0.69c0.26,0.24,0.53,0.47,0.82,0.69
				c0.29,0.22,0.64,0.35,1.07,0.41c0.34,0.49,0.66,0.96,0.95,1.42c0.29,0.46,0.47,0.95,0.56,1.46c-0.14,0.23-0.25,0.49-0.32,0.77
				c-0.07,0.29-0.15,0.57-0.24,0.86s-0.2,0.55-0.34,0.79c-0.14,0.24-0.34,0.45-0.6,0.62c-0.09,0.75-0.19,1.43-0.32,2.04
				c-0.13,0.62-0.26,1.23-0.39,1.83c-0.13,0.6-0.24,1.23-0.32,1.87s-0.12,1.35-0.09,2.13c-0.23,0.66-0.47,1.36-0.73,2.11
				c-0.26,0.75-0.46,1.42-0.6,2.02c-0.46,0.37-0.82,0.82-1.08,1.33c-0.26,0.52-0.53,1.03-0.82,1.55c-0.12,0.12-0.19,0.14-0.21,0.09
				c-0.03-0.06-0.13-0.1-0.3-0.13c0.03,0.12,0.03,0.2,0,0.26c-0.03,0.06-0.06,0.11-0.11,0.15c-0.04,0.04-0.07,0.11-0.09,0.19
				c-0.01,0.09,0.01,0.2,0.06,0.34c-0.4,0.17-0.76,0.42-1.07,0.73c-0.32,0.32-0.65,0.6-1.01,0.86c-0.36,0.26-0.79,0.43-1.29,0.52
				s-1.15-0.01-1.96-0.3c-1.18-0.86-2.21-1.85-3.12-2.97C322.15,89.52,321.41,88.18,320.84,86.64z"/>
		</g>
		<g>
			<path fill="#765F3F" d="M354.76,94.55c-0.46,0.03-1.03,0.01-1.7-0.04c-0.67-0.06-1.3,0.04-1.87,0.3
				c-1.52-0.06-3.07-0.24-4.64-0.56c-1.58-0.32-3.02-0.7-4.34-1.16c-0.29-0.31-0.57-0.61-0.86-0.88s-0.67-0.47-1.16-0.58
				c-0.69-0.54-1.25-1.21-1.68-2s-0.77-1.63-1.03-2.51c-0.26-0.89-0.43-1.8-0.52-2.73c-0.09-0.93-0.11-1.83-0.09-2.69
				c0.43-1.29,1.04-2.4,1.83-3.33s1.6-1.86,2.43-2.77c0.37-0.17,0.65-0.35,0.84-0.54c0.19-0.19,0.39-0.36,0.6-0.52
				s0.43-0.32,0.64-0.47s0.41-0.35,0.58-0.58c0.6-0.14,1.13-0.35,1.57-0.62s0.88-0.56,1.31-0.86c0.43-0.3,0.87-0.58,1.33-0.84
				c0.46-0.26,0.99-0.46,1.59-0.6c0.23-0.26,0.5-0.47,0.82-0.62c0.31-0.16,0.64-0.32,0.97-0.47c0.33-0.16,0.64-0.32,0.95-0.49
				c0.3-0.17,0.54-0.4,0.71-0.69c0.14,0.23,0.34,0.31,0.6,0.24c0.26-0.07,0.5-0.15,0.73-0.24c0.14-0.03,0.26,0,0.37,0.09
				c0.1,0.09,0.19,0.17,0.28,0.26s0.16,0.14,0.24,0.15c0.07,0.01,0.14-0.05,0.19-0.19c0.14,0,0.19,0.07,0.13,0.21
				c-0.06,0.14-0.1,0.24-0.13,0.3c0.23-0.03,0.42,0.02,0.58,0.15s0.41,0.21,0.75,0.24c0.11,0.14,0.14,0.25,0.09,0.32
				c-0.06,0.07-0.09,0.19-0.09,0.37c0.86,0.26,1.4,0.67,1.63,1.22c0.23,0.56,0.24,1.14,0.04,1.74s-0.56,1.16-1.07,1.68
				s-1.08,0.86-1.68,1.03c-1.38,0.37-2.67,0.78-3.89,1.23s-2.21,1.1-2.99,1.96c-0.69,0.2-1.3,0.47-1.83,0.79
				c-0.53,0.33-1.03,0.7-1.5,1.12s-0.92,0.85-1.33,1.29c-0.42,0.45-0.85,0.88-1.31,1.31c0.03,0.4-0.04,0.71-0.19,0.92
				c-0.16,0.21-0.31,0.44-0.45,0.67c0.06,0.43,0.16,0.81,0.3,1.14c0.14,0.33,0.3,0.65,0.47,0.97c1.89,0.57,3.9,0.93,6.04,1.07
				c2.13,0.14,4.28,0.23,6.43,0.26c0.2,0.29,0.44,0.55,0.71,0.8s0.52,0.5,0.75,0.77c0.23,0.27,0.42,0.57,0.56,0.9
				c0.14,0.33,0.17,0.74,0.09,1.23c-0.4,0.43-0.85,0.82-1.33,1.18S355.25,94.17,354.76,94.55z"/>
		</g>
		<g>
			<path fill="#765F3F" d="M383.05,70.26c0.03,0.2,0.04,0.35,0.02,0.45s-0.03,0.19-0.04,0.28S383,71.17,383,71.27
				c0,0.1,0.03,0.25,0.09,0.45c-0.6,0.97-1.3,1.64-2.08,2c-0.79,0.36-1.64,0.62-2.56,0.77s-1.86,0.32-2.82,0.49
				c-0.96,0.17-1.91,0.54-2.86,1.12c-0.37-0.14-0.71-0.14-1.01,0c-0.3,0.14-0.74,0.19-1.31,0.13c-0.17,0.17-0.39,0.29-0.65,0.37
				s-0.52,0.15-0.77,0.24c0.11,0.26,0.16,0.52,0.15,0.79c-0.01,0.27,0.02,0.49,0.11,0.67c1,0.09,2.11,0.07,3.33-0.04
				c1.22-0.11,2.41-0.19,3.59-0.21c0.03,0.14,0.01,0.24-0.04,0.28c-0.06,0.04-0.07,0.12-0.04,0.24c0.2,0.14,0.4,0.32,0.6,0.54
				s0.4,0.42,0.6,0.62c0.2,0.2,0.41,0.37,0.62,0.49s0.47,0.18,0.75,0.15c0.11,0.23,0.19,0.48,0.24,0.75
				c0.04,0.27,0.01,0.55-0.11,0.84c-0.46,0.32-0.92,0.64-1.38,0.97c-0.46,0.33-0.94,0.62-1.44,0.88c-0.5,0.26-1.03,0.47-1.59,0.62
				c-0.56,0.16-1.18,0.22-1.87,0.19c-0.14,0-0.25,0-0.32,0s-0.17-0.04-0.28-0.13c-0.23,0.14-0.55,0.19-0.97,0.13
				c-0.42-0.06-0.74-0.01-0.97,0.13c-0.32-0.14-0.7-0.21-1.14-0.19c-0.45,0.02-0.84-0.04-1.18-0.15c-0.46,0.6-0.87,1.25-1.25,1.93
				c-0.37,0.69-0.7,1.42-0.99,2.19c0.97,0.14,1.78,0.2,2.43,0.17c0.65-0.03,1.25-0.08,1.83-0.15c0.57-0.07,1.16-0.14,1.76-0.21
				c0.6-0.07,1.36-0.09,2.28-0.06c0.57-0.31,1.25-0.52,2.04-0.62s1.51-0.26,2.17-0.49c0.23,0.09,0.43,0.24,0.6,0.45
				s0.34,0.42,0.5,0.6c0.16,0.19,0.32,0.35,0.49,0.49c0.17,0.14,0.39,0.2,0.64,0.17c0.11,0.12,0.19,0.25,0.24,0.41
				s0.08,0.31,0.11,0.45s0.08,0.26,0.15,0.37s0.19,0.14,0.37,0.11c-0.43,0.95-0.92,1.67-1.48,2.17c-0.56,0.5-1.2,0.88-1.91,1.14
				c-0.72,0.26-1.51,0.46-2.39,0.6c-0.88,0.14-1.84,0.32-2.9,0.52c-0.26,0.06-0.47,0.05-0.64-0.02c-0.17-0.07-0.37-0.11-0.6-0.11
				c-0.66,0.14-1.45,0.27-2.36,0.39c-0.92,0.11-1.85,0.16-2.79,0.13c-0.95-0.03-1.85-0.15-2.71-0.37c-0.86-0.21-1.56-0.59-2.11-1.14
				c-0.23-0.2-0.38-0.44-0.45-0.71c-0.07-0.27-0.27-0.48-0.58-0.62c-0.03-0.37-0.09-0.79-0.17-1.25c-0.09-0.46-0.17-0.94-0.26-1.44
				s-0.15-1-0.19-1.48s-0.02-0.93,0.06-1.33c0.09-0.43,0.26-0.82,0.54-1.16c0.27-0.34,0.37-0.72,0.28-1.12
				c0.14-0.03,0.23-0.11,0.26-0.24c0.03-0.13,0.14-0.18,0.34-0.15c0.17-0.52,0.36-1,0.56-1.46c0.2-0.46,0.41-0.9,0.62-1.33
				s0.43-0.87,0.64-1.31c0.21-0.44,0.42-0.94,0.62-1.48c-0.4-0.37-0.7-0.78-0.88-1.23c-0.19-0.44-0.32-0.89-0.41-1.33
				c-0.09-0.44-0.16-0.9-0.21-1.38c-0.06-0.47-0.16-0.95-0.3-1.44c0.29-0.43,0.64-0.78,1.05-1.05c0.42-0.27,0.87-0.5,1.35-0.67
				c0.49-0.17,1.02-0.31,1.59-0.43c0.57-0.11,1.17-0.24,1.81-0.39c1.15-0.37,2.17-0.66,3.07-0.86c0.9-0.2,1.79-0.37,2.67-0.49
				c0.87-0.13,1.78-0.25,2.73-0.37c0.95-0.11,2.02-0.29,3.22-0.52c0.26,0.26,0.5,0.39,0.73,0.39c0.11-0.26,0.25-0.34,0.41-0.24
				c0.16,0.1,0.22,0.02,0.19-0.24c0.29,0.49,0.65,0.9,1.1,1.22C382.01,69.75,382.5,70.03,383.05,70.26z"/>
		</g>
	</g>
</g>
</svg>
